  0
SECTION
  2
HEADER
  9
$ACADVER
  1
AC1009
  9
$DWGCODEPAGE
  3
ansi_1252
  9
$INSBASE
 10
0.0
 20
0.0
 30
0.0
  9
$EXTMIN
 10
0.0
 20
0.0
 30
0.0
  9
$EXTMAX
 10
11.0
 20
8.5
 30
0.0
  9
$LIMMIN
 10
0.0
 20
0.0
  9
$LIMMAX
 10
11.0
 20
8.5
  9
$ORTHOMODE
 70
     0
  9
$REGENMODE
 70
     1
  9
$FILLMODE
 70
     1
  9
$QTEXTMODE
 70
     0
  9
$MIRRTEXT
 70
     1
  9
$DRAGMODE
 70
     2
  9
$LTSCALE
 40
1.0
  9
$OSMODE
 70
    37
  9
$ATTMODE
 70
     1
  9
$TEXTSIZE
 40
0.125
  9
$TRACEWID
 40
0.05
  9
$TEXTSTYLE
  7
STANDARD
  9
$CLAYER
  8
0
  9
$CELTYPE
  6
BYLAYER
  9
$CECOLOR
 62
   256
  9
$DIMSCALE
 40
1.0
  9
$DIMASZ
 40
0.13
  9
$DIMEXO
 40
0.05
  9
$DIMDLI
 40
0.38
  9
$DIMRND
 40
0.0
  9
$DIMDLE
 40
0.0
  9
$DIMEXE
 40
0.125
  9
$DIMTP
 40
0.0
  9
$DIMTM
 40
0.0
  9
$DIMTXT
 40
0.125
  9
$DIMCEN
 40
0.09
  9
$DIMTSZ
 40
0.0
  9
$DIMTOL
 70
     0
  9
$DIMLIM
 70
     0
  9
$DIMTIH
 70
     1
  9
$DIMTOH
 70
     1
  9
$DIMSE1
 70
     0
  9
$DIMSE2
 70
     0
  9
$DIMTAD
 70
     0
  9
$DIMZIN
 70
     0
  9
$DIMBLK
  1

  9
$DIMASO
 70
     1
  9
$DIMSHO
 70
     1
  9
$DIMPOST
  1

  9
$DIMAPOST
  1

  9
$DIMALT
 70
     0
  9
$DIMALTD
 70
     2
  9
$DIMALTF
 40
25.4
  9
$DIMLFAC
 40
1.0
  9
$DIMTOFL
 70
     0
  9
$DIMTVP
 40
0.0
  9
$DIMTIX
 70
     0
  9
$DIMSOXD
 70
     0
  9
$DIMSAH
 70
     0
  9
$DIMBLK1
  1

  9
$DIMBLK2
  1

  9
$DIMSTYLE
  2
STANDARD
  9
$DIMCLRD
 70
     0
  9
$DIMCLRE
 70
     0
  9
$DIMCLRT
 70
     0
  9
$DIMTFAC
 40
1.0
  9
$DIMGAP
 40
0.06
  9
$LUNITS
 70
     2
  9
$LUPREC
 70
     2
  9
$SKETCHINC
 40
0.1
  9
$FILLETRAD
 40
0.5
  9
$AUNITS
 70
     0
  9
$AUPREC
 70
     0
  9
$MENU
  1
.
  9
$ELEVATION
 40
0.0
  9
$PELEVATION
 40
0.0
  9
$THICKNESS
 40
0.0
  9
$LIMCHECK
 70
     0
  9
$CHAMFERA
 40
0.5
  9
$CHAMFERB
 40
0.5
  9
$SKPOLY
 70
     0
  9
$TDCREATE
 40
2455718.46608
  9
$TDUPDATE
 40
2455718.466080012
  9
$TDINDWG
 40
0.0000000116
  9
$TDUSRTIMER
 40
0.0000000116
  9
$USRTIMER
 70
     1
  9
$ANGBASE
 50
0.0
  9
$ANGDIR
 70
     0
  9
$PDMODE
 70
     0
  9
$PDSIZE
 40
-1.0
  9
$PLINEWID
 40
0.0
  9
$COORDS
 70
     1
  9
$SPLFRAME
 70
     0
  9
$SPLINETYPE
 70
     6
  9
$SPLINESEGS
 70
     8
  9
$ATTDIA
 70
     0
  9
$ATTREQ
 70
     1
  9
$HANDLING
 70
     1
  9
$HANDSEED
  5
47F
  9
$SURFTAB1
 70
     6
  9
$SURFTAB2
 70
     6
  9
$SURFTYPE
 70
     6
  9
$SURFU
 70
     6
  9
$SURFV
 70
     6
  9
$UCSNAME
  2

  9
$UCSORG
 10
0.0
 20
0.0
 30
0.0
  9
$UCSXDIR
 10
1.0
 20
0.0
 30
0.0
  9
$UCSYDIR
 10
0.0
 20
1.0
 30
0.0
  9
$PUCSNAME
  2

  9
$PUCSORG
 10
0.0
 20
0.0
 30
0.0
  9
$PUCSXDIR
 10
1.0
 20
0.0
 30
0.0
  9
$PUCSYDIR
 10
0.0
 20
1.0
 30
0.0
  9
$USERI1
 70
     0
  9
$USERI2
 70
     0
  9
$USERI3
 70
     0
  9
$USERI4
 70
     0
  9
$USERI5
 70
     0
  9
$USERR1
 40
0.0
  9
$USERR2
 40
0.0
  9
$USERR3
 40
0.0
  9
$USERR4
 40
0.0
  9
$USERR5
 40
0.0
  9
$WORLDVIEW
 70
     1
  9
$SHADEDGE
 70
     3
  9
$SHADEDIF
 70
    70
  9
$TILEMODE
 70
     1
  9
$MAXACTVP
 70
    64
  9
$PLIMCHECK
 70
     0
  9
$PEXTMIN
 10
1.0000000000E+20
 20
1.0000000000E+20
 30
1.0000000000E+20
  9
$PEXTMAX
 10
-1.0000000000E+20
 20
-1.0000000000E+20
 30
-1.0000000000E+20
  9
$PLIMMIN
 10
0.0
 20
0.0
  9
$PLIMMAX
 10
12.0
 20
9.0
  9
$UNITMODE
 70
     0
  9
$VISRETAIN
 70
     1
  9
$PLINEGEN
 70
     0
  9
$PSLTSCALE
 70
     1
  0
ENDSEC
  0
SECTION
  2
TABLES
  0
TABLE
  2
VPORT
 70
     1
  0
VPORT
  2
*ACTIVE
 70
     0
 10
0.0
 20
0.0
 11
1.0
 21
1.0
 12
5.5
 22
4.25
 13
0.0
 23
0.0
 14
0.5
 24
0.5
 15
0.5
 25
0.5
 16
0.0
 26
0.0
 36
1.0
 17
0.0
 27
0.0
 37
0.0
 40
8.5
 41
1.2941176471
 42
50.0
 43
0.0
 44
0.0
 50
0.0
 51
0.0
 71
     0
 72
  2000
 73
     1
 74
     3
 75
     0
 76
     0
 77
     0
 78
     0
  0
ENDTAB
  0
TABLE
  2
LTYPE
 70
     6
  0
LTYPE
  2
CONTINUOUS
 70
     0
  3
Solid line
 72
    65
 73
     0
 40
0.0
  0
LTYPE
  2
HIDDEN
 70
     0
  3
Hidden __ __ __ __ __ __ __ __ __ __ __ __ __ __
 72
    65
 73
     2
 40
0.075
 49
0.05
 49
-0.025
  0
LTYPE
  2
PHANTOM
 70
     0
  3
Phantom ______  __  __  ______  __  __  ______
 72
    65
 73
     6
 40
0.5
 49
0.25
 49
-0.05
 49
0.05
 49
-0.05
 49
0.05
 49
-0.05
  0
LTYPE
  2
CENTER
 70
     0
  3
Center ____ _ ____ _ ____ _ ____ _ ____ _ ____
 72
    65
 73
     4
 40
0.4
 49
0.25
 49
-0.05
 49
0.05
 49
-0.05
  0
LTYPE
  2
CENTERX2
 70
     0
  3
Center (2x) ________  __  ________  __  _____
 72
    65
 73
     4
 40
0.8
 49
0.5
 49
-0.1
 49
0.1
 49
-0.1
  0
LTYPE
  2
DOT2
 70
     0
  3
Dot (.5x) ........................................
 72
    65
 73
     2
 40
0.025
 49
0.0
 49
-0.025
  0
ENDTAB
  0
TABLE
  2
LAYER
 70
     2
  0
LAYER
  2
0
 70
     0
 62
     7
  6
CONTINUOUS
  0
LAYER
  2
FORMAT
 70
     0
 62
     7
  6
CONTINUOUS
  0
ENDTAB
  0
TABLE
  2
STYLE
 70
     1
  0
STYLE
  2
STANDARD
 70
     0
 40
0.0
 41
1.0
 50
0.0
 71
     0
 42
0.2
  3
txt
  4

  0
ENDTAB
  0
TABLE
  2
VIEW
 70
     0
  0
ENDTAB
  0
TABLE
  2
UCS
 70
     0
  0
ENDTAB
  0
TABLE
  2
APPID
 70
     1
  0
APPID
  2
ACAD
 70
     0
  0
ENDTAB
  0
TABLE
  2
DIMSTYLE
 70
     4
  0
DIMSTYLE
  2
STANDARD
 70
     0
  3

  4

  5

  6

  7

 40
1.0
 41
0.18
 42
0.0625
 43
0.38
 44
0.18
 45
0.0
 46
0.0
 47
0.0
 48
0.0
140
0.18
141
0.09
142
0.0
143
25.4
144
1.0
145
0.0
146
1.0
147
0.09
 71
     0
 72
     0
 73
     1
 74
     1
 75
     0
 76
     0
 77
     0
 78
     0
170
     0
171
     2
172
     0
173
     0
174
     0
175
     0
176
     0
177
     0
178
     0
  0
DIMSTYLE
  2
SLDDIMSTYLE0
 70
     0
  3

  4

  5

  6
NONE
  7
NONE
 40
1.0
 41
0.13
 42
0.0625
 43
0.38
 44
0.0
 45
0.0
 46
0.0
 47
0.0
 48
0.0
140
0.125
141
0.09
142
0.0
143
25.4
144
1.0
145
0.0
146
1.0
147
0.03125
 71
     0
 72
     0
 73
     1
 74
     1
 75
     0
 76
     0
 77
     0
 78
     4
170
     0
171
     2
172
     0
173
     1
174
     0
175
     0
176
     0
177
     0
178
     0
  0
DIMSTYLE
  2
SLDDIMSTYLE1
 70
     0
  3

  4

  5

  6
NONE
  7
NONE
 40
1.0
 41
0.13
 42
0.0625
 43
0.38
 44
0.0
 45
0.0
 46
0.0
 47
0.0
 48
0.0
140
0.125
141
0.09
142
0.0
143
25.4
144
1.0
145
0.0
146
1.0
147
0.03125
 71
     0
 72
     0
 73
     1
 74
     1
 75
     0
 76
     0
 77
     0
 78
    12
170
     0
171
     2
172
     0
173
     1
174
     0
175
     0
176
     0
177
     0
178
     0
  0
DIMSTYLE
  2
SLDDIMSTYLE2
 70
     0
  3

  4

  5

  6
NONE
  7
NONE
 40
1.0
 41
0.13
 42
0.0625
 43
0.38
 44
0.0
 45
0.0
 46
0.0
 47
0.0
 48
0.0
140
0.125
141
0.09
142
0.0
143
25.4
144
1.0
145
0.0
146
1.0
147
0.03125
 71
     0
 72
     0
 73
     1
 74
     1
 75
     0
 76
     0
 77
     0
 78
    12
170
     0
171
     2
172
     0
173
     1
174
     0
175
     0
176
     0
177
     0
178
     0
  0
ENDTAB
  0
ENDSEC
  0
SECTION
  2
BLOCKS
  0
BLOCK
  8
0
  2
$MODEL_SPACE
 70
     0
 10
0.0
 20
0.0
 30
0.0
  3
$MODEL_SPACE
  1

  0
ENDBLK
  5
21
  8
0
  0
BLOCK
 67
     1
  8
0
  2
$PAPER_SPACE
 70
     0
 10
0.0
 20
0.0
 30
0.0
  3
$PAPER_SPACE
  1

  0
ENDBLK
  5
1D
 67
     1
  8
0
  0
BLOCK
  8
0
  2
SW_NOTE_0
 70
     0
 10
0.0
 20
0.0
 30
0.0
  3
SW_NOTE_0
  1

  0
TEXT
  5
86
  8
0
  6
CONTINUOUS
 62
     0
 10
0.0
 20
0.0211956037
 30
0.0
 40
0.06
  1
INTERPRET GEOMETRIC
 41
0.7
 11
0.0
 21
0.0
 31
0.0
 73
     1
  0
TEXT
  5
87
  8
0
  6
CONTINUOUS
 62
     0
 10
0.0
 20
-0.0781744709
 30
0.0
 40
0.06
  1
TOLERANCING PER:
 41
0.7
 11
0.0
 21
-0.0993700746
 31
0.0
 73
     1
  0
ENDBLK
  5
85
  8
0
  0
BLOCK
  8
0
  2
SW_NOTE_1
 70
     0
 10
0.0
 20
0.0
 30
0.0
  3
SW_NOTE_1
  1

  0
TEXT
  5
8C
  8
0
  6
CONTINUOUS
 62
     0
 10
0.0
 20
0.022961904
 30
0.0
 40
0.065
  1
DIMENSIONS ARE IN INCHES
 41
0.65625
 11
0.0
 21
0.0
 31
0.0
 73
     1
  0
TEXT
  5
8D
  8
0
  6
CONTINUOUS
 62
     0
 10
0.0
 20
-0.0814081719
 30
0.0
 40
0.065
  1
TOLERANCES:
 41
0.7
 11
0.0
 21
-0.104370076
 31
0.0
 73
     1
  0
TEXT
  5
8E
  8
0
  6
CONTINUOUS
 62
     0
 10
0.0
 20
-0.1857782479
 30
0.0
 40
0.065
  1
FRACTIONAL
 41
0.7
 11
0.0
 21
-0.2087401519
 31
0.0
 73
     1
  0
TEXT
  5
8F
  8
0
  6
CONTINUOUS
 62
     0
 10
0.5175850508
 20
-0.1857782479
 30
0.0
 40
0.065
  1
%%p
 41
0.7
 11
0.5175850508
 21
-0.2087401519
 31
0.0
 73
     1
  0
TEXT
  5
90
  8
0
  6
CONTINUOUS
 62
     0
 10
0.0
 20
-0.2901483239
 30
0.0
 40
0.065
  1
ANGULAR: MACH
 41
0.7
 11
0.0
 21
-0.3131102279
 31
0.0
 73
     1
  0
TEXT
  5
91
  8
0
  6
CONTINUOUS
 62
     0
 10
0.7233732769
 20
-0.2901483239
 30
0.0
 40
0.065
  1
%%p
 41
0.7
 11
0.7233732769
 21
-0.3131102279
 31
0.0
 73
     1
  0
TEXT
  5
92
  8
0
  6
CONTINUOUS
 62
     0
 10
0.7852857683
 20
-0.2901483239
 30
0.0
 40
0.065
  1
     BEND 
 41
0.49
 11
0.7852857683
 21
-0.3131102279
 31
0.0
 73
     1
  0
TEXT
  5
93
  8
0
  6
CONTINUOUS
 62
     0
 10
1.1478412867
 20
-0.2901483239
 30
0.0
 40
0.065
  1
%%p
 41
0.7
 11
1.1478412867
 21
-0.3131102279
 31
0.0
 73
     1
  0
TEXT
  5
94
  8
0
  6
CONTINUOUS
 62
     0
 10
0.0
 20
-0.3945183999
 30
0.0
 40
0.065
  1
TWO PLACE DECIMAL    
 41
0.6
 11
0.0
 21
-0.4174803039
 31
0.0
 73
     1
  0
TEXT
  5
95
  8
0
  6
CONTINUOUS
 62
     0
 10
0.9794349188
 20
-0.3945183999
 30
0.0
 40
0.065
  1
%%p
 41
0.7
 11
0.9794349188
 21
-0.4174803039
 31
0.0
 73
     1
  0
TEXT
  5
96
  8
0
  6
CONTINUOUS
 62
     0
 10
0.0
 20
-0.4988884758
 30
0.0
 40
0.065
  1
THREE PLACE DECIMAL  
 41
0.6333333333
 11
0.0
 21
-0.5218503799
 31
0.0
 73
     1
  0
TEXT
  5
97
  8
0
  6
CONTINUOUS
 62
     0
 10
0.9738037905
 20
-0.4988884758
 30
0.0
 40
0.065
  1
%%p
 41
0.7
 11
0.9738037905
 21
-0.5218503799
 31
0.0
 73
     1
  0
ENDBLK
  5
8B
  8
0
  0
BLOCK
  8
0
  2
SW_NOTE_2
 70
     0
 10
0.0
 20
0.0
 30
0.0
  3
SW_NOTE_2
  1

  0
TEXT
  5
A0
  8
0
  6
CONTINUOUS
 62
     0
 10
0.0
 20
0.0211956037
 30
0.0
 40
0.06
  1
THE INFORMATION CONTAINED IN THIS
 41
0.6575757576
 11
0.0
 21
0.0
 31
0.0
 73
     1
  0
TEXT
  5
A1
  8
0
  6
CONTINUOUS
 62
     0
 10
0.0
 20
-0.0781744709
 30
0.0
 40
0.06
  1
DRAWING IS THE SOLE PROPERTY OF
 41
0.6435483871
 11
0.0
 21
-0.0993700746
 31
0.0
 73
     1
  0
TEXT
  5
A2
  8
0
  6
CONTINUOUS
 62
     0
 10
0.0
 20
-0.1775445454
 30
0.0
 40
0.06
  1
<INSERT COMPANY NAME HERE>.  ANY 
 41
0.6363636364
 11
0.0
 21
-0.1987401491
 31
0.0
 73
     1
  0
TEXT
  5
A3
  8
0
  6
CONTINUOUS
 62
     0
 10
0.0
 20
-0.27691462
 30
0.0
 40
0.06
  1
REPRODUCTION IN PART OR AS A WHOLE
 41
0.6382352941
 11
0.0
 21
-0.2981102237
 31
0.0
 73
     1
  0
TEXT
  5
A4
  8
0
  6
CONTINUOUS
 62
     0
 10
0.0
 20
-0.3762846946
 30
0.0
 40
0.06
  1
WITHOUT THE WRITTEN PERMISSION OF
 41
0.6575757576
 11
0.0
 21
-0.3974802983
 31
0.0
 73
     1
  0
TEXT
  5
A5
  8
0
  6
CONTINUOUS
 62
     0
 10
0.0
 20
-0.4756547691
 30
0.0
 40
0.06
  1
<INSERT COMPANY NAME HERE> IS 
 41
0.6416666667
 11
0.0
 21
-0.4968503728
 31
0.0
 73
     1
  0
TEXT
  5
A6
  8
0
  6
CONTINUOUS
 62
     0
 10
0.0
 20
-0.5750248437
 30
0.0
 40
0.06
  1
PROHIBITED.
 41
0.7
 11
0.0
 21
-0.5962204474
 31
0.0
 73
     1
  0
ENDBLK
  5
9F
  8
0
  0
BLOCK
  8
0
  2
_NONE
 70
     0
 10
0.0
 20
0.0
 30
0.0
  3
_NONE
  1

  0
ENDBLK
  5
2EF
  8
0
  0
BLOCK
  8
0
  2
*D5
 70
     1
 10
0.0
 20
0.0
 30
0.0
  3
*D5
  1

  0
LINE
  5
2F3
  8
0
  6
CONTINUOUS
 62
     7
 10
2.7096992371
 20
5.317653137
 30
0.0
 11
2.7096992371
 21
5.1208027433
 31
0.0
  0
LINE
  5
2F4
  8
0
  6
CONTINUOUS
 62
     7
 10
2.7096992371
 20
5.317653137
 30
0.0
 11
2.7096992371
 21
5.5145035307
 31
0.0
  0
LINE
  5
2F5
  8
0
  6
CONTINUOUS
 62
     7
 10
2.7096992371
 20
5.5145035307
 30
0.0
 11
2.7096992371
 21
5.5611941016
 31
0.0
  0
TEXT
  5
2F6
  8
0
  6
CONTINUOUS
 62
     7
 10
2.7647476648
 20
4.7351747943
 30
0.0
 40
0.125
  1
.000
 50
90.0
 41
0.7
 11
2.8089051726
 21
4.7351747943
 31
0.0
 73
     1
  0
ENDBLK
  5
2F2
  8
0
  0
BLOCK
  8
0
  2
*D6
 70
     1
 10
0.0
 20
0.0
 30
0.0
  3
*D6
  1

  0
LINE
  5
2FC
  8
0
  6
CONTINUOUS
 62
     7
 10
2.8778987668
 20
5.317653137
 30
0.0
 11
2.8778987668
 21
5.1208027433
 31
0.0
  0
LINE
  5
2FD
  8
0
  6
CONTINUOUS
 62
     7
 10
2.8778987668
 20
5.317653137
 30
0.0
 11
2.91727805
 21
5.5145035307
 31
0.0
  0
LINE
  5
2FE
  8
0
  6
CONTINUOUS
 62
     7
 10
2.91727805
 20
5.5145035307
 30
0.0
 11
2.91727805
 21
5.5934350465
 31
0.0
  0
TEXT
  5
2FF
  8
0
  6
CONTINUOUS
 62
     7
 10
2.9329471946
 20
4.7351747943
 30
0.0
 40
0.125
  1
.208
 50
90.0
 41
0.7
 11
2.9771047023
 21
4.7351747943
 31
0.0
 73
     1
  0
ENDBLK
  5
2FB
  8
0
  0
BLOCK
  8
0
  2
*D7
 70
     1
 10
0.0
 20
0.0
 30
0.0
  3
*D7
  1

  0
LINE
  5
304
  8
0
  6
CONTINUOUS
 62
     7
 10
3.0460982965
 20
5.317653137
 30
0.0
 11
3.0460982965
 21
5.1208027433
 31
0.0
  0
LINE
  5
305
  8
0
  6
CONTINUOUS
 62
     7
 10
3.0460982965
 20
5.317653137
 30
0.0
 11
3.1015284383
 21
5.5145035307
 31
0.0
  0
LINE
  5
306
  8
0
  6
CONTINUOUS
 62
     7
 10
3.1015284383
 20
5.5145035307
 30
0.0
 11
3.1015284383
 21
6.061181907
 31
0.0
  0
TEXT
  5
307
  8
0
  6
CONTINUOUS
 62
     7
 10
3.1011467243
 20
4.7351747943
 30
0.0
 40
0.125
  1
.392
 50
90.0
 41
0.7
 11
3.145304232
 21
4.7351747943
 31
0.0
 73
     1
  0
ENDBLK
  5
303
  8
0
  0
BLOCK
  8
0
  2
*D8
 70
     1
 10
0.0
 20
0.0
 30
0.0
  3
*D8
  1

  0
LINE
  5
30C
  8
0
  6
CONTINUOUS
 62
     7
 10
3.2142978262
 20
5.317653137
 30
0.0
 11
3.2142978262
 21
5.1208027433
 31
0.0
  0
LINE
  5
30D
  8
0
  6
CONTINUOUS
 62
     7
 10
3.2142978262
 20
5.317653137
 30
0.0
 11
3.2856984995
 21
5.5145035307
 31
0.0
  0
LINE
  5
30E
  8
0
  6
CONTINUOUS
 62
     7
 10
3.2856984995
 20
5.5145035307
 30
0.0
 11
3.2856984995
 21
6.4477657551
 31
0.0
  0
TEXT
  5
30F
  8
0
  6
CONTINUOUS
 62
     7
 10
3.269346254
 20
4.7351747943
 30
0.0
 40
0.125
  1
.576
 50
90.0
 41
0.7
 11
3.3135037617
 21
4.7351747943
 31
0.0
 73
     1
  0
ENDBLK
  5
30B
  8
0
  0
BLOCK
  8
0
  2
*D9
 70
     1
 10
0.0
 20
0.0
 30
0.0
  3
*D9
  1

  0
LINE
  5
314
  8
0
  6
CONTINUOUS
 62
     7
 10
3.5506968857
 20
5.317653137
 30
0.0
 11
3.5506968857
 21
5.1208027433
 31
0.0
  0
LINE
  5
315
  8
0
  6
CONTINUOUS
 62
     7
 10
3.5506968857
 20
5.317653137
 30
0.0
 11
3.4572976623
 21
5.5145035307
 31
0.0
  0
LINE
  5
316
  8
0
  6
CONTINUOUS
 62
     7
 10
3.4572976623
 20
5.5145035307
 30
0.0
 11
3.4572976623
 21
6.3690255976
 31
0.0
  0
TEXT
  5
317
  8
0
  6
CONTINUOUS
 62
     7
 10
3.6057453134
 20
4.7351747943
 30
0.0
 40
0.125
  1
.748
 50
90.0
 41
0.7
 11
3.6499028211
 21
4.7351747943
 31
0.0
 73
     1
  0
ENDBLK
  5
313
  8
0
  0
BLOCK
  8
0
  2
*D10
 70
     1
 10
0.0
 20
0.0
 30
0.0
  3
*D10
  1

  0
LINE
  5
31C
  8
0
  6
CONTINUOUS
 62
     7
 10
3.3824973559
 20
5.317653137
 30
0.0
 11
3.3824973559
 21
5.1208027433
 31
0.0
  0
LINE
  5
31D
  8
0
  6
CONTINUOUS
 62
     7
 10
3.3824973559
 20
5.317653137
 30
0.0
 11
3.3153193158
 21
5.5145035307
 31
0.0
  0
LINE
  5
31E
  8
0
  6
CONTINUOUS
 62
     7
 10
3.3153193158
 20
5.5145035307
 30
0.0
 11
3.3153193158
 21
5.7351673299
 31
0.0
  0
TEXT
  5
31F
  8
0
  6
CONTINUOUS
 62
     7
 10
3.4375457837
 20
4.7351747943
 30
0.0
 40
0.125
  1
.606
 50
90.0
 41
0.7
 11
3.4817032914
 21
4.7351747943
 31
0.0
 73
     1
  0
ENDBLK
  5
31B
  8
0
  0
BLOCK
  8
0
  2
*D11
 70
     1
 10
0.0
 20
0.0
 30
0.0
  3
*D11
  1

  0
LINE
  5
324
  8
0
  6
CONTINUOUS
 62
     7
 10
3.8603509096
 20
5.317653137
 30
0.0
 11
3.8603509096
 21
5.1208027433
 31
0.0
  0
LINE
  5
325
  8
0
  6
CONTINUOUS
 62
     7
 10
3.8603509096
 20
5.317653137
 30
0.0
 11
3.8645319143
 21
5.5145035307
 31
0.0
  0
LINE
  5
326
  8
0
  6
CONTINUOUS
 62
     7
 10
3.8645319143
 20
5.5145035307
 30
0.0
 11
3.8645319143
 21
6.5110039441
 31
0.0
  0
TEXT
  5
327
  8
0
  6
CONTINUOUS
 62
     7
 10
3.9153993374
 20
4.6426905543
 30
0.0
 40
0.125
  1
1.155
 50
90.0
 41
0.7
 11
3.9595568451
 21
4.6426905543
 31
0.0
 73
     1
  0
ENDBLK
  5
323
  8
0
  0
BLOCK
  8
0
  2
*D12
 70
     1
 10
0.0
 20
0.0
 30
0.0
  3
*D12
  1

  0
LINE
  5
32C
  8
0
  6
CONTINUOUS
 62
     7
 10
4.0266853598
 20
5.317653137
 30
0.0
 11
4.0266853598
 21
5.1208027433
 31
0.0
  0
LINE
  5
32D
  8
0
  6
CONTINUOUS
 62
     7
 10
4.0266853598
 20
5.317653137
 30
0.0
 11
4.0225043552
 21
5.5145035307
 31
0.0
  0
LINE
  5
32E
  8
0
  6
CONTINUOUS
 62
     7
 10
4.0225043552
 20
5.5145035307
 30
0.0
 11
4.0225043552
 21
6.5110039441
 31
0.0
  0
TEXT
  5
32F
  8
0
  6
CONTINUOUS
 62
     7
 10
4.0817337876
 20
4.6426905543
 30
0.0
 40
0.125
  1
1.313
 50
90.0
 41
0.7
 11
4.1258912953
 21
4.6426905543
 31
0.0
 73
     1
  0
ENDBLK
  5
32B
  8
0
  0
BLOCK
  8
0
  2
*D13
 70
     1
 10
0.0
 20
0.0
 30
0.0
  3
*D13
  1

  0
LINE
  5
334
  8
0
  6
CONTINUOUS
 62
     7
 10
5.8288548466
 20
5.317653137
 30
0.0
 11
5.8288548466
 21
5.1208027433
 31
0.0
  0
LINE
  5
335
  8
0
  6
CONTINUOUS
 62
     7
 10
5.8288548466
 20
5.317653137
 30
0.0
 11
5.8330358513
 21
5.5145035307
 31
0.0
  0
LINE
  5
336
  8
0
  6
CONTINUOUS
 62
     7
 10
5.8330358513
 20
5.5145035307
 30
0.0
 11
5.8330358513
 21
6.5110039441
 31
0.0
  0
TEXT
  5
337
  8
0
  6
CONTINUOUS
 62
     7
 10
5.8839032744
 20
4.6426905543
 30
0.0
 40
0.125
  1
3.123
 50
90.0
 41
0.7
 11
5.9280607821
 21
4.6426905543
 31
0.0
 73
     1
  0
ENDBLK
  5
333
  8
0
  0
BLOCK
  8
0
  2
*D14
 70
     1
 10
0.0
 20
0.0
 30
0.0
  3
*D14
  1

  0
LINE
  5
33C
  8
0
  6
CONTINUOUS
 62
     7
 10
5.9951892969
 20
5.317653137
 30
0.0
 11
5.9951892969
 21
5.1208027433
 31
0.0
  0
LINE
  5
33D
  8
0
  6
CONTINUOUS
 62
     7
 10
5.9951892969
 20
5.317653137
 30
0.0
 11
5.9910082922
 21
5.5145035307
 31
0.0
  0
LINE
  5
33E
  8
0
  6
CONTINUOUS
 62
     7
 10
5.9910082922
 20
5.5145035307
 30
0.0
 11
5.9910082922
 21
6.5110039441
 31
0.0
  0
TEXT
  5
33F
  8
0
  6
CONTINUOUS
 62
     7
 10
6.0502377246
 20
4.6426905543
 30
0.0
 40
0.125
  1
3.281
 50
90.0
 41
0.7
 11
6.0943952323
 21
4.6426905543
 31
0.0
 73
     1
  0
ENDBLK
  5
33B
  8
0
  0
BLOCK
  8
0
  2
*D15
 70
     1
 10
0.0
 20
0.0
 30
0.0
  3
*D15
  1

  0
LINE
  5
344
  8
0
  6
CONTINUOUS
 62
     7
 10
7.4630724896
 20
5.317653137
 30
0.0
 11
7.4630724896
 21
5.1208027433
 31
0.0
  0
LINE
  5
345
  8
0
  6
CONTINUOUS
 62
     7
 10
7.4630724896
 20
5.317653137
 30
0.0
 11
7.466894119
 21
5.5145035307
 31
0.0
  0
LINE
  5
346
  8
0
  6
CONTINUOUS
 62
     7
 10
7.466894119
 20
5.5145035307
 30
0.0
 11
7.466894119
 21
6.5110039441
 31
0.0
  0
TEXT
  5
347
  8
0
  6
CONTINUOUS
 62
     7
 10
7.5181209173
 20
4.6426905543
 30
0.0
 40
0.125
  1
4.757
 50
90.0
 41
0.7
 11
7.5622784251
 21
4.6426905543
 31
0.0
 73
     1
  0
ENDBLK
  5
343
  8
0
  0
BLOCK
  8
0
  2
*D16
 70
     1
 10
0.0
 20
0.0
 30
0.0
  3
*D16
  1

  0
LINE
  5
34C
  8
0
  6
CONTINUOUS
 62
     7
 10
7.6286881893
 20
5.317653137
 30
0.0
 11
7.6286881893
 21
5.1208027433
 31
0.0
  0
LINE
  5
34D
  8
0
  6
CONTINUOUS
 62
     7
 10
7.6286881893
 20
5.317653137
 30
0.0
 11
7.6248665599
 21
5.5145035307
 31
0.0
  0
LINE
  5
34E
  8
0
  6
CONTINUOUS
 62
     7
 10
7.6248665599
 20
5.5145035307
 30
0.0
 11
7.6248665599
 21
6.5110039441
 31
0.0
  0
TEXT
  5
34F
  8
0
  6
CONTINUOUS
 62
     7
 10
7.6837366171
 20
4.6426905543
 30
0.0
 40
0.125
  1
4.915
 50
90.0
 41
0.7
 11
7.7278941248
 21
4.6426905543
 31
0.0
 73
     1
  0
ENDBLK
  5
34B
  8
0
  0
BLOCK
  8
0
  2
*D17
 70
     1
 10
0.0
 20
0.0
 30
0.0
  3
*D17
  1

  0
LINE
  5
354
  8
0
  6
CONTINUOUS
 62
     7
 10
8.0321008119
 20
6.3690255976
 30
0.0
 11
8.0321008119
 21
5.1208027433
 31
0.0
  0
TEXT
  5
355
  8
0
  6
CONTINUOUS
 62
     7
 10
8.0871492396
 20
4.6426905543
 30
0.0
 40
0.125
  1
5.322
 50
90.0
 41
0.7
 11
8.1313067474
 21
4.6426905543
 31
0.0
 73
     1
  0
ENDBLK
  5
353
  8
0
  0
BLOCK
  8
0
  2
*D18
 70
     1
 10
0.0
 20
0.0
 30
0.0
  3
*D18
  1

  0
LINE
  5
35A
  8
0
  6
CONTINUOUS
 62
     7
 10
8.2036999747
 20
6.4477657551
 30
0.0
 11
8.2036999747
 21
5.1208027433
 31
0.0
  0
TEXT
  5
35B
  8
0
  6
CONTINUOUS
 62
     7
 10
8.2587484024
 20
4.6426905543
 30
0.0
 40
0.125
  1
5.494
 50
90.0
 41
0.7
 11
8.3029059102
 21
4.6426905543
 31
0.0
 73
     1
  0
ENDBLK
  5
359
  8
0
  0
BLOCK
  8
0
  2
*D19
 70
     1
 10
0.0
 20
0.0
 30
0.0
  3
*D19
  1

  0
LINE
  5
361
  8
0
  6
CONTINUOUS
 62
     7
 10
8.5721204242
 20
5.5931889835
 30
0.0
 11
8.5721204242
 21
5.1208027433
 31
0.0
  0
TEXT
  5
362
  8
0
  6
CONTINUOUS
 62
     7
 10
8.627168852
 20
4.6426905543
 30
0.0
 40
0.125
  1
5.862
 50
90.0
 41
0.7
 11
8.6713263597
 21
4.6426905543
 31
0.0
 73
     1
  0
ENDBLK
  5
360
  8
0
  0
BLOCK
  8
0
  2
*D20
 70
     1
 10
0.0
 20
0.0
 30
0.0
  3
*D20
  1

  0
LINE
  5
367
  8
0
  6
CONTINUOUS
 62
     7
 10
2.058342949
 20
5.5806889835
 30
0.0
 11
1.8614925553
 21
5.5806889835
 31
0.0
  0
LINE
  5
368
  8
0
  6
CONTINUOUS
 62
     7
 10
2.058342949
 20
5.5806889835
 30
0.0
 11
2.2551933427
 21
5.5806889835
 31
0.0
  0
LINE
  5
369
  8
0
  6
CONTINUOUS
 62
     7
 10
2.2551933427
 20
5.5806889835
 30
0.0
 11
2.80477805
 21
5.5806889835
 31
0.0
  0
TEXT
  5
36A
  8
0
  6
CONTINUOUS
 62
     7
 10
1.4758646063
 20
5.5256405557
 30
0.0
 40
0.125
  1
.000
 50
0.0
 41
0.7
 11
1.4758646063
 21
5.481483048
 31
0.0
 73
     1
  0
ENDBLK
  5
366
  8
0
  0
BLOCK
  8
0
  2
*D21
 70
     1
 10
0.0
 20
0.0
 30
0.0
  3
*D21
  1

  0
LINE
  5
36F
  8
0
  6
CONTINUOUS
 62
     7
 10
2.058342949
 20
5.7466127057
 30
0.0
 11
1.8614925553
 21
5.7466127057
 31
0.0
  0
LINE
  5
370
  8
0
  6
CONTINUOUS
 62
     7
 10
2.058342949
 20
5.7466127057
 30
0.0
 11
2.2551933427
 21
5.6431889835
 31
0.0
  0
LINE
  5
371
  8
0
  6
CONTINUOUS
 62
     7
 10
2.2551933427
 20
5.6431889835
 30
0.0
 11
2.86727805
 21
5.6431889835
 31
0.0
  0
TEXT
  5
372
  8
0
  6
CONTINUOUS
 62
     7
 10
1.4758646063
 20
5.691564278
 30
0.0
 40
0.125
  1
.063
 50
0.0
 41
0.7
 11
1.4758646063
 21
5.6474067702
 31
0.0
 73
     1
  0
ENDBLK
  5
36E
  8
0
  0
BLOCK
  8
0
  2
*D22
 70
     1
 10
0.0
 20
0.0
 30
0.0
  3
*D22
  1

  0
LINE
  5
377
  8
0
  6
CONTINUOUS
 62
     7
 10
2.058342949
 20
6.0039175795
 30
0.0
 11
1.8614925553
 21
6.0039175795
 31
0.0
  0
LINE
  5
378
  8
0
  6
CONTINUOUS
 62
     7
 10
2.058342949
 20
6.0039175795
 30
0.0
 11
2.2551933427
 21
6.111181907
 31
0.0
  0
LINE
  5
379
  8
0
  6
CONTINUOUS
 62
     7
 10
2.2551933427
 20
6.111181907
 30
0.0
 11
3.0515284383
 21
6.111181907
 31
0.0
  0
TEXT
  5
37A
  8
0
  6
CONTINUOUS
 62
     7
 10
1.4758646063
 20
5.9488691518
 30
0.0
 40
0.125
  1
.530
 50
0.0
 41
0.7
 11
1.4758646063
 21
5.904711644
 31
0.0
 73
     1
  0
ENDBLK
  5
376
  8
0
  0
BLOCK
  8
0
  2
*D23
 70
     1
 10
0.0
 20
0.0
 30
0.0
  3
*D23
  1

  0
LINE
  5
37F
  8
0
  6
CONTINUOUS
 62
     7
 10
2.058342949
 20
6.1712403518
 30
0.0
 11
1.8614925553
 21
6.1712403518
 31
0.0
  0
LINE
  5
380
  8
0
  6
CONTINUOUS
 62
     7
 10
2.058342949
 20
6.1712403518
 30
0.0
 11
2.2551933427
 21
6.4190255976
 31
0.0
  0
LINE
  5
381
  8
0
  6
CONTINUOUS
 62
     7
 10
2.2551933427
 20
6.4190255976
 30
0.0
 11
3.4072976623
 21
6.4190255976
 31
0.0
  0
TEXT
  5
382
  8
0
  6
CONTINUOUS
 62
     7
 10
1.4758646063
 20
6.116191924
 30
0.0
 40
0.125
  1
.838
 50
0.0
 41
0.7
 11
1.4758646063
 21
6.0720344163
 31
0.0
 73
     1
  0
ENDBLK
  5
37E
  8
0
  0
BLOCK
  8
0
  2
*D24
 70
     1
 10
0.0
 20
0.0
 30
0.0
  3
*D24
  1

  0
LINE
  5
387
  8
0
  6
CONTINUOUS
 62
     7
 10
2.058342949
 20
6.338563124
 30
0.0
 11
1.8614925553
 21
6.338563124
 31
0.0
  0
LINE
  5
388
  8
0
  6
CONTINUOUS
 62
     7
 10
2.058342949
 20
6.338563124
 30
0.0
 11
2.2551933427
 21
6.4977657551
 31
0.0
  0
LINE
  5
389
  8
0
  6
CONTINUOUS
 62
     7
 10
2.2551933427
 20
6.4977657551
 30
0.0
 11
3.2356984995
 21
6.4977657551
 31
0.0
  0
TEXT
  5
38A
  8
0
  6
CONTINUOUS
 62
     7
 10
1.4758646063
 20
6.2835146963
 30
0.0
 40
0.125
  1
.917
 50
0.0
 41
0.7
 11
1.4758646063
 21
6.2393571885
 31
0.0
 73
     1
  0
ENDBLK
  5
386
  8
0
  0
BLOCK
  8
0
  2
*D25
 70
     1
 10
0.0
 20
0.0
 30
0.0
  3
*D25
  1

  0
LINE
  5
38F
  8
0
  6
CONTINUOUS
 62
     7
 10
2.058342949
 20
6.5058858963
 30
0.0
 11
1.8614925553
 21
6.5058858963
 31
0.0
  0
LINE
  5
390
  8
0
  6
CONTINUOUS
 62
     7
 10
2.058342949
 20
6.5058858963
 30
0.0
 11
2.2551933427
 21
6.5610039441
 31
0.0
  0
LINE
  5
391
  8
0
  6
CONTINUOUS
 62
     7
 10
2.2551933427
 20
6.5610039441
 30
0.0
 11
3.4072976623
 21
6.5610039441
 31
0.0
  0
TEXT
  5
392
  8
0
  6
CONTINUOUS
 62
     7
 10
1.4758646063
 20
6.4508374685
 30
0.0
 40
0.125
  1
.980
 50
0.0
 41
0.7
 11
1.4758646063
 21
6.4066799608
 31
0.0
 73
     1
  0
ENDBLK
  5
38E
  8
0
  0
BLOCK
  8
0
  2
*D26
 70
     1
 10
0.0
 20
0.0
 30
0.0
  3
*D26
  1

  0
LINE
  5
397
  8
0
  6
CONTINUOUS
 62
     7
 10
3.8145319143
 20
6.6732086685
 30
0.0
 11
1.8614925553
 21
6.6732086685
 31
0.0
  0
TEXT
  5
398
  8
0
  6
CONTINUOUS
 62
     7
 10
1.3833803663
 20
6.6181602408
 30
0.0
 40
0.125
  1
1.093
 50
0.0
 41
0.7
 11
1.3833803663
 21
6.574002733
 31
0.0
 73
     1
  0
ENDBLK
  5
396
  8
0
  0
ENDSEC
  0
SECTION
  2
ENTITIES
  0
LINE
  5
41
  8
0
  6
CONTINUOUS
 62
     7
 10
0.329927
 20
8.1920731707
 30
0.0
 11
10.629927
 21
8.1920731707
 31
0.0
  0
LINE
  5
42
  8
0
  6
CONTINUOUS
 62
     7
 10
0.329927
 20
8.1920731707
 30
0.0
 11
0.329927
 21
0.3920731707
 31
0.0
  0
LINE
  5
43
  8
0
  6
CONTINUOUS
 62
     7
 10
10.629927
 20
0.3920731707
 30
0.0
 11
0.329927
 21
0.3920731707
 31
0.0
  0
LINE
  5
44
  8
0
  6
CONTINUOUS
 62
     7
 10
10.629927
 20
0.3920731707
 30
0.0
 11
10.629927
 21
8.1920731707
 31
0.0
  0
LINE
  5
45
  8
0
  6
CONTINUOUS
 62
     7
 10
4.7981841288
 20
0.3920731707
 30
0.0
 11
4.7981841288
 21
2.3564211366
 31
0.0
  0
LINE
  5
46
  8
0
  6
CONTINUOUS
 62
     7
 10
2.8210345579
 20
2.3564211366
 30
0.0
 11
10.629927
 21
2.3564211366
 31
0.0
  0
LINE
  5
47
  8
0
  6
CONTINUOUS
 62
     7
 10
6.1796352514
 20
2.3564211366
 30
0.0
 11
6.1796352514
 21
0.3920731707
 31
0.0
  0
LINE
  5
48
  8
0
  6
CONTINUOUS
 62
     7
 10
7.8712070044
 20
2.3564211366
 30
0.0
 11
7.8712070044
 21
0.3920731707
 31
0.0
  0
LINE
  5
49
  8
0
  6
CONTINUOUS
 62
     7
 10
7.8712070044
 20
0.6049590101
 30
0.0
 11
10.629927
 21
0.6049590101
 31
0.0
  0
LINE
  5
4A
  8
0
  6
CONTINUOUS
 62
     7
 10
7.8712070044
 20
1.1119362457
 30
0.0
 11
10.629927
 21
1.1119362457
 31
0.0
  0
LINE
  5
4B
  8
0
  6
CONTINUOUS
 62
     7
 10
7.8712070044
 20
1.9892703708
 30
0.0
 11
10.629927
 21
1.9892703708
 31
0.0
  0
LINE
  5
4C
  8
0
  6
CONTINUOUS
 62
     7
 10
8.266751752
 20
1.1119362457
 30
0.0
 11
8.266751752
 21
0.6049590101
 31
0.0
  0
LINE
  5
4D
  8
0
  6
CONTINUOUS
 62
     7
 10
8.6943435176
 20
0.6049590101
 30
0.0
 11
8.6943435176
 21
0.3920731707
 31
0.0
  0
LINE
  5
4E
  8
0
  6
CONTINUOUS
 62
     7
 10
10.0579917045
 20
1.1119362457
 30
0.0
 11
10.0579917045
 21
0.6049590101
 31
0.0
  0
LINE
  5
4F
  8
0
  6
CONTINUOUS
 62
     7
 10
9.6662556631
 20
0.6049590101
 30
0.0
 11
9.6662556631
 21
0.3920731707
 31
0.0
  0
LINE
  5
50
  8
0
  6
CONTINUOUS
 62
     7
 10
2.8210345579
 20
0.5883479999
 30
0.0
 11
6.1796352514
 21
0.5883479999
 31
0.0
  0
LINE
  5
51
  8
0
  6
CONTINUOUS
 62
     7
 10
6.1796352514
 20
1.7939211366
 30
0.0
 11
7.8712070044
 21
1.7939211366
 31
0.0
  0
LINE
  5
52
  8
0
  6
CONTINUOUS
 62
     7
 10
6.1796352514
 20
1.9814211366
 30
0.0
 11
7.8712070044
 21
1.9814211366
 31
0.0
  0
LINE
  5
53
  8
0
  6
CONTINUOUS
 62
     7
 10
6.1796352514
 20
2.1689211366
 30
0.0
 11
7.8712070044
 21
2.1689211366
 31
0.0
  0
LINE
  5
54
  8
0
  6
CONTINUOUS
 62
     7
 10
7.8712070044
 20
1.2314211366
 30
0.0
 11
6.1796352514
 21
1.2314211366
 31
0.0
  0
LINE
  5
55
  8
0
  6
CONTINUOUS
 62
     7
 10
7.3921580388
 20
2.3564211366
 30
0.0
 11
7.3921580388
 21
1.2314211366
 31
0.0
  0
LINE
  5
56
  8
0
  6
CONTINUOUS
 62
     7
 10
6.9236308342
 20
2.3564211366
 30
0.0
 11
6.9236308342
 21
1.2314211366
 31
0.0
  0
LINE
  5
57
  8
0
  6
CONTINUOUS
 62
     7
 10
4.7981841288
 20
0.8557965305
 30
0.0
 11
6.1796352514
 21
0.8557965305
 31
0.0
  0
LINE
  5
58
  8
0
  6
CONTINUOUS
 62
     7
 10
4.7981841288
 20
1.1257965305
 30
0.0
 11
6.1796352514
 21
1.1257965305
 31
0.0
  0
LINE
  5
59
  8
0
  6
CONTINUOUS
 62
     7
 10
2.8210345579
 20
0.3920731707
 30
0.0
 11
2.8210345579
 21
2.3564211366
 31
0.0
  0
LINE
  5
5A
  8
0
  6
CONTINUOUS
 62
     7
 10
2.8210345579
 20
1.1064211366
 30
0.0
 11
4.7981841288
 21
1.1064211366
 31
0.0
  0
LINE
  5
5B
  8
0
  6
CONTINUOUS
 62
     7
 10
2.8210345579
 20
1.3564211366
 30
0.0
 11
4.7981841288
 21
1.3564211366
 31
0.0
  0
LINE
  5
5C
  8
0
  6
CONTINUOUS
 62
     7
 10
2.8210345579
 20
1.6064211366
 30
0.0
 11
4.7981841288
 21
1.6064211366
 31
0.0
  0
LINE
  5
5D
  8
0
  6
CONTINUOUS
 62
     7
 10
2.8210345579
 20
1.8564211366
 30
0.0
 11
4.7981841288
 21
1.8564211366
 31
0.0
  0
LINE
  5
5E
  8
0
  6
CONTINUOUS
 62
     7
 10
3.8190146875
 20
2.3564211366
 30
0.0
 11
3.8190146875
 21
0.5883479999
 31
0.0
  0
LINE
  5
5F
  8
0
  6
CONTINUOUS
 62
     7
 10
6.1796352514
 20
2.2020813496
 30
0.0
 11
4.7981841288
 21
2.2020813496
 31
0.0
  0
LINE
  5
60
  8
0
  6
CONTINUOUS
 62
     7
 10
7.8712070044
 20
1.6064211366
 30
0.0
 11
6.1796352514
 21
1.6064211366
 31
0.0
  0
LINE
  5
61
  8
0
  6
CONTINUOUS
 62
     7
 10
7.8712070044
 20
1.4189211366
 30
0.0
 11
6.1796352514
 21
1.4189211366
 31
0.0
  0
LINE
  5
62
  8
0
  6
CONTINUOUS
 62
     7
 10
2.8210345579
 20
2.1064211366
 30
0.0
 11
4.7981841288
 21
2.1064211366
 31
0.0
  0
LINE
  5
63
  8
0
  6
CONTINUOUS
 62
     7
 10
4.7981841288
 20
1.3957965305
 30
0.0
 11
6.1796352514
 21
1.3957965305
 31
0.0
  0
LINE
  5
64
  8
0
  6
CONTINUOUS
 62
     7
 10
2.8210345579
 20
0.8564211366
 30
0.0
 11
4.7981841288
 21
0.8564211366
 31
0.0
  0
LINE
  5
65
  8
0
  6
CONTINUOUS
 62
     7
 10
1.1838252943
 20
0.3920731707
 30
0.0
 11
1.1838252943
 21
1.3064211366
 31
0.0
  0
LINE
  5
66
  8
0
  6
CONTINUOUS
 62
     7
 10
2.8210345579
 20
1.3064211366
 30
0.0
 11
1.1838252943
 21
1.3064211366
 31
0.0
  0
LINE
  5
67
  8
0
  6
CONTINUOUS
 62
     7
 10
8.660927
 20
0.3920731707
 30
0.0
 11
8.660927
 21
0.3072739649
 31
0.0
  0
LINE
  5
68
  8
0
  6
CONTINUOUS
 62
     7
 10
6.692177
 20
0.3920731707
 30
0.0
 11
6.692177
 21
0.3072739649
 31
0.0
  0
LINE
  5
69
  8
0
  6
CONTINUOUS
 62
     7
 10
4.723427
 20
0.3920731707
 30
0.0
 11
4.723427
 21
0.3072739649
 31
0.0
  0
LINE
  5
6A
  8
0
  6
CONTINUOUS
 62
     7
 10
2.754677
 20
0.3920731707
 30
0.0
 11
2.754677
 21
0.3072739649
 31
0.0
  0
LINE
  5
6B
  8
0
  6
CONTINUOUS
 62
     7
 10
2.754677
 20
0.3920731707
 30
0.0
 11
2.7672319738
 21
0.3575
 31
0.0
  0
LINE
  5
6C
  8
0
  6
CONTINUOUS
 62
     7
 10
2.7672319738
 20
0.3575
 30
0.0
 11
2.7414258825
 21
0.3575
 31
0.0
  0
LINE
  5
6D
  8
0
  6
CONTINUOUS
 62
     7
 10
2.7414258825
 20
0.3575
 30
0.0
 11
2.754677
 21
0.3920731707
 31
0.0
  0
TEXT
  5
6E
  8
0
  6
CONTINUOUS
 62
     7
 10
4.9775846961
 20
0.4593572554
 30
0.0
 40
0.0625
  1
DO NOT SCALE DRAWING
 41
0.6475
 11
4.9775846961
 21
0.4372785015
 31
0.0
 73
     1
  0
TEXT
  5
6F
  8
0
  6
CONTINUOUS
 62
     7
 10
7.1269136951
 20
0.7161102224
 30
0.0
 40
0.25
  1
5810160005_HEADER_ASM
 41
0.7
 11
7.1269136951
 21
0.6277952069
 31
0.0
 73
     1
  0
TEXT
  5
70
  8
0
  6
CONTINUOUS
 62
     7
 10
9.7571278483
 20
0.4588431854
 30
0.0
 40
0.1
  1
SHEET 1 OF 1
 41
0.6125
 11
9.7571278483
 21
0.4235171792
 31
0.0
 73
     1
  0
TEXT
  5
71
  8
0
  6
CONTINUOUS
 62
     7
 10
4.8448077858
 20
2.2477888758
 30
0.0
 40
0.07
  1
UNLESS OTHERWISE SPECIFIED:
 41
0.6740740741
 11
4.8448077858
 21
2.2230606715
 31
0.0
 73
     1
  0
TEXT
  5
72
  8
0
  6
CONTINUOUS
 62
     7
 10
7.9586139647
 20
0.4585180201
 30
0.0
 40
0.1
  1
SCALE: 1:1
 41
0.7
 11
7.9586139647
 21
0.4231920139
 31
0.0
 73
     1
  0
TEXT
  5
73
  8
0
  6
CONTINUOUS
 62
     7
 10
8.7023691647
 20
0.4550955667
 30
0.0
 40
0.1
  1
WEIGHT: 
 41
0.7
 11
8.7023691647
 21
0.4197695605
 31
0.0
 73
     1
  0
TEXT
  5
74
  8
0
  6
CONTINUOUS
 62
     7
 10
10.2277580983
 20
0.9883855312
 30
0.0
 40
0.1
  1
REV
 41
0.7
 11
10.2277580983
 21
0.953059525
 31
0.0
 73
     1
  0
TEXT
  5
75
  8
0
  6
CONTINUOUS
 62
     7
 10
8.2984570898
 20
0.9922917615
 30
0.0
 40
0.1
  1
DWG.  NO.
 41
0.6222222222
 11
8.2984570898
 21
0.9569657553
 31
0.0
 73
     1
  0
TEXT
  5
76
  8
0
  6
CONTINUOUS
 62
     7
 10
7.9598482632
 20
0.710262162
 30
0.0
 40
0.25
  1
A
 41
0.7
 11
7.9598482632
 21
0.6219471465
 31
0.0
 73
     1
  0
TEXT
  5
77
  8
0
  6
CONTINUOUS
 62
     7
 10
7.9519581822
 20
0.9936905805
 30
0.0
 40
0.1
  1
SIZE
 41
0.7
 11
7.9519581822
 21
0.9583645743
 31
0.0
 73
     1
  0
TEXT
  5
78
  8
0
  6
CONTINUOUS
 62
     7
 10
7.9170704177
 20
1.861207345
 30
0.0
 40
0.1
  1
TITLE:
 41
0.7
 11
7.9170704177
 21
1.8258813388
 31
0.0
 73
     1
  0
TEXT
  5
79
  8
0
  6
CONTINUOUS
 62
     7
 10
7.0363774929
 20
2.2297886283
 30
0.0
 40
0.065
  1
NAME
 41
0.7
 11
7.0363774929
 21
2.2068267243
 31
0.0
 73
     1
  0
TEXT
  5
7A
  8
0
  6
CONTINUOUS
 62
     7
 10
7.5281510634
 20
2.2280524128
 30
0.0
 40
0.065
  1
DATE
 41
0.7
 11
7.5281510634
 21
2.2050905088
 31
0.0
 73
     1
  0
TEXT
  5
7B
  8
0
  6
CONTINUOUS
 62
     7
 10
6.2277147029
 20
1.1268638154
 30
0.0
 40
0.065
  1
COMMENTS:
 41
0.7
 11
6.2277147029
 21
1.1039019114
 31
0.0
 73
     1
  0
TEXT
  5
7C
  8
0
  6
CONTINUOUS
 62
     7
 10
6.2268411461
 20
1.2927826689
 30
0.0
 40
0.065
  1
Q.A.
 41
0.7
 11
6.2268411461
 21
1.2698207649
 31
0.0
 73
     1
  0
TEXT
  5
7D
  8
0
  6
CONTINUOUS
 62
     7
 10
6.2284654509
 20
1.4787053433
 30
0.0
 40
0.065
  1
MFG APPR.
 41
0.7
 11
6.2284654509
 21
1.4557434393
 31
0.0
 73
     1
  0
TEXT
  5
7E
  8
0
  6
CONTINUOUS
 62
     7
 10
6.2235171344
 20
1.6659226795
 30
0.0
 40
0.065
  1
ENG APPR.
 41
0.7
 11
6.2235171344
 21
1.6429607754
 31
0.0
 73
     1
  0
TEXT
  5
7F
  8
0
  6
CONTINUOUS
 62
     7
 10
6.2264103951
 20
1.8484424097
 30
0.0
 40
0.065
  1
CHECKED
 41
0.7
 11
6.2264103951
 21
1.8254805057
 31
0.0
 73
     1
  0
TEXT
  5
80
  8
0
  6
CONTINUOUS
 62
     7
 10
6.2242794356
 20
2.0408026242
 30
0.0
 40
0.065
  1
DRAWN
 41
0.7
 11
6.2242794356
 21
2.0178407202
 31
0.0
 73
     1
  0
TEXT
  5
81
  8
0
  6
CONTINUOUS
 62
     7
 10
4.8208600979
 20
0.7783747743
 30
0.0
 40
0.06
  1
FINISH
 41
0.7
 11
4.8208600979
 21
0.7571791706
 31
0.0
 73
     1
  0
TEXT
  5
82
  8
0
  6
CONTINUOUS
 62
     7
 10
4.8181240648
 20
1.046673298
 30
0.0
 40
0.06
  1
MATERIAL
 41
0.7
 11
4.8181240648
 21
1.0254776943
 31
0.0
 73
     1
  0
INSERT
  5
88
  8
0
  6
CONTINUOUS
 62
     7
  2
SW_NOTE_0
 10
4.8231926633
 20
1.2646542947
 30
0.0
  0
INSERT
  5
98
  8
0
  6
CONTINUOUS
 62
     7
  2
SW_NOTE_1
 10
4.8353339353
 20
2.0049168724
 30
0.0
  0
TEXT
  5
99
  8
0
  6
CONTINUOUS
 62
     7
 10
3.5531400086
 20
0.4615212199
 30
0.0
 40
0.0625
  1
APPLICATION
 41
0.7
 11
3.5531400086
 21
0.439442466
 31
0.0
 73
     1
  0
TEXT
  5
9A
  8
0
  6
CONTINUOUS
 62
     7
 10
4.1005607758
 20
0.6917574477
 30
0.0
 40
0.0625
  1
USED ON
 41
0.7
 11
4.1005607758
 21
0.6696786938
 31
0.0
 73
     1
  0
TEXT
  5
9B
  8
0
  6
CONTINUOUS
 62
     7
 10
3.1040019536
 20
0.6907214985
 30
0.0
 40
0.0625
  1
NEXT ASSY
 41
0.7
 11
3.1040019536
 21
0.6686427446
 31
0.0
 73
     1
  0
TEXT
  5
9C
  8
0
  6
CONTINUOUS
 62
     7
 10
1.3712489489
 20
1.1935188078
 30
0.0
 40
0.06
  1
PROPRIETARY AND CONFIDENTIAL
 41
0.675
 11
1.3712489489
 21
1.1723232041
 31
0.0
 73
     1
  0
INSERT
  5
A7
  8
0
  6
CONTINUOUS
 62
     7
  2
SW_NOTE_2
 10
1.2226209074
 20
1.0313492921
 30
0.0
  0
TEXT
  5
A8
  8
0
  6
CONTINUOUS
 62
     7
 10
1.7387909509
 20
0.2228544549
 30
0.0
 40
0.09375
  1
5
 41
0.7
 11
1.7387909509
 21
0.1897363241
 31
0.0
 73
     1
  0
TEXT
  5
A9
  8
0
  6
CONTINUOUS
 62
     7
 10
3.723800327
 20
0.225991782
 30
0.0
 40
0.09375
  1
4
 41
0.7
 11
3.723800327
 21
0.1928736512
 31
0.0
 73
     1
  0
TEXT
  5
AA
  8
0
  6
CONTINUOUS
 62
     7
 10
5.6324457277
 20
0.2238872144
 30
0.0
 40
0.09375
  1
3
 41
0.7
 11
5.6324457277
 21
0.1907690836
 31
0.0
 73
     1
  0
TEXT
  5
AB
  8
0
  6
CONTINUOUS
 62
     7
 10
7.6059721724
 20
0.2247071653
 30
0.0
 40
0.09375
  1
2
 41
0.7
 11
7.6059721724
 21
0.1915890345
 31
0.0
 73
     1
  0
TEXT
  5
AC
  8
0
  6
CONTINUOUS
 62
     7
 10
9.6619921328
 20
0.2136400422
 30
0.0
 40
0.09375
  1
1
 41
0.7
 11
9.6619921328
 21
0.1805219114
 31
0.0
 73
     1
  0
ARC
  5
AD
  8
0
  6
CONTINUOUS
 62
     7
 10
3.4572976623
 20
6.4190255976
 30
0.0
 40
0.141978346456693
 50
90.0
 51
180.0
  0
ARC
  5
AE
  8
0
  6
CONTINUOUS
 62
     7
 10
3.4572976623
 20
5.7851673299
 30
0.0
 40
0.141978346456693
 50
180.0
 51
270.0
  0
ARC
  5
AF
  8
0
  6
CONTINUOUS
 62
     7
 10
8.0321008119
 20
5.7851673299
 30
0.0
 40
0.1419783464566917
 50
270.0
 51
0.0
  0
ARC
  5
B0
  8
0
  6
CONTINUOUS
 62
     7
 10
8.0321008119
 20
6.4190255976
 30
0.0
 40
0.1419783464566926
 50
0.0
 51
90.0
  0
ARC
  5
B1
  8
0
  6
CONTINUOUS
 62
     7
 10
3.2856984995
 20
6.4977657551
 30
0.0
 40
0.118110236220483
 50
90.0
 51
170.5376777919
  0
ARC
  5
B2
  8
0
  6
CONTINUOUS
 62
     7
 10
8.2036999747
 20
6.4977657551
 30
0.0
 40
0.1181102362205552
 50
9.4623222081
 51
90.0
  0
LINE
  5
B3
  8
0
  6
CONTINUOUS
 62
     7
 10
5.9910082922
 20
6.6732086685
 30
0.0
 11
5.9910082922
 21
6.5610039441
 31
0.0
  0
LINE
  5
B4
  8
0
  6
CONTINUOUS
 62
     7
 10
5.8330358513
 20
6.6732086685
 30
0.0
 11
5.9910082922
 21
6.6732086685
 31
0.0
  0
LINE
  5
B5
  8
0
  6
CONTINUOUS
 62
     7
 10
5.8330358513
 20
6.5610039441
 30
0.0
 11
5.8330358513
 21
6.6732086685
 31
0.0
  0
LINE
  5
B6
  8
0
  6
CONTINUOUS
 62
     7
 10
4.0225043552
 20
6.5610039441
 30
0.0
 11
5.8330358513
 21
6.5610039441
 31
0.0
  0
LINE
  5
B7
  8
0
  6
CONTINUOUS
 62
     7
 10
4.0225043552
 20
6.6732086685
 30
0.0
 11
4.0225043552
 21
6.5610039441
 31
0.0
  0
LINE
  5
B8
  8
0
  6
CONTINUOUS
 62
     7
 10
3.8645319143
 20
6.6732086685
 30
0.0
 11
4.0225043552
 21
6.6732086685
 31
0.0
  0
LINE
  5
B9
  8
0
  6
CONTINUOUS
 62
     7
 10
3.8645319143
 20
6.5610039441
 30
0.0
 11
3.8645319143
 21
6.6732086685
 31
0.0
  0
LINE
  5
BA
  8
0
  6
CONTINUOUS
 62
     7
 10
3.4572976623
 20
6.5610039441
 30
0.0
 11
3.8645319143
 21
6.5610039441
 31
0.0
  0
LINE
  5
BB
  8
0
  6
CONTINUOUS
 62
     7
 10
3.3153193158
 20
5.7851673299
 30
0.0
 11
3.3153193158
 21
6.4190255976
 31
0.0
  0
LINE
  5
BC
  8
0
  6
CONTINUOUS
 62
     7
 10
3.8020319143
 20
5.6431889835
 30
0.0
 11
3.4572976623
 21
5.6431889835
 31
0.0
  0
LINE
  5
BD
  8
0
  6
CONTINUOUS
 62
     7
 10
4.0850043552
 20
5.6431889835
 30
0.0
 11
3.8020319143
 21
5.6431889835
 31
0.0
  0
LINE
  5
BE
  8
0
  6
CONTINUOUS
 62
     7
 10
5.7705358513
 20
5.6431889835
 30
0.0
 11
4.0850043552
 21
5.6431889835
 31
0.0
  0
LINE
  5
BF
  8
0
  6
CONTINUOUS
 62
     7
 10
6.0535082922
 20
5.6431889835
 30
0.0
 11
5.7705358513
 21
5.6431889835
 31
0.0
  0
LINE
  5
C0
  8
0
  6
CONTINUOUS
 62
     7
 10
7.404394119
 20
5.6431889835
 30
0.0
 11
6.0535082922
 21
5.6431889835
 31
0.0
  0
LINE
  5
C1
  8
0
  6
CONTINUOUS
 62
     7
 10
7.6873665599
 20
5.6431889835
 30
0.0
 11
7.404394119
 21
5.6431889835
 31
0.0
  0
LINE
  5
C2
  8
0
  6
CONTINUOUS
 62
     7
 10
8.0321008119
 20
5.6431889835
 30
0.0
 11
7.6873665599
 21
5.6431889835
 31
0.0
  0
LINE
  5
C3
  8
0
  6
CONTINUOUS
 62
     7
 10
8.1740791583
 20
6.4190255976
 30
0.0
 11
8.1740791583
 21
5.7851673299
 31
0.0
  0
LINE
  5
C4
  8
0
  6
CONTINUOUS
 62
     7
 10
7.6248665599
 20
6.5610039441
 30
0.0
 11
8.0321008119
 21
6.5610039441
 31
0.0
  0
LINE
  5
C5
  8
0
  6
CONTINUOUS
 62
     7
 10
7.6248665599
 20
6.6732086685
 30
0.0
 11
7.6248665599
 21
6.5610039441
 31
0.0
  0
LINE
  5
C6
  8
0
  6
CONTINUOUS
 62
     7
 10
7.466894119
 20
6.6732086685
 30
0.0
 11
7.6248665599
 21
6.6732086685
 31
0.0
  0
LINE
  5
C7
  8
0
  6
CONTINUOUS
 62
     7
 10
7.466894119
 20
6.5610039441
 30
0.0
 11
7.466894119
 21
6.6732086685
 31
0.0
  0
LINE
  5
C8
  8
0
  6
CONTINUOUS
 62
     7
 10
5.9910082922
 20
6.5610039441
 30
0.0
 11
7.466894119
 21
6.5610039441
 31
0.0
  0
LINE
  5
C9
  8
0
  6
CONTINUOUS
 62
     7
 10
3.1691952801
 20
6.5171829583
 30
0.0
 11
3.1015284383
 21
6.111181907
 31
0.0
  0
LINE
  5
CA
  8
0
  6
CONTINUOUS
 62
     7
 10
3.1015284383
 20
6.111181907
 30
0.0
 11
2.91727805
 21
5.6434350465
 31
0.0
  0
LINE
  5
CB
  8
0
  6
CONTINUOUS
 62
     7
 10
2.91727805
 20
5.6434350465
 30
0.0
 11
2.91727805
 21
5.6431889835
 31
0.0
  0
LINE
  5
CC
  8
0
  6
CONTINUOUS
 62
     7
 10
2.91727805
 20
5.6431889835
 30
0.0
 11
8.5721204242
 21
5.6431889835
 31
0.0
  0
LINE
  5
CD
  8
0
  6
CONTINUOUS
 62
     7
 10
8.5721204242
 20
5.6431889835
 30
0.0
 11
8.5721204242
 21
5.6434350465
 31
0.0
  0
LINE
  5
CE
  8
0
  6
CONTINUOUS
 62
     7
 10
8.5721204242
 20
5.6434350465
 30
0.0
 11
8.3878700359
 21
6.111181907
 31
0.0
  0
LINE
  5
CF
  8
0
  6
CONTINUOUS
 62
     7
 10
8.3878700359
 20
6.111181907
 30
0.0
 11
8.320203194
 21
6.5171829583
 31
0.0
  0
LINE
  5
D0
  8
0
  6
CONTINUOUS
 62
     7
 10
8.2036999747
 20
6.6158759913
 30
0.0
 11
3.2856984995
 21
6.6158759913
 31
0.0
  0
LINE
  5
D1
  8
0
  6
CONTINUOUS
 62
     7
 10
2.1996994212
 20
5.8536941111
 30
0.0
 11
2.1996994212
 21
6.7936941554
 31
0.0
  0
LINE
  5
D2
  8
0
  6
CONTINUOUS
 62
     7
 10
2.3096993238
 20
6.7936941554
 30
0.0
 11
2.1996994212
 21
6.7936941554
 31
0.0
  0
LINE
  5
D3
  8
0
  6
CONTINUOUS
 62
     7
 10
2.3096993238
 20
6.6236940526
 30
0.0
 11
2.3096993238
 21
6.7936941554
 31
0.0
  0
LINE
  5
D4
  8
0
  6
CONTINUOUS
 62
     7
 10
2.209699039
 20
6.6236940526
 30
0.0
 11
2.3096993238
 21
6.6236940526
 31
0.0
  0
LINE
  5
D5
  8
0
  6
CONTINUOUS
 62
     7
 10
2.209699039
 20
5.9036941068
 30
0.0
 11
2.209699039
 21
6.6236940526
 31
0.0
  0
LINE
  5
D6
  8
0
  6
CONTINUOUS
 62
     7
 10
2.3096993238
 20
5.9036941068
 30
0.0
 11
2.209699039
 21
5.9036941068
 31
0.0
  0
LINE
  5
D7
  8
0
  6
CONTINUOUS
 62
     7
 10
2.3096993238
 20
5.8536941111
 30
0.0
 11
2.3096993238
 21
5.9036941068
 31
0.0
  0
LINE
  5
D8
  8
0
  6
CONTINUOUS
 62
     7
 10
2.3096993238
 20
5.8536941111
 30
0.0
 11
2.1996994212
 21
5.8536941111
 31
0.0
  0
ARC
  5
D9
  8
0
  6
CONTINUOUS
 62
     7
 10
2.3897078016
 20
5.9036923283
 30
0.0
 40
0.0800084777628746
 50
150.0020251968
 51
179.9987263925
  0
LINE
  5
DA
  8
0
  6
CONTINUOUS
 62
     7
 10
2.3204170133
 20
5.943694118
 30
0.0
 11
2.3796989952
 21
5.943694118
 31
0.0
  0
LINE
  5
DB
  8
0
  6
CONTINUOUS
 62
     7
 10
2.3796989952
 20
5.943694118
 30
0.0
 11
2.3796989952
 21
5.8536941111
 31
0.0
  0
LINE
  5
DC
  8
0
  6
CONTINUOUS
 62
     7
 10
2.3796989952
 20
5.8536941111
 30
0.0
 11
2.3096993238
 21
5.8536941111
 31
0.0
  0
LINE
  5
DD
  8
0
  6
CONTINUOUS
 62
     7
 10
9.109699238
 20
5.8536941111
 30
0.0
 11
9.109699238
 21
5.943694118
 31
0.0
  0
LINE
  5
DE
  8
0
  6
CONTINUOUS
 62
     7
 10
9.109699238
 20
5.943694118
 30
0.0
 11
9.1689812748
 21
5.943694118
 31
0.0
  0
ARC
  5
DF
  8
0
  6
CONTINUOUS
 62
     7
 10
9.0996989367
 20
5.9036940425
 30
0.0
 40
0.0800003026236925
 50
0.0000460743
 51
29.9999373721
  0
LINE
  5
E0
  8
0
  6
CONTINUOUS
 62
     7
 10
9.1796992393
 20
5.9036941068
 30
0.0
 11
9.1796992393
 21
5.8536941111
 31
0.0
  0
LINE
  5
E1
  8
0
  6
CONTINUOUS
 62
     7
 10
9.1796992393
 20
5.8536941111
 30
0.0
 11
9.109699238
 21
5.8536941111
 31
0.0
  0
LINE
  5
E2
  8
0
  6
CONTINUOUS
 62
     7
 10
9.1796992393
 20
6.6236940526
 30
0.0
 11
9.2796992354
 21
6.6236940526
 31
0.0
  0
LINE
  5
E3
  8
0
  6
CONTINUOUS
 62
     7
 10
9.1796992393
 20
6.7936941554
 30
0.0
 11
9.1796992393
 21
6.6236940526
 31
0.0
  0
LINE
  5
E4
  8
0
  6
CONTINUOUS
 62
     7
 10
9.2896992382
 20
6.7936941554
 30
0.0
 11
9.1796992393
 21
6.7936941554
 31
0.0
  0
LINE
  5
E5
  8
0
  6
CONTINUOUS
 62
     7
 10
9.2896992382
 20
5.8536941111
 30
0.0
 11
9.2896992382
 21
6.7936941554
 31
0.0
  0
LINE
  5
E6
  8
0
  6
CONTINUOUS
 62
     7
 10
9.2896992382
 20
5.8536941111
 30
0.0
 11
9.1796992393
 21
5.8536941111
 31
0.0
  0
LINE
  5
E7
  8
0
  6
CONTINUOUS
 62
     7
 10
9.2796992354
 20
5.9036941068
 30
0.0
 11
9.1796992393
 21
5.9036941068
 31
0.0
  0
LINE
  5
E8
  8
0
  6
CONTINUOUS
 62
     7
 10
9.2796992354
 20
6.6236940526
 30
0.0
 11
9.2796992354
 21
5.9036941068
 31
0.0
  0
LINE
  5
E9
  8
0
  6
CONTINUOUS
 62
     7
 10
2.3796989952
 20
6.7936941554
 30
0.0
 11
2.3796989952
 21
6.6236940526
 31
0.0
  0
LINE
  5
EA
  8
0
  6
CONTINUOUS
 62
     7
 10
2.3796989952
 20
6.6236940526
 30
0.0
 11
2.3096993238
 21
6.6236940526
 31
0.0
  0
LINE
  5
EB
  8
0
  6
CONTINUOUS
 62
     7
 10
2.3796989952
 20
6.7936941554
 30
0.0
 11
2.3096993238
 21
6.7936941554
 31
0.0
  0
LINE
  5
EC
  8
0
  6
CONTINUOUS
 62
     7
 10
9.1796992393
 20
6.6236940526
 30
0.0
 11
9.109699238
 21
6.6236940526
 31
0.0
  0
LINE
  5
ED
  8
0
  6
CONTINUOUS
 62
     7
 10
9.109699238
 20
6.6236940526
 30
0.0
 11
9.109699238
 21
6.7936941554
 31
0.0
  0
LINE
  5
EE
  8
0
  6
CONTINUOUS
 62
     7
 10
9.1796992393
 20
6.7936941554
 30
0.0
 11
9.109699238
 21
6.7936941554
 31
0.0
  0
LINE
  5
EF
  8
0
  6
CONTINUOUS
 62
     7
 10
2.209699039
 20
6.5836941147
 30
0.0
 11
2.2931308752
 21
6.5836941147
 31
0.0
  0
POLYLINE
  5
F0
  8
0
  6
CONTINUOUS
 62
     7
 66
     1
 10
0.0
 20
0.0
 30
0.0
  0
VERTEX
  5
39B
  8
0
  6
CONTINUOUS
 62
     7
 10
2.2931308752
 20
6.5836941147
 30
0.0
  0
VERTEX
  5
39C
  8
0
  6
CONTINUOUS
 62
     7
 10
2.2960078553
 20
6.584301821
 30
0.0
  0
VERTEX
  5
39D
  8
0
  6
CONTINUOUS
 62
     7
 10
2.2987974231
 20
6.5861063868
 30
0.0
  0
VERTEX
  5
39E
  8
0
  6
CONTINUOUS
 62
     7
 10
2.3014150995
 20
6.5890531061
 30
0.0
  0
VERTEX
  5
39F
  8
0
  6
CONTINUOUS
 62
     7
 10
2.3037805122
 20
6.5930522933
 30
0.0
  0
VERTEX
  5
3A0
  8
0
  6
CONTINUOUS
 62
     7
 10
2.3058226753
 20
6.5979826563
 30
0.0
  0
VERTEX
  5
3A1
  8
0
  6
CONTINUOUS
 62
     7
 10
2.3074794028
 20
6.6036940837
 30
0.0
  0
VERTEX
  5
3A2
  8
0
  6
CONTINUOUS
 62
     7
 10
2.308700242
 20
6.6100132907
 30
0.0
  0
VERTEX
  5
3A3
  8
0
  6
CONTINUOUS
 62
     7
 10
2.3094476467
 20
6.6167481462
 30
0.0
  0
VERTEX
  5
3A4
  8
0
  6
CONTINUOUS
 62
     7
 10
2.3096993238
 20
6.6236940526
 30
0.0
  0
SEQEND
  5
39A
  8
0
  6
CONTINUOUS
 62
     7
  0
ARC
  5
F1
  8
0
  6
CONTINUOUS
 62
     7
 10
2.3304923455
 20
6.6332829236
 30
0.0
 40
0.0501322333157681
 50
261.5561254447
 51
348.972999139
  0
LINE
  5
F2
  8
0
  6
CONTINUOUS
 62
     7
 10
2.2931308752
 20
6.5836941147
 30
0.0
 11
2.323130902
 21
6.5836941147
 31
0.0
  0
POLYLINE
  5
F3
  8
0
  6
CONTINUOUS
 62
     7
 66
     1
 10
0.0
 20
0.0
 30
0.0
  0
VERTEX
  5
3A6
  8
0
  6
CONTINUOUS
 62
     7
 10
9.1796992393
 20
6.6236940526
 30
0.0
  0
VERTEX
  5
3A7
  8
0
  6
CONTINUOUS
 62
     7
 10
9.1799509531
 20
6.6167481462
 30
0.0
  0
VERTEX
  5
3A8
  8
0
  6
CONTINUOUS
 62
     7
 10
9.1806984495
 20
6.6100132907
 30
0.0
  0
VERTEX
  5
3A9
  8
0
  6
CONTINUOUS
 62
     7
 10
9.1819190045
 20
6.6036940837
 30
0.0
  0
VERTEX
  5
3AA
  8
0
  6
CONTINUOUS
 62
     7
 10
9.1835755395
 20
6.5979826563
 30
0.0
  0
VERTEX
  5
3AB
  8
0
  6
CONTINUOUS
 62
     7
 10
9.1856177301
 20
6.5930522933
 30
0.0
  0
VERTEX
  5
3AC
  8
0
  6
CONTINUOUS
 62
     7
 10
9.1879835095
 20
6.5890531061
 30
0.0
  0
VERTEX
  5
3AD
  8
0
  6
CONTINUOUS
 62
     7
 10
9.1906010026
 20
6.5861063868
 30
0.0
  0
VERTEX
  5
3AE
  8
0
  6
CONTINUOUS
 62
     7
 10
9.1933906803
 20
6.584301821
 30
0.0
  0
VERTEX
  5
3AF
  8
0
  6
CONTINUOUS
 62
     7
 10
9.1962677796
 20
6.5836941147
 30
0.0
  0
SEQEND
  5
3A5
  8
0
  6
CONTINUOUS
 62
     7
  0
LINE
  5
F4
  8
0
  6
CONTINUOUS
 62
     7
 10
9.1662677712
 20
6.5836941147
 30
0.0
 11
9.1962677796
 21
6.5836941147
 31
0.0
  0
ARC
  5
F5
  8
0
  6
CONTINUOUS
 62
     7
 10
9.1594871808
 20
6.6341049164
 30
0.0
 40
0.050864774986076
 50
191.81060798
 51
277.6606876026
  0
LINE
  5
F6
  8
0
  6
CONTINUOUS
 62
     7
 10
9.1962677796
 20
6.5836941147
 30
0.0
 11
9.2796992354
 21
6.5836941147
 31
0.0
  0
LINE
  5
F7
  8
0
  6
CONTINUOUS
 62
     7
 10
9.3396992373
 20
5.8536941111
 30
0.0
 11
9.3396992373
 21
6.7936941554
 31
0.0
  0
LINE
  5
F8
  8
0
  6
CONTINUOUS
 62
     7
 10
9.3396992373
 20
6.7936941554
 30
0.0
 11
9.2896992382
 21
6.7936941554
 31
0.0
  0
LINE
  5
F9
  8
0
  6
CONTINUOUS
 62
     7
 10
9.3396992373
 20
5.8536941111
 30
0.0
 11
9.2896992382
 21
5.8536941111
 31
0.0
  0
LINE
  5
FA
  8
0
  6
CONTINUOUS
 62
     7
 10
2.1496989855
 20
5.8536941111
 30
0.0
 11
2.1496989855
 21
6.7936941554
 31
0.0
  0
LINE
  5
FB
  8
0
  6
CONTINUOUS
 62
     7
 10
2.1996994212
 20
6.7936941554
 30
0.0
 11
2.1496989855
 21
6.7936941554
 31
0.0
  0
LINE
  5
FC
  8
0
  6
CONTINUOUS
 62
     7
 10
2.1996994212
 20
5.8536941111
 30
0.0
 11
2.1496989855
 21
5.8536941111
 31
0.0
  0
ARC
  5
FD
  8
0
  6
CONTINUOUS
 62
     7
 10
9.2435552778
 20
5.989416924
 30
0.0
 40
0.0874748930018263
 50
183.751115641
 51
211.5132907024
  0
LINE
  5
FE
  8
0
  6
CONTINUOUS
 62
     7
 10
9.2796992354
 20
5.9836940926
 30
0.0
 11
9.1562677867
 21
5.9836940926
 31
0.0
  0
LINE
  5
FF
  8
0
  6
CONTINUOUS
 62
     7
 10
2.3331305198
 20
5.9836940926
 30
0.0
 11
2.209699039
 21
5.9836940926
 31
0.0
  0
ARC
  5
100
  8
0
  6
CONTINUOUS
 62
     7
 10
2.2458563579
 20
5.9894127216
 30
0.0
 40
0.0874613174271587
 50
328.4844857988
 51
356.251060156
  0
LINE
  5
101
  8
0
  6
CONTINUOUS
 62
     7
 10
2.3796989952
 20
5.9836940926
 30
0.0
 11
2.3331305198
 21
5.9836940926
 31
0.0
  0
LINE
  5
102
  8
0
  6
CONTINUOUS
 62
     7
 10
2.3796989952
 20
5.9836940926
 30
0.0
 11
2.3796989952
 21
5.943694118
 31
0.0
  0
LINE
  5
103
  8
0
  6
CONTINUOUS
 62
     7
 10
9.109699238
 20
5.943694118
 30
0.0
 11
9.109699238
 21
5.9836940926
 31
0.0
  0
LINE
  5
104
  8
0
  6
CONTINUOUS
 62
     7
 10
9.1562677867
 20
5.9836940926
 30
0.0
 11
9.109699238
 21
5.9836940926
 31
0.0
  0
LINE
  5
105
  8
0
  6
CONTINUOUS
 62
     7
 10
2.7096992897
 20
5.6111941024
 30
0.0
 11
2.7096992897
 21
5.7200940911
 31
0.0
  0
ARC
  5
106
  8
0
  6
CONTINUOUS
 62
     7
 10
2.7396992371
 20
5.6111941016
 30
0.0
 40
0.0300000000000016
 50
180.0
 51
270.0
  0
LINE
  5
107
  8
0
  6
CONTINUOUS
 62
     7
 10
2.8547779337
 20
5.581194094
 30
0.0
 11
2.7396993164
 21
5.581194094
 31
0.0
  0
LINE
  5
108
  8
0
  6
CONTINUOUS
 62
     7
 10
2.8547779337
 20
5.5806889798
 30
0.0
 11
2.8547779337
 21
5.581194094
 31
0.0
  0
LINE
  5
109
  8
0
  6
CONTINUOUS
 62
     7
 10
2.8547779337
 20
5.5806889798
 30
0.0
 11
8.6346203911
 21
5.5806889798
 31
0.0
  0
LINE
  5
10A
  8
0
  6
CONTINUOUS
 62
     7
 10
8.6346203911
 20
5.581194094
 30
0.0
 11
8.6346203911
 21
5.5806889798
 31
0.0
  0
LINE
  5
10B
  8
0
  6
CONTINUOUS
 62
     7
 10
8.7496992284
 20
5.581194094
 30
0.0
 11
8.6346203911
 21
5.581194094
 31
0.0
  0
ARC
  5
10C
  8
0
  6
CONTINUOUS
 62
     7
 10
8.7496992371
 20
5.6111941016
 30
0.0
 40
0.0300000000000011
 50
270.0
 51
0.0
  0
LINE
  5
10D
  8
0
  6
CONTINUOUS
 62
     7
 10
8.7796992552
 20
5.7200940911
 30
0.0
 11
8.7796992552
 21
5.6111941024
 31
0.0
  0
LINE
  5
10E
  8
0
  6
CONTINUOUS
 62
     7
 10
8.6090977526
 20
5.7200940911
 30
0.0
 11
8.7796992552
 21
5.7200940911
 31
0.0
  0
LINE
  5
10F
  8
0
  6
CONTINUOUS
 62
     7
 10
8.5933413147
 20
5.7600941023
 30
0.0
 11
8.6090977526
 21
5.7200940911
 31
0.0
  0
LINE
  5
110
  8
0
  6
CONTINUOUS
 62
     7
 10
8.7796992552
 20
5.7600941023
 30
0.0
 11
8.5933413147
 21
5.7600941023
 31
0.0
  0
LINE
  5
111
  8
0
  6
CONTINUOUS
 62
     7
 10
8.7796992552
 20
5.8989941177
 30
0.0
 11
8.7796992552
 21
5.7600941023
 31
0.0
  0
LINE
  5
112
  8
0
  6
CONTINUOUS
 62
     7
 10
8.53862714
 20
5.8989941177
 30
0.0
 11
8.7796992552
 21
5.8989941177
 31
0.0
  0
LINE
  5
113
  8
0
  6
CONTINUOUS
 62
     7
 10
8.5228707754
 20
5.9389940923
 30
0.0
 11
8.53862714
 21
5.8989941177
 31
0.0
  0
LINE
  5
114
  8
0
  6
CONTINUOUS
 62
     7
 10
8.7796992552
 20
5.9389940923
 30
0.0
 11
8.5228707754
 21
5.9389940923
 31
0.0
  0
LINE
  5
115
  8
0
  6
CONTINUOUS
 62
     7
 10
8.7796992552
 20
6.1619941129
 30
0.0
 11
8.7796992552
 21
5.9389940923
 31
0.0
  0
LINE
  5
116
  8
0
  6
CONTINUOUS
 62
     7
 10
8.4957827083
 20
6.1619941129
 30
0.0
 11
8.7796992552
 21
6.1619941129
 31
0.0
  0
LINE
  5
117
  8
0
  6
CONTINUOUS
 62
     7
 10
8.4957827083
 20
6.0077610813
 30
0.0
 11
8.4957827083
 21
6.1619941129
 31
0.0
  0
LINE
  5
118
  8
0
  6
CONTINUOUS
 62
     7
 10
8.4557826971
 20
6.1093069949
 30
0.0
 11
8.4957827083
 21
6.0077610813
 31
0.0
  0
LINE
  5
119
  8
0
  6
CONTINUOUS
 62
     7
 10
8.4557826971
 20
6.1619941129
 30
0.0
 11
8.4557826971
 21
6.1093069949
 31
0.0
  0
LINE
  5
11A
  8
0
  6
CONTINUOUS
 62
     7
 10
8.4427634675
 20
6.1619941129
 30
0.0
 11
8.4557826971
 21
6.1619941129
 31
0.0
  0
LINE
  5
11B
  8
0
  6
CONTINUOUS
 62
     7
 10
8.4360968112
 20
6.2019941241
 30
0.0
 11
8.4427634675
 21
6.1619941129
 31
0.0
  0
LINE
  5
11C
  8
0
  6
CONTINUOUS
 62
     7
 10
8.4557826971
 20
6.2019941241
 30
0.0
 11
8.4360968112
 21
6.2019941241
 31
0.0
  0
LINE
  5
11D
  8
0
  6
CONTINUOUS
 62
     7
 10
8.4557826971
 20
6.424994108
 30
0.0
 11
8.4557826971
 21
6.2019941241
 31
0.0
  0
LINE
  5
11E
  8
0
  6
CONTINUOUS
 62
     7
 10
8.3989301472
 20
6.424994108
 30
0.0
 11
8.4557826971
 21
6.424994108
 31
0.0
  0
LINE
  5
11F
  8
0
  6
CONTINUOUS
 62
     7
 10
8.3922634175
 20
6.4649941193
 30
0.0
 11
8.3989301472
 21
6.424994108
 31
0.0
  0
LINE
  5
120
  8
0
  6
CONTINUOUS
 62
     7
 10
8.4557826971
 20
6.4649941193
 30
0.0
 11
8.3922634175
 21
6.4649941193
 31
0.0
  0
LINE
  5
121
  8
0
  6
CONTINUOUS
 62
     7
 10
8.4557826971
 20
6.9057941538
 30
0.0
 11
8.4557826971
 21
6.4649941193
 31
0.0
  0
LINE
  5
122
  8
0
  6
CONTINUOUS
 62
     7
 10
8.1718662236
 20
6.9057941538
 30
0.0
 11
8.4557826971
 21
6.9057941538
 31
0.0
  0
LINE
  5
123
  8
0
  6
CONTINUOUS
 62
     7
 10
8.1718662236
 20
6.6783760343
 30
0.0
 11
8.1718662236
 21
6.9057941538
 31
0.0
  0
LINE
  5
124
  8
0
  6
CONTINUOUS
 62
     7
 10
8.1318662123
 20
6.6783760343
 30
0.0
 11
8.1718662236
 21
6.6783760343
 31
0.0
  0
LINE
  5
125
  8
0
  6
CONTINUOUS
 62
     7
 10
8.1318662123
 20
6.9057941538
 30
0.0
 11
8.1318662123
 21
6.6783760343
 31
0.0
  0
LINE
  5
126
  8
0
  6
CONTINUOUS
 62
     7
 10
7.6296994267
 20
6.9057941538
 30
0.0
 11
8.1318662123
 21
6.9057941538
 31
0.0
  0
LINE
  5
127
  8
0
  6
CONTINUOUS
 62
     7
 10
7.6296994267
 20
6.7355215474
 30
0.0
 11
7.6296994267
 21
6.9057941538
 31
0.0
  0
ARC
  5
128
  8
0
  6
CONTINUOUS
 62
     7
 10
7.6248665599
 20
6.6732086685
 30
0.0
 40
0.0625000000000007
 50
85.5651000297
 51
90.0
  0
LINE
  5
129
  8
0
  6
CONTINUOUS
 62
     7
 10
7.6248665226
 20
6.735708692
 30
0.0
 11
7.5896994888
 21
6.735708692
 31
0.0
  0
LINE
  5
12A
  8
0
  6
CONTINUOUS
 62
     7
 10
7.5896994888
 20
6.9057941538
 30
0.0
 11
7.5896994888
 21
6.735708692
 31
0.0
  0
LINE
  5
12B
  8
0
  6
CONTINUOUS
 62
     7
 10
7.0875327032
 20
6.9057941538
 30
0.0
 11
7.5896994888
 21
6.9057941538
 31
0.0
  0
LINE
  5
12C
  8
0
  6
CONTINUOUS
 62
     7
 10
7.0875327032
 20
6.6783760343
 30
0.0
 11
7.0875327032
 21
6.9057941538
 31
0.0
  0
LINE
  5
12D
  8
0
  6
CONTINUOUS
 62
     7
 10
7.0475327653
 20
6.6783760343
 30
0.0
 11
7.0875327032
 21
6.6783760343
 31
0.0
  0
LINE
  5
12E
  8
0
  6
CONTINUOUS
 62
     7
 10
7.0475327653
 20
6.9057941538
 30
0.0
 11
7.0475327653
 21
6.6783760343
 31
0.0
  0
LINE
  5
12F
  8
0
  6
CONTINUOUS
 62
     7
 10
6.545365833
 20
6.9057941538
 30
0.0
 11
7.0475327653
 21
6.9057941538
 31
0.0
  0
LINE
  5
130
  8
0
  6
CONTINUOUS
 62
     7
 10
6.545365833
 20
6.6783760343
 30
0.0
 11
6.545365833
 21
6.9057941538
 31
0.0
  0
LINE
  5
131
  8
0
  6
CONTINUOUS
 62
     7
 10
6.5053658951
 20
6.6783760343
 30
0.0
 11
6.545365833
 21
6.6783760343
 31
0.0
  0
LINE
  5
132
  8
0
  6
CONTINUOUS
 62
     7
 10
6.5053658951
 20
6.9057941538
 30
0.0
 11
6.5053658951
 21
6.6783760343
 31
0.0
  0
LINE
  5
133
  8
0
  6
CONTINUOUS
 62
     7
 10
6.0031991095
 20
6.9057941538
 30
0.0
 11
6.5053658951
 21
6.9057941538
 31
0.0
  0
LINE
  5
134
  8
0
  6
CONTINUOUS
 62
     7
 10
6.0031991095
 20
6.7345082392
 30
0.0
 11
6.0031991095
 21
6.9057941538
 31
0.0
  0
ARC
  5
135
  8
0
  6
CONTINUOUS
 62
     7
 10
5.9910082922
 20
6.6732086685
 30
0.0
 40
0.0625000000000004
 50
78.7520565439
 51
90.0
  0
LINE
  5
136
  8
0
  6
CONTINUOUS
 62
     7
 10
5.991008317
 20
6.735708692
 30
0.0
 11
5.9631991716
 21
6.735708692
 31
0.0
  0
LINE
  5
137
  8
0
  6
CONTINUOUS
 62
     7
 10
5.9631991716
 20
6.9057941538
 30
0.0
 11
5.9631991716
 21
6.735708692
 31
0.0
  0
LINE
  5
138
  8
0
  6
CONTINUOUS
 62
     7
 10
5.5261991532
 20
6.9057941538
 30
0.0
 11
5.9631991716
 21
6.9057941538
 31
0.0
  0
LINE
  5
139
  8
0
  6
CONTINUOUS
 62
     7
 10
5.5261991532
 20
6.6783760343
 30
0.0
 11
5.5261991532
 21
6.9057941538
 31
0.0
  0
LINE
  5
13A
  8
0
  6
CONTINUOUS
 62
     7
 10
5.4861992153
 20
6.6783760343
 30
0.0
 11
5.5261991532
 21
6.6783760343
 31
0.0
  0
LINE
  5
13B
  8
0
  6
CONTINUOUS
 62
     7
 10
5.4861992153
 20
6.9057941538
 30
0.0
 11
5.4861992153
 21
6.6783760343
 31
0.0
  0
LINE
  5
13C
  8
0
  6
CONTINUOUS
 62
     7
 10
4.9840324297
 20
6.9057941538
 30
0.0
 11
5.4861992153
 21
6.9057941538
 31
0.0
  0
LINE
  5
13D
  8
0
  6
CONTINUOUS
 62
     7
 10
4.9840324297
 20
6.6783760343
 30
0.0
 11
4.9840324297
 21
6.9057941538
 31
0.0
  0
LINE
  5
13E
  8
0
  6
CONTINUOUS
 62
     7
 10
4.9440324918
 20
6.6783760343
 30
0.0
 11
4.9840324297
 21
6.6783760343
 31
0.0
  0
LINE
  5
13F
  8
0
  6
CONTINUOUS
 62
     7
 10
4.9440324918
 20
6.9057941538
 30
0.0
 11
4.9440324918
 21
6.6783760343
 31
0.0
  0
LINE
  5
140
  8
0
  6
CONTINUOUS
 62
     7
 10
4.4418657062
 20
6.9057941538
 30
0.0
 11
4.9440324918
 21
6.9057941538
 31
0.0
  0
LINE
  5
141
  8
0
  6
CONTINUOUS
 62
     7
 10
4.4418657062
 20
6.6783760343
 30
0.0
 11
4.4418657062
 21
6.9057941538
 31
0.0
  0
LINE
  5
142
  8
0
  6
CONTINUOUS
 62
     7
 10
4.4018657683
 20
6.6783760343
 30
0.0
 11
4.4418657062
 21
6.6783760343
 31
0.0
  0
LINE
  5
143
  8
0
  6
CONTINUOUS
 62
     7
 10
4.4018657683
 20
6.9057941538
 30
0.0
 11
4.4018657683
 21
6.6783760343
 31
0.0
  0
LINE
  5
144
  8
0
  6
CONTINUOUS
 62
     7
 10
3.8996989827
 20
6.9057941538
 30
0.0
 11
4.4018657683
 21
6.9057941538
 31
0.0
  0
LINE
  5
145
  8
0
  6
CONTINUOUS
 62
     7
 10
3.8996989827
 20
6.735708692
 30
0.0
 11
3.8996989827
 21
6.9057941538
 31
0.0
  0
LINE
  5
146
  8
0
  6
CONTINUOUS
 62
     7
 10
3.8996989827
 20
6.735708692
 30
0.0
 11
3.8645316556
 21
6.735708692
 31
0.0
  0
ARC
  5
147
  8
0
  6
CONTINUOUS
 62
     7
 10
3.8645319143
 20
6.6732086685
 30
0.0
 40
0.0624999999999991
 50
90.0
 51
94.4348999703
  0
LINE
  5
148
  8
0
  6
CONTINUOUS
 62
     7
 10
3.8596987514
 20
6.9057941538
 30
0.0
 11
3.8596987514
 21
6.7355215474
 31
0.0
  0
LINE
  5
149
  8
0
  6
CONTINUOUS
 62
     7
 10
3.3575325525
 20
6.9057941538
 30
0.0
 11
3.8596987514
 21
6.9057941538
 31
0.0
  0
LINE
  5
14A
  8
0
  6
CONTINUOUS
 62
     7
 10
3.3575325525
 20
6.6783760343
 30
0.0
 11
3.3575325525
 21
6.9057941538
 31
0.0
  0
LINE
  5
14B
  8
0
  6
CONTINUOUS
 62
     7
 10
3.3175323212
 20
6.6783760343
 30
0.0
 11
3.3575325525
 21
6.6783760343
 31
0.0
  0
LINE
  5
14C
  8
0
  6
CONTINUOUS
 62
     7
 10
3.3175323212
 20
6.9057941538
 30
0.0
 11
3.3175323212
 21
6.6783760343
 31
0.0
  0
LINE
  5
14D
  8
0
  6
CONTINUOUS
 62
     7
 10
3.0336159211
 20
6.9057941538
 30
0.0
 11
3.3175323212
 21
6.9057941538
 31
0.0
  0
LINE
  5
14E
  8
0
  6
CONTINUOUS
 62
     7
 10
3.0336159211
 20
6.4649941193
 30
0.0
 11
3.0336159211
 21
6.9057941538
 31
0.0
  0
LINE
  5
14F
  8
0
  6
CONTINUOUS
 62
     7
 10
3.0971347606
 20
6.4649941193
 30
0.0
 11
3.0336159211
 21
6.4649941193
 31
0.0
  0
LINE
  5
150
  8
0
  6
CONTINUOUS
 62
     7
 10
3.0904685443
 20
6.424994108
 30
0.0
 11
3.0971347606
 21
6.4649941193
 31
0.0
  0
LINE
  5
151
  8
0
  6
CONTINUOUS
 62
     7
 10
3.0336159211
 20
6.424994108
 30
0.0
 11
3.0904685443
 21
6.424994108
 31
0.0
  0
LINE
  5
152
  8
0
  6
CONTINUOUS
 62
     7
 10
3.0336159211
 20
6.2019941241
 30
0.0
 11
3.0336159211
 21
6.424994108
 31
0.0
  0
LINE
  5
153
  8
0
  6
CONTINUOUS
 62
     7
 10
3.0533018803
 20
6.2019941241
 30
0.0
 11
3.0336159211
 21
6.2019941241
 31
0.0
  0
LINE
  5
154
  8
0
  6
CONTINUOUS
 62
     7
 10
3.0466350773
 20
6.1619941129
 30
0.0
 11
3.0533018803
 21
6.2019941241
 31
0.0
  0
LINE
  5
155
  8
0
  6
CONTINUOUS
 62
     7
 10
3.0336159211
 20
6.1619941129
 30
0.0
 11
3.0466350773
 21
6.1619941129
 31
0.0
  0
LINE
  5
156
  8
0
  6
CONTINUOUS
 62
     7
 10
3.0336159211
 20
6.1093069949
 30
0.0
 11
3.0336159211
 21
6.1619941129
 31
0.0
  0
LINE
  5
157
  8
0
  6
CONTINUOUS
 62
     7
 10
2.9936156898
 20
6.0077610813
 30
0.0
 11
3.0336159211
 21
6.1093069949
 31
0.0
  0
LINE
  5
158
  8
0
  6
CONTINUOUS
 62
     7
 10
2.9936156898
 20
6.1619941129
 30
0.0
 11
2.9936156898
 21
6.0077610813
 31
0.0
  0
LINE
  5
159
  8
0
  6
CONTINUOUS
 62
     7
 10
2.7096992897
 20
6.1619941129
 30
0.0
 11
2.9936156898
 21
6.1619941129
 31
0.0
  0
LINE
  5
15A
  8
0
  6
CONTINUOUS
 62
     7
 10
2.7096992897
 20
5.9389940923
 30
0.0
 11
2.7096992897
 21
6.1619941129
 31
0.0
  0
LINE
  5
15B
  8
0
  6
CONTINUOUS
 62
     7
 10
2.9665278427
 20
5.9389940923
 30
0.0
 11
2.7096992897
 21
5.9389940923
 31
0.0
  0
LINE
  5
15C
  8
0
  6
CONTINUOUS
 62
     7
 10
2.9507713314
 20
5.8989941177
 30
0.0
 11
2.9665278427
 21
5.9389940923
 31
0.0
  0
LINE
  5
15D
  8
0
  6
CONTINUOUS
 62
     7
 10
2.7096992897
 20
5.8989941177
 30
0.0
 11
2.9507713314
 21
5.8989941177
 31
0.0
  0
LINE
  5
15E
  8
0
  6
CONTINUOUS
 62
     7
 10
2.7096992897
 20
5.7600941023
 30
0.0
 11
2.7096992897
 21
5.8989941177
 31
0.0
  0
LINE
  5
15F
  8
0
  6
CONTINUOUS
 62
     7
 10
2.8960570835
 20
5.7600941023
 30
0.0
 11
2.7096992897
 21
5.7600941023
 31
0.0
  0
LINE
  5
160
  8
0
  6
CONTINUOUS
 62
     7
 10
2.8803005722
 20
5.7200940911
 30
0.0
 11
2.8960570835
 21
5.7600941023
 31
0.0
  0
LINE
  5
161
  8
0
  6
CONTINUOUS
 62
     7
 10
2.7096992897
 20
5.7200940911
 30
0.0
 11
2.8803005722
 21
5.7200940911
 31
0.0
  0
LINE
  5
162
  8
0
  6
CONTINUOUS
 62
     7
 10
2.7039946089
 20
5.6111941024
 30
0.0
 11
2.7039946089
 21
7.1161941499
 31
0.0
  0
ARC
  5
163
  8
0
  6
CONTINUOUS
 62
     7
 10
2.7396990684
 20
7.1161942512
 30
0.0
 40
0.035704459547223
 50
89.9996020461
 51
180.0001625983
  0
LINE
  5
164
  8
0
  6
CONTINUOUS
 62
     7
 10
2.7396993164
 20
7.1518987108
 30
0.0
 11
8.7496992284
 21
7.1518987108
 31
0.0
  0
ARC
  5
165
  8
0
  6
CONTINUOUS
 62
     7
 10
8.7496993556
 20
7.1161942037
 30
0.0
 40
0.0357045070319885
 50
359.9999136027
 51
90.0002040752
  0
LINE
  5
166
  8
0
  6
CONTINUOUS
 62
     7
 10
8.7854038626
 20
7.1161941499
 30
0.0
 11
8.7854038626
 21
5.6111941024
 31
0.0
  0
ARC
  5
167
  8
0
  6
CONTINUOUS
 62
     7
 10
8.7496992746
 20
5.6111940562
 30
0.0
 40
0.0357045880001806
 50
269.9999258564
 51
0.0000741436
  0
LINE
  5
168
  8
0
  6
CONTINUOUS
 62
     7
 10
8.7496992284
 20
5.5754894682
 30
0.0
 11
2.7396993164
 21
5.5754894682
 31
0.0
  0
ARC
  5
169
  8
0
  6
CONTINUOUS
 62
     7
 10
2.7396991494
 20
5.6111940087
 30
0.0
 40
0.0357045405126727
 50
179.9998496516
 51
270.0002680261
  0
LINE
  5
16A
  8
0
  6
CONTINUOUS
 62
     7
 10
2.9936156898
 20
6.424994108
 30
0.0
 11
2.9936156898
 21
6.2019941241
 31
0.0
  0
LINE
  5
16B
  8
0
  6
CONTINUOUS
 62
     7
 10
2.7096992897
 20
6.424994108
 30
0.0
 11
2.9936156898
 21
6.424994108
 31
0.0
  0
LINE
  5
16C
  8
0
  6
CONTINUOUS
 62
     7
 10
2.7096992897
 20
6.2019941241
 30
0.0
 11
2.7096992897
 21
6.424994108
 31
0.0
  0
LINE
  5
16D
  8
0
  6
CONTINUOUS
 62
     7
 10
2.9936156898
 20
6.2019941241
 30
0.0
 11
2.7096992897
 21
6.2019941241
 31
0.0
  0
LINE
  5
16E
  8
0
  6
CONTINUOUS
 62
     7
 10
2.9936156898
 20
6.6653941309
 30
0.0
 11
2.9936156898
 21
6.4649941193
 31
0.0
  0
LINE
  5
16F
  8
0
  6
CONTINUOUS
 62
     7
 10
2.7096992897
 20
6.6653941309
 30
0.0
 11
2.9936156898
 21
6.6653941309
 31
0.0
  0
LINE
  5
170
  8
0
  6
CONTINUOUS
 62
     7
 10
2.7096992897
 20
6.4649941193
 30
0.0
 11
2.7096992897
 21
6.6653941309
 31
0.0
  0
LINE
  5
171
  8
0
  6
CONTINUOUS
 62
     7
 10
2.9936156898
 20
6.4649941193
 30
0.0
 11
2.7096992897
 21
6.4649941193
 31
0.0
  0
LINE
  5
172
  8
0
  6
CONTINUOUS
 62
     7
 10
2.9936156898
 20
6.9057941538
 30
0.0
 11
2.9936156898
 21
6.7053940688
 31
0.0
  0
LINE
  5
173
  8
0
  6
CONTINUOUS
 62
     7
 10
2.7096992897
 20
6.9057941538
 30
0.0
 11
2.9936156898
 21
6.9057941538
 31
0.0
  0
LINE
  5
174
  8
0
  6
CONTINUOUS
 62
     7
 10
2.7096992897
 20
6.7053940688
 30
0.0
 11
2.7096992897
 21
6.9057941538
 31
0.0
  0
LINE
  5
175
  8
0
  6
CONTINUOUS
 62
     7
 10
2.9936156898
 20
6.7053940688
 30
0.0
 11
2.7096992897
 21
6.7053940688
 31
0.0
  0
LINE
  5
176
  8
0
  6
CONTINUOUS
 62
     7
 10
2.9936156898
 20
7.14619403
 30
0.0
 11
2.9936156898
 21
6.9457940917
 31
0.0
  0
LINE
  5
177
  8
0
  6
CONTINUOUS
 62
     7
 10
2.7396993164
 20
7.14619403
 30
0.0
 11
2.9936156898
 21
7.14619403
 31
0.0
  0
ARC
  5
178
  8
0
  6
CONTINUOUS
 62
     7
 10
2.7396992371
 20
7.1161941016
 30
0.0
 40
0.0300000000000016
 50
90.0
 51
180.0
  0
LINE
  5
179
  8
0
  6
CONTINUOUS
 62
     7
 10
2.7096992897
 20
6.9457940917
 30
0.0
 11
2.7096992897
 21
7.1161941499
 31
0.0
  0
LINE
  5
17A
  8
0
  6
CONTINUOUS
 62
     7
 10
2.9936156898
 20
6.9457940917
 30
0.0
 11
2.7096992897
 21
6.9457940917
 31
0.0
  0
LINE
  5
17B
  8
0
  6
CONTINUOUS
 62
     7
 10
3.3175323212
 20
6.9457940917
 30
0.0
 11
3.0336159211
 21
6.9457940917
 31
0.0
  0
LINE
  5
17C
  8
0
  6
CONTINUOUS
 62
     7
 10
3.3175323212
 20
7.14619403
 30
0.0
 11
3.3175323212
 21
6.9457940917
 31
0.0
  0
LINE
  5
17D
  8
0
  6
CONTINUOUS
 62
     7
 10
3.0336159211
 20
7.14619403
 30
0.0
 11
3.3175323212
 21
7.14619403
 31
0.0
  0
LINE
  5
17E
  8
0
  6
CONTINUOUS
 62
     7
 10
3.0336159211
 20
6.9457940917
 30
0.0
 11
3.0336159211
 21
7.14619403
 31
0.0
  0
LINE
  5
17F
  8
0
  6
CONTINUOUS
 62
     7
 10
3.8596987514
 20
6.9457940917
 30
0.0
 11
3.3575325525
 21
6.9457940917
 31
0.0
  0
LINE
  5
180
  8
0
  6
CONTINUOUS
 62
     7
 10
3.8596987514
 20
7.14619403
 30
0.0
 11
3.8596987514
 21
6.9457940917
 31
0.0
  0
LINE
  5
181
  8
0
  6
CONTINUOUS
 62
     7
 10
3.3575325525
 20
7.14619403
 30
0.0
 11
3.8596987514
 21
7.14619403
 31
0.0
  0
LINE
  5
182
  8
0
  6
CONTINUOUS
 62
     7
 10
3.3575325525
 20
6.9457940917
 30
0.0
 11
3.3575325525
 21
7.14619403
 31
0.0
  0
LINE
  5
183
  8
0
  6
CONTINUOUS
 62
     7
 10
4.4018657683
 20
6.9457940917
 30
0.0
 11
3.8996989827
 21
6.9457940917
 31
0.0
  0
LINE
  5
184
  8
0
  6
CONTINUOUS
 62
     7
 10
4.4018657683
 20
7.14619403
 30
0.0
 11
4.4018657683
 21
6.9457940917
 31
0.0
  0
LINE
  5
185
  8
0
  6
CONTINUOUS
 62
     7
 10
3.8996989827
 20
7.14619403
 30
0.0
 11
4.4018657683
 21
7.14619403
 31
0.0
  0
LINE
  5
186
  8
0
  6
CONTINUOUS
 62
     7
 10
3.8996989827
 20
6.9457940917
 30
0.0
 11
3.8996989827
 21
7.14619403
 31
0.0
  0
LINE
  5
187
  8
0
  6
CONTINUOUS
 62
     7
 10
4.9440324918
 20
6.9457940917
 30
0.0
 11
4.4418657062
 21
6.9457940917
 31
0.0
  0
LINE
  5
188
  8
0
  6
CONTINUOUS
 62
     7
 10
4.9440324918
 20
7.14619403
 30
0.0
 11
4.9440324918
 21
6.9457940917
 31
0.0
  0
LINE
  5
189
  8
0
  6
CONTINUOUS
 62
     7
 10
4.4418657062
 20
7.14619403
 30
0.0
 11
4.9440324918
 21
7.14619403
 31
0.0
  0
LINE
  5
18A
  8
0
  6
CONTINUOUS
 62
     7
 10
4.4418657062
 20
6.9457940917
 30
0.0
 11
4.4418657062
 21
7.14619403
 31
0.0
  0
LINE
  5
18B
  8
0
  6
CONTINUOUS
 62
     7
 10
5.4861992153
 20
6.9457940917
 30
0.0
 11
4.9840324297
 21
6.9457940917
 31
0.0
  0
LINE
  5
18C
  8
0
  6
CONTINUOUS
 62
     7
 10
5.4861992153
 20
7.14619403
 30
0.0
 11
5.4861992153
 21
6.9457940917
 31
0.0
  0
LINE
  5
18D
  8
0
  6
CONTINUOUS
 62
     7
 10
4.9840324297
 20
7.14619403
 30
0.0
 11
5.4861992153
 21
7.14619403
 31
0.0
  0
LINE
  5
18E
  8
0
  6
CONTINUOUS
 62
     7
 10
4.9840324297
 20
6.9457940917
 30
0.0
 11
4.9840324297
 21
7.14619403
 31
0.0
  0
LINE
  5
18F
  8
0
  6
CONTINUOUS
 62
     7
 10
5.9631991716
 20
6.9457940917
 30
0.0
 11
5.5261991532
 21
6.9457940917
 31
0.0
  0
LINE
  5
190
  8
0
  6
CONTINUOUS
 62
     7
 10
5.9631991716
 20
7.14619403
 30
0.0
 11
5.9631991716
 21
6.9457940917
 31
0.0
  0
LINE
  5
191
  8
0
  6
CONTINUOUS
 62
     7
 10
5.5261991532
 20
7.14619403
 30
0.0
 11
5.9631991716
 21
7.14619403
 31
0.0
  0
LINE
  5
192
  8
0
  6
CONTINUOUS
 62
     7
 10
5.5261991532
 20
6.9457940917
 30
0.0
 11
5.5261991532
 21
7.14619403
 31
0.0
  0
LINE
  5
193
  8
0
  6
CONTINUOUS
 62
     7
 10
6.5053658951
 20
6.9457940917
 30
0.0
 11
6.0031991095
 21
6.9457940917
 31
0.0
  0
LINE
  5
194
  8
0
  6
CONTINUOUS
 62
     7
 10
6.5053658951
 20
7.14619403
 30
0.0
 11
6.5053658951
 21
6.9457940917
 31
0.0
  0
LINE
  5
195
  8
0
  6
CONTINUOUS
 62
     7
 10
6.0031991095
 20
7.14619403
 30
0.0
 11
6.5053658951
 21
7.14619403
 31
0.0
  0
LINE
  5
196
  8
0
  6
CONTINUOUS
 62
     7
 10
6.0031991095
 20
6.9457940917
 30
0.0
 11
6.0031991095
 21
7.14619403
 31
0.0
  0
LINE
  5
197
  8
0
  6
CONTINUOUS
 62
     7
 10
7.0475327653
 20
6.9457940917
 30
0.0
 11
6.545365833
 21
6.9457940917
 31
0.0
  0
LINE
  5
198
  8
0
  6
CONTINUOUS
 62
     7
 10
7.0475327653
 20
7.14619403
 30
0.0
 11
7.0475327653
 21
6.9457940917
 31
0.0
  0
LINE
  5
199
  8
0
  6
CONTINUOUS
 62
     7
 10
6.545365833
 20
7.14619403
 30
0.0
 11
7.0475327653
 21
7.14619403
 31
0.0
  0
LINE
  5
19A
  8
0
  6
CONTINUOUS
 62
     7
 10
6.545365833
 20
6.9457940917
 30
0.0
 11
6.545365833
 21
7.14619403
 31
0.0
  0
LINE
  5
19B
  8
0
  6
CONTINUOUS
 62
     7
 10
7.5896994888
 20
6.9457940917
 30
0.0
 11
7.0875327032
 21
6.9457940917
 31
0.0
  0
LINE
  5
19C
  8
0
  6
CONTINUOUS
 62
     7
 10
7.5896994888
 20
7.14619403
 30
0.0
 11
7.5896994888
 21
6.9457940917
 31
0.0
  0
LINE
  5
19D
  8
0
  6
CONTINUOUS
 62
     7
 10
7.0875327032
 20
7.14619403
 30
0.0
 11
7.5896994888
 21
7.14619403
 31
0.0
  0
LINE
  5
19E
  8
0
  6
CONTINUOUS
 62
     7
 10
7.0875327032
 20
6.9457940917
 30
0.0
 11
7.0875327032
 21
7.14619403
 31
0.0
  0
LINE
  5
19F
  8
0
  6
CONTINUOUS
 62
     7
 10
8.1318662123
 20
6.9457940917
 30
0.0
 11
7.6296994267
 21
6.9457940917
 31
0.0
  0
LINE
  5
1A0
  8
0
  6
CONTINUOUS
 62
     7
 10
8.1318662123
 20
7.14619403
 30
0.0
 11
8.1318662123
 21
6.9457940917
 31
0.0
  0
LINE
  5
1A1
  8
0
  6
CONTINUOUS
 62
     7
 10
7.6296994267
 20
7.14619403
 30
0.0
 11
8.1318662123
 21
7.14619403
 31
0.0
  0
LINE
  5
1A2
  8
0
  6
CONTINUOUS
 62
     7
 10
7.6296994267
 20
6.9457940917
 30
0.0
 11
7.6296994267
 21
7.14619403
 31
0.0
  0
LINE
  5
1A3
  8
0
  6
CONTINUOUS
 62
     7
 10
8.4557826971
 20
6.9457940917
 30
0.0
 11
8.1718662236
 21
6.9457940917
 31
0.0
  0
LINE
  5
1A4
  8
0
  6
CONTINUOUS
 62
     7
 10
8.4557826971
 20
7.14619403
 30
0.0
 11
8.4557826971
 21
6.9457940917
 31
0.0
  0
LINE
  5
1A5
  8
0
  6
CONTINUOUS
 62
     7
 10
8.1718662236
 20
7.14619403
 30
0.0
 11
8.4557826971
 21
7.14619403
 31
0.0
  0
LINE
  5
1A6
  8
0
  6
CONTINUOUS
 62
     7
 10
8.1718662236
 20
6.9457940917
 30
0.0
 11
8.1718662236
 21
7.14619403
 31
0.0
  0
LINE
  5
1A7
  8
0
  6
CONTINUOUS
 62
     7
 10
8.7796992552
 20
6.9457940917
 30
0.0
 11
8.4957827083
 21
6.9457940917
 31
0.0
  0
LINE
  5
1A8
  8
0
  6
CONTINUOUS
 62
     7
 10
8.7796992552
 20
7.1161941499
 30
0.0
 11
8.7796992552
 21
6.9457940917
 31
0.0
  0
ARC
  5
1A9
  8
0
  6
CONTINUOUS
 62
     7
 10
8.7496992371
 20
7.1161941016
 30
0.0
 40
0.0300000000000002
 50
0.0
 51
90.0
  0
LINE
  5
1AA
  8
0
  6
CONTINUOUS
 62
     7
 10
8.4957827083
 20
7.14619403
 30
0.0
 11
8.7496992284
 21
7.14619403
 31
0.0
  0
LINE
  5
1AB
  8
0
  6
CONTINUOUS
 62
     7
 10
8.4957827083
 20
6.9457940917
 30
0.0
 11
8.4957827083
 21
7.14619403
 31
0.0
  0
LINE
  5
1AC
  8
0
  6
CONTINUOUS
 62
     7
 10
8.4957827083
 20
6.7053940688
 30
0.0
 11
8.4957827083
 21
6.9057941538
 31
0.0
  0
LINE
  5
1AD
  8
0
  6
CONTINUOUS
 62
     7
 10
8.7796992552
 20
6.7053940688
 30
0.0
 11
8.4957827083
 21
6.7053940688
 31
0.0
  0
LINE
  5
1AE
  8
0
  6
CONTINUOUS
 62
     7
 10
8.7796992552
 20
6.9057941538
 30
0.0
 11
8.7796992552
 21
6.7053940688
 31
0.0
  0
LINE
  5
1AF
  8
0
  6
CONTINUOUS
 62
     7
 10
8.4957827083
 20
6.9057941538
 30
0.0
 11
8.7796992552
 21
6.9057941538
 31
0.0
  0
LINE
  5
1B0
  8
0
  6
CONTINUOUS
 62
     7
 10
8.4957827083
 20
6.4649941193
 30
0.0
 11
8.4957827083
 21
6.6653941309
 31
0.0
  0
LINE
  5
1B1
  8
0
  6
CONTINUOUS
 62
     7
 10
8.7796992552
 20
6.4649941193
 30
0.0
 11
8.4957827083
 21
6.4649941193
 31
0.0
  0
LINE
  5
1B2
  8
0
  6
CONTINUOUS
 62
     7
 10
8.7796992552
 20
6.6653941309
 30
0.0
 11
8.7796992552
 21
6.4649941193
 31
0.0
  0
LINE
  5
1B3
  8
0
  6
CONTINUOUS
 62
     7
 10
8.4957827083
 20
6.6653941309
 30
0.0
 11
8.7796992552
 21
6.6653941309
 31
0.0
  0
LINE
  5
1B4
  8
0
  6
CONTINUOUS
 62
     7
 10
8.4957827083
 20
6.2019941241
 30
0.0
 11
8.4957827083
 21
6.424994108
 31
0.0
  0
LINE
  5
1B5
  8
0
  6
CONTINUOUS
 62
     7
 10
8.7796992552
 20
6.2019941241
 30
0.0
 11
8.4957827083
 21
6.2019941241
 31
0.0
  0
LINE
  5
1B6
  8
0
  6
CONTINUOUS
 62
     7
 10
8.7796992552
 20
6.424994108
 30
0.0
 11
8.7796992552
 21
6.2019941241
 31
0.0
  0
LINE
  5
1B7
  8
0
  6
CONTINUOUS
 62
     7
 10
8.4957827083
 20
6.424994108
 30
0.0
 11
8.7796992552
 21
6.424994108
 31
0.0
  0
LINE
  5
1B8
  8
0
  6
CONTINUOUS
 62
     7
 10
2.6846758987
 20
5.6111941024
 30
0.0
 11
2.7039946089
 21
5.6111941024
 31
0.0
  0
LINE
  5
1B9
  8
0
  6
CONTINUOUS
 62
     7
 10
2.6846758987
 20
5.6111941024
 30
0.0
 11
2.6846758987
 21
7.1161941499
 31
0.0
  0
LINE
  5
1BA
  8
0
  6
CONTINUOUS
 62
     7
 10
2.6846758987
 20
7.1161941499
 30
0.0
 11
2.7039946089
 21
7.1161941499
 31
0.0
  0
LINE
  5
1BB
  8
0
  6
CONTINUOUS
 62
     7
 10
8.8047223894
 20
7.1161941499
 30
0.0
 11
8.7854038626
 21
7.1161941499
 31
0.0
  0
LINE
  5
1BC
  8
0
  6
CONTINUOUS
 62
     7
 10
8.8047223894
 20
7.1161941499
 30
0.0
 11
8.8047223894
 21
5.6111941024
 31
0.0
  0
LINE
  5
1BD
  8
0
  6
CONTINUOUS
 62
     7
 10
8.8047223894
 20
5.6111941024
 30
0.0
 11
8.7854038626
 21
5.6111941024
 31
0.0
  0
LINE
  5
1BE
  8
0
  6
CONTINUOUS
 62
     7
 10
2.7396993164
 20
7.1712172743
 30
0.0
 11
2.7396993164
 21
7.1518987108
 31
0.0
  0
LINE
  5
1BF
  8
0
  6
CONTINUOUS
 62
     7
 10
2.7396993164
 20
7.1712172743
 30
0.0
 11
8.7496992284
 21
7.1712172743
 31
0.0
  0
LINE
  5
1C0
  8
0
  6
CONTINUOUS
 62
     7
 10
8.7496992284
 20
7.1712172743
 30
0.0
 11
8.7496992284
 21
7.1518987108
 31
0.0
  0
LINE
  5
1C1
  8
0
  6
CONTINUOUS
 62
     7
 10
8.7496992284
 20
5.5754894682
 30
0.0
 11
8.7496992284
 21
5.5561709414
 31
0.0
  0
LINE
  5
1C2
  8
0
  6
CONTINUOUS
 62
     7
 10
8.7496992284
 20
5.5561709414
 30
0.0
 11
2.7396993164
 21
5.5561709414
 31
0.0
  0
LINE
  5
1C3
  8
0
  6
CONTINUOUS
 62
     7
 10
2.7396993164
 20
5.5561709414
 30
0.0
 11
2.7396993164
 21
5.5754894682
 31
0.0
  0
ARC
  5
1C4
  8
0
  6
CONTINUOUS
 62
     7
 10
2.7396992371
 20
5.6111941016
 30
0.0
 40
0.0550231544310904
 50
180.0
 51
270.0
  0
ARC
  5
1C5
  8
0
  6
CONTINUOUS
 62
     7
 10
2.7396992371
 20
7.1161941016
 30
0.0
 40
0.0550231544304074
 50
90.0
 51
180.0
  0
ARC
  5
1C6
  8
0
  6
CONTINUOUS
 62
     7
 10
8.7496992371
 20
7.1161941016
 30
0.0
 40
0.0550231544310904
 50
0.0
 51
90.0
  0
ARC
  5
1C7
  8
0
  6
CONTINUOUS
 62
     7
 10
8.7496992371
 20
5.6111941016
 30
0.0
 40
0.0550231544304074
 50
270.0
 51
0.0
  0
LINE
  5
1C8
  8
0
  6
CONTINUOUS
 62
     7
 10
8.859699241
 20
5.6111941024
 30
0.0
 11
8.8047223894
 21
5.6111941024
 31
0.0
  0
ARC
  5
1C9
  8
0
  6
CONTINUOUS
 62
     7
 10
8.7496992371
 20
5.6111941016
 30
0.0
 40
0.1099999999999763
 50
270.0
 51
0.0000000007
  0
LINE
  5
1CA
  8
0
  6
CONTINUOUS
 62
     7
 10
8.7496992284
 20
5.5561709414
 30
0.0
 11
8.7496992284
 21
5.501194099
 31
0.0
  0
LINE
  5
1CB
  8
0
  6
CONTINUOUS
 62
     7
 10
8.7496992284
 20
5.501194099
 30
0.0
 11
2.7396993164
 21
5.501194099
 31
0.0
  0
LINE
  5
1CC
  8
0
  6
CONTINUOUS
 62
     7
 10
2.7396993164
 20
5.501194099
 30
0.0
 11
2.7396993164
 21
5.5561709414
 31
0.0
  0
LINE
  5
1CD
  8
0
  6
CONTINUOUS
 62
     7
 10
2.6296994138
 20
7.1161941499
 30
0.0
 11
2.6846758987
 21
7.1161941499
 31
0.0
  0
ARC
  5
1CE
  8
0
  6
CONTINUOUS
 62
     7
 10
2.7396992371
 20
7.1161941016
 30
0.0
 40
0.110000000000114
 50
90.0
 51
179.9999999993
  0
LINE
  5
1CF
  8
0
  6
CONTINUOUS
 62
     7
 10
2.7396993164
 20
7.2261940525
 30
0.0
 11
2.7396993164
 21
7.1712172743
 31
0.0
  0
LINE
  5
1D0
  8
0
  6
CONTINUOUS
 62
     7
 10
8.859699241
 20
7.1161941499
 30
0.0
 11
8.8047223894
 21
7.1161941499
 31
0.0
  0
LINE
  5
1D1
  8
0
  6
CONTINUOUS
 62
     7
 10
8.859699241
 20
7.1161941499
 30
0.0
 11
8.859699241
 21
5.6111941024
 31
0.0
  0
LINE
  5
1D2
  8
0
  6
CONTINUOUS
 62
     7
 10
2.6296994138
 20
5.6111941024
 30
0.0
 11
2.6846758987
 21
5.6111941024
 31
0.0
  0
LINE
  5
1D3
  8
0
  6
CONTINUOUS
 62
     7
 10
2.6296994138
 20
5.6111941024
 30
0.0
 11
2.6296994138
 21
7.1161941499
 31
0.0
  0
LINE
  5
1D4
  8
0
  6
CONTINUOUS
 62
     7
 10
8.7496992284
 20
7.2261940525
 30
0.0
 11
8.7496992284
 21
7.1712172743
 31
0.0
  0
ARC
  5
1D5
  8
0
  6
CONTINUOUS
 62
     7
 10
8.7496992371
 20
7.1161941016
 30
0.0
 40
0.110000000000487
 50
0.0000000001
 51
90.0
  0
ARC
  5
1D6
  8
0
  6
CONTINUOUS
 62
     7
 10
2.7396992371
 20
5.6111941016
 30
0.0
 40
0.110000000000487
 50
179.9999999999
 51
270.0
  0
LINE
  5
1D7
  8
0
  6
CONTINUOUS
 62
     7
 10
2.7396993164
 20
7.2261940525
 30
0.0
 11
8.7496992284
 21
7.2261940525
 31
0.0
  0
LINE
  5
1D8
  8
0
  6
CONTINUOUS
 62
     7
 10
5.0201293194
 20
5.3611941015
 30
0.0
 11
5.0201293194
 21
5.3806062905
 31
0.0
  0
LINE
  5
1D9
  8
0
  6
CONTINUOUS
 62
     7
 10
5.0201293194
 20
5.3611941015
 30
0.0
 11
4.9962349554
 21
5.3611941015
 31
0.0
  0
LINE
  5
1DA
  8
0
  6
CONTINUOUS
 62
     7
 10
4.9962349554
 20
5.3611941015
 30
0.0
 11
4.9962349554
 21
5.3711941014
 31
0.0
  0
ARC
  5
1DB
  8
0
  6
CONTINUOUS
 62
     7
 10
4.9985799294
 20
5.4002769536
 30
0.0
 40
0.0291772376635027
 50
265.3901675233
 51
317.609619941
  0
LINE
  5
1DC
  8
0
  6
CONTINUOUS
 62
     7
 10
7.6901293553
 20
5.3611941015
 30
0.0
 11
7.6901293553
 21
5.3806062905
 31
0.0
  0
LINE
  5
1DD
  8
0
  6
CONTINUOUS
 62
     7
 10
7.6901293553
 20
5.3611941015
 30
0.0
 11
7.6662348447
 21
5.3611941015
 31
0.0
  0
LINE
  5
1DE
  8
0
  6
CONTINUOUS
 62
     7
 10
7.6662348447
 20
5.3611941015
 30
0.0
 11
7.6662348447
 21
5.3711941014
 31
0.0
  0
ARC
  5
1DF
  8
0
  6
CONTINUOUS
 62
     7
 10
7.6685799808
 20
5.4002768778
 30
0.0
 40
0.0291771750692729
 50
265.3898381465
 51
317.6097094715
  0
LINE
  5
1E0
  8
0
  6
CONTINUOUS
 62
     7
 10
3.8662347293
 20
5.3711941014
 30
0.0
 11
3.8231633335
 21
5.3711941014
 31
0.0
  0
ARC
  5
1E1
  8
0
  6
CONTINUOUS
 62
     7
 10
3.8199366511
 20
5.3980379501
 30
0.0
 40
0.0270370799328054
 50
220.1455541587
 51
276.854178677
  0
LINE
  5
1E2
  8
0
  6
CONTINUOUS
 62
     7
 10
3.7992692628
 20
5.3806062905
 30
0.0
 11
3.7816225334
 21
5.4111941012
 31
0.0
  0
LINE
  5
1E3
  8
0
  6
CONTINUOUS
 62
     7
 10
3.7816225334
 20
5.4111941012
 30
0.0
 11
3.907776116
 21
5.4111941012
 31
0.0
  0
LINE
  5
1E4
  8
0
  6
CONTINUOUS
 62
     7
 10
3.907776116
 20
5.4111941012
 30
0.0
 11
3.8901293866
 21
5.3806062905
 31
0.0
  0
ARC
  5
1E5
  8
0
  6
CONTINUOUS
 62
     7
 10
3.8685797037
 20
5.4002776242
 30
0.0
 40
0.0291779060563956
 50
265.3902725283
 51
317.6090352461
  0
LINE
  5
1E6
  8
0
  6
CONTINUOUS
 62
     7
 10
6.5601294225
 20
5.3611941015
 30
0.0
 11
6.5601294225
 21
5.3806062905
 31
0.0
  0
LINE
  5
1E7
  8
0
  6
CONTINUOUS
 62
     7
 10
6.5601294225
 20
5.3611941015
 30
0.0
 11
6.5362347652
 21
5.3611941015
 31
0.0
  0
LINE
  5
1E8
  8
0
  6
CONTINUOUS
 62
     7
 10
6.5362347652
 20
5.3611941015
 30
0.0
 11
6.5362347652
 21
5.3711941014
 31
0.0
  0
ARC
  5
1E9
  8
0
  6
CONTINUOUS
 62
     7
 10
6.5385799678
 20
5.4002770449
 30
0.0
 40
0.0291773469900317
 50
265.3897344764
 51
317.609573298
  0
LINE
  5
1EA
  8
0
  6
CONTINUOUS
 62
     7
 10
3.8231633335
 20
5.3611941015
 30
0.0
 11
3.8231633335
 21
5.3711941014
 31
0.0
  0
LINE
  5
1EB
  8
0
  6
CONTINUOUS
 62
     7
 10
3.8231633335
 20
5.3611941015
 30
0.0
 11
3.7992692628
 21
5.3611941015
 31
0.0
  0
LINE
  5
1EC
  8
0
  6
CONTINUOUS
 62
     7
 10
3.7992692628
 20
5.3611941015
 30
0.0
 11
3.7992692628
 21
5.3806062905
 31
0.0
  0
LINE
  5
1ED
  8
0
  6
CONTINUOUS
 62
     7
 10
3.8662347293
 20
5.3611941015
 30
0.0
 11
3.8662347293
 21
5.3711941014
 31
0.0
  0
LINE
  5
1EE
  8
0
  6
CONTINUOUS
 62
     7
 10
3.8662347293
 20
5.3611941015
 30
0.0
 11
3.8231633335
 21
5.3611941015
 31
0.0
  0
LINE
  5
1EF
  8
0
  6
CONTINUOUS
 62
     7
 10
6.4931636628
 20
5.3611941015
 30
0.0
 11
6.4931636628
 21
5.3711941014
 31
0.0
  0
LINE
  5
1F0
  8
0
  6
CONTINUOUS
 62
     7
 10
6.4931636628
 20
5.3611941015
 30
0.0
 11
6.4692690055
 21
5.3611941015
 31
0.0
  0
LINE
  5
1F1
  8
0
  6
CONTINUOUS
 62
     7
 10
6.4692690055
 20
5.3611941015
 30
0.0
 11
6.4692690055
 21
5.3806062905
 31
0.0
  0
ARC
  5
1F2
  8
0
  6
CONTINUOUS
 62
     7
 10
6.4899371248
 20
5.398039605
 30
0.0
 40
0.0270387057770617
 50
220.14723595
 51
276.8534562756
  0
LINE
  5
1F3
  8
0
  6
CONTINUOUS
 62
     7
 10
4.9531635596
 20
5.3611941015
 30
0.0
 11
4.9531635596
 21
5.3711941014
 31
0.0
  0
LINE
  5
1F4
  8
0
  6
CONTINUOUS
 62
     7
 10
4.9531635596
 20
5.3611941015
 30
0.0
 11
4.9292691957
 21
5.3611941015
 31
0.0
  0
LINE
  5
1F5
  8
0
  6
CONTINUOUS
 62
     7
 10
4.9292691957
 20
5.3611941015
 30
0.0
 11
4.9292691957
 21
5.3806062905
 31
0.0
  0
ARC
  5
1F6
  8
0
  6
CONTINUOUS
 62
     7
 10
4.9499365475
 20
5.3980377573
 30
0.0
 40
0.0270369278998457
 50
220.1452915312
 51
276.8549210046
  0
LINE
  5
1F7
  8
0
  6
CONTINUOUS
 62
     7
 10
4.9962349554
 20
5.3611941015
 30
0.0
 11
4.9531635596
 21
5.3611941015
 31
0.0
  0
LINE
  5
1F8
  8
0
  6
CONTINUOUS
 62
     7
 10
4.9962349554
 20
5.3711941014
 30
0.0
 11
4.9531635596
 21
5.3711941014
 31
0.0
  0
LINE
  5
1F9
  8
0
  6
CONTINUOUS
 62
     7
 10
6.5362347652
 20
5.3711941014
 30
0.0
 11
6.4931636628
 21
5.3711941014
 31
0.0
  0
LINE
  5
1FA
  8
0
  6
CONTINUOUS
 62
     7
 10
6.4692690055
 20
5.3806062905
 30
0.0
 11
6.451622276
 21
5.4111941012
 31
0.0
  0
LINE
  5
1FB
  8
0
  6
CONTINUOUS
 62
     7
 10
6.451622276
 20
5.4111941012
 30
0.0
 11
6.577776152
 21
5.4111941012
 31
0.0
  0
LINE
  5
1FC
  8
0
  6
CONTINUOUS
 62
     7
 10
6.577776152
 20
5.4111941012
 30
0.0
 11
6.5601294225
 21
5.3806062905
 31
0.0
  0
LINE
  5
1FD
  8
0
  6
CONTINUOUS
 62
     7
 10
7.6662348447
 20
5.3711941014
 30
0.0
 11
7.6231635956
 21
5.3711941014
 31
0.0
  0
ARC
  5
1FE
  8
0
  6
CONTINUOUS
 62
     7
 10
7.6199368205
 20
5.3980386811
 30
0.0
 40
0.0270378168165246
 50
220.1462637476
 51
276.8541886343
  0
LINE
  5
1FF
  8
0
  6
CONTINUOUS
 62
     7
 10
7.5992690849
 20
5.3806062905
 30
0.0
 11
7.5816223554
 21
5.4111941012
 31
0.0
  0
LINE
  5
200
  8
0
  6
CONTINUOUS
 62
     7
 10
7.5816223554
 20
5.4111941012
 30
0.0
 11
7.7077762314
 21
5.4111941012
 31
0.0
  0
LINE
  5
201
  8
0
  6
CONTINUOUS
 62
     7
 10
7.7077762314
 20
5.4111941012
 30
0.0
 11
7.6901293553
 21
5.3806062905
 31
0.0
  0
LINE
  5
202
  8
0
  6
CONTINUOUS
 62
     7
 10
7.6662348447
 20
5.3611941015
 30
0.0
 11
7.6231635956
 21
5.3611941015
 31
0.0
  0
LINE
  5
203
  8
0
  6
CONTINUOUS
 62
     7
 10
7.6231635956
 20
5.3611941015
 30
0.0
 11
7.6231635956
 21
5.3711941014
 31
0.0
  0
LINE
  5
204
  8
0
  6
CONTINUOUS
 62
     7
 10
4.9292691957
 20
5.3806062905
 30
0.0
 11
4.9116221729
 21
5.4111941012
 31
0.0
  0
LINE
  5
205
  8
0
  6
CONTINUOUS
 62
     7
 10
4.9116221729
 20
5.4111941012
 30
0.0
 11
5.0377760488
 21
5.4111941012
 31
0.0
  0
LINE
  5
206
  8
0
  6
CONTINUOUS
 62
     7
 10
5.0377760488
 20
5.4111941012
 30
0.0
 11
5.0201293194
 21
5.3806062905
 31
0.0
  0
LINE
  5
207
  8
0
  6
CONTINUOUS
 62
     7
 10
3.8901293866
 20
5.3611941015
 30
0.0
 11
3.8901293866
 21
5.3806062905
 31
0.0
  0
LINE
  5
208
  8
0
  6
CONTINUOUS
 62
     7
 10
3.8901293866
 20
5.3611941015
 30
0.0
 11
3.8662347293
 21
5.3611941015
 31
0.0
  0
LINE
  5
209
  8
0
  6
CONTINUOUS
 62
     7
 10
7.6231635956
 20
5.3611941015
 30
0.0
 11
7.5992690849
 21
5.3611941015
 31
0.0
  0
LINE
  5
20A
  8
0
  6
CONTINUOUS
 62
     7
 10
7.5992690849
 20
5.3611941015
 30
0.0
 11
7.5992690849
 21
5.3806062905
 31
0.0
  0
LINE
  5
20B
  8
0
  6
CONTINUOUS
 62
     7
 10
6.5362347652
 20
5.3611941015
 30
0.0
 11
6.4931636628
 21
5.3611941015
 31
0.0
  0
LINE
  5
20C
  8
0
  6
CONTINUOUS
 62
     7
 10
5.0377760488
 20
7.3161941328
 30
0.0
 11
4.9116221729
 21
7.3161941328
 31
0.0
  0
LINE
  5
20D
  8
0
  6
CONTINUOUS
 62
     7
 10
4.9116221729
 20
7.3161941328
 30
0.0
 11
4.9292691957
 21
7.3467818461
 31
0.0
  0
ARC
  5
20E
  8
0
  6
CONTINUOUS
 62
     7
 10
4.9508182124
 20
7.3271122403
 30
0.0
 40
0.0291762491052235
 50
85.3892755692
 51
137.6106593609
  0
LINE
  5
20F
  8
0
  6
CONTINUOUS
 62
     7
 10
4.9531635596
 20
7.3561940707
 30
0.0
 11
4.9962349554
 21
7.3561940707
 31
0.0
  0
ARC
  5
210
  8
0
  6
CONTINUOUS
 62
     7
 10
4.9994622247
 20
7.3293511336
 30
0.0
 40
0.0270362449428541
 50
40.1444210227
 51
96.8556440471
  0
LINE
  5
211
  8
0
  6
CONTINUOUS
 62
     7
 10
5.0201293194
 20
7.3467818461
 30
0.0
 11
5.0377760488
 21
7.3161941328
 31
0.0
  0
LINE
  5
212
  8
0
  6
CONTINUOUS
 62
     7
 10
3.8662347293
 20
7.3661941285
 30
0.0
 11
3.8662347293
 21
7.3561940707
 31
0.0
  0
LINE
  5
213
  8
0
  6
CONTINUOUS
 62
     7
 10
3.8662347293
 20
7.3661941285
 30
0.0
 11
3.8901293866
 21
7.3661941285
 31
0.0
  0
LINE
  5
214
  8
0
  6
CONTINUOUS
 62
     7
 10
3.8901293866
 20
7.3661941285
 30
0.0
 11
3.8901293866
 21
7.3467818461
 31
0.0
  0
ARC
  5
215
  8
0
  6
CONTINUOUS
 62
     7
 10
3.8694621089
 20
7.3293507697
 30
0.0
 40
0.0270366194271017
 50
40.1447605616
 51
96.8557841994
  0
LINE
  5
216
  8
0
  6
CONTINUOUS
 62
     7
 10
3.8231633335
 20
7.3661941285
 30
0.0
 11
3.8662347293
 21
7.3661941285
 31
0.0
  0
LINE
  5
217
  8
0
  6
CONTINUOUS
 62
     7
 10
3.8231633335
 20
7.3561940707
 30
0.0
 11
3.8662347293
 21
7.3561940707
 31
0.0
  0
LINE
  5
218
  8
0
  6
CONTINUOUS
 62
     7
 10
3.8231633335
 20
7.3661941285
 30
0.0
 11
3.8231633335
 21
7.3561940707
 31
0.0
  0
LINE
  5
219
  8
0
  6
CONTINUOUS
 62
     7
 10
4.9531635596
 20
7.3661941285
 30
0.0
 11
4.9531635596
 21
7.3561940707
 31
0.0
  0
LINE
  5
21A
  8
0
  6
CONTINUOUS
 62
     7
 10
4.9292691957
 20
7.3661941285
 30
0.0
 11
4.9292691957
 21
7.3467818461
 31
0.0
  0
LINE
  5
21B
  8
0
  6
CONTINUOUS
 62
     7
 10
4.9292691957
 20
7.3661941285
 30
0.0
 11
4.9531635596
 21
7.3661941285
 31
0.0
  0
LINE
  5
21C
  8
0
  6
CONTINUOUS
 62
     7
 10
7.6662348447
 20
7.3661941285
 30
0.0
 11
7.6662348447
 21
7.3561940707
 31
0.0
  0
LINE
  5
21D
  8
0
  6
CONTINUOUS
 62
     7
 10
7.6662348447
 20
7.3661941285
 30
0.0
 11
7.6901293553
 21
7.3661941285
 31
0.0
  0
LINE
  5
21E
  8
0
  6
CONTINUOUS
 62
     7
 10
7.6901293553
 20
7.3661941285
 30
0.0
 11
7.6901293553
 21
7.3467818461
 31
0.0
  0
ARC
  5
21F
  8
0
  6
CONTINUOUS
 62
     7
 10
7.669461877
 20
7.3293502098
 30
0.0
 40
0.0270371338186459
 50
40.145393247
 51
96.8549116698
  0
LINE
  5
220
  8
0
  6
CONTINUOUS
 62
     7
 10
6.5362347652
 20
7.3661941285
 30
0.0
 11
6.5362347652
 21
7.3561940707
 31
0.0
  0
LINE
  5
221
  8
0
  6
CONTINUOUS
 62
     7
 10
6.5362347652
 20
7.3661941285
 30
0.0
 11
6.5601294225
 21
7.3661941285
 31
0.0
  0
LINE
  5
222
  8
0
  6
CONTINUOUS
 62
     7
 10
6.5601294225
 20
7.3661941285
 30
0.0
 11
6.5601294225
 21
7.3467818461
 31
0.0
  0
ARC
  5
223
  8
0
  6
CONTINUOUS
 62
     7
 10
6.5394615604
 20
7.329349286
 30
0.0
 40
0.0270380227382871
 50
40.1463654571
 51
96.854179304
  0
LINE
  5
224
  8
0
  6
CONTINUOUS
 62
     7
 10
6.577776152
 20
7.3161941328
 30
0.0
 11
6.451622276
 21
7.3161941328
 31
0.0
  0
LINE
  5
225
  8
0
  6
CONTINUOUS
 62
     7
 10
6.451622276
 20
7.3161941328
 30
0.0
 11
6.4692690055
 21
7.3467818461
 31
0.0
  0
ARC
  5
226
  8
0
  6
CONTINUOUS
 62
     7
 10
6.4908181826
 20
7.3271119061
 30
0.0
 40
0.0291765929258613
 50
85.3890682172
 51
137.6103870217
  0
LINE
  5
227
  8
0
  6
CONTINUOUS
 62
     7
 10
6.4931636628
 20
7.3561940707
 30
0.0
 11
6.5362347652
 21
7.3561940707
 31
0.0
  0
LINE
  5
228
  8
0
  6
CONTINUOUS
 62
     7
 10
6.5601294225
 20
7.3467818461
 30
0.0
 11
6.577776152
 21
7.3161941328
 31
0.0
  0
LINE
  5
229
  8
0
  6
CONTINUOUS
 62
     7
 10
7.6231635956
 20
7.3661941285
 30
0.0
 11
7.6231635956
 21
7.3561940707
 31
0.0
  0
ARC
  5
22A
  8
0
  6
CONTINUOUS
 62
     7
 10
7.6208182297
 20
7.3271119518
 30
0.0
 40
0.0291765382446638
 50
85.3892847247
 51
137.6104103586
  0
LINE
  5
22B
  8
0
  6
CONTINUOUS
 62
     7
 10
7.5992690849
 20
7.3661941285
 30
0.0
 11
7.5992690849
 21
7.3467818461
 31
0.0
  0
LINE
  5
22C
  8
0
  6
CONTINUOUS
 62
     7
 10
7.5992690849
 20
7.3661941285
 30
0.0
 11
7.6231635956
 21
7.3661941285
 31
0.0
  0
LINE
  5
22D
  8
0
  6
CONTINUOUS
 62
     7
 10
3.907776116
 20
7.3161941328
 30
0.0
 11
3.7816225334
 21
7.3161941328
 31
0.0
  0
LINE
  5
22E
  8
0
  6
CONTINUOUS
 62
     7
 10
3.7816225334
 20
7.3161941328
 30
0.0
 11
3.7992692628
 21
7.3467818461
 31
0.0
  0
ARC
  5
22F
  8
0
  6
CONTINUOUS
 62
     7
 10
3.8208180823
 20
7.3271126679
 30
0.0
 40
0.0291758152104581
 50
85.3893962272
 51
137.6110184043
  0
LINE
  5
230
  8
0
  6
CONTINUOUS
 62
     7
 10
3.8901293866
 20
7.3467818461
 30
0.0
 11
3.907776116
 21
7.3161941328
 31
0.0
  0
LINE
  5
231
  8
0
  6
CONTINUOUS
 62
     7
 10
7.7077762314
 20
7.3161941328
 30
0.0
 11
7.5816223554
 21
7.3161941328
 31
0.0
  0
LINE
  5
232
  8
0
  6
CONTINUOUS
 62
     7
 10
7.5816223554
 20
7.3161941328
 30
0.0
 11
7.5992690849
 21
7.3467818461
 31
0.0
  0
LINE
  5
233
  8
0
  6
CONTINUOUS
 62
     7
 10
7.6231635956
 20
7.3561940707
 30
0.0
 11
7.6662348447
 21
7.3561940707
 31
0.0
  0
LINE
  5
234
  8
0
  6
CONTINUOUS
 62
     7
 10
7.6901293553
 20
7.3467818461
 30
0.0
 11
7.7077762314
 21
7.3161941328
 31
0.0
  0
LINE
  5
235
  8
0
  6
CONTINUOUS
 62
     7
 10
3.7992692628
 20
7.3661941285
 30
0.0
 11
3.7992692628
 21
7.3467818461
 31
0.0
  0
LINE
  5
236
  8
0
  6
CONTINUOUS
 62
     7
 10
3.7992692628
 20
7.3661941285
 30
0.0
 11
3.8231633335
 21
7.3661941285
 31
0.0
  0
LINE
  5
237
  8
0
  6
CONTINUOUS
 62
     7
 10
4.9962349554
 20
7.3661941285
 30
0.0
 11
4.9962349554
 21
7.3561940707
 31
0.0
  0
LINE
  5
238
  8
0
  6
CONTINUOUS
 62
     7
 10
5.0201293194
 20
7.3661941285
 30
0.0
 11
5.0201293194
 21
7.3467818461
 31
0.0
  0
LINE
  5
239
  8
0
  6
CONTINUOUS
 62
     7
 10
4.9962349554
 20
7.3661941285
 30
0.0
 11
5.0201293194
 21
7.3661941285
 31
0.0
  0
LINE
  5
23A
  8
0
  6
CONTINUOUS
 62
     7
 10
6.4931636628
 20
7.3661941285
 30
0.0
 11
6.4931636628
 21
7.3561940707
 31
0.0
  0
LINE
  5
23B
  8
0
  6
CONTINUOUS
 62
     7
 10
6.4931636628
 20
7.3661941285
 30
0.0
 11
6.5362347652
 21
7.3661941285
 31
0.0
  0
LINE
  5
23C
  8
0
  6
CONTINUOUS
 62
     7
 10
7.6231635956
 20
7.3661941285
 30
0.0
 11
7.6662348447
 21
7.3661941285
 31
0.0
  0
LINE
  5
23D
  8
0
  6
CONTINUOUS
 62
     7
 10
4.9531635596
 20
7.3661941285
 30
0.0
 11
4.9962349554
 21
7.3661941285
 31
0.0
  0
LINE
  5
23E
  8
0
  6
CONTINUOUS
 62
     7
 10
6.4692690055
 20
7.3661941285
 30
0.0
 11
6.4692690055
 21
7.3467818461
 31
0.0
  0
LINE
  5
23F
  8
0
  6
CONTINUOUS
 62
     7
 10
6.4692690055
 20
7.3661941285
 30
0.0
 11
6.4931636628
 21
7.3661941285
 31
0.0
  0
LINE
  5
240
  8
0
  6
CONTINUOUS
 62
     7
 10
7.7446992849
 20
7.3661941285
 30
0.0
 11
7.7446992849
 21
7.3461940129
 31
0.0
  0
LINE
  5
241
  8
0
  6
CONTINUOUS
 62
     7
 10
7.7446992849
 20
7.2761940482
 30
0.0
 11
7.7446992849
 21
7.3461940129
 31
0.0
  0
POLYLINE
  5
242
  8
0
  6
CONTINUOUS
 62
     7
 66
     1
 10
0.0
 20
0.0
 30
0.0
  0
VERTEX
  5
3B1
  8
0
  6
CONTINUOUS
 62
     7
 10
7.7323916004
 20
7.3161941328
 30
0.0
  0
VERTEX
  5
3B2
  8
0
  6
CONTINUOUS
 62
     7
 10
7.7347926527
 20
7.3154254617
 30
0.0
  0
VERTEX
  5
3B3
  8
0
  6
CONTINUOUS
 62
     7
 10
7.7371014527
 20
7.3131492213
 30
0.0
  0
VERTEX
  5
3B4
  8
0
  6
CONTINUOUS
 62
     7
 10
7.7392292681
 20
7.309452824
 30
0.0
  0
VERTEX
  5
3B5
  8
0
  6
CONTINUOUS
 62
     7
 10
7.7410944065
 20
7.3044783881
 30
0.0
  0
VERTEX
  5
3B6
  8
0
  6
CONTINUOUS
 62
     7
 10
7.7426250022
 20
7.2984168715
 30
0.0
  0
VERTEX
  5
3B7
  8
0
  6
CONTINUOUS
 62
     7
 10
7.7437623891
 20
7.2915014714
 30
0.0
  0
VERTEX
  5
3B8
  8
0
  6
CONTINUOUS
 62
     7
 10
7.7444627143
 20
7.2839976514
 30
0.0
  0
VERTEX
  5
3B9
  8
0
  6
CONTINUOUS
 62
     7
 10
7.7446992849
 20
7.2761940482
 30
0.0
  0
SEQEND
  5
3B0
  8
0
  6
CONTINUOUS
 62
     7
  0
LINE
  5
243
  8
0
  6
CONTINUOUS
 62
     7
 10
7.7077762314
 20
7.3161941328
 30
0.0
 11
7.7323916004
 21
7.3161941328
 31
0.0
  0
LINE
  5
244
  8
0
  6
CONTINUOUS
 62
     7
 10
7.6901293553
 20
7.3661941285
 30
0.0
 11
7.7446992849
 21
7.3661941285
 31
0.0
  0
LINE
  5
245
  8
0
  6
CONTINUOUS
 62
     7
 10
3.7446993332
 20
5.3611941015
 30
0.0
 11
3.7446993332
 21
5.3811941099
 31
0.0
  0
LINE
  5
246
  8
0
  6
CONTINUOUS
 62
     7
 10
3.7446993332
 20
5.4511941033
 30
0.0
 11
3.7446993332
 21
5.3811941099
 31
0.0
  0
POLYLINE
  5
247
  8
0
  6
CONTINUOUS
 62
     7
 66
     1
 10
0.0
 20
0.0
 30
0.0
  0
VERTEX
  5
3BB
  8
0
  6
CONTINUOUS
 62
     7
 10
3.7570068711
 20
5.4111941012
 30
0.0
  0
VERTEX
  5
3BC
  8
0
  6
CONTINUOUS
 62
     7
 10
3.7546056721
 20
5.4119626898
 30
0.0
  0
VERTEX
  5
3BD
  8
0
  6
CONTINUOUS
 62
     7
 10
3.7522971655
 20
5.414238921
 30
0.0
  0
VERTEX
  5
3BE
  8
0
  6
CONTINUOUS
 62
     7
 10
3.7501693501
 20
5.4179353183
 30
0.0
  0
VERTEX
  5
3BF
  8
0
  6
CONTINUOUS
 62
     7
 10
3.7483043583
 20
5.4229098321
 30
0.0
  0
VERTEX
  5
3C0
  8
0
  6
CONTINUOUS
 62
     7
 10
3.746773176
 20
5.4289712937
 30
0.0
  0
VERTEX
  5
3C1
  8
0
  6
CONTINUOUS
 62
     7
 10
3.7456362291
 20
5.4358867626
 30
0.0
  0
VERTEX
  5
3C2
  8
0
  6
CONTINUOUS
 62
     7
 10
3.7449357572
 20
5.4433904909
 30
0.0
  0
VERTEX
  5
3C3
  8
0
  6
CONTINUOUS
 62
     7
 10
3.7446993332
 20
5.4511941033
 30
0.0
  0
SEQEND
  5
3BA
  8
0
  6
CONTINUOUS
 62
     7
  0
LINE
  5
248
  8
0
  6
CONTINUOUS
 62
     7
 10
3.7816225334
 20
5.4111941012
 30
0.0
 11
3.7570068711
 21
5.4111941012
 31
0.0
  0
LINE
  5
249
  8
0
  6
CONTINUOUS
 62
     7
 10
3.7992692628
 20
5.3611941015
 30
0.0
 11
3.7446993332
 21
5.3611941015
 31
0.0
  0
LINE
  5
24A
  8
0
  6
CONTINUOUS
 62
     7
 10
7.544699302
 20
5.3611941015
 30
0.0
 11
7.544699302
 21
5.3811941099
 31
0.0
  0
LINE
  5
24B
  8
0
  6
CONTINUOUS
 62
     7
 10
7.544699302
 20
5.4511941033
 30
0.0
 11
7.544699302
 21
5.3811941099
 31
0.0
  0
POLYLINE
  5
24C
  8
0
  6
CONTINUOUS
 62
     7
 66
     1
 10
0.0
 20
0.0
 30
0.0
  0
VERTEX
  5
3C5
  8
0
  6
CONTINUOUS
 62
     7
 10
7.5570069865
 20
5.4111941012
 30
0.0
  0
VERTEX
  5
3C6
  8
0
  6
CONTINUOUS
 62
     7
 10
7.5546057875
 20
5.4119626898
 30
0.0
  0
VERTEX
  5
3C7
  8
0
  6
CONTINUOUS
 62
     7
 10
7.5522969876
 20
5.414238921
 30
0.0
  0
VERTEX
  5
3C8
  8
0
  6
CONTINUOUS
 62
     7
 10
7.5501691721
 20
5.4179353183
 30
0.0
  0
VERTEX
  5
3C9
  8
0
  6
CONTINUOUS
 62
     7
 10
7.5483040337
 20
5.4229098321
 30
0.0
  0
VERTEX
  5
3CA
  8
0
  6
CONTINUOUS
 62
     7
 10
7.546773438
 20
5.4289712937
 30
0.0
  0
VERTEX
  5
3CB
  8
0
  6
CONTINUOUS
 62
     7
 10
7.5456360512
 20
5.4358867626
 30
0.0
  0
VERTEX
  5
3CC
  8
0
  6
CONTINUOUS
 62
     7
 10
7.5449357259
 20
5.4433904909
 30
0.0
  0
VERTEX
  5
3CD
  8
0
  6
CONTINUOUS
 62
     7
 10
7.544699302
 20
5.4511941033
 30
0.0
  0
SEQEND
  5
3C4
  8
0
  6
CONTINUOUS
 62
     7
  0
LINE
  5
24D
  8
0
  6
CONTINUOUS
 62
     7
 10
7.5816223554
 20
5.4111941012
 30
0.0
 11
7.5570069865
 21
5.4111941012
 31
0.0
  0
LINE
  5
24E
  8
0
  6
CONTINUOUS
 62
     7
 10
7.5992690849
 20
5.3611941015
 30
0.0
 11
7.544699302
 21
5.3611941015
 31
0.0
  0
LINE
  5
24F
  8
0
  6
CONTINUOUS
 62
     7
 10
3.9446993162
 20
7.3661941285
 30
0.0
 11
3.9446993162
 21
7.3461940129
 31
0.0
  0
LINE
  5
250
  8
0
  6
CONTINUOUS
 62
     7
 10
3.9446993162
 20
7.2761940482
 30
0.0
 11
3.9446993162
 21
7.3461940129
 31
0.0
  0
POLYLINE
  5
251
  8
0
  6
CONTINUOUS
 62
     7
 66
     1
 10
0.0
 20
0.0
 30
0.0
  0
VERTEX
  5
3CF
  8
0
  6
CONTINUOUS
 62
     7
 10
3.9323917783
 20
7.3161941328
 30
0.0
  0
VERTEX
  5
3D0
  8
0
  6
CONTINUOUS
 62
     7
 10
3.9345289803
 20
7.3155863532
 30
0.0
  0
VERTEX
  5
3D1
  8
0
  6
CONTINUOUS
 62
     7
 10
3.936601063
 20
7.3137817873
 30
0.0
  0
VERTEX
  5
3D2
  8
0
  6
CONTINUOUS
 62
     7
 10
3.9385452539
 20
7.3108351414
 30
0.0
  0
VERTEX
  5
3D3
  8
0
  6
CONTINUOUS
 62
     7
 10
3.9403028869
 20
7.3068358809
 30
0.0
  0
VERTEX
  5
3D4
  8
0
  6
CONTINUOUS
 62
     7
 10
3.9418199894
 20
7.3019055912
 30
0.0
  0
VERTEX
  5
3D5
  8
0
  6
CONTINUOUS
 62
     7
 10
3.9430502152
 20
7.2961941638
 30
0.0
  0
VERTEX
  5
3D6
  8
0
  6
CONTINUOUS
 62
     7
 10
3.9439571914
 20
7.2898749568
 30
0.0
  0
VERTEX
  5
3D7
  8
0
  6
CONTINUOUS
 62
     7
 10
3.9445121717
 20
7.2831401013
 30
0.0
  0
VERTEX
  5
3D8
  8
0
  6
CONTINUOUS
 62
     7
 10
3.9446993162
 20
7.2761940482
 30
0.0
  0
SEQEND
  5
3CE
  8
0
  6
CONTINUOUS
 62
     7
  0
LINE
  5
252
  8
0
  6
CONTINUOUS
 62
     7
 10
3.907776116
 20
7.3161941328
 30
0.0
 11
3.9323917783
 21
7.3161941328
 31
0.0
  0
LINE
  5
253
  8
0
  6
CONTINUOUS
 62
     7
 10
3.8901293866
 20
7.3661941285
 30
0.0
 11
3.9446993162
 21
7.3661941285
 31
0.0
  0
LINE
  5
254
  8
0
  6
CONTINUOUS
 62
     7
 10
7.7323916004
 20
5.4111941012
 30
0.0
 11
7.7077762314
 21
5.4111941012
 31
0.0
  0
POLYLINE
  5
255
  8
0
  6
CONTINUOUS
 62
     7
 66
     1
 10
0.0
 20
0.0
 30
0.0
  0
VERTEX
  5
3DA
  8
0
  6
CONTINUOUS
 62
     7
 10
7.7446992849
 20
5.4511941033
 30
0.0
  0
VERTEX
  5
3DB
  8
0
  6
CONTINUOUS
 62
     7
 10
7.7445122871
 20
5.4442481785
 30
0.0
  0
VERTEX
  5
3DC
  8
0
  6
CONTINUOUS
 62
     7
 10
7.7439570135
 20
5.4375132955
 30
0.0
  0
VERTEX
  5
3DD
  8
0
  6
CONTINUOUS
 62
     7
 10
7.7430503306
 20
5.4311941022
 30
0.0
  0
VERTEX
  5
3DE
  8
0
  6
CONTINUOUS
 62
     7
 10
7.7418198115
 20
5.425482597
 30
0.0
  0
VERTEX
  5
3DF
  8
0
  6
CONTINUOUS
 62
     7
 10
7.740302709
 20
5.4205523256
 30
0.0
  0
VERTEX
  5
3E0
  8
0
  6
CONTINUOUS
 62
     7
 10
7.7385453693
 20
5.4165530834
 30
0.0
  0
VERTEX
  5
3E1
  8
0
  6
CONTINUOUS
 62
     7
 10
7.7366010318
 20
5.4136063962
 30
0.0
  0
VERTEX
  5
3E2
  8
0
  6
CONTINUOUS
 62
     7
 10
7.7345288024
 20
5.4118017892
 30
0.0
  0
VERTEX
  5
3E3
  8
0
  6
CONTINUOUS
 62
     7
 10
7.7323916004
 20
5.4111941012
 30
0.0
  0
SEQEND
  5
3D9
  8
0
  6
CONTINUOUS
 62
     7
  0
LINE
  5
256
  8
0
  6
CONTINUOUS
 62
     7
 10
7.7446992849
 20
5.3811941512
 30
0.0
 11
7.7446992849
 21
5.4511941033
 31
0.0
  0
LINE
  5
257
  8
0
  6
CONTINUOUS
 62
     7
 10
7.7446992849
 20
5.3611941015
 30
0.0
 11
7.7446992849
 21
5.3811941512
 31
0.0
  0
LINE
  5
258
  8
0
  6
CONTINUOUS
 62
     7
 10
7.7446992849
 20
5.3611941015
 30
0.0
 11
7.6901293553
 21
5.3611941015
 31
0.0
  0
LINE
  5
259
  8
0
  6
CONTINUOUS
 62
     7
 10
7.5570069865
 20
7.3161941328
 30
0.0
 11
7.5816223554
 21
7.3161941328
 31
0.0
  0
POLYLINE
  5
25A
  8
0
  6
CONTINUOUS
 62
     7
 66
     1
 10
0.0
 20
0.0
 30
0.0
  0
VERTEX
  5
3E5
  8
0
  6
CONTINUOUS
 62
     7
 10
7.544699302
 20
7.2761940482
 30
0.0
  0
VERTEX
  5
3E6
  8
0
  6
CONTINUOUS
 62
     7
 10
7.5448861532
 20
7.2831401013
 30
0.0
  0
VERTEX
  5
3E7
  8
0
  6
CONTINUOUS
 62
     7
 10
7.5454414267
 20
7.2898749568
 30
0.0
  0
VERTEX
  5
3E8
  8
0
  6
CONTINUOUS
 62
     7
 10
7.5463481096
 20
7.2961941638
 30
0.0
  0
VERTEX
  5
3E9
  8
0
  6
CONTINUOUS
 62
     7
 10
7.5475786287
 20
7.3019055912
 30
0.0
  0
VERTEX
  5
3EA
  8
0
  6
CONTINUOUS
 62
     7
 10
7.5490957312
 20
7.3068358809
 30
0.0
  0
VERTEX
  5
3EB
  8
0
  6
CONTINUOUS
 62
     7
 10
7.5508530709
 20
7.3108351414
 30
0.0
  0
VERTEX
  5
3EC
  8
0
  6
CONTINUOUS
 62
     7
 10
7.5527974084
 20
7.3137817873
 30
0.0
  0
VERTEX
  5
3ED
  8
0
  6
CONTINUOUS
 62
     7
 10
7.5548697845
 20
7.3155863532
 30
0.0
  0
VERTEX
  5
3EE
  8
0
  6
CONTINUOUS
 62
     7
 10
7.5570069865
 20
7.3161941328
 30
0.0
  0
SEQEND
  5
3E4
  8
0
  6
CONTINUOUS
 62
     7
  0
LINE
  5
25B
  8
0
  6
CONTINUOUS
 62
     7
 10
7.544699302
 20
7.3461941596
 30
0.0
 11
7.544699302
 21
7.2761940482
 31
0.0
  0
LINE
  5
25C
  8
0
  6
CONTINUOUS
 62
     7
 10
7.544699302
 20
7.3661941285
 30
0.0
 11
7.544699302
 21
7.3461941596
 31
0.0
  0
LINE
  5
25D
  8
0
  6
CONTINUOUS
 62
     7
 10
7.544699302
 20
7.3661941285
 30
0.0
 11
7.5992690849
 21
7.3661941285
 31
0.0
  0
LINE
  5
25E
  8
0
  6
CONTINUOUS
 62
     7
 10
3.7570068711
 20
7.3161941328
 30
0.0
 11
3.7816225334
 21
7.3161941328
 31
0.0
  0
POLYLINE
  5
25F
  8
0
  6
CONTINUOUS
 62
     7
 66
     1
 10
0.0
 20
0.0
 30
0.0
  0
VERTEX
  5
3F0
  8
0
  6
CONTINUOUS
 62
     7
 10
3.7446993332
 20
7.2761940482
 30
0.0
  0
VERTEX
  5
3F1
  8
0
  6
CONTINUOUS
 62
     7
 10
3.7448864777
 20
7.2831401013
 30
0.0
  0
VERTEX
  5
3F2
  8
0
  6
CONTINUOUS
 62
     7
 10
3.745441458
 20
7.2898749568
 30
0.0
  0
VERTEX
  5
3F3
  8
0
  6
CONTINUOUS
 62
     7
 10
3.7463484342
 20
7.2961941638
 30
0.0
  0
VERTEX
  5
3F4
  8
0
  6
CONTINUOUS
 62
     7
 10
3.74757866
 20
7.3019055912
 30
0.0
  0
VERTEX
  5
3F5
  8
0
  6
CONTINUOUS
 62
     7
 10
3.7490957625
 20
7.3068358809
 30
0.0
  0
VERTEX
  5
3F6
  8
0
  6
CONTINUOUS
 62
     7
 10
3.7508528088
 20
7.3108351414
 30
0.0
  0
VERTEX
  5
3F7
  8
0
  6
CONTINUOUS
 62
     7
 10
3.7527975864
 20
7.3137817873
 30
0.0
  0
VERTEX
  5
3F8
  8
0
  6
CONTINUOUS
 62
     7
 10
3.7548696691
 20
7.3155863532
 30
0.0
  0
VERTEX
  5
3F9
  8
0
  6
CONTINUOUS
 62
     7
 10
3.7570068711
 20
7.3161941328
 30
0.0
  0
SEQEND
  5
3EF
  8
0
  6
CONTINUOUS
 62
     7
  0
LINE
  5
260
  8
0
  6
CONTINUOUS
 62
     7
 10
3.7446993332
 20
7.3461941596
 30
0.0
 11
3.7446993332
 21
7.2761940482
 31
0.0
  0
LINE
  5
261
  8
0
  6
CONTINUOUS
 62
     7
 10
3.7446993332
 20
7.3661941285
 30
0.0
 11
3.7446993332
 21
7.3461941596
 31
0.0
  0
LINE
  5
262
  8
0
  6
CONTINUOUS
 62
     7
 10
3.7446993332
 20
7.3661941285
 30
0.0
 11
3.7992692628
 21
7.3661941285
 31
0.0
  0
LINE
  5
263
  8
0
  6
CONTINUOUS
 62
     7
 10
3.9323917783
 20
5.4111941012
 30
0.0
 11
3.907776116
 21
5.4111941012
 31
0.0
  0
POLYLINE
  5
264
  8
0
  6
CONTINUOUS
 62
     7
 66
     1
 10
0.0
 20
0.0
 30
0.0
  0
VERTEX
  5
3FB
  8
0
  6
CONTINUOUS
 62
     7
 10
3.9446993162
 20
5.4511941033
 30
0.0
  0
VERTEX
  5
3FC
  8
0
  6
CONTINUOUS
 62
     7
 10
3.9445121717
 20
5.4442481785
 30
0.0
  0
VERTEX
  5
3FD
  8
0
  6
CONTINUOUS
 62
     7
 10
3.9439571914
 20
5.4375132955
 30
0.0
  0
VERTEX
  5
3FE
  8
0
  6
CONTINUOUS
 62
     7
 10
3.9430502152
 20
5.4311941022
 30
0.0
  0
VERTEX
  5
3FF
  8
0
  6
CONTINUOUS
 62
     7
 10
3.9418199894
 20
5.425482597
 30
0.0
  0
VERTEX
  5
400
  8
0
  6
CONTINUOUS
 62
     7
 10
3.9403028869
 20
5.4205523256
 30
0.0
  0
VERTEX
  5
401
  8
0
  6
CONTINUOUS
 62
     7
 10
3.9385452539
 20
5.4165530834
 30
0.0
  0
VERTEX
  5
402
  8
0
  6
CONTINUOUS
 62
     7
 10
3.936601063
 20
5.4136063962
 30
0.0
  0
VERTEX
  5
403
  8
0
  6
CONTINUOUS
 62
     7
 10
3.9345289803
 20
5.4118017892
 30
0.0
  0
VERTEX
  5
404
  8
0
  6
CONTINUOUS
 62
     7
 10
3.9323917783
 20
5.4111941012
 30
0.0
  0
SEQEND
  5
3FA
  8
0
  6
CONTINUOUS
 62
     7
  0
LINE
  5
265
  8
0
  6
CONTINUOUS
 62
     7
 10
3.9446993162
 20
5.3811941294
 30
0.0
 11
3.9446993162
 21
5.4511941033
 31
0.0
  0
LINE
  5
266
  8
0
  6
CONTINUOUS
 62
     7
 10
3.9446993162
 20
5.3611941015
 30
0.0
 11
3.9446993162
 21
5.3811941294
 31
0.0
  0
LINE
  5
267
  8
0
  6
CONTINUOUS
 62
     7
 10
3.9446993162
 20
5.3611941015
 30
0.0
 11
3.8901293866
 21
5.3611941015
 31
0.0
  0
LINE
  5
268
  8
0
  6
CONTINUOUS
 62
     7
 10
6.4146993692
 20
5.3611941015
 30
0.0
 11
6.4146993692
 21
5.3811941294
 31
0.0
  0
LINE
  5
269
  8
0
  6
CONTINUOUS
 62
     7
 10
6.4146993692
 20
5.4511941033
 30
0.0
 11
6.4146993692
 21
5.3811941294
 31
0.0
  0
POLYLINE
  5
26A
  8
0
  6
CONTINUOUS
 62
     7
 66
     1
 10
0.0
 20
0.0
 30
0.0
  0
VERTEX
  5
406
  8
0
  6
CONTINUOUS
 62
     7
 10
6.427006907
 20
5.4111941012
 30
0.0
  0
VERTEX
  5
407
  8
0
  6
CONTINUOUS
 62
     7
 10
6.4246057081
 20
5.4119626898
 30
0.0
  0
VERTEX
  5
408
  8
0
  6
CONTINUOUS
 62
     7
 10
6.4222969081
 20
5.414238921
 30
0.0
  0
VERTEX
  5
409
  8
0
  6
CONTINUOUS
 62
     7
 10
6.4201690927
 20
5.4179353183
 30
0.0
  0
VERTEX
  5
40A
  8
0
  6
CONTINUOUS
 62
     7
 10
6.4183041009
 20
5.4229098321
 30
0.0
  0
VERTEX
  5
40B
  8
0
  6
CONTINUOUS
 62
     7
 10
6.4167735052
 20
5.4289712937
 30
0.0
  0
VERTEX
  5
40C
  8
0
  6
CONTINUOUS
 62
     7
 10
6.4156359717
 20
5.4358867626
 30
0.0
  0
VERTEX
  5
40D
  8
0
  6
CONTINUOUS
 62
     7
 10
6.4149357931
 20
5.4433904909
 30
0.0
  0
VERTEX
  5
40E
  8
0
  6
CONTINUOUS
 62
     7
 10
6.4146993692
 20
5.4511941033
 30
0.0
  0
SEQEND
  5
405
  8
0
  6
CONTINUOUS
 62
     7
  0
LINE
  5
26B
  8
0
  6
CONTINUOUS
 62
     7
 10
6.451622276
 20
5.4111941012
 30
0.0
 11
6.427006907
 21
5.4111941012
 31
0.0
  0
LINE
  5
26C
  8
0
  6
CONTINUOUS
 62
     7
 10
6.4692690055
 20
5.3611941015
 30
0.0
 11
6.4146993692
 21
5.3611941015
 31
0.0
  0
LINE
  5
26D
  8
0
  6
CONTINUOUS
 62
     7
 10
6.6146993521
 20
7.3661941285
 30
0.0
 11
6.6146993521
 21
7.3461940129
 31
0.0
  0
LINE
  5
26E
  8
0
  6
CONTINUOUS
 62
     7
 10
6.6146993521
 20
7.2761940482
 30
0.0
 11
6.6146993521
 21
7.3461940129
 31
0.0
  0
POLYLINE
  5
26F
  8
0
  6
CONTINUOUS
 62
     7
 66
     1
 10
0.0
 20
0.0
 30
0.0
  0
VERTEX
  5
410
  8
0
  6
CONTINUOUS
 62
     7
 10
6.6023915209
 20
7.3161941328
 30
0.0
  0
VERTEX
  5
411
  8
0
  6
CONTINUOUS
 62
     7
 10
6.6045287229
 20
7.3155863532
 30
0.0
  0
VERTEX
  5
412
  8
0
  6
CONTINUOUS
 62
     7
 10
6.606601099
 20
7.3137817873
 30
0.0
  0
VERTEX
  5
413
  8
0
  6
CONTINUOUS
 62
     7
 10
6.6085452899
 20
7.3108351414
 30
0.0
  0
VERTEX
  5
414
  8
0
  6
CONTINUOUS
 62
     7
 10
6.6103029229
 20
7.3068358809
 30
0.0
  0
VERTEX
  5
415
  8
0
  6
CONTINUOUS
 62
     7
 10
6.611819732
 20
7.3019055912
 30
0.0
  0
VERTEX
  5
416
  8
0
  6
CONTINUOUS
 62
     7
 10
6.6130502511
 20
7.2961941638
 30
0.0
  0
VERTEX
  5
417
  8
0
  6
CONTINUOUS
 62
     7
 10
6.613956934
 20
7.2898749568
 30
0.0
  0
VERTEX
  5
418
  8
0
  6
CONTINUOUS
 62
     7
 10
6.6145122076
 20
7.2831401013
 30
0.0
  0
VERTEX
  5
419
  8
0
  6
CONTINUOUS
 62
     7
 10
6.6146993521
 20
7.2761940482
 30
0.0
  0
SEQEND
  5
40F
  8
0
  6
CONTINUOUS
 62
     7
  0
LINE
  5
270
  8
0
  6
CONTINUOUS
 62
     7
 10
6.577776152
 20
7.3161941328
 30
0.0
 11
6.6023915209
 21
7.3161941328
 31
0.0
  0
LINE
  5
271
  8
0
  6
CONTINUOUS
 62
     7
 10
6.5601294225
 20
7.3661941285
 30
0.0
 11
6.6146993521
 21
7.3661941285
 31
0.0
  0
LINE
  5
272
  8
0
  6
CONTINUOUS
 62
     7
 10
5.074699249
 20
7.3661941285
 30
0.0
 11
5.074699249
 21
7.3461940129
 31
0.0
  0
LINE
  5
273
  8
0
  6
CONTINUOUS
 62
     7
 10
5.074699249
 20
7.2761940482
 30
0.0
 11
5.074699249
 21
7.3461940129
 31
0.0
  0
POLYLINE
  5
274
  8
0
  6
CONTINUOUS
 62
     7
 66
     1
 10
0.0
 20
0.0
 30
0.0
  0
VERTEX
  5
41B
  8
0
  6
CONTINUOUS
 62
     7
 10
5.0623914178
 20
7.3161941328
 30
0.0
  0
VERTEX
  5
41C
  8
0
  6
CONTINUOUS
 62
     7
 10
5.0647926167
 20
7.3154254617
 30
0.0
  0
VERTEX
  5
41D
  8
0
  6
CONTINUOUS
 62
     7
 10
5.0671014167
 20
7.3131492213
 30
0.0
  0
VERTEX
  5
41E
  8
0
  6
CONTINUOUS
 62
     7
 10
5.0692292322
 20
7.309452824
 30
0.0
  0
VERTEX
  5
41F
  8
0
  6
CONTINUOUS
 62
     7
 10
5.0710945173
 20
7.3044783881
 30
0.0
  0
VERTEX
  5
420
  8
0
  6
CONTINUOUS
 62
     7
 10
5.0726251129
 20
7.2984168715
 30
0.0
  0
VERTEX
  5
421
  8
0
  6
CONTINUOUS
 62
     7
 10
5.0737623531
 20
7.2915014714
 30
0.0
  0
VERTEX
  5
422
  8
0
  6
CONTINUOUS
 62
     7
 10
5.074462825
 20
7.2839976514
 30
0.0
  0
VERTEX
  5
423
  8
0
  6
CONTINUOUS
 62
     7
 10
5.074699249
 20
7.2761940482
 30
0.0
  0
SEQEND
  5
41A
  8
0
  6
CONTINUOUS
 62
     7
  0
LINE
  5
275
  8
0
  6
CONTINUOUS
 62
     7
 10
5.0377760488
 20
7.3161941328
 30
0.0
 11
5.0623914178
 21
7.3161941328
 31
0.0
  0
LINE
  5
276
  8
0
  6
CONTINUOUS
 62
     7
 10
5.0201293194
 20
7.3661941285
 30
0.0
 11
5.074699249
 21
7.3661941285
 31
0.0
  0
LINE
  5
277
  8
0
  6
CONTINUOUS
 62
     7
 10
4.8746992661
 20
5.3611941015
 30
0.0
 11
4.8746992661
 21
5.3811941294
 31
0.0
  0
LINE
  5
278
  8
0
  6
CONTINUOUS
 62
     7
 10
4.8746992661
 20
5.4511941033
 30
0.0
 11
4.8746992661
 21
5.3811941294
 31
0.0
  0
POLYLINE
  5
279
  8
0
  6
CONTINUOUS
 62
     7
 66
     1
 10
0.0
 20
0.0
 30
0.0
  0
VERTEX
  5
425
  8
0
  6
CONTINUOUS
 62
     7
 10
4.8870068039
 20
5.4111941012
 30
0.0
  0
VERTEX
  5
426
  8
0
  6
CONTINUOUS
 62
     7
 10
4.8848696019
 20
5.4118017892
 30
0.0
  0
VERTEX
  5
427
  8
0
  6
CONTINUOUS
 62
     7
 10
4.8827975192
 20
5.4136063962
 30
0.0
  0
VERTEX
  5
428
  8
0
  6
CONTINUOUS
 62
     7
 10
4.880853035
 20
5.4165530834
 30
0.0
  0
VERTEX
  5
429
  8
0
  6
CONTINUOUS
 62
     7
 10
4.8790956953
 20
5.4205523256
 30
0.0
  0
VERTEX
  5
42A
  8
0
  6
CONTINUOUS
 62
     7
 10
4.8775785928
 20
5.425482597
 30
0.0
  0
VERTEX
  5
42B
  8
0
  6
CONTINUOUS
 62
     7
 10
4.8763480737
 20
5.4311941022
 30
0.0
  0
VERTEX
  5
42C
  8
0
  6
CONTINUOUS
 62
     7
 10
4.8754413908
 20
5.4375132955
 30
0.0
  0
VERTEX
  5
42D
  8
0
  6
CONTINUOUS
 62
     7
 10
4.8748861172
 20
5.4442481785
 30
0.0
  0
VERTEX
  5
42E
  8
0
  6
CONTINUOUS
 62
     7
 10
4.8746992661
 20
5.4511941033
 30
0.0
  0
SEQEND
  5
424
  8
0
  6
CONTINUOUS
 62
     7
  0
LINE
  5
27A
  8
0
  6
CONTINUOUS
 62
     7
 10
4.9116221729
 20
5.4111941012
 30
0.0
 11
4.8870068039
 21
5.4111941012
 31
0.0
  0
LINE
  5
27B
  8
0
  6
CONTINUOUS
 62
     7
 10
4.9292691957
 20
5.3611941015
 30
0.0
 11
4.8746992661
 21
5.3611941015
 31
0.0
  0
LINE
  5
27C
  8
0
  6
CONTINUOUS
 62
     7
 10
6.427006907
 20
7.3161941328
 30
0.0
 11
6.451622276
 21
7.3161941328
 31
0.0
  0
POLYLINE
  5
27D
  8
0
  6
CONTINUOUS
 62
     7
 66
     1
 10
0.0
 20
0.0
 30
0.0
  0
VERTEX
  5
430
  8
0
  6
CONTINUOUS
 62
     7
 10
6.4146993692
 20
7.2761940482
 30
0.0
  0
VERTEX
  5
431
  8
0
  6
CONTINUOUS
 62
     7
 10
6.4148862204
 20
7.2831401013
 30
0.0
  0
VERTEX
  5
432
  8
0
  6
CONTINUOUS
 62
     7
 10
6.4154414939
 20
7.2898749568
 30
0.0
  0
VERTEX
  5
433
  8
0
  6
CONTINUOUS
 62
     7
 10
6.4163481768
 20
7.2961941638
 30
0.0
  0
VERTEX
  5
434
  8
0
  6
CONTINUOUS
 62
     7
 10
6.4175786959
 20
7.3019055912
 30
0.0
  0
VERTEX
  5
435
  8
0
  6
CONTINUOUS
 62
     7
 10
6.4190957984
 20
7.3068358809
 30
0.0
  0
VERTEX
  5
436
  8
0
  6
CONTINUOUS
 62
     7
 10
6.4208531381
 20
7.3108351414
 30
0.0
  0
VERTEX
  5
437
  8
0
  6
CONTINUOUS
 62
     7
 10
6.422797329
 20
7.3137817873
 30
0.0
  0
VERTEX
  5
438
  8
0
  6
CONTINUOUS
 62
     7
 10
6.424869705
 20
7.3155863532
 30
0.0
  0
VERTEX
  5
439
  8
0
  6
CONTINUOUS
 62
     7
 10
6.427006907
 20
7.3161941328
 30
0.0
  0
SEQEND
  5
42F
  8
0
  6
CONTINUOUS
 62
     7
  0
LINE
  5
27E
  8
0
  6
CONTINUOUS
 62
     7
 10
6.4146993692
 20
7.3461940129
 30
0.0
 11
6.4146993692
 21
7.2761940482
 31
0.0
  0
LINE
  5
27F
  8
0
  6
CONTINUOUS
 62
     7
 10
6.4146993692
 20
7.3661941285
 30
0.0
 11
6.4146993692
 21
7.3461940129
 31
0.0
  0
LINE
  5
280
  8
0
  6
CONTINUOUS
 62
     7
 10
6.4146993692
 20
7.3661941285
 30
0.0
 11
6.4692690055
 21
7.3661941285
 31
0.0
  0
LINE
  5
281
  8
0
  6
CONTINUOUS
 62
     7
 10
6.6023915209
 20
5.4111941012
 30
0.0
 11
6.577776152
 21
5.4111941012
 31
0.0
  0
POLYLINE
  5
282
  8
0
  6
CONTINUOUS
 62
     7
 66
     1
 10
0.0
 20
0.0
 30
0.0
  0
VERTEX
  5
43B
  8
0
  6
CONTINUOUS
 62
     7
 10
6.6146993521
 20
5.4511941033
 30
0.0
  0
VERTEX
  5
43C
  8
0
  6
CONTINUOUS
 62
     7
 10
6.6145122076
 20
5.4442481785
 30
0.0
  0
VERTEX
  5
43D
  8
0
  6
CONTINUOUS
 62
     7
 10
6.613956934
 20
5.4375132955
 30
0.0
  0
VERTEX
  5
43E
  8
0
  6
CONTINUOUS
 62
     7
 10
6.6130502511
 20
5.4311941022
 30
0.0
  0
VERTEX
  5
43F
  8
0
  6
CONTINUOUS
 62
     7
 10
6.611819732
 20
5.425482597
 30
0.0
  0
VERTEX
  5
440
  8
0
  6
CONTINUOUS
 62
     7
 10
6.6103029229
 20
5.4205523256
 30
0.0
  0
VERTEX
  5
441
  8
0
  6
CONTINUOUS
 62
     7
 10
6.6085452899
 20
5.4165530834
 30
0.0
  0
VERTEX
  5
442
  8
0
  6
CONTINUOUS
 62
     7
 10
6.606601099
 20
5.4136063962
 30
0.0
  0
VERTEX
  5
443
  8
0
  6
CONTINUOUS
 62
     7
 10
6.6045287229
 20
5.4118017892
 30
0.0
  0
VERTEX
  5
444
  8
0
  6
CONTINUOUS
 62
     7
 10
6.6023915209
 20
5.4111941012
 30
0.0
  0
SEQEND
  5
43A
  8
0
  6
CONTINUOUS
 62
     7
  0
LINE
  5
283
  8
0
  6
CONTINUOUS
 62
     7
 10
6.6146993521
 20
5.3811941294
 30
0.0
 11
6.6146993521
 21
5.4511941033
 31
0.0
  0
LINE
  5
284
  8
0
  6
CONTINUOUS
 62
     7
 10
6.6146993521
 20
5.3611941015
 30
0.0
 11
6.6146993521
 21
5.3811941294
 31
0.0
  0
LINE
  5
285
  8
0
  6
CONTINUOUS
 62
     7
 10
6.6146993521
 20
5.3611941015
 30
0.0
 11
6.5601294225
 21
5.3611941015
 31
0.0
  0
LINE
  5
286
  8
0
  6
CONTINUOUS
 62
     7
 10
5.0623914178
 20
5.4111941012
 30
0.0
 11
5.0377760488
 21
5.4111941012
 31
0.0
  0
POLYLINE
  5
287
  8
0
  6
CONTINUOUS
 62
     7
 66
     1
 10
0.0
 20
0.0
 30
0.0
  0
VERTEX
  5
446
  8
0
  6
CONTINUOUS
 62
     7
 10
5.074699249
 20
5.4511941033
 30
0.0
  0
VERTEX
  5
447
  8
0
  6
CONTINUOUS
 62
     7
 10
5.0745123978
 20
5.4442481785
 30
0.0
  0
VERTEX
  5
448
  8
0
  6
CONTINUOUS
 62
     7
 10
5.0739571242
 20
5.4375132955
 30
0.0
  0
VERTEX
  5
449
  8
0
  6
CONTINUOUS
 62
     7
 10
5.0730504414
 20
5.4311941022
 30
0.0
  0
VERTEX
  5
44A
  8
0
  6
CONTINUOUS
 62
     7
 10
5.0718199222
 20
5.425482597
 30
0.0
  0
VERTEX
  5
44B
  8
0
  6
CONTINUOUS
 62
     7
 10
5.0703028198
 20
5.4205523256
 30
0.0
  0
VERTEX
  5
44C
  8
0
  6
CONTINUOUS
 62
     7
 10
5.0685454801
 20
5.4165530834
 30
0.0
  0
VERTEX
  5
44D
  8
0
  6
CONTINUOUS
 62
     7
 10
5.0666009959
 20
5.4136063962
 30
0.0
  0
VERTEX
  5
44E
  8
0
  6
CONTINUOUS
 62
     7
 10
5.0645286198
 20
5.4118017892
 30
0.0
  0
VERTEX
  5
44F
  8
0
  6
CONTINUOUS
 62
     7
 10
5.0623914178
 20
5.4111941012
 30
0.0
  0
SEQEND
  5
445
  8
0
  6
CONTINUOUS
 62
     7
  0
LINE
  5
288
  8
0
  6
CONTINUOUS
 62
     7
 10
5.074699249
 20
5.3811941294
 30
0.0
 11
5.074699249
 21
5.4511941033
 31
0.0
  0
LINE
  5
289
  8
0
  6
CONTINUOUS
 62
     7
 10
5.074699249
 20
5.3611941015
 30
0.0
 11
5.074699249
 21
5.3811941294
 31
0.0
  0
LINE
  5
28A
  8
0
  6
CONTINUOUS
 62
     7
 10
5.074699249
 20
5.3611941015
 30
0.0
 11
5.0201293194
 21
5.3611941015
 31
0.0
  0
LINE
  5
28B
  8
0
  6
CONTINUOUS
 62
     7
 10
4.8870068039
 20
7.3161941328
 30
0.0
 11
4.9116221729
 21
7.3161941328
 31
0.0
  0
POLYLINE
  5
28C
  8
0
  6
CONTINUOUS
 62
     7
 66
     1
 10
0.0
 20
0.0
 30
0.0
  0
VERTEX
  5
451
  8
0
  6
CONTINUOUS
 62
     7
 10
4.8746992661
 20
7.2761940482
 30
0.0
  0
VERTEX
  5
452
  8
0
  6
CONTINUOUS
 62
     7
 10
4.8748861172
 20
7.2831401013
 30
0.0
  0
VERTEX
  5
453
  8
0
  6
CONTINUOUS
 62
     7
 10
4.8754413908
 20
7.2898749568
 30
0.0
  0
VERTEX
  5
454
  8
0
  6
CONTINUOUS
 62
     7
 10
4.8763480737
 20
7.2961941638
 30
0.0
  0
VERTEX
  5
455
  8
0
  6
CONTINUOUS
 62
     7
 10
4.8775785928
 20
7.3019055912
 30
0.0
  0
VERTEX
  5
456
  8
0
  6
CONTINUOUS
 62
     7
 10
4.8790956953
 20
7.3068358809
 30
0.0
  0
VERTEX
  5
457
  8
0
  6
CONTINUOUS
 62
     7
 10
4.880853035
 20
7.3108351414
 30
0.0
  0
VERTEX
  5
458
  8
0
  6
CONTINUOUS
 62
     7
 10
4.8827975192
 20
7.3137817873
 30
0.0
  0
VERTEX
  5
459
  8
0
  6
CONTINUOUS
 62
     7
 10
4.8848696019
 20
7.3155863532
 30
0.0
  0
VERTEX
  5
45A
  8
0
  6
CONTINUOUS
 62
     7
 10
4.8870068039
 20
7.3161941328
 30
0.0
  0
SEQEND
  5
450
  8
0
  6
CONTINUOUS
 62
     7
  0
LINE
  5
28D
  8
0
  6
CONTINUOUS
 62
     7
 10
4.8746992661
 20
7.3461940129
 30
0.0
 11
4.8746992661
 21
7.2761940482
 31
0.0
  0
LINE
  5
28E
  8
0
  6
CONTINUOUS
 62
     7
 10
4.8746992661
 20
7.3661941285
 30
0.0
 11
4.8746992661
 21
7.3461940129
 31
0.0
  0
LINE
  5
28F
  8
0
  6
CONTINUOUS
 62
     7
 10
4.8746992661
 20
7.3661941285
 30
0.0
 11
4.9292691957
 21
7.3661941285
 31
0.0
  0
LINE
  5
290
  8
0
  6
CONTINUOUS
 62
     7
 10
3.7446993332
 20
5.4511941033
 30
0.0
 11
3.9446993162
 21
5.4511941033
 31
0.0
  0
LINE
  5
291
  8
0
  6
CONTINUOUS
 62
     7
 10
3.9446993162
 20
7.2761940482
 30
0.0
 11
3.7446993332
 21
7.2761940482
 31
0.0
  0
LINE
  5
292
  8
0
  6
CONTINUOUS
 62
     7
 10
6.4146993692
 20
5.4511941033
 30
0.0
 11
6.6146993521
 21
5.4511941033
 31
0.0
  0
LINE
  5
293
  8
0
  6
CONTINUOUS
 62
     7
 10
4.8746992661
 20
5.4511941033
 30
0.0
 11
5.074699249
 21
5.4511941033
 31
0.0
  0
LINE
  5
294
  8
0
  6
CONTINUOUS
 62
     7
 10
6.6146993521
 20
7.2761940482
 30
0.0
 11
6.4146993692
 21
7.2761940482
 31
0.0
  0
LINE
  5
295
  8
0
  6
CONTINUOUS
 62
     7
 10
7.544699302
 20
5.4511941033
 30
0.0
 11
7.7446992849
 21
5.4511941033
 31
0.0
  0
LINE
  5
296
  8
0
  6
CONTINUOUS
 62
     7
 10
5.074699249
 20
7.2761940482
 30
0.0
 11
4.8746992661
 21
7.2761940482
 31
0.0
  0
LINE
  5
297
  8
0
  6
CONTINUOUS
 62
     7
 10
7.7446992849
 20
7.2761940482
 30
0.0
 11
7.544699302
 21
7.2761940482
 31
0.0
  0
LINE
  5
298
  8
0
  6
CONTINUOUS
 62
     7
 10
7.544699302
 20
5.3811941099
 30
0.0
 11
6.6146993521
 21
5.3811941294
 31
0.0
  0
LINE
  5
299
  8
0
  6
CONTINUOUS
 62
     7
 10
6.4146993692
 20
5.3811941294
 30
0.0
 11
5.074699249
 21
5.3811941294
 31
0.0
  0
LINE
  5
29A
  8
0
  6
CONTINUOUS
 62
     7
 10
4.8746992661
 20
5.3811941294
 30
0.0
 11
3.9446993162
 21
5.3811941294
 31
0.0
  0
LINE
  5
29B
  8
0
  6
CONTINUOUS
 62
     7
 10
3.7446993332
 20
5.3811941099
 30
0.0
 11
2.7396993164
 21
5.3811941191
 31
0.0
  0
ARC
  5
29C
  8
0
  6
CONTINUOUS
 62
     7
 10
2.7396989161
 20
5.6111938109
 30
0.0
 40
0.2299996093407332
 50
179.9999273853
 51
270.0000997313
  0
LINE
  5
29D
  8
0
  6
CONTINUOUS
 62
     7
 10
2.5096993067
 20
5.6111941024
 30
0.0
 11
2.5096993067
 21
7.1161941499
 31
0.0
  0
ARC
  5
29E
  8
0
  6
CONTINUOUS
 62
     7
 10
2.7396995186
 20
7.116193801
 30
0.0
 40
0.2300002118920288
 50
90.0000503716
 51
179.9999130924
  0
LINE
  5
29F
  8
0
  6
CONTINUOUS
 62
     7
 10
2.7396993164
 20
7.3461940129
 30
0.0
 11
3.7446993332
 21
7.3461941596
 31
0.0
  0
LINE
  5
2A0
  8
0
  6
CONTINUOUS
 62
     7
 10
3.9446993162
 20
7.3461940129
 30
0.0
 11
4.8746992661
 21
7.3461940129
 31
0.0
  0
LINE
  5
2A1
  8
0
  6
CONTINUOUS
 62
     7
 10
5.074699249
 20
7.3461940129
 30
0.0
 11
6.4146993692
 21
7.3461940129
 31
0.0
  0
LINE
  5
2A2
  8
0
  6
CONTINUOUS
 62
     7
 10
6.6146993521
 20
7.3461940129
 30
0.0
 11
7.544699302
 21
7.3461941596
 31
0.0
  0
LINE
  5
2A3
  8
0
  6
CONTINUOUS
 62
     7
 10
7.7446992849
 20
7.3461940129
 30
0.0
 11
8.7496992284
 21
7.3461940129
 31
0.0
  0
ARC
  5
2A4
  8
0
  6
CONTINUOUS
 62
     7
 10
8.7496992141
 20
7.116193989
 30
0.0
 40
0.2300000239415918
 50
0.000040087
 51
89.999996449
  0
LINE
  5
2A5
  8
0
  6
CONTINUOUS
 62
     7
 10
8.9796992381
 20
7.1161941499
 30
0.0
 11
8.9796992381
 21
5.6111941024
 31
0.0
  0
ARC
  5
2A6
  8
0
  6
CONTINUOUS
 62
     7
 10
8.7496992063
 20
5.6111942334
 30
0.0
 40
0.2300000317743169
 50
270.0000055022
 51
359.9999673812
  0
LINE
  5
2A7
  8
0
  6
CONTINUOUS
 62
     7
 10
8.7496992284
 20
5.3811942016
 30
0.0
 11
7.7446992849
 21
5.3811941512
 31
0.0
  0
LINE
  5
2A8
  8
0
  6
CONTINUOUS
 62
     7
 10
8.9996992437
 20
7.1161941499
 30
0.0
 11
8.9996992437
 21
5.6111941024
 31
0.0
  0
LINE
  5
2A9
  8
0
  6
CONTINUOUS
 62
     7
 10
8.9796992381
 20
5.6111941024
 30
0.0
 11
8.9996992437
 21
5.6111941024
 31
0.0
  0
LINE
  5
2AA
  8
0
  6
CONTINUOUS
 62
     7
 10
8.9796992014
 20
7.1161941499
 30
0.0
 11
8.9996992437
 21
7.1161941499
 31
0.0
  0
LINE
  5
2AB
  8
0
  6
CONTINUOUS
 62
     7
 10
8.7496992284
 20
7.3461941596
 30
0.0
 11
8.7496992284
 21
7.3661941285
 31
0.0
  0
LINE
  5
2AC
  8
0
  6
CONTINUOUS
 62
     7
 10
7.7446992849
 20
7.3661941285
 30
0.0
 11
8.7496992284
 21
7.3661941285
 31
0.0
  0
LINE
  5
2AD
  8
0
  6
CONTINUOUS
 62
     7
 10
2.4896994844
 20
5.6111941024
 30
0.0
 11
2.4896994844
 21
7.1161941499
 31
0.0
  0
LINE
  5
2AE
  8
0
  6
CONTINUOUS
 62
     7
 10
2.5096993067
 20
7.1161941499
 30
0.0
 11
2.4896994844
 21
7.1161941499
 31
0.0
  0
LINE
  5
2AF
  8
0
  6
CONTINUOUS
 62
     7
 10
2.5096993067
 20
5.6111941024
 30
0.0
 11
2.4896994844
 21
5.6111941024
 31
0.0
  0
LINE
  5
2B0
  8
0
  6
CONTINUOUS
 62
     7
 10
2.7396993164
 20
7.3661941285
 30
0.0
 11
2.7396993164
 21
7.3461941596
 31
0.0
  0
LINE
  5
2B1
  8
0
  6
CONTINUOUS
 62
     7
 10
2.7396993164
 20
7.3661941285
 30
0.0
 11
3.7446993332
 21
7.3661941285
 31
0.0
  0
LINE
  5
2B2
  8
0
  6
CONTINUOUS
 62
     7
 10
8.7496992284
 20
5.3811941019
 30
0.0
 11
8.7496992284
 21
5.3611941015
 31
0.0
  0
LINE
  5
2B3
  8
0
  6
CONTINUOUS
 62
     7
 10
8.7496992284
 20
5.3611941015
 30
0.0
 11
7.7446992849
 21
5.3611941015
 31
0.0
  0
LINE
  5
2B4
  8
0
  6
CONTINUOUS
 62
     7
 10
2.7396993164
 20
5.3811941191
 30
0.0
 11
2.7396993164
 21
5.3611941015
 31
0.0
  0
LINE
  5
2B5
  8
0
  6
CONTINUOUS
 62
     7
 10
3.7446993332
 20
5.3611941015
 30
0.0
 11
2.7396993164
 21
5.3611941015
 31
0.0
  0
ARC
  5
2B6
  8
0
  6
CONTINUOUS
 62
     7
 10
8.7496992371
 20
7.1161941016
 30
0.0
 40
0.25
 50
0.0
 51
90.0
  0
ARC
  5
2B7
  8
0
  6
CONTINUOUS
 62
     7
 10
2.7396992371
 20
7.1161941016
 30
0.0
 40
0.2500000000000009
 50
90.0
 51
180.0
  0
ARC
  5
2B8
  8
0
  6
CONTINUOUS
 62
     7
 10
2.7396992371
 20
5.6111941016
 30
0.0
 40
0.2500000000000009
 50
179.9999999997
 51
270.0
  0
ARC
  5
2B9
  8
0
  6
CONTINUOUS
 62
     7
 10
8.7496992371
 20
5.6111941016
 30
0.0
 40
0.2500000000000009
 50
270.0
 51
0.0
  0
ARC
  5
2BA
  8
0
  6
CONTINUOUS
 62
     7
 10
8.0321008119
 20
5.7851673299
 30
0.0
 40
0.2044783464566926
 50
270.0
 51
0.0
  0
LINE
  5
2BB
  8
0
  6
CONTINUOUS
 62
     7
 10
8.236579136
 20
5.7851673227
 30
0.0
 11
8.236579136
 21
6.419025577
 31
0.0
  0
ARC
  5
2BC
  8
0
  6
CONTINUOUS
 62
     7
 10
8.0321008119
 20
6.4190255976
 30
0.0
 40
0.2044783464566926
 50
0.0
 51
90.0
  0
LINE
  5
2BD
  8
0
  6
CONTINUOUS
 62
     7
 10
8.0321008848
 20
6.6235039748
 30
0.0
 11
7.6873666272
 21
6.6235039748
 31
0.0
  0
LINE
  5
2BE
  8
0
  6
CONTINUOUS
 62
     7
 10
7.6873666272
 20
6.6235039748
 30
0.0
 11
7.6873666272
 21
6.673208734
 31
0.0
  0
ARC
  5
2BF
  8
0
  6
CONTINUOUS
 62
     7
 10
7.6248665599
 20
6.6732086685
 30
0.0
 40
0.0625000000000007
 50
0.0
 51
85.5651000297
  0
LINE
  5
2C0
  8
0
  6
CONTINUOUS
 62
     7
 10
3.8020318443
 20
6.673208734
 30
0.0
 11
3.8020318443
 21
6.6235039748
 31
0.0
  0
LINE
  5
2C1
  8
0
  6
CONTINUOUS
 62
     7
 10
3.8020318443
 20
6.6235039748
 30
0.0
 11
3.4572975867
 21
6.6235039748
 31
0.0
  0
ARC
  5
2C2
  8
0
  6
CONTINUOUS
 62
     7
 10
3.4572976623
 20
6.4190255976
 30
0.0
 40
0.2044783464566926
 50
90.0
 51
180.0
  0
LINE
  5
2C3
  8
0
  6
CONTINUOUS
 62
     7
 10
3.2528190422
 20
6.419025577
 30
0.0
 11
3.2528190422
 21
5.7851673227
 31
0.0
  0
ARC
  5
2C4
  8
0
  6
CONTINUOUS
 62
     7
 10
3.4572976623
 20
5.7851673299
 30
0.0
 40
0.2044783464566926
 50
180.0
 51
270.0
  0
ARC
  5
2C5
  8
0
  6
CONTINUOUS
 62
     7
 10
3.8645319143
 20
6.6732086685
 30
0.0
 40
0.0624999999999996
 50
94.4348999703
 51
180.0
  0
LINE
  5
2C6
  8
0
  6
CONTINUOUS
 62
     7
 10
5.7705359573
 20
6.6235039748
 30
0.0
 11
4.0850043087
 21
6.6235039748
 31
0.0
  0
LINE
  5
2C7
  8
0
  6
CONTINUOUS
 62
     7
 10
4.0850043087
 20
6.6235039748
 30
0.0
 11
4.0850043087
 21
6.673208734
 31
0.0
  0
ARC
  5
2C8
  8
0
  6
CONTINUOUS
 62
     7
 10
4.0225043552
 20
6.6732086685
 30
0.0
 40
0.0625
 50
0.0
 51
90.0
  0
ARC
  5
2C9
  8
0
  6
CONTINUOUS
 62
     7
 10
5.8330358513
 20
6.6732086685
 30
0.0
 40
0.0625000000000009
 50
90.0
 51
180.0
  0
LINE
  5
2CA
  8
0
  6
CONTINUOUS
 62
     7
 10
5.7705359573
 20
6.673208734
 30
0.0
 11
5.7705359573
 21
6.6235039748
 31
0.0
  0
LINE
  5
2CB
  8
0
  6
CONTINUOUS
 62
     7
 10
4.0225044973
 20
6.735708692
 30
0.0
 11
3.8996989827
 21
6.735708692
 31
0.0
  0
LINE
  5
2CC
  8
0
  6
CONTINUOUS
 62
     7
 10
5.9631991716
 20
6.735708692
 30
0.0
 11
5.8330357686
 21
6.735708692
 31
0.0
  0
LINE
  5
2CD
  8
0
  6
CONTINUOUS
 62
     7
 10
7.4043941628
 20
6.6235039748
 30
0.0
 11
6.0535084217
 21
6.6235039748
 31
0.0
  0
LINE
  5
2CE
  8
0
  6
CONTINUOUS
 62
     7
 10
6.0535084217
 20
6.6235039748
 30
0.0
 11
6.0535084217
 21
6.673208734
 31
0.0
  0
ARC
  5
2CF
  8
0
  6
CONTINUOUS
 62
     7
 10
7.466894119
 20
6.6732086685
 30
0.0
 40
0.0625
 50
90.0
 51
180.0
  0
LINE
  5
2D0
  8
0
  6
CONTINUOUS
 62
     7
 10
7.4043941628
 20
6.673208734
 30
0.0
 11
7.4043941628
 21
6.6235039748
 31
0.0
  0
LINE
  5
2D1
  8
0
  6
CONTINUOUS
 62
     7
 10
7.5896994888
 20
6.735708692
 30
0.0
 11
7.4668941208
 21
6.735708692
 31
0.0
  0
ARC
  5
2D2
  8
0
  6
CONTINUOUS
 62
     7
 10
5.9910082922
 20
6.6732086685
 30
0.0
 40
0.0625000000000004
 50
0.0
 51
78.7520565439
  0
LINE
  5
2D3
  8
0
  6
CONTINUOUS
 62
     7
 10
7.544699302
 20
5.3611941015
 30
0.0
 11
6.6146993521
 21
5.3611941015
 31
0.0
  0
LINE
  5
2D4
  8
0
  6
CONTINUOUS
 62
     7
 10
6.6146993521
 20
7.3661941285
 30
0.0
 11
7.544699302
 21
7.3661941285
 31
0.0
  0
LINE
  5
2D5
  8
0
  6
CONTINUOUS
 62
     7
 10
6.4146993692
 20
5.3611941015
 30
0.0
 11
5.074699249
 21
5.3611941015
 31
0.0
  0
LINE
  5
2D6
  8
0
  6
CONTINUOUS
 62
     7
 10
3.9446993162
 20
7.3661941285
 30
0.0
 11
4.8746992661
 21
7.3661941285
 31
0.0
  0
LINE
  5
2D7
  8
0
  6
CONTINUOUS
 62
     7
 10
4.8746992661
 20
5.3611941015
 30
0.0
 11
3.9446993162
 21
5.3611941015
 31
0.0
  0
LINE
  5
2D8
  8
0
  6
CONTINUOUS
 62
     7
 10
5.074699249
 20
7.3661941285
 30
0.0
 11
6.4146993692
 21
7.3661941285
 31
0.0
  0
POLYLINE
  5
2D9
  8
0
  6
CONTINUOUS
 62
     7
 66
     1
 10
0.0
 20
0.0
 30
0.0
  0
VERTEX
  5
45C
  8
0
  6
CONTINUOUS
 62
     7
 10
9.0246992416
 20
6.7936941554
 30
0.0
  0
VERTEX
  5
45D
  8
0
  6
CONTINUOUS
 62
     7
 10
9.016495793
 20
6.793732435
 30
0.0
  0
VERTEX
  5
45E
  8
0
  6
CONTINUOUS
 62
     7
 10
9.0092079005
 20
6.7942794953
 30
0.0
  0
VERTEX
  5
45F
  8
0
  6
CONTINUOUS
 62
     7
 10
9.0039520146
 20
6.7962695923
 30
0.0
  0
VERTEX
  5
460
  8
0
  6
CONTINUOUS
 62
     7
 10
9.0012461925
 20
6.7997751785
 30
0.0
  0
VERTEX
  5
461
  8
0
  6
CONTINUOUS
 62
     7
 10
9.0000872459
 20
6.8045476567
 30
0.0
  0
VERTEX
  5
462
  8
0
  6
CONTINUOUS
 62
     7
 10
8.9997293834
 20
6.810958236
 30
0.0
  0
VERTEX
  5
463
  8
0
  6
CONTINUOUS
 62
     7
 10
8.9996992437
 20
6.81869364
 30
0.0
  0
SEQEND
  5
45B
  8
0
  6
CONTINUOUS
 62
     7
  0
LINE
  5
2DA
  8
0
  6
CONTINUOUS
 62
     7
 10
9.0246992416
 20
6.7936941554
 30
0.0
 11
9.0246992416
 21
5.8536941111
 31
0.0
  0
POLYLINE
  5
2DB
  8
0
  6
CONTINUOUS
 62
     7
 66
     1
 10
0.0
 20
0.0
 30
0.0
  0
VERTEX
  5
465
  8
0
  6
CONTINUOUS
 62
     7
 10
8.9996992437
 20
5.8286945532
 30
0.0
  0
VERTEX
  5
466
  8
0
  6
CONTINUOUS
 62
     7
 10
8.9997375966
 20
5.8368979651
 30
0.0
  0
VERTEX
  5
467
  8
0
  6
CONTINUOUS
 62
     7
 10
9.0002846203
 20
5.8441857476
 30
0.0
  0
VERTEX
  5
468
  8
0
  6
CONTINUOUS
 62
     7
 10
9.002274864
 20
5.8494415235
 30
0.0
  0
VERTEX
  5
469
  8
0
  6
CONTINUOUS
 62
     7
 10
9.0057804868
 20
5.8521472356
 30
0.0
  0
VERTEX
  5
46A
  8
0
  6
CONTINUOUS
 62
     7
 10
9.0105530017
 20
5.8533061455
 30
0.0
  0
VERTEX
  5
46B
  8
0
  6
CONTINUOUS
 62
     7
 10
9.0169636909
 20
5.8536639714
 30
0.0
  0
VERTEX
  5
46C
  8
0
  6
CONTINUOUS
 62
     7
 10
9.0246992416
 20
5.8536941111
 30
0.0
  0
SEQEND
  5
464
  8
0
  6
CONTINUOUS
 62
     7
  0
POLYLINE
  5
2DC
  8
0
  6
CONTINUOUS
 62
     7
 66
     1
 10
0.0
 20
0.0
 30
0.0
  0
VERTEX
  5
46E
  8
0
  6
CONTINUOUS
 62
     7
 10
2.4646989733
 20
5.8536941111
 30
0.0
  0
VERTEX
  5
46F
  8
0
  6
CONTINUOUS
 62
     7
 10
2.4729028251
 20
5.8536557582
 30
0.0
  0
VERTEX
  5
470
  8
0
  6
CONTINUOUS
 62
     7
 10
2.4801903143
 20
5.8531087712
 30
0.0
  0
VERTEX
  5
471
  8
0
  6
CONTINUOUS
 62
     7
 10
2.4854462002
 20
5.8511186008
 30
0.0
  0
VERTEX
  5
472
  8
0
  6
CONTINUOUS
 62
     7
 10
2.4881524623
 20
5.847613088
 30
0.0
  0
VERTEX
  5
473
  8
0
  6
CONTINUOUS
 62
     7
 10
2.4893111156
 20
5.8428406098
 30
0.0
  0
VERTEX
  5
474
  8
0
  6
CONTINUOUS
 62
     7
 10
2.4896689781
 20
5.8364300305
 30
0.0
  0
VERTEX
  5
475
  8
0
  6
CONTINUOUS
 62
     7
 10
2.4896994844
 20
5.8286945532
 30
0.0
  0
SEQEND
  5
46D
  8
0
  6
CONTINUOUS
 62
     7
  0
LINE
  5
2DD
  8
0
  6
CONTINUOUS
 62
     7
 10
2.4646989733
 20
5.8536941111
 30
0.0
 11
2.4646989733
 21
6.7936941554
 31
0.0
  0
POLYLINE
  5
2DE
  8
0
  6
CONTINUOUS
 62
     7
 66
     1
 10
0.0
 20
0.0
 30
0.0
  0
VERTEX
  5
477
  8
0
  6
CONTINUOUS
 62
     7
 10
2.4896994844
 20
6.81869364
 30
0.0
  0
VERTEX
  5
478
  8
0
  6
CONTINUOUS
 62
     7
 10
2.4896607649
 20
6.8104902281
 30
0.0
  0
VERTEX
  5
479
  8
0
  6
CONTINUOUS
 62
     7
 10
2.4891139979
 20
6.8032024456
 30
0.0
  0
VERTEX
  5
47A
  8
0
  6
CONTINUOUS
 62
     7
 10
2.4871234609
 20
6.7979467063
 30
0.0
  0
VERTEX
  5
47B
  8
0
  6
CONTINUOUS
 62
     7
 10
2.483618168
 20
6.7952410309
 30
0.0
  0
VERTEX
  5
47C
  8
0
  6
CONTINUOUS
 62
     7
 10
2.4788456898
 20
6.7940820843
 30
0.0
  0
VERTEX
  5
47D
  8
0
  6
CONTINUOUS
 62
     7
 10
2.4724346706
 20
6.7937242218
 30
0.0
  0
VERTEX
  5
47E
  8
0
  6
CONTINUOUS
 62
     7
 10
2.4646989733
 20
6.7936941554
 30
0.0
  0
SEQEND
  5
476
  8
0
  6
CONTINUOUS
 62
     7
  0
LINE
  5
2DF
  8
0
  6
CONTINUOUS
 62
     7
 10
2.4046995064
 20
6.6636941372
 30
0.0
 11
2.4046995064
 21
5.9836940926
 31
0.0
  0
LINE
  5
2E0
  8
0
  6
CONTINUOUS
 62
     7
 10
2.4046995064
 20
6.6636941372
 30
0.0
 11
2.3796989952
 21
6.6636941372
 31
0.0
  0
LINE
  5
2E1
  8
0
  6
CONTINUOUS
 62
     7
 10
2.4046995064
 20
5.9836940926
 30
0.0
 11
2.3796989952
 21
5.9836940926
 31
0.0
  0
LINE
  5
2E2
  8
0
  6
CONTINUOUS
 62
     7
 10
2.4646989733
 20
6.7936941554
 30
0.0
 11
2.3796989952
 21
6.7936941554
 31
0.0
  0
LINE
  5
2E3
  8
0
  6
CONTINUOUS
 62
     7
 10
2.4646989733
 20
5.8536941111
 30
0.0
 11
2.3796989952
 21
5.8536941111
 31
0.0
  0
LINE
  5
2E4
  8
0
  6
CONTINUOUS
 62
     7
 10
9.0846992401
 20
5.9836940926
 30
0.0
 11
9.0846992401
 21
6.6636941372
 31
0.0
  0
LINE
  5
2E5
  8
0
  6
CONTINUOUS
 62
     7
 10
9.109699238
 20
6.6636941372
 30
0.0
 11
9.0846992401
 21
6.6636941372
 31
0.0
  0
LINE
  5
2E6
  8
0
  6
CONTINUOUS
 62
     7
 10
9.109699238
 20
5.9836940926
 30
0.0
 11
9.0846992401
 21
5.9836940926
 31
0.0
  0
LINE
  5
2E7
  8
0
  6
CONTINUOUS
 62
     7
 10
9.109699238
 20
6.7936941554
 30
0.0
 11
9.0246992416
 21
6.7936941554
 31
0.0
  0
LINE
  5
2E8
  8
0
  6
CONTINUOUS
 62
     7
 10
9.109699238
 20
5.8536941111
 30
0.0
 11
9.0246992416
 21
5.8536941111
 31
0.0
  0
LINE
  5
2E9
  8
0
  6
CONTINUOUS
 62
     7
 10
9.109699238
 20
5.9836940926
 30
0.0
 11
9.109699238
 21
6.6236940526
 31
0.0
  0
LINE
  5
2EA
  8
0
  6
CONTINUOUS
 62
     7
 10
2.3796989952
 20
6.6236940526
 30
0.0
 11
2.3796989952
 21
5.9836940926
 31
0.0
  0
DIMENSION
  5
2EB
  8
0
  6
CONTINUOUS
 62
     7
  2
*D5
 10
2.7096992371
 20
5.6111941016
 30
0.0039370079
 11
2.7096992371
 21
4.8967387688
 31
0.0
 70
   102
  3
SLDDIMSTYLE0
 13
2.7096992371
 23
5.6111941016
 33
0.0039370079
 14
2.7096992371
 24
5.1208027433
 34
0.0039370079
  0
DIMENSION
  5
2F7
  8
0
  6
CONTINUOUS
 62
     7
  2
*D6
 10
2.7096992371
 20
5.6111941016
 30
0.0039370079
 11
2.8778987668
 21
4.8967387688
 31
0.0
 70
   102
  3
SLDDIMSTYLE1
 13
2.91727805
 23
5.6434350465
 33
0.0039370079
 14
2.8778987668
 24
5.1208027433
 34
0.0039370079
  0
DIMENSION
  5
300
  8
0
  6
CONTINUOUS
 62
     7
  2
*D7
 10
2.7096992371
 20
5.6111941016
 30
0.0039370079
 11
3.0460982965
 21
4.8967387688
 31
0.0
 70
   102
  3
SLDDIMSTYLE1
 13
3.1015284383
 23
6.111181907
 33
0.0039370079
 14
3.0460982965
 24
5.1208027433
 34
0.0039370079
  0
DIMENSION
  5
308
  8
0
  6
CONTINUOUS
 62
     7
  2
*D8
 10
2.7096992371
 20
5.6111941016
 30
0.0039370079
 11
3.2142978262
 21
4.8967387688
 31
0.0
 70
   102
  3
SLDDIMSTYLE1
 13
3.2856984995
 23
6.4977657551
 33
0.0039370079
 14
3.2142978262
 24
5.1208027433
 34
0.0039370079
  0
DIMENSION
  5
310
  8
0
  6
CONTINUOUS
 62
     7
  2
*D9
 10
2.7096992371
 20
5.6111941016
 30
0.0039370079
 11
3.5506968857
 21
4.8967387688
 31
0.0
 70
   102
  3
SLDDIMSTYLE1
 13
3.4572976623
 23
6.4190255976
 33
0.0039370079
 14
3.5506968857
 24
5.1208027433
 34
0.0039370079
  0
DIMENSION
  5
318
  8
0
  6
CONTINUOUS
 62
     7
  2
*D10
 10
2.7096992371
 20
5.6111941016
 30
0.0039370079
 11
3.3824973559
 21
4.8967387688
 31
0.0
 70
   102
  3
SLDDIMSTYLE1
 13
3.3153193158
 23
5.7851673299
 33
0.0039370079
 14
3.3824973559
 24
5.1208027433
 34
0.0039370079
  0
DIMENSION
  5
320
  8
0
  6
CONTINUOUS
 62
     7
  2
*D11
 10
2.7096992371
 20
5.6111941016
 30
0.0039370079
 11
3.8603509096
 21
4.8505776332
 31
0.0
 70
   102
  3
SLDDIMSTYLE1
 13
3.8645319143
 23
6.5610039441
 33
0.0039370079
 14
3.8603509096
 24
5.1208027433
 34
0.0039370079
  0
DIMENSION
  5
328
  8
0
  6
CONTINUOUS
 62
     7
  2
*D12
 10
2.7096992371
 20
5.6111941016
 30
0.0039370079
 11
4.0266853598
 21
4.8505776332
 31
0.0
 70
   102
  3
SLDDIMSTYLE1
 13
4.0225043552
 23
6.5610039441
 33
0.0039370079
 14
4.0266853598
 24
5.1208027433
 34
0.0039370079
  0
DIMENSION
  5
330
  8
0
  6
CONTINUOUS
 62
     7
  2
*D13
 10
2.7096992371
 20
5.6111941016
 30
0.0039370079
 11
5.8288548466
 21
4.8505776332
 31
0.0
 70
   102
  3
SLDDIMSTYLE1
 13
5.8330358513
 23
6.5610039441
 33
0.0039370079
 14
5.8288548466
 24
5.1208027433
 34
0.0039370079
  0
DIMENSION
  5
338
  8
0
  6
CONTINUOUS
 62
     7
  2
*D14
 10
2.7096992371
 20
5.6111941016
 30
0.0039370079
 11
5.9951892969
 21
4.8505776332
 31
0.0
 70
   102
  3
SLDDIMSTYLE1
 13
5.9910082922
 23
6.5610039441
 33
0.0039370079
 14
5.9951892969
 24
5.1208027433
 34
0.0039370079
  0
DIMENSION
  5
340
  8
0
  6
CONTINUOUS
 62
     7
  2
*D15
 10
2.7096992371
 20
5.6111941016
 30
0.0039370079
 11
7.4630724896
 21
4.8505776332
 31
0.0
 70
   102
  3
SLDDIMSTYLE1
 13
7.466894119
 23
6.5610039441
 33
0.0039370079
 14
7.4630724896
 24
5.1208027433
 34
0.0039370079
  0
DIMENSION
  5
348
  8
0
  6
CONTINUOUS
 62
     7
  2
*D16
 10
2.7096992371
 20
5.6111941016
 30
0.0039370079
 11
7.6286881893
 21
4.8505776332
 31
0.0
 70
   102
  3
SLDDIMSTYLE1
 13
7.6248665599
 23
6.5610039441
 33
0.0039370079
 14
7.6286881893
 24
5.1208027433
 34
0.0039370079
  0
DIMENSION
  5
350
  8
0
  6
CONTINUOUS
 62
     7
  2
*D17
 10
2.7096992371
 20
5.6111941016
 30
0.0039370079
 11
8.0321008119
 21
4.8505776332
 31
0.0
 70
   102
  3
SLDDIMSTYLE1
 13
8.0321008119
 23
6.4190255976
 33
0.0039370079
 14
8.0321008119
 24
5.1208027433
 34
0.0039370079
  0
DIMENSION
  5
356
  8
0
  6
CONTINUOUS
 62
     7
  2
*D18
 10
2.7096992371
 20
5.6111941016
 30
0.0039370079
 11
8.2036999747
 21
4.8505776332
 31
0.0
 70
   102
  3
SLDDIMSTYLE1
 13
8.2036999747
 23
6.4977657551
 33
0.0039370079
 14
8.2036999747
 24
5.1208027433
 34
0.0039370079
  0
DIMENSION
  5
35C
  8
0
  6
CONTINUOUS
 62
     7
  2
*D19
 10
2.7096992371
 20
5.6111941016
 30
0.0039370079
 11
8.5721204242
 21
4.8505776332
 31
0.0
 70
   102
  3
SLDDIMSTYLE2
 13
8.5721204242
 23
5.6431889835
 33
0.0039370079
 14
8.5721204242
 24
5.1208027433
 34
0.0039370079
  0
DIMENSION
  5
363
  8
0
  6
CONTINUOUS
 62
     7
  2
*D20
 10
2.85477805
 20
5.5806889835
 30
0.0039370079
 11
1.6374285808
 21
5.5806889835
 31
0.0
 70
    38
  3
SLDDIMSTYLE0
 13
2.85477805
 23
5.5806889835
 33
0.0039370079
 14
1.8614925553
 24
5.5806889835
 34
0.0039370079
  0
DIMENSION
  5
36B
  8
0
  6
CONTINUOUS
 62
     7
  2
*D21
 10
2.85477805
 20
5.5806889835
 30
0.0039370079
 11
1.6374285808
 21
5.7466127057
 31
0.0
 70
    38
  3
SLDDIMSTYLE1
 13
2.91727805
 23
5.6431889835
 33
0.0039370079
 14
1.8614925553
 24
5.7466127057
 34
0.0039370079
  0
DIMENSION
  5
373
  8
0
  6
CONTINUOUS
 62
     7
  2
*D22
 10
2.85477805
 20
5.5806889835
 30
0.0039370079
 11
1.6374285808
 21
6.0039175795
 31
0.0
 70
    38
  3
SLDDIMSTYLE0
 13
3.1015284383
 23
6.111181907
 33
0.0039370079
 14
1.8614925553
 24
6.0039175795
 34
0.0039370079
  0
DIMENSION
  5
37B
  8
0
  6
CONTINUOUS
 62
     7
  2
*D23
 10
2.85477805
 20
5.5806889835
 30
0.0039370079
 11
1.6374285808
 21
6.1712403518
 31
0.0
 70
    38
  3
SLDDIMSTYLE1
 13
3.4572976623
 23
6.4190255976
 33
0.0039370079
 14
1.8614925553
 24
6.1712403518
 34
0.0039370079
  0
DIMENSION
  5
383
  8
0
  6
CONTINUOUS
 62
     7
  2
*D24
 10
2.85477805
 20
5.5806889835
 30
0.0039370079
 11
1.6374285808
 21
6.338563124
 31
0.0
 70
    38
  3
SLDDIMSTYLE1
 13
3.2856984995
 23
6.4977657551
 33
0.0039370079
 14
1.8614925553
 24
6.338563124
 34
0.0039370079
  0
DIMENSION
  5
38B
  8
0
  6
CONTINUOUS
 62
     7
  2
*D25
 10
2.85477805
 20
5.5806889835
 30
0.0039370079
 11
1.6374285808
 21
6.5058858963
 31
0.0
 70
    38
  3
SLDDIMSTYLE0
 13
3.4572976623
 23
6.5610039441
 33
0.0039370079
 14
1.8614925553
 24
6.5058858963
 34
0.0039370079
  0
DIMENSION
  5
393
  8
0
  6
CONTINUOUS
 62
     7
  2
*D26
 10
2.85477805
 20
5.5806889835
 30
0.0039370079
 11
1.5912674452
 21
6.6732086685
 31
0.0
 70
    38
  3
SLDDIMSTYLE1
 13
3.8645319143
 23
6.6732086685
 33
0.0039370079
 14
1.8614925553
 24
6.6732086685
 34
0.0039370079
  0
ENDSEC
  0
EOF
