  0
SECTION
  2
HEADER
  9
$ACADVER
  1
AC1009
  9
$DWGCODEPAGE
  3
ansi_1252
  9
$INSBASE
 10
0.0
 20
0.0
 30
0.0
  9
$EXTMIN
 10
0.0
 20
0.0
 30
0.0
  9
$EXTMAX
 10
11.0
 20
8.5
 30
0.0
  9
$LIMMIN
 10
0.0
 20
0.0
  9
$LIMMAX
 10
11.0
 20
8.5
  9
$ORTHOMODE
 70
     0
  9
$REGENMODE
 70
     1
  9
$FILLMODE
 70
     1
  9
$QTEXTMODE
 70
     0
  9
$MIRRTEXT
 70
     1
  9
$DRAGMODE
 70
     2
  9
$LTSCALE
 40
1.0
  9
$OSMODE
 70
    37
  9
$ATTMODE
 70
     1
  9
$TEXTSIZE
 40
0.125
  9
$TRACEWID
 40
0.05
  9
$TEXTSTYLE
  7
STANDARD
  9
$CLAYER
  8
0
  9
$CELTYPE
  6
BYLAYER
  9
$CECOLOR
 62
   256
  9
$DIMSCALE
 40
1.0
  9
$DIMASZ
 40
0.13
  9
$DIMEXO
 40
0.05
  9
$DIMDLI
 40
0.38
  9
$DIMRND
 40
0.0
  9
$DIMDLE
 40
0.0
  9
$DIMEXE
 40
0.125
  9
$DIMTP
 40
0.0
  9
$DIMTM
 40
0.0
  9
$DIMTXT
 40
0.125
  9
$DIMCEN
 40
0.09
  9
$DIMTSZ
 40
0.0
  9
$DIMTOL
 70
     0
  9
$DIMLIM
 70
     0
  9
$DIMTIH
 70
     1
  9
$DIMTOH
 70
     1
  9
$DIMSE1
 70
     0
  9
$DIMSE2
 70
     0
  9
$DIMTAD
 70
     0
  9
$DIMZIN
 70
     0
  9
$DIMBLK
  1

  9
$DIMASO
 70
     1
  9
$DIMSHO
 70
     1
  9
$DIMPOST
  1

  9
$DIMAPOST
  1

  9
$DIMALT
 70
     0
  9
$DIMALTD
 70
     2
  9
$DIMALTF
 40
25.4
  9
$DIMLFAC
 40
1.0
  9
$DIMTOFL
 70
     0
  9
$DIMTVP
 40
0.0
  9
$DIMTIX
 70
     0
  9
$DIMSOXD
 70
     0
  9
$DIMSAH
 70
     0
  9
$DIMBLK1
  1

  9
$DIMBLK2
  1

  9
$DIMSTYLE
  2
STANDARD
  9
$DIMCLRD
 70
     0
  9
$DIMCLRE
 70
     0
  9
$DIMCLRT
 70
     0
  9
$DIMTFAC
 40
1.0
  9
$DIMGAP
 40
0.06
  9
$LUNITS
 70
     2
  9
$LUPREC
 70
     2
  9
$SKETCHINC
 40
0.1
  9
$FILLETRAD
 40
0.5
  9
$AUNITS
 70
     0
  9
$AUPREC
 70
     0
  9
$MENU
  1
.
  9
$ELEVATION
 40
0.0
  9
$PELEVATION
 40
0.0
  9
$THICKNESS
 40
0.0
  9
$LIMCHECK
 70
     0
  9
$CHAMFERA
 40
0.5
  9
$CHAMFERB
 40
0.5
  9
$SKPOLY
 70
     0
  9
$TDCREATE
 40
2455760.555938762
  9
$TDUPDATE
 40
2455760.555938773
  9
$TDINDWG
 40
0.0000000116
  9
$TDUSRTIMER
 40
0.0000000116
  9
$USRTIMER
 70
     1
  9
$ANGBASE
 50
0.0
  9
$ANGDIR
 70
     0
  9
$PDMODE
 70
     0
  9
$PDSIZE
 40
-1.0
  9
$PLINEWID
 40
0.0
  9
$COORDS
 70
     1
  9
$SPLFRAME
 70
     0
  9
$SPLINETYPE
 70
     6
  9
$SPLINESEGS
 70
     8
  9
$ATTDIA
 70
     0
  9
$ATTREQ
 70
     1
  9
$HANDLING
 70
     1
  9
$HANDSEED
  5
667
  9
$SURFTAB1
 70
     6
  9
$SURFTAB2
 70
     6
  9
$SURFTYPE
 70
     6
  9
$SURFU
 70
     6
  9
$SURFV
 70
     6
  9
$UCSNAME
  2

  9
$UCSORG
 10
0.0
 20
0.0
 30
0.0
  9
$UCSXDIR
 10
1.0
 20
0.0
 30
0.0
  9
$UCSYDIR
 10
0.0
 20
1.0
 30
0.0
  9
$PUCSNAME
  2

  9
$PUCSORG
 10
0.0
 20
0.0
 30
0.0
  9
$PUCSXDIR
 10
1.0
 20
0.0
 30
0.0
  9
$PUCSYDIR
 10
0.0
 20
1.0
 30
0.0
  9
$USERI1
 70
     0
  9
$USERI2
 70
     0
  9
$USERI3
 70
     0
  9
$USERI4
 70
     0
  9
$USERI5
 70
     0
  9
$USERR1
 40
0.0
  9
$USERR2
 40
0.0
  9
$USERR3
 40
0.0
  9
$USERR4
 40
0.0
  9
$USERR5
 40
0.0
  9
$WORLDVIEW
 70
     1
  9
$SHADEDGE
 70
     3
  9
$SHADEDIF
 70
    70
  9
$TILEMODE
 70
     1
  9
$MAXACTVP
 70
    64
  9
$PLIMCHECK
 70
     0
  9
$PEXTMIN
 10
1.0000000000E+20
 20
1.0000000000E+20
 30
1.0000000000E+20
  9
$PEXTMAX
 10
-1.0000000000E+20
 20
-1.0000000000E+20
 30
-1.0000000000E+20
  9
$PLIMMIN
 10
0.0
 20
0.0
  9
$PLIMMAX
 10
12.0
 20
9.0
  9
$UNITMODE
 70
     0
  9
$VISRETAIN
 70
     1
  9
$PLINEGEN
 70
     0
  9
$PSLTSCALE
 70
     1
  0
ENDSEC
  0
SECTION
  2
TABLES
  0
TABLE
  2
VPORT
 70
     1
  0
VPORT
  2
*ACTIVE
 70
     0
 10
0.0
 20
0.0
 11
1.0
 21
1.0
 12
5.5
 22
4.25
 13
0.0
 23
0.0
 14
0.5
 24
0.5
 15
0.5
 25
0.5
 16
0.0
 26
0.0
 36
1.0
 17
0.0
 27
0.0
 37
0.0
 40
8.5
 41
1.2941176471
 42
50.0
 43
0.0
 44
0.0
 50
0.0
 51
0.0
 71
     0
 72
  2000
 73
     1
 74
     3
 75
     0
 76
     0
 77
     0
 78
     0
  0
ENDTAB
  0
TABLE
  2
LTYPE
 70
     6
  0
LTYPE
  2
CONTINUOUS
 70
     0
  3
Solid line
 72
    65
 73
     0
 40
0.0
  0
LTYPE
  2
HIDDEN
 70
     0
  3
Hidden __ __ __ __ __ __ __ __ __ __ __ __ __ __
 72
    65
 73
     2
 40
0.075
 49
0.05
 49
-0.025
  0
LTYPE
  2
PHANTOM
 70
     0
  3
Phantom ______  __  __  ______  __  __  ______
 72
    65
 73
     6
 40
0.5
 49
0.25
 49
-0.05
 49
0.05
 49
-0.05
 49
0.05
 49
-0.05
  0
LTYPE
  2
CENTER
 70
     0
  3
Center ____ _ ____ _ ____ _ ____ _ ____ _ ____
 72
    65
 73
     4
 40
0.4
 49
0.25
 49
-0.05
 49
0.05
 49
-0.05
  0
LTYPE
  2
CENTERX2
 70
     0
  3
Center (2x) ________  __  ________  __  _____
 72
    65
 73
     4
 40
0.8
 49
0.5
 49
-0.1
 49
0.1
 49
-0.1
  0
LTYPE
  2
DOT2
 70
     0
  3
Dot (.5x) ........................................
 72
    65
 73
     2
 40
0.025
 49
0.0
 49
-0.025
  0
ENDTAB
  0
TABLE
  2
LAYER
 70
     2
  0
LAYER
  2
0
 70
     0
 62
     7
  6
CONTINUOUS
  0
LAYER
  2
FORMAT
 70
     0
 62
     7
  6
CONTINUOUS
  0
ENDTAB
  0
TABLE
  2
STYLE
 70
     1
  0
STYLE
  2
STANDARD
 70
     0
 40
0.0
 41
1.0
 50
0.0
 71
     0
 42
0.2
  3
txt
  4

  0
ENDTAB
  0
TABLE
  2
VIEW
 70
     0
  0
ENDTAB
  0
TABLE
  2
UCS
 70
     0
  0
ENDTAB
  0
TABLE
  2
APPID
 70
     1
  0
APPID
  2
ACAD
 70
     0
  0
ENDTAB
  0
TABLE
  2
DIMSTYLE
 70
     2
  0
DIMSTYLE
  2
STANDARD
 70
     0
  3

  4

  5

  6

  7

 40
1.0
 41
0.18
 42
0.0625
 43
0.38
 44
0.18
 45
0.0
 46
0.0
 47
0.0
 48
0.0
140
0.18
141
0.09
142
0.0
143
25.4
144
1.0
145
0.0
146
1.0
147
0.09
 71
     0
 72
     0
 73
     1
 74
     1
 75
     0
 76
     0
 77
     0
 78
     0
170
     0
171
     2
172
     0
173
     0
174
     0
175
     0
176
     0
177
     0
178
     0
  0
DIMSTYLE
  2
SLDDIMSTYLE0
 70
     0
  3

  4

  5

  6

  7

 40
1.0
 41
0.13
 42
0.0625
 43
0.38
 44
0.0
 45
0.0
 46
0.0
 47
0.0
 48
0.0
140
0.125
141
0.09
142
0.0
143
25.4
144
1.0
145
0.0
146
1.0
147
0.03125
 71
     0
 72
     0
 73
     1
 74
     1
 75
     0
 76
     0
 77
     0
 78
    12
170
     0
171
     2
172
     0
173
     1
174
     0
175
     0
176
     0
177
     0
178
     0
  0
ENDTAB
  0
ENDSEC
  0
SECTION
  2
BLOCKS
  0
BLOCK
  8
0
  2
$MODEL_SPACE
 70
     0
 10
0.0
 20
0.0
 30
0.0
  3
$MODEL_SPACE
  1

  0
ENDBLK
  5
21
  8
0
  0
BLOCK
 67
     1
  8
0
  2
$PAPER_SPACE
 70
     0
 10
0.0
 20
0.0
 30
0.0
  3
$PAPER_SPACE
  1

  0
ENDBLK
  5
1D
 67
     1
  8
0
  0
BLOCK
  8
0
  2
*D1
 70
     1
 10
0.0
 20
0.0
 30
0.0
  3
*D1
  1

  0
SOLID
  5
108
  8
0
  6
CONTINUOUS
 62
     7
 10
0.9642720028
 20
0.0001079551
 30
0.0
 11
0.9442720028
 21
-0.1298920449
 31
0.0
 12
0.9842720028
 22
-0.1298920449
 32
0.0
 13
0.9842720028
 23
-0.1298920449
 33
0.0
  0
SOLID
  5
109
  8
0
  6
CONTINUOUS
 62
     7
 10
0.9642720028
 20
0.3751079551
 30
0.0
 11
0.9842720028
 21
0.5051079551
 31
0.0
 12
0.9442720028
 22
0.5051079551
 32
0.0
 13
0.9442720028
 23
0.5051079551
 33
0.0
  0
LINE
  5
10A
  8
0
  6
CONTINUOUS
 62
     7
 10
0.0491732957
 20
0.0001079551
 30
0.0
 11
1.0892720028
 21
0.0001079551
 31
0.0
  0
LINE
  5
10B
  8
0
  6
CONTINUOUS
 62
     7
 10
0.9642720028
 20
0.0001079551
 30
0.0
 11
0.9642720028
 21
-0.2498920449
 31
0.0
  0
LINE
  5
10C
  8
0
  6
CONTINUOUS
 62
     7
 10
0.9642720028
 20
0.3751079551
 30
0.0
 11
0.9642720028
 21
0.6251079551
 31
0.0
  0
TEXT
  5
10D
  8
0
  6
CONTINUOUS
 62
     7
 10
0.8026587351
 20
0.1551855063
 30
0.0
 40
0.125
  1
.375
 41
0.7
 11
0.8026587351
 21
0.1110279985
 31
0.0
 73
     1
  0
ENDBLK
  5
107
  8
0
  0
BLOCK
  8
0
  2
SW_CENTERMARKSYMBOL_0
 70
     0
 10
0.0
 20
0.0
 30
0.0
  3
SW_CENTERMARKSYMBOL_0
  1

  0
LINE
  5
111
  8
0
  6
CONTINUOUS
 62
     0
 10
0.0
 20
0.0
 30
0.0
 11
0.0
 21
0.1
 31
0.0
  0
LINE
  5
112
  8
0
  6
CONTINUOUS
 62
     0
 10
0.0
 20
0.0
 30
0.0
 11
-0.1
 21
0.0
 31
0.0
  0
LINE
  5
113
  8
0
  6
CONTINUOUS
 62
     0
 10
0.0
 20
0.0
 30
0.0
 11
0.0
 21
-0.1
 31
0.0
  0
LINE
  5
114
  8
0
  6
CONTINUOUS
 62
     0
 10
0.0
 20
0.0
 30
0.0
 11
0.1
 21
0.0
 31
0.0
  0
LINE
  5
115
  8
0
  6
CONTINUOUS
 62
     0
 10
0.0
 20
0.1
 30
0.0
 11
0.0
 21
0.12
 31
0.0
  0
LINE
  5
116
  8
0
  6
CONTINUOUS
 62
     0
 10
-0.1
 20
0.0
 30
0.0
 11
-0.12
 21
0.0
 31
0.0
  0
LINE
  5
117
  8
0
  6
CONTINUOUS
 62
     0
 10
0.0
 20
-0.1
 30
0.0
 11
0.0
 21
-0.12
 31
0.0
  0
LINE
  5
118
  8
0
  6
CONTINUOUS
 62
     0
 10
0.1
 20
0.0
 30
0.0
 11
0.12
 21
0.0
 31
0.0
  0
ENDBLK
  5
110
  8
0
  0
BLOCK
  8
0
  2
SW_CENTERMARKSYMBOL_1
 70
     0
 10
0.0
 20
0.0
 30
0.0
  3
SW_CENTERMARKSYMBOL_1
  1

  0
LINE
  5
11D
  8
0
  6
CONTINUOUS
 62
     0
 10
0.0
 20
0.0
 30
0.0
 11
0.0
 21
0.1
 31
0.0
  0
LINE
  5
11E
  8
0
  6
CONTINUOUS
 62
     0
 10
0.0
 20
0.0
 30
0.0
 11
-0.1
 21
0.0
 31
0.0
  0
LINE
  5
11F
  8
0
  6
CONTINUOUS
 62
     0
 10
0.0
 20
0.0
 30
0.0
 11
0.0
 21
-0.1
 31
0.0
  0
LINE
  5
120
  8
0
  6
CONTINUOUS
 62
     0
 10
0.0
 20
0.0
 30
0.0
 11
0.1
 21
0.0
 31
0.0
  0
LINE
  5
121
  8
0
  6
CONTINUOUS
 62
     0
 10
0.0
 20
0.1
 30
0.0
 11
0.0
 21
0.12
 31
0.0
  0
LINE
  5
122
  8
0
  6
CONTINUOUS
 62
     0
 10
-0.1
 20
0.0
 30
0.0
 11
-0.12
 21
0.0
 31
0.0
  0
LINE
  5
123
  8
0
  6
CONTINUOUS
 62
     0
 10
0.0
 20
-0.1
 30
0.0
 11
0.0
 21
-0.12
 31
0.0
  0
LINE
  5
124
  8
0
  6
CONTINUOUS
 62
     0
 10
0.1
 20
0.0
 30
0.0
 11
0.12
 21
0.0
 31
0.0
  0
ENDBLK
  5
11C
  8
0
  0
BLOCK
  8
0
  2
SW_CENTERMARKSYMBOL_2
 70
     0
 10
0.0
 20
0.0
 30
0.0
  3
SW_CENTERMARKSYMBOL_2
  1

  0
LINE
  5
129
  8
0
  6
CONTINUOUS
 62
     0
 10
0.0
 20
0.0
 30
0.0
 11
0.0
 21
0.1
 31
0.0
  0
LINE
  5
12A
  8
0
  6
CONTINUOUS
 62
     0
 10
0.0
 20
0.0
 30
0.0
 11
-0.1
 21
0.0
 31
0.0
  0
LINE
  5
12B
  8
0
  6
CONTINUOUS
 62
     0
 10
0.0
 20
0.0
 30
0.0
 11
0.0
 21
-0.1
 31
0.0
  0
LINE
  5
12C
  8
0
  6
CONTINUOUS
 62
     0
 10
0.0
 20
0.0
 30
0.0
 11
0.1
 21
0.0
 31
0.0
  0
LINE
  5
12D
  8
0
  6
CONTINUOUS
 62
     0
 10
0.0
 20
0.1
 30
0.0
 11
0.0
 21
0.12
 31
0.0
  0
LINE
  5
12E
  8
0
  6
CONTINUOUS
 62
     0
 10
-0.1
 20
0.0
 30
0.0
 11
-0.12
 21
0.0
 31
0.0
  0
LINE
  5
12F
  8
0
  6
CONTINUOUS
 62
     0
 10
0.0
 20
-0.1
 30
0.0
 11
0.0
 21
-0.12
 31
0.0
  0
LINE
  5
130
  8
0
  6
CONTINUOUS
 62
     0
 10
0.1
 20
0.0
 30
0.0
 11
0.12
 21
0.0
 31
0.0
  0
ENDBLK
  5
128
  8
0
  0
BLOCK
  8
0
  2
SW_CENTERMARKSYMBOL_3
 70
     0
 10
0.0
 20
0.0
 30
0.0
  3
SW_CENTERMARKSYMBOL_3
  1

  0
LINE
  5
135
  8
0
  6
CONTINUOUS
 62
     0
 10
0.0
 20
0.0
 30
0.0
 11
0.0
 21
0.1
 31
0.0
  0
LINE
  5
136
  8
0
  6
CONTINUOUS
 62
     0
 10
0.0
 20
0.0
 30
0.0
 11
-0.1
 21
0.0
 31
0.0
  0
LINE
  5
137
  8
0
  6
CONTINUOUS
 62
     0
 10
0.0
 20
0.0
 30
0.0
 11
0.0
 21
-0.1
 31
0.0
  0
LINE
  5
138
  8
0
  6
CONTINUOUS
 62
     0
 10
0.0
 20
0.0
 30
0.0
 11
0.1
 21
0.0
 31
0.0
  0
LINE
  5
139
  8
0
  6
CONTINUOUS
 62
     0
 10
0.0
 20
0.1
 30
0.0
 11
0.0
 21
0.12
 31
0.0
  0
LINE
  5
13A
  8
0
  6
CONTINUOUS
 62
     0
 10
-0.1
 20
0.0
 30
0.0
 11
-0.12
 21
0.0
 31
0.0
  0
LINE
  5
13B
  8
0
  6
CONTINUOUS
 62
     0
 10
0.0
 20
-0.1
 30
0.0
 11
0.0
 21
-0.12
 31
0.0
  0
LINE
  5
13C
  8
0
  6
CONTINUOUS
 62
     0
 10
0.1
 20
0.0
 30
0.0
 11
0.12
 21
0.0
 31
0.0
  0
ENDBLK
  5
134
  8
0
  0
BLOCK
  8
0
  2
SW_CENTERMARKSYMBOL_4
 70
     0
 10
0.0
 20
0.0
 30
0.0
  3
SW_CENTERMARKSYMBOL_4
  1

  0
LINE
  5
141
  8
0
  6
CONTINUOUS
 62
     0
 10
0.0
 20
0.0
 30
0.0
 11
0.0
 21
0.1
 31
0.0
  0
LINE
  5
142
  8
0
  6
CONTINUOUS
 62
     0
 10
0.0
 20
0.0
 30
0.0
 11
-0.1
 21
0.0
 31
0.0
  0
LINE
  5
143
  8
0
  6
CONTINUOUS
 62
     0
 10
0.0
 20
0.0
 30
0.0
 11
0.0
 21
-0.1
 31
0.0
  0
LINE
  5
144
  8
0
  6
CONTINUOUS
 62
     0
 10
0.0
 20
0.0
 30
0.0
 11
0.1
 21
0.0
 31
0.0
  0
LINE
  5
145
  8
0
  6
CONTINUOUS
 62
     0
 10
0.0
 20
0.1
 30
0.0
 11
0.0
 21
0.12
 31
0.0
  0
LINE
  5
146
  8
0
  6
CONTINUOUS
 62
     0
 10
-0.1
 20
0.0
 30
0.0
 11
-0.12
 21
0.0
 31
0.0
  0
LINE
  5
147
  8
0
  6
CONTINUOUS
 62
     0
 10
0.0
 20
-0.1
 30
0.0
 11
0.0
 21
-0.12
 31
0.0
  0
LINE
  5
148
  8
0
  6
CONTINUOUS
 62
     0
 10
0.1
 20
0.0
 30
0.0
 11
0.12
 21
0.0
 31
0.0
  0
ENDBLK
  5
140
  8
0
  0
BLOCK
  8
0
  2
SW_CENTERMARKSYMBOL_5
 70
     0
 10
0.0
 20
0.0
 30
0.0
  3
SW_CENTERMARKSYMBOL_5
  1

  0
LINE
  5
14D
  8
0
  6
CONTINUOUS
 62
     0
 10
0.0
 20
0.0
 30
0.0
 11
0.0
 21
0.1
 31
0.0
  0
LINE
  5
14E
  8
0
  6
CONTINUOUS
 62
     0
 10
0.0
 20
0.0
 30
0.0
 11
-0.1
 21
0.0
 31
0.0
  0
LINE
  5
14F
  8
0
  6
CONTINUOUS
 62
     0
 10
0.0
 20
0.0
 30
0.0
 11
0.0
 21
-0.1
 31
0.0
  0
LINE
  5
150
  8
0
  6
CONTINUOUS
 62
     0
 10
0.0
 20
0.0
 30
0.0
 11
0.1
 21
0.0
 31
0.0
  0
LINE
  5
151
  8
0
  6
CONTINUOUS
 62
     0
 10
0.0
 20
0.1
 30
0.0
 11
0.0
 21
0.12
 31
0.0
  0
LINE
  5
152
  8
0
  6
CONTINUOUS
 62
     0
 10
-0.1
 20
0.0
 30
0.0
 11
-0.12
 21
0.0
 31
0.0
  0
LINE
  5
153
  8
0
  6
CONTINUOUS
 62
     0
 10
0.0
 20
-0.1
 30
0.0
 11
0.0
 21
-0.12
 31
0.0
  0
LINE
  5
154
  8
0
  6
CONTINUOUS
 62
     0
 10
0.1
 20
0.0
 30
0.0
 11
0.12
 21
0.0
 31
0.0
  0
ENDBLK
  5
14C
  8
0
  0
BLOCK
  8
0
  2
SW_CENTERMARKSYMBOL_6
 70
     0
 10
0.0
 20
0.0
 30
0.0
  3
SW_CENTERMARKSYMBOL_6
  1

  0
LINE
  5
159
  8
0
  6
CONTINUOUS
 62
     0
 10
0.0
 20
0.0
 30
0.0
 11
0.0
 21
0.1
 31
0.0
  0
LINE
  5
15A
  8
0
  6
CONTINUOUS
 62
     0
 10
0.0
 20
0.0
 30
0.0
 11
-0.1
 21
0.0
 31
0.0
  0
LINE
  5
15B
  8
0
  6
CONTINUOUS
 62
     0
 10
0.0
 20
0.0
 30
0.0
 11
0.0
 21
-0.1
 31
0.0
  0
LINE
  5
15C
  8
0
  6
CONTINUOUS
 62
     0
 10
0.0
 20
0.0
 30
0.0
 11
0.1
 21
0.0
 31
0.0
  0
LINE
  5
15D
  8
0
  6
CONTINUOUS
 62
     0
 10
0.0
 20
0.1
 30
0.0
 11
0.0
 21
0.12
 31
0.0
  0
LINE
  5
15E
  8
0
  6
CONTINUOUS
 62
     0
 10
-0.1
 20
0.0
 30
0.0
 11
-0.12
 21
0.0
 31
0.0
  0
LINE
  5
15F
  8
0
  6
CONTINUOUS
 62
     0
 10
0.0
 20
-0.1
 30
0.0
 11
0.0
 21
-0.12
 31
0.0
  0
LINE
  5
160
  8
0
  6
CONTINUOUS
 62
     0
 10
0.1
 20
0.0
 30
0.0
 11
0.12
 21
0.0
 31
0.0
  0
ENDBLK
  5
158
  8
0
  0
BLOCK
  8
0
  2
SW_CENTERMARKSYMBOL_7
 70
     0
 10
0.0
 20
0.0
 30
0.0
  3
SW_CENTERMARKSYMBOL_7
  1

  0
LINE
  5
165
  8
0
  6
CONTINUOUS
 62
     0
 10
0.0
 20
0.0
 30
0.0
 11
0.0
 21
0.1
 31
0.0
  0
LINE
  5
166
  8
0
  6
CONTINUOUS
 62
     0
 10
0.0
 20
0.0
 30
0.0
 11
-0.1
 21
0.0
 31
0.0
  0
LINE
  5
167
  8
0
  6
CONTINUOUS
 62
     0
 10
0.0
 20
0.0
 30
0.0
 11
0.0
 21
-0.1
 31
0.0
  0
LINE
  5
168
  8
0
  6
CONTINUOUS
 62
     0
 10
0.0
 20
0.0
 30
0.0
 11
0.1
 21
0.0
 31
0.0
  0
LINE
  5
169
  8
0
  6
CONTINUOUS
 62
     0
 10
0.0
 20
0.1
 30
0.0
 11
0.0
 21
0.12
 31
0.0
  0
LINE
  5
16A
  8
0
  6
CONTINUOUS
 62
     0
 10
-0.1
 20
0.0
 30
0.0
 11
-0.12
 21
0.0
 31
0.0
  0
LINE
  5
16B
  8
0
  6
CONTINUOUS
 62
     0
 10
0.0
 20
-0.1
 30
0.0
 11
0.0
 21
-0.12
 31
0.0
  0
LINE
  5
16C
  8
0
  6
CONTINUOUS
 62
     0
 10
0.1
 20
0.0
 30
0.0
 11
0.12
 21
0.0
 31
0.0
  0
ENDBLK
  5
164
  8
0
  0
BLOCK
  8
0
  2
SW_CENTERMARKSYMBOL_8
 70
     0
 10
0.0
 20
0.0
 30
0.0
  3
SW_CENTERMARKSYMBOL_8
  1

  0
LINE
  5
171
  8
0
  6
CONTINUOUS
 62
     0
 10
0.0
 20
0.0
 30
0.0
 11
0.0
 21
0.1
 31
0.0
  0
LINE
  5
172
  8
0
  6
CONTINUOUS
 62
     0
 10
0.0
 20
0.0
 30
0.0
 11
-0.1
 21
0.0
 31
0.0
  0
LINE
  5
173
  8
0
  6
CONTINUOUS
 62
     0
 10
0.0
 20
0.0
 30
0.0
 11
0.0
 21
-0.1
 31
0.0
  0
LINE
  5
174
  8
0
  6
CONTINUOUS
 62
     0
 10
0.0
 20
0.0
 30
0.0
 11
0.1
 21
0.0
 31
0.0
  0
LINE
  5
175
  8
0
  6
CONTINUOUS
 62
     0
 10
0.0
 20
0.1
 30
0.0
 11
0.0
 21
0.12
 31
0.0
  0
LINE
  5
176
  8
0
  6
CONTINUOUS
 62
     0
 10
-0.1
 20
0.0
 30
0.0
 11
-0.12
 21
0.0
 31
0.0
  0
LINE
  5
177
  8
0
  6
CONTINUOUS
 62
     0
 10
0.0
 20
-0.1
 30
0.0
 11
0.0
 21
-0.12
 31
0.0
  0
LINE
  5
178
  8
0
  6
CONTINUOUS
 62
     0
 10
0.1
 20
0.0
 30
0.0
 11
0.12
 21
0.0
 31
0.0
  0
ENDBLK
  5
170
  8
0
  0
BLOCK
  8
0
  2
SW_CENTERMARKSYMBOL_9
 70
     0
 10
0.0
 20
0.0
 30
0.0
  3
SW_CENTERMARKSYMBOL_9
  1

  0
LINE
  5
17D
  8
0
  6
CONTINUOUS
 62
     0
 10
0.0
 20
0.0
 30
0.0
 11
0.0
 21
0.1
 31
0.0
  0
LINE
  5
17E
  8
0
  6
CONTINUOUS
 62
     0
 10
0.0
 20
0.0
 30
0.0
 11
-0.1
 21
0.0
 31
0.0
  0
LINE
  5
17F
  8
0
  6
CONTINUOUS
 62
     0
 10
0.0
 20
0.0
 30
0.0
 11
0.0
 21
-0.1
 31
0.0
  0
LINE
  5
180
  8
0
  6
CONTINUOUS
 62
     0
 10
0.0
 20
0.0
 30
0.0
 11
0.1
 21
0.0
 31
0.0
  0
LINE
  5
181
  8
0
  6
CONTINUOUS
 62
     0
 10
0.0
 20
0.1
 30
0.0
 11
0.0
 21
0.12
 31
0.0
  0
LINE
  5
182
  8
0
  6
CONTINUOUS
 62
     0
 10
-0.1
 20
0.0
 30
0.0
 11
-0.12
 21
0.0
 31
0.0
  0
LINE
  5
183
  8
0
  6
CONTINUOUS
 62
     0
 10
0.0
 20
-0.1
 30
0.0
 11
0.0
 21
-0.12
 31
0.0
  0
LINE
  5
184
  8
0
  6
CONTINUOUS
 62
     0
 10
0.1
 20
0.0
 30
0.0
 11
0.12
 21
0.0
 31
0.0
  0
ENDBLK
  5
17C
  8
0
  0
BLOCK
  8
0
  2
SW_CENTERMARKSYMBOL_10
 70
     0
 10
0.0
 20
0.0
 30
0.0
  3
SW_CENTERMARKSYMBOL_10
  1

  0
LINE
  5
189
  8
0
  6
CONTINUOUS
 62
     0
 10
0.0
 20
0.0
 30
0.0
 11
0.0
 21
0.1
 31
0.0
  0
LINE
  5
18A
  8
0
  6
CONTINUOUS
 62
     0
 10
0.0
 20
0.0
 30
0.0
 11
-0.1
 21
0.0
 31
0.0
  0
LINE
  5
18B
  8
0
  6
CONTINUOUS
 62
     0
 10
0.0
 20
0.0
 30
0.0
 11
0.0
 21
-0.1
 31
0.0
  0
LINE
  5
18C
  8
0
  6
CONTINUOUS
 62
     0
 10
0.0
 20
0.0
 30
0.0
 11
0.1
 21
0.0
 31
0.0
  0
LINE
  5
18D
  8
0
  6
CONTINUOUS
 62
     0
 10
0.0
 20
0.1
 30
0.0
 11
0.0
 21
0.12
 31
0.0
  0
LINE
  5
18E
  8
0
  6
CONTINUOUS
 62
     0
 10
-0.1
 20
0.0
 30
0.0
 11
-0.12
 21
0.0
 31
0.0
  0
LINE
  5
18F
  8
0
  6
CONTINUOUS
 62
     0
 10
0.0
 20
-0.1
 30
0.0
 11
0.0
 21
-0.12
 31
0.0
  0
LINE
  5
190
  8
0
  6
CONTINUOUS
 62
     0
 10
0.1
 20
0.0
 30
0.0
 11
0.12
 21
0.0
 31
0.0
  0
ENDBLK
  5
188
  8
0
  0
BLOCK
  8
0
  2
SW_CENTERMARKSYMBOL_11
 70
     0
 10
0.0
 20
0.0
 30
0.0
  3
SW_CENTERMARKSYMBOL_11
  1

  0
LINE
  5
195
  8
0
  6
CONTINUOUS
 62
     0
 10
0.0
 20
0.0
 30
0.0
 11
0.0
 21
0.1
 31
0.0
  0
LINE
  5
196
  8
0
  6
CONTINUOUS
 62
     0
 10
0.0
 20
0.0
 30
0.0
 11
-0.1
 21
0.0
 31
0.0
  0
LINE
  5
197
  8
0
  6
CONTINUOUS
 62
     0
 10
0.0
 20
0.0
 30
0.0
 11
0.0
 21
-0.1
 31
0.0
  0
LINE
  5
198
  8
0
  6
CONTINUOUS
 62
     0
 10
0.0
 20
0.0
 30
0.0
 11
0.1
 21
0.0
 31
0.0
  0
LINE
  5
199
  8
0
  6
CONTINUOUS
 62
     0
 10
0.0
 20
0.1
 30
0.0
 11
0.0
 21
0.12
 31
0.0
  0
LINE
  5
19A
  8
0
  6
CONTINUOUS
 62
     0
 10
-0.1
 20
0.0
 30
0.0
 11
-0.12
 21
0.0
 31
0.0
  0
LINE
  5
19B
  8
0
  6
CONTINUOUS
 62
     0
 10
0.0
 20
-0.1
 30
0.0
 11
0.0
 21
-0.12
 31
0.0
  0
LINE
  5
19C
  8
0
  6
CONTINUOUS
 62
     0
 10
0.1
 20
0.0
 30
0.0
 11
0.12
 21
0.0
 31
0.0
  0
ENDBLK
  5
194
  8
0
  0
BLOCK
  8
0
  2
SW_CENTERMARKSYMBOL_12
 70
     0
 10
0.0
 20
0.0
 30
0.0
  3
SW_CENTERMARKSYMBOL_12
  1

  0
LINE
  5
1A1
  8
0
  6
CONTINUOUS
 62
     0
 10
0.0
 20
0.0
 30
0.0
 11
0.0
 21
0.1
 31
0.0
  0
LINE
  5
1A2
  8
0
  6
CONTINUOUS
 62
     0
 10
0.0
 20
0.0
 30
0.0
 11
-0.1
 21
0.0
 31
0.0
  0
LINE
  5
1A3
  8
0
  6
CONTINUOUS
 62
     0
 10
0.0
 20
0.0
 30
0.0
 11
0.0
 21
-0.1
 31
0.0
  0
LINE
  5
1A4
  8
0
  6
CONTINUOUS
 62
     0
 10
0.0
 20
0.0
 30
0.0
 11
0.1
 21
0.0
 31
0.0
  0
LINE
  5
1A5
  8
0
  6
CONTINUOUS
 62
     0
 10
0.0
 20
0.1
 30
0.0
 11
0.0
 21
0.12
 31
0.0
  0
LINE
  5
1A6
  8
0
  6
CONTINUOUS
 62
     0
 10
-0.1
 20
0.0
 30
0.0
 11
-0.12
 21
0.0
 31
0.0
  0
LINE
  5
1A7
  8
0
  6
CONTINUOUS
 62
     0
 10
0.0
 20
-0.1
 30
0.0
 11
0.0
 21
-0.12
 31
0.0
  0
LINE
  5
1A8
  8
0
  6
CONTINUOUS
 62
     0
 10
0.1
 20
0.0
 30
0.0
 11
0.12
 21
0.0
 31
0.0
  0
ENDBLK
  5
1A0
  8
0
  0
BLOCK
  8
0
  2
SW_CENTERMARKSYMBOL_13
 70
     0
 10
0.0
 20
0.0
 30
0.0
  3
SW_CENTERMARKSYMBOL_13
  1

  0
LINE
  5
1AD
  8
0
  6
CONTINUOUS
 62
     0
 10
0.0
 20
0.0
 30
0.0
 11
0.0
 21
0.1
 31
0.0
  0
LINE
  5
1AE
  8
0
  6
CONTINUOUS
 62
     0
 10
0.0
 20
0.0
 30
0.0
 11
-0.1
 21
0.0
 31
0.0
  0
LINE
  5
1AF
  8
0
  6
CONTINUOUS
 62
     0
 10
0.0
 20
0.0
 30
0.0
 11
0.0
 21
-0.1
 31
0.0
  0
LINE
  5
1B0
  8
0
  6
CONTINUOUS
 62
     0
 10
0.0
 20
0.0
 30
0.0
 11
0.1
 21
0.0
 31
0.0
  0
LINE
  5
1B1
  8
0
  6
CONTINUOUS
 62
     0
 10
0.0
 20
0.1
 30
0.0
 11
0.0
 21
0.12
 31
0.0
  0
LINE
  5
1B2
  8
0
  6
CONTINUOUS
 62
     0
 10
-0.1
 20
0.0
 30
0.0
 11
-0.12
 21
0.0
 31
0.0
  0
LINE
  5
1B3
  8
0
  6
CONTINUOUS
 62
     0
 10
0.0
 20
-0.1
 30
0.0
 11
0.0
 21
-0.12
 31
0.0
  0
LINE
  5
1B4
  8
0
  6
CONTINUOUS
 62
     0
 10
0.1
 20
0.0
 30
0.0
 11
0.12
 21
0.0
 31
0.0
  0
ENDBLK
  5
1AC
  8
0
  0
BLOCK
  8
0
  2
SW_CENTERMARKSYMBOL_14
 70
     0
 10
0.0
 20
0.0
 30
0.0
  3
SW_CENTERMARKSYMBOL_14
  1

  0
LINE
  5
1B9
  8
0
  6
CONTINUOUS
 62
     0
 10
0.0
 20
0.0
 30
0.0
 11
0.0
 21
0.1
 31
0.0
  0
LINE
  5
1BA
  8
0
  6
CONTINUOUS
 62
     0
 10
0.0
 20
0.0
 30
0.0
 11
-0.1
 21
0.0
 31
0.0
  0
LINE
  5
1BB
  8
0
  6
CONTINUOUS
 62
     0
 10
0.0
 20
0.0
 30
0.0
 11
0.0
 21
-0.1
 31
0.0
  0
LINE
  5
1BC
  8
0
  6
CONTINUOUS
 62
     0
 10
0.0
 20
0.0
 30
0.0
 11
0.1
 21
0.0
 31
0.0
  0
LINE
  5
1BD
  8
0
  6
CONTINUOUS
 62
     0
 10
0.0
 20
0.1
 30
0.0
 11
0.0
 21
0.12
 31
0.0
  0
LINE
  5
1BE
  8
0
  6
CONTINUOUS
 62
     0
 10
-0.1
 20
0.0
 30
0.0
 11
-0.12
 21
0.0
 31
0.0
  0
LINE
  5
1BF
  8
0
  6
CONTINUOUS
 62
     0
 10
0.0
 20
-0.1
 30
0.0
 11
0.0
 21
-0.12
 31
0.0
  0
LINE
  5
1C0
  8
0
  6
CONTINUOUS
 62
     0
 10
0.1
 20
0.0
 30
0.0
 11
0.12
 21
0.0
 31
0.0
  0
ENDBLK
  5
1B8
  8
0
  0
BLOCK
  8
0
  2
SW_CENTERMARKSYMBOL_15
 70
     0
 10
0.0
 20
0.0
 30
0.0
  3
SW_CENTERMARKSYMBOL_15
  1

  0
LINE
  5
1C5
  8
0
  6
CONTINUOUS
 62
     0
 10
0.0
 20
0.0
 30
0.0
 11
0.0
 21
0.1
 31
0.0
  0
LINE
  5
1C6
  8
0
  6
CONTINUOUS
 62
     0
 10
0.0
 20
0.0
 30
0.0
 11
-0.1
 21
0.0
 31
0.0
  0
LINE
  5
1C7
  8
0
  6
CONTINUOUS
 62
     0
 10
0.0
 20
0.0
 30
0.0
 11
0.0
 21
-0.1
 31
0.0
  0
LINE
  5
1C8
  8
0
  6
CONTINUOUS
 62
     0
 10
0.0
 20
0.0
 30
0.0
 11
0.1
 21
0.0
 31
0.0
  0
LINE
  5
1C9
  8
0
  6
CONTINUOUS
 62
     0
 10
0.0
 20
0.1
 30
0.0
 11
0.0
 21
0.12
 31
0.0
  0
LINE
  5
1CA
  8
0
  6
CONTINUOUS
 62
     0
 10
-0.1
 20
0.0
 30
0.0
 11
-0.12
 21
0.0
 31
0.0
  0
LINE
  5
1CB
  8
0
  6
CONTINUOUS
 62
     0
 10
0.0
 20
-0.1
 30
0.0
 11
0.0
 21
-0.12
 31
0.0
  0
LINE
  5
1CC
  8
0
  6
CONTINUOUS
 62
     0
 10
0.1
 20
0.0
 30
0.0
 11
0.12
 21
0.0
 31
0.0
  0
ENDBLK
  5
1C4
  8
0
  0
BLOCK
  8
0
  2
SW_CENTERMARKSYMBOL_16
 70
     0
 10
0.0
 20
0.0
 30
0.0
  3
SW_CENTERMARKSYMBOL_16
  1

  0
LINE
  5
1D1
  8
0
  6
CONTINUOUS
 62
     0
 10
0.0
 20
0.0
 30
0.0
 11
0.0
 21
0.1
 31
0.0
  0
LINE
  5
1D2
  8
0
  6
CONTINUOUS
 62
     0
 10
0.0
 20
0.0
 30
0.0
 11
-0.1
 21
0.0
 31
0.0
  0
LINE
  5
1D3
  8
0
  6
CONTINUOUS
 62
     0
 10
0.0
 20
0.0
 30
0.0
 11
0.0
 21
-0.1
 31
0.0
  0
LINE
  5
1D4
  8
0
  6
CONTINUOUS
 62
     0
 10
0.0
 20
0.0
 30
0.0
 11
0.1
 21
0.0
 31
0.0
  0
LINE
  5
1D5
  8
0
  6
CONTINUOUS
 62
     0
 10
0.0
 20
0.1
 30
0.0
 11
0.0
 21
0.12
 31
0.0
  0
LINE
  5
1D6
  8
0
  6
CONTINUOUS
 62
     0
 10
-0.1
 20
0.0
 30
0.0
 11
-0.12
 21
0.0
 31
0.0
  0
LINE
  5
1D7
  8
0
  6
CONTINUOUS
 62
     0
 10
0.0
 20
-0.1
 30
0.0
 11
0.0
 21
-0.12
 31
0.0
  0
LINE
  5
1D8
  8
0
  6
CONTINUOUS
 62
     0
 10
0.1
 20
0.0
 30
0.0
 11
0.12
 21
0.0
 31
0.0
  0
ENDBLK
  5
1D0
  8
0
  0
BLOCK
  8
0
  2
SW_CENTERMARKSYMBOL_17
 70
     0
 10
0.0
 20
0.0
 30
0.0
  3
SW_CENTERMARKSYMBOL_17
  1

  0
LINE
  5
1DD
  8
0
  6
CONTINUOUS
 62
     0
 10
0.0
 20
0.0
 30
0.0
 11
0.0
 21
0.1
 31
0.0
  0
LINE
  5
1DE
  8
0
  6
CONTINUOUS
 62
     0
 10
0.0
 20
0.0
 30
0.0
 11
-0.1
 21
0.0
 31
0.0
  0
LINE
  5
1DF
  8
0
  6
CONTINUOUS
 62
     0
 10
0.0
 20
0.0
 30
0.0
 11
0.0
 21
-0.1
 31
0.0
  0
LINE
  5
1E0
  8
0
  6
CONTINUOUS
 62
     0
 10
0.0
 20
0.0
 30
0.0
 11
0.1
 21
0.0
 31
0.0
  0
LINE
  5
1E1
  8
0
  6
CONTINUOUS
 62
     0
 10
0.0
 20
0.1
 30
0.0
 11
0.0
 21
0.12
 31
0.0
  0
LINE
  5
1E2
  8
0
  6
CONTINUOUS
 62
     0
 10
-0.1
 20
0.0
 30
0.0
 11
-0.12
 21
0.0
 31
0.0
  0
LINE
  5
1E3
  8
0
  6
CONTINUOUS
 62
     0
 10
0.0
 20
-0.1
 30
0.0
 11
0.0
 21
-0.12
 31
0.0
  0
LINE
  5
1E4
  8
0
  6
CONTINUOUS
 62
     0
 10
0.1
 20
0.0
 30
0.0
 11
0.12
 21
0.0
 31
0.0
  0
ENDBLK
  5
1DC
  8
0
  0
BLOCK
  8
0
  2
SW_CENTERMARKSYMBOL_18
 70
     0
 10
0.0
 20
0.0
 30
0.0
  3
SW_CENTERMARKSYMBOL_18
  1

  0
LINE
  5
1E9
  8
0
  6
CONTINUOUS
 62
     0
 10
0.0
 20
0.0
 30
0.0
 11
0.0
 21
0.1
 31
0.0
  0
LINE
  5
1EA
  8
0
  6
CONTINUOUS
 62
     0
 10
0.0
 20
0.0
 30
0.0
 11
-0.1
 21
0.0
 31
0.0
  0
LINE
  5
1EB
  8
0
  6
CONTINUOUS
 62
     0
 10
0.0
 20
0.0
 30
0.0
 11
0.0
 21
-0.1
 31
0.0
  0
LINE
  5
1EC
  8
0
  6
CONTINUOUS
 62
     0
 10
0.0
 20
0.0
 30
0.0
 11
0.1
 21
0.0
 31
0.0
  0
LINE
  5
1ED
  8
0
  6
CONTINUOUS
 62
     0
 10
0.0
 20
0.1
 30
0.0
 11
0.0
 21
0.12
 31
0.0
  0
LINE
  5
1EE
  8
0
  6
CONTINUOUS
 62
     0
 10
-0.1
 20
0.0
 30
0.0
 11
-0.12
 21
0.0
 31
0.0
  0
LINE
  5
1EF
  8
0
  6
CONTINUOUS
 62
     0
 10
0.0
 20
-0.1
 30
0.0
 11
0.0
 21
-0.12
 31
0.0
  0
LINE
  5
1F0
  8
0
  6
CONTINUOUS
 62
     0
 10
0.1
 20
0.0
 30
0.0
 11
0.12
 21
0.0
 31
0.0
  0
ENDBLK
  5
1E8
  8
0
  0
BLOCK
  8
0
  2
SW_CENTERMARKSYMBOL_19
 70
     0
 10
0.0
 20
0.0
 30
0.0
  3
SW_CENTERMARKSYMBOL_19
  1

  0
LINE
  5
1F5
  8
0
  6
CONTINUOUS
 62
     0
 10
0.0
 20
0.0
 30
0.0
 11
0.0
 21
0.1
 31
0.0
  0
LINE
  5
1F6
  8
0
  6
CONTINUOUS
 62
     0
 10
0.0
 20
0.0
 30
0.0
 11
-0.1
 21
0.0
 31
0.0
  0
LINE
  5
1F7
  8
0
  6
CONTINUOUS
 62
     0
 10
0.0
 20
0.0
 30
0.0
 11
0.0
 21
-0.1
 31
0.0
  0
LINE
  5
1F8
  8
0
  6
CONTINUOUS
 62
     0
 10
0.0
 20
0.0
 30
0.0
 11
0.1
 21
0.0
 31
0.0
  0
LINE
  5
1F9
  8
0
  6
CONTINUOUS
 62
     0
 10
0.0
 20
0.1
 30
0.0
 11
0.0
 21
0.12
 31
0.0
  0
LINE
  5
1FA
  8
0
  6
CONTINUOUS
 62
     0
 10
-0.1
 20
0.0
 30
0.0
 11
-0.12
 21
0.0
 31
0.0
  0
LINE
  5
1FB
  8
0
  6
CONTINUOUS
 62
     0
 10
0.0
 20
-0.1
 30
0.0
 11
0.0
 21
-0.12
 31
0.0
  0
LINE
  5
1FC
  8
0
  6
CONTINUOUS
 62
     0
 10
0.1
 20
0.0
 30
0.0
 11
0.12
 21
0.0
 31
0.0
  0
ENDBLK
  5
1F4
  8
0
  0
BLOCK
  8
0
  2
SW_CENTERMARKSYMBOL_20
 70
     0
 10
0.0
 20
0.0
 30
0.0
  3
SW_CENTERMARKSYMBOL_20
  1

  0
LINE
  5
201
  8
0
  6
CONTINUOUS
 62
     0
 10
0.0
 20
0.0
 30
0.0
 11
0.0
 21
0.1
 31
0.0
  0
LINE
  5
202
  8
0
  6
CONTINUOUS
 62
     0
 10
0.0
 20
0.0
 30
0.0
 11
-0.1
 21
0.0
 31
0.0
  0
LINE
  5
203
  8
0
  6
CONTINUOUS
 62
     0
 10
0.0
 20
0.0
 30
0.0
 11
0.0
 21
-0.1
 31
0.0
  0
LINE
  5
204
  8
0
  6
CONTINUOUS
 62
     0
 10
0.0
 20
0.0
 30
0.0
 11
0.1
 21
0.0
 31
0.0
  0
LINE
  5
205
  8
0
  6
CONTINUOUS
 62
     0
 10
0.0
 20
0.1
 30
0.0
 11
0.0
 21
0.12
 31
0.0
  0
LINE
  5
206
  8
0
  6
CONTINUOUS
 62
     0
 10
-0.1
 20
0.0
 30
0.0
 11
-0.12
 21
0.0
 31
0.0
  0
LINE
  5
207
  8
0
  6
CONTINUOUS
 62
     0
 10
0.0
 20
-0.1
 30
0.0
 11
0.0
 21
-0.12
 31
0.0
  0
LINE
  5
208
  8
0
  6
CONTINUOUS
 62
     0
 10
0.1
 20
0.0
 30
0.0
 11
0.12
 21
0.0
 31
0.0
  0
ENDBLK
  5
200
  8
0
  0
BLOCK
  8
0
  2
SW_CENTERMARKSYMBOL_21
 70
     0
 10
0.0
 20
0.0
 30
0.0
  3
SW_CENTERMARKSYMBOL_21
  1

  0
LINE
  5
20D
  8
0
  6
CONTINUOUS
 62
     0
 10
0.0
 20
0.0
 30
0.0
 11
0.0
 21
0.1
 31
0.0
  0
LINE
  5
20E
  8
0
  6
CONTINUOUS
 62
     0
 10
0.0
 20
0.0
 30
0.0
 11
-0.1
 21
0.0
 31
0.0
  0
LINE
  5
20F
  8
0
  6
CONTINUOUS
 62
     0
 10
0.0
 20
0.0
 30
0.0
 11
0.0
 21
-0.1
 31
0.0
  0
LINE
  5
210
  8
0
  6
CONTINUOUS
 62
     0
 10
0.0
 20
0.0
 30
0.0
 11
0.1
 21
0.0
 31
0.0
  0
LINE
  5
211
  8
0
  6
CONTINUOUS
 62
     0
 10
0.0
 20
0.1
 30
0.0
 11
0.0
 21
0.12
 31
0.0
  0
LINE
  5
212
  8
0
  6
CONTINUOUS
 62
     0
 10
-0.1
 20
0.0
 30
0.0
 11
-0.12
 21
0.0
 31
0.0
  0
LINE
  5
213
  8
0
  6
CONTINUOUS
 62
     0
 10
0.0
 20
-0.1
 30
0.0
 11
0.0
 21
-0.12
 31
0.0
  0
LINE
  5
214
  8
0
  6
CONTINUOUS
 62
     0
 10
0.1
 20
0.0
 30
0.0
 11
0.12
 21
0.0
 31
0.0
  0
ENDBLK
  5
20C
  8
0
  0
BLOCK
  8
0
  2
SW_CENTERMARKSYMBOL_22
 70
     0
 10
0.0
 20
0.0
 30
0.0
  3
SW_CENTERMARKSYMBOL_22
  1

  0
LINE
  5
219
  8
0
  6
CONTINUOUS
 62
     0
 10
0.0
 20
0.0
 30
0.0
 11
0.0
 21
0.1
 31
0.0
  0
LINE
  5
21A
  8
0
  6
CONTINUOUS
 62
     0
 10
0.0
 20
0.0
 30
0.0
 11
-0.1
 21
0.0
 31
0.0
  0
LINE
  5
21B
  8
0
  6
CONTINUOUS
 62
     0
 10
0.0
 20
0.0
 30
0.0
 11
0.0
 21
-0.1
 31
0.0
  0
LINE
  5
21C
  8
0
  6
CONTINUOUS
 62
     0
 10
0.0
 20
0.0
 30
0.0
 11
0.1
 21
0.0
 31
0.0
  0
LINE
  5
21D
  8
0
  6
CONTINUOUS
 62
     0
 10
0.0
 20
0.1
 30
0.0
 11
0.0
 21
0.12
 31
0.0
  0
LINE
  5
21E
  8
0
  6
CONTINUOUS
 62
     0
 10
-0.1
 20
0.0
 30
0.0
 11
-0.12
 21
0.0
 31
0.0
  0
LINE
  5
21F
  8
0
  6
CONTINUOUS
 62
     0
 10
0.0
 20
-0.1
 30
0.0
 11
0.0
 21
-0.12
 31
0.0
  0
LINE
  5
220
  8
0
  6
CONTINUOUS
 62
     0
 10
0.1
 20
0.0
 30
0.0
 11
0.12
 21
0.0
 31
0.0
  0
ENDBLK
  5
218
  8
0
  0
BLOCK
  8
0
  2
SW_CENTERMARKSYMBOL_23
 70
     0
 10
0.0
 20
0.0
 30
0.0
  3
SW_CENTERMARKSYMBOL_23
  1

  0
LINE
  5
225
  8
0
  6
CONTINUOUS
 62
     0
 10
0.0
 20
0.0
 30
0.0
 11
0.0
 21
0.1
 31
0.0
  0
LINE
  5
226
  8
0
  6
CONTINUOUS
 62
     0
 10
0.0
 20
0.0
 30
0.0
 11
-0.1
 21
0.0
 31
0.0
  0
LINE
  5
227
  8
0
  6
CONTINUOUS
 62
     0
 10
0.0
 20
0.0
 30
0.0
 11
0.0
 21
-0.1
 31
0.0
  0
LINE
  5
228
  8
0
  6
CONTINUOUS
 62
     0
 10
0.0
 20
0.0
 30
0.0
 11
0.1
 21
0.0
 31
0.0
  0
LINE
  5
229
  8
0
  6
CONTINUOUS
 62
     0
 10
0.0
 20
0.1
 30
0.0
 11
0.0
 21
0.12
 31
0.0
  0
LINE
  5
22A
  8
0
  6
CONTINUOUS
 62
     0
 10
-0.1
 20
0.0
 30
0.0
 11
-0.12
 21
0.0
 31
0.0
  0
LINE
  5
22B
  8
0
  6
CONTINUOUS
 62
     0
 10
0.0
 20
-0.1
 30
0.0
 11
0.0
 21
-0.12
 31
0.0
  0
LINE
  5
22C
  8
0
  6
CONTINUOUS
 62
     0
 10
0.1
 20
0.0
 30
0.0
 11
0.12
 21
0.0
 31
0.0
  0
ENDBLK
  5
224
  8
0
  0
BLOCK
  8
0
  2
SW_CENTERMARKSYMBOL_24
 70
     0
 10
0.0
 20
0.0
 30
0.0
  3
SW_CENTERMARKSYMBOL_24
  1

  0
LINE
  5
231
  8
0
  6
CONTINUOUS
 62
     0
 10
0.0
 20
0.0
 30
0.0
 11
0.0
 21
0.1
 31
0.0
  0
LINE
  5
232
  8
0
  6
CONTINUOUS
 62
     0
 10
0.0
 20
0.0
 30
0.0
 11
-0.1
 21
0.0
 31
0.0
  0
LINE
  5
233
  8
0
  6
CONTINUOUS
 62
     0
 10
0.0
 20
0.0
 30
0.0
 11
0.0
 21
-0.1
 31
0.0
  0
LINE
  5
234
  8
0
  6
CONTINUOUS
 62
     0
 10
0.0
 20
0.0
 30
0.0
 11
0.1
 21
0.0
 31
0.0
  0
LINE
  5
235
  8
0
  6
CONTINUOUS
 62
     0
 10
0.0
 20
0.1
 30
0.0
 11
0.0
 21
0.12
 31
0.0
  0
LINE
  5
236
  8
0
  6
CONTINUOUS
 62
     0
 10
-0.1
 20
0.0
 30
0.0
 11
-0.12
 21
0.0
 31
0.0
  0
LINE
  5
237
  8
0
  6
CONTINUOUS
 62
     0
 10
0.0
 20
-0.1
 30
0.0
 11
0.0
 21
-0.12
 31
0.0
  0
LINE
  5
238
  8
0
  6
CONTINUOUS
 62
     0
 10
0.1
 20
0.0
 30
0.0
 11
0.12
 21
0.0
 31
0.0
  0
ENDBLK
  5
230
  8
0
  0
BLOCK
  8
0
  2
SW_CENTERMARKSYMBOL_25
 70
     0
 10
0.0
 20
0.0
 30
0.0
  3
SW_CENTERMARKSYMBOL_25
  1

  0
LINE
  5
23D
  8
0
  6
CONTINUOUS
 62
     0
 10
0.0
 20
0.0
 30
0.0
 11
0.0
 21
0.1
 31
0.0
  0
LINE
  5
23E
  8
0
  6
CONTINUOUS
 62
     0
 10
0.0
 20
0.0
 30
0.0
 11
-0.1
 21
0.0
 31
0.0
  0
LINE
  5
23F
  8
0
  6
CONTINUOUS
 62
     0
 10
0.0
 20
0.0
 30
0.0
 11
0.0
 21
-0.1
 31
0.0
  0
LINE
  5
240
  8
0
  6
CONTINUOUS
 62
     0
 10
0.0
 20
0.0
 30
0.0
 11
0.1
 21
0.0
 31
0.0
  0
LINE
  5
241
  8
0
  6
CONTINUOUS
 62
     0
 10
0.0
 20
0.1
 30
0.0
 11
0.0
 21
0.12
 31
0.0
  0
LINE
  5
242
  8
0
  6
CONTINUOUS
 62
     0
 10
-0.1
 20
0.0
 30
0.0
 11
-0.12
 21
0.0
 31
0.0
  0
LINE
  5
243
  8
0
  6
CONTINUOUS
 62
     0
 10
0.0
 20
-0.1
 30
0.0
 11
0.0
 21
-0.12
 31
0.0
  0
LINE
  5
244
  8
0
  6
CONTINUOUS
 62
     0
 10
0.1
 20
0.0
 30
0.0
 11
0.12
 21
0.0
 31
0.0
  0
ENDBLK
  5
23C
  8
0
  0
BLOCK
  8
0
  2
SW_CENTERMARKSYMBOL_26
 70
     0
 10
0.0
 20
0.0
 30
0.0
  3
SW_CENTERMARKSYMBOL_26
  1

  0
LINE
  5
249
  8
0
  6
CONTINUOUS
 62
     0
 10
0.0
 20
0.0
 30
0.0
 11
0.0
 21
0.1
 31
0.0
  0
LINE
  5
24A
  8
0
  6
CONTINUOUS
 62
     0
 10
0.0
 20
0.0
 30
0.0
 11
-0.1
 21
0.0
 31
0.0
  0
LINE
  5
24B
  8
0
  6
CONTINUOUS
 62
     0
 10
0.0
 20
0.0
 30
0.0
 11
0.0
 21
-0.1
 31
0.0
  0
LINE
  5
24C
  8
0
  6
CONTINUOUS
 62
     0
 10
0.0
 20
0.0
 30
0.0
 11
0.1
 21
0.0
 31
0.0
  0
LINE
  5
24D
  8
0
  6
CONTINUOUS
 62
     0
 10
0.0
 20
0.1
 30
0.0
 11
0.0
 21
0.12
 31
0.0
  0
LINE
  5
24E
  8
0
  6
CONTINUOUS
 62
     0
 10
-0.1
 20
0.0
 30
0.0
 11
-0.12
 21
0.0
 31
0.0
  0
LINE
  5
24F
  8
0
  6
CONTINUOUS
 62
     0
 10
0.0
 20
-0.1
 30
0.0
 11
0.0
 21
-0.12
 31
0.0
  0
LINE
  5
250
  8
0
  6
CONTINUOUS
 62
     0
 10
0.1
 20
0.0
 30
0.0
 11
0.12
 21
0.0
 31
0.0
  0
ENDBLK
  5
248
  8
0
  0
BLOCK
  8
0
  2
SW_CENTERMARKSYMBOL_27
 70
     0
 10
0.0
 20
0.0
 30
0.0
  3
SW_CENTERMARKSYMBOL_27
  1

  0
LINE
  5
255
  8
0
  6
CONTINUOUS
 62
     0
 10
0.0
 20
0.0
 30
0.0
 11
0.0
 21
0.1
 31
0.0
  0
LINE
  5
256
  8
0
  6
CONTINUOUS
 62
     0
 10
0.0
 20
0.0
 30
0.0
 11
-0.1
 21
0.0
 31
0.0
  0
LINE
  5
257
  8
0
  6
CONTINUOUS
 62
     0
 10
0.0
 20
0.0
 30
0.0
 11
0.0
 21
-0.1
 31
0.0
  0
LINE
  5
258
  8
0
  6
CONTINUOUS
 62
     0
 10
0.0
 20
0.0
 30
0.0
 11
0.1
 21
0.0
 31
0.0
  0
LINE
  5
259
  8
0
  6
CONTINUOUS
 62
     0
 10
0.0
 20
0.1
 30
0.0
 11
0.0
 21
0.12
 31
0.0
  0
LINE
  5
25A
  8
0
  6
CONTINUOUS
 62
     0
 10
-0.1
 20
0.0
 30
0.0
 11
-0.12
 21
0.0
 31
0.0
  0
LINE
  5
25B
  8
0
  6
CONTINUOUS
 62
     0
 10
0.0
 20
-0.1
 30
0.0
 11
0.0
 21
-0.12
 31
0.0
  0
LINE
  5
25C
  8
0
  6
CONTINUOUS
 62
     0
 10
0.1
 20
0.0
 30
0.0
 11
0.12
 21
0.0
 31
0.0
  0
ENDBLK
  5
254
  8
0
  0
BLOCK
  8
0
  2
SW_CENTERMARKSYMBOL_28
 70
     0
 10
0.0
 20
0.0
 30
0.0
  3
SW_CENTERMARKSYMBOL_28
  1

  0
LINE
  5
261
  8
0
  6
CONTINUOUS
 62
     0
 10
0.0
 20
0.0
 30
0.0
 11
0.0
 21
0.1
 31
0.0
  0
LINE
  5
262
  8
0
  6
CONTINUOUS
 62
     0
 10
0.0
 20
0.0
 30
0.0
 11
-0.1
 21
0.0
 31
0.0
  0
LINE
  5
263
  8
0
  6
CONTINUOUS
 62
     0
 10
0.0
 20
0.0
 30
0.0
 11
0.0
 21
-0.1
 31
0.0
  0
LINE
  5
264
  8
0
  6
CONTINUOUS
 62
     0
 10
0.0
 20
0.0
 30
0.0
 11
0.1
 21
0.0
 31
0.0
  0
LINE
  5
265
  8
0
  6
CONTINUOUS
 62
     0
 10
0.0
 20
0.1
 30
0.0
 11
0.0
 21
0.12
 31
0.0
  0
LINE
  5
266
  8
0
  6
CONTINUOUS
 62
     0
 10
-0.1
 20
0.0
 30
0.0
 11
-0.12
 21
0.0
 31
0.0
  0
LINE
  5
267
  8
0
  6
CONTINUOUS
 62
     0
 10
0.0
 20
-0.1
 30
0.0
 11
0.0
 21
-0.12
 31
0.0
  0
LINE
  5
268
  8
0
  6
CONTINUOUS
 62
     0
 10
0.1
 20
0.0
 30
0.0
 11
0.12
 21
0.0
 31
0.0
  0
ENDBLK
  5
260
  8
0
  0
BLOCK
  8
0
  2
SW_CENTERMARKSYMBOL_29
 70
     0
 10
0.0
 20
0.0
 30
0.0
  3
SW_CENTERMARKSYMBOL_29
  1

  0
LINE
  5
26D
  8
0
  6
CONTINUOUS
 62
     0
 10
0.0
 20
0.0
 30
0.0
 11
0.0
 21
0.1
 31
0.0
  0
LINE
  5
26E
  8
0
  6
CONTINUOUS
 62
     0
 10
0.0
 20
0.0
 30
0.0
 11
-0.1
 21
0.0
 31
0.0
  0
LINE
  5
26F
  8
0
  6
CONTINUOUS
 62
     0
 10
0.0
 20
0.0
 30
0.0
 11
0.0
 21
-0.1
 31
0.0
  0
LINE
  5
270
  8
0
  6
CONTINUOUS
 62
     0
 10
0.0
 20
0.0
 30
0.0
 11
0.1
 21
0.0
 31
0.0
  0
LINE
  5
271
  8
0
  6
CONTINUOUS
 62
     0
 10
0.0
 20
0.1
 30
0.0
 11
0.0
 21
0.12
 31
0.0
  0
LINE
  5
272
  8
0
  6
CONTINUOUS
 62
     0
 10
-0.1
 20
0.0
 30
0.0
 11
-0.12
 21
0.0
 31
0.0
  0
LINE
  5
273
  8
0
  6
CONTINUOUS
 62
     0
 10
0.0
 20
-0.1
 30
0.0
 11
0.0
 21
-0.12
 31
0.0
  0
LINE
  5
274
  8
0
  6
CONTINUOUS
 62
     0
 10
0.1
 20
0.0
 30
0.0
 11
0.12
 21
0.0
 31
0.0
  0
ENDBLK
  5
26C
  8
0
  0
BLOCK
  8
0
  2
SW_CENTERMARKSYMBOL_30
 70
     0
 10
0.0
 20
0.0
 30
0.0
  3
SW_CENTERMARKSYMBOL_30
  1

  0
LINE
  5
279
  8
0
  6
CONTINUOUS
 62
     0
 10
0.0
 20
0.0
 30
0.0
 11
0.0
 21
0.1
 31
0.0
  0
LINE
  5
27A
  8
0
  6
CONTINUOUS
 62
     0
 10
0.0
 20
0.0
 30
0.0
 11
-0.1
 21
0.0
 31
0.0
  0
LINE
  5
27B
  8
0
  6
CONTINUOUS
 62
     0
 10
0.0
 20
0.0
 30
0.0
 11
0.0
 21
-0.1
 31
0.0
  0
LINE
  5
27C
  8
0
  6
CONTINUOUS
 62
     0
 10
0.0
 20
0.0
 30
0.0
 11
0.1
 21
0.0
 31
0.0
  0
LINE
  5
27D
  8
0
  6
CONTINUOUS
 62
     0
 10
0.0
 20
0.1
 30
0.0
 11
0.0
 21
0.12
 31
0.0
  0
LINE
  5
27E
  8
0
  6
CONTINUOUS
 62
     0
 10
-0.1
 20
0.0
 30
0.0
 11
-0.12
 21
0.0
 31
0.0
  0
LINE
  5
27F
  8
0
  6
CONTINUOUS
 62
     0
 10
0.0
 20
-0.1
 30
0.0
 11
0.0
 21
-0.12
 31
0.0
  0
LINE
  5
280
  8
0
  6
CONTINUOUS
 62
     0
 10
0.1
 20
0.0
 30
0.0
 11
0.12
 21
0.0
 31
0.0
  0
ENDBLK
  5
278
  8
0
  0
BLOCK
  8
0
  2
SW_CENTERMARKSYMBOL_31
 70
     0
 10
0.0
 20
0.0
 30
0.0
  3
SW_CENTERMARKSYMBOL_31
  1

  0
LINE
  5
285
  8
0
  6
CONTINUOUS
 62
     0
 10
0.0
 20
0.0
 30
0.0
 11
0.0
 21
0.1
 31
0.0
  0
LINE
  5
286
  8
0
  6
CONTINUOUS
 62
     0
 10
0.0
 20
0.0
 30
0.0
 11
-0.1
 21
0.0
 31
0.0
  0
LINE
  5
287
  8
0
  6
CONTINUOUS
 62
     0
 10
0.0
 20
0.0
 30
0.0
 11
0.0
 21
-0.1
 31
0.0
  0
LINE
  5
288
  8
0
  6
CONTINUOUS
 62
     0
 10
0.0
 20
0.0
 30
0.0
 11
0.1
 21
0.0
 31
0.0
  0
LINE
  5
289
  8
0
  6
CONTINUOUS
 62
     0
 10
0.0
 20
0.1
 30
0.0
 11
0.0
 21
0.12
 31
0.0
  0
LINE
  5
28A
  8
0
  6
CONTINUOUS
 62
     0
 10
-0.1
 20
0.0
 30
0.0
 11
-0.12
 21
0.0
 31
0.0
  0
LINE
  5
28B
  8
0
  6
CONTINUOUS
 62
     0
 10
0.0
 20
-0.1
 30
0.0
 11
0.0
 21
-0.12
 31
0.0
  0
LINE
  5
28C
  8
0
  6
CONTINUOUS
 62
     0
 10
0.1
 20
0.0
 30
0.0
 11
0.12
 21
0.0
 31
0.0
  0
ENDBLK
  5
284
  8
0
  0
BLOCK
  8
0
  2
SW_CENTERMARKSYMBOL_32
 70
     0
 10
0.0
 20
0.0
 30
0.0
  3
SW_CENTERMARKSYMBOL_32
  1

  0
LINE
  5
291
  8
0
  6
CONTINUOUS
 62
     0
 10
0.0
 20
0.0
 30
0.0
 11
0.0
 21
0.1
 31
0.0
  0
LINE
  5
292
  8
0
  6
CONTINUOUS
 62
     0
 10
0.0
 20
0.0
 30
0.0
 11
-0.1
 21
0.0
 31
0.0
  0
LINE
  5
293
  8
0
  6
CONTINUOUS
 62
     0
 10
0.0
 20
0.0
 30
0.0
 11
0.0
 21
-0.1
 31
0.0
  0
LINE
  5
294
  8
0
  6
CONTINUOUS
 62
     0
 10
0.0
 20
0.0
 30
0.0
 11
0.1
 21
0.0
 31
0.0
  0
LINE
  5
295
  8
0
  6
CONTINUOUS
 62
     0
 10
0.0
 20
0.1
 30
0.0
 11
0.0
 21
0.12
 31
0.0
  0
LINE
  5
296
  8
0
  6
CONTINUOUS
 62
     0
 10
-0.1
 20
0.0
 30
0.0
 11
-0.12
 21
0.0
 31
0.0
  0
LINE
  5
297
  8
0
  6
CONTINUOUS
 62
     0
 10
0.0
 20
-0.1
 30
0.0
 11
0.0
 21
-0.12
 31
0.0
  0
LINE
  5
298
  8
0
  6
CONTINUOUS
 62
     0
 10
0.1
 20
0.0
 30
0.0
 11
0.12
 21
0.0
 31
0.0
  0
ENDBLK
  5
290
  8
0
  0
BLOCK
  8
0
  2
SW_CENTERMARKSYMBOL_33
 70
     0
 10
0.0
 20
0.0
 30
0.0
  3
SW_CENTERMARKSYMBOL_33
  1

  0
LINE
  5
29D
  8
0
  6
CONTINUOUS
 62
     0
 10
0.0
 20
0.0
 30
0.0
 11
0.0
 21
0.1
 31
0.0
  0
LINE
  5
29E
  8
0
  6
CONTINUOUS
 62
     0
 10
0.0
 20
0.0
 30
0.0
 11
-0.1
 21
0.0
 31
0.0
  0
LINE
  5
29F
  8
0
  6
CONTINUOUS
 62
     0
 10
0.0
 20
0.0
 30
0.0
 11
0.0
 21
-0.1
 31
0.0
  0
LINE
  5
2A0
  8
0
  6
CONTINUOUS
 62
     0
 10
0.0
 20
0.0
 30
0.0
 11
0.1
 21
0.0
 31
0.0
  0
LINE
  5
2A1
  8
0
  6
CONTINUOUS
 62
     0
 10
0.0
 20
0.1
 30
0.0
 11
0.0
 21
0.12
 31
0.0
  0
LINE
  5
2A2
  8
0
  6
CONTINUOUS
 62
     0
 10
-0.1
 20
0.0
 30
0.0
 11
-0.12
 21
0.0
 31
0.0
  0
LINE
  5
2A3
  8
0
  6
CONTINUOUS
 62
     0
 10
0.0
 20
-0.1
 30
0.0
 11
0.0
 21
-0.12
 31
0.0
  0
LINE
  5
2A4
  8
0
  6
CONTINUOUS
 62
     0
 10
0.1
 20
0.0
 30
0.0
 11
0.12
 21
0.0
 31
0.0
  0
ENDBLK
  5
29C
  8
0
  0
BLOCK
  8
0
  2
SW_CENTERMARKSYMBOL_34
 70
     0
 10
0.0
 20
0.0
 30
0.0
  3
SW_CENTERMARKSYMBOL_34
  1

  0
LINE
  5
2A9
  8
0
  6
CONTINUOUS
 62
     0
 10
0.0
 20
0.0
 30
0.0
 11
0.0
 21
0.1
 31
0.0
  0
LINE
  5
2AA
  8
0
  6
CONTINUOUS
 62
     0
 10
0.0
 20
0.0
 30
0.0
 11
-0.1
 21
0.0
 31
0.0
  0
LINE
  5
2AB
  8
0
  6
CONTINUOUS
 62
     0
 10
0.0
 20
0.0
 30
0.0
 11
0.0
 21
-0.1
 31
0.0
  0
LINE
  5
2AC
  8
0
  6
CONTINUOUS
 62
     0
 10
0.0
 20
0.0
 30
0.0
 11
0.1
 21
0.0
 31
0.0
  0
LINE
  5
2AD
  8
0
  6
CONTINUOUS
 62
     0
 10
0.0
 20
0.1
 30
0.0
 11
0.0
 21
0.12
 31
0.0
  0
LINE
  5
2AE
  8
0
  6
CONTINUOUS
 62
     0
 10
-0.1
 20
0.0
 30
0.0
 11
-0.12
 21
0.0
 31
0.0
  0
LINE
  5
2AF
  8
0
  6
CONTINUOUS
 62
     0
 10
0.0
 20
-0.1
 30
0.0
 11
0.0
 21
-0.12
 31
0.0
  0
LINE
  5
2B0
  8
0
  6
CONTINUOUS
 62
     0
 10
0.1
 20
0.0
 30
0.0
 11
0.12
 21
0.0
 31
0.0
  0
ENDBLK
  5
2A8
  8
0
  0
BLOCK
  8
0
  2
SW_CENTERMARKSYMBOL_35
 70
     0
 10
0.0
 20
0.0
 30
0.0
  3
SW_CENTERMARKSYMBOL_35
  1

  0
LINE
  5
2B5
  8
0
  6
CONTINUOUS
 62
     0
 10
0.0
 20
0.0
 30
0.0
 11
0.0
 21
0.1
 31
0.0
  0
LINE
  5
2B6
  8
0
  6
CONTINUOUS
 62
     0
 10
0.0
 20
0.0
 30
0.0
 11
-0.1
 21
0.0
 31
0.0
  0
LINE
  5
2B7
  8
0
  6
CONTINUOUS
 62
     0
 10
0.0
 20
0.0
 30
0.0
 11
0.0
 21
-0.1
 31
0.0
  0
LINE
  5
2B8
  8
0
  6
CONTINUOUS
 62
     0
 10
0.0
 20
0.0
 30
0.0
 11
0.1
 21
0.0
 31
0.0
  0
LINE
  5
2B9
  8
0
  6
CONTINUOUS
 62
     0
 10
0.0
 20
0.1
 30
0.0
 11
0.0
 21
0.12
 31
0.0
  0
LINE
  5
2BA
  8
0
  6
CONTINUOUS
 62
     0
 10
-0.1
 20
0.0
 30
0.0
 11
-0.12
 21
0.0
 31
0.0
  0
LINE
  5
2BB
  8
0
  6
CONTINUOUS
 62
     0
 10
0.0
 20
-0.1
 30
0.0
 11
0.0
 21
-0.12
 31
0.0
  0
LINE
  5
2BC
  8
0
  6
CONTINUOUS
 62
     0
 10
0.1
 20
0.0
 30
0.0
 11
0.12
 21
0.0
 31
0.0
  0
ENDBLK
  5
2B4
  8
0
  0
BLOCK
  8
0
  2
SW_CENTERMARKSYMBOL_36
 70
     0
 10
0.0
 20
0.0
 30
0.0
  3
SW_CENTERMARKSYMBOL_36
  1

  0
LINE
  5
2C1
  8
0
  6
CONTINUOUS
 62
     0
 10
0.0
 20
0.0
 30
0.0
 11
0.0
 21
0.1
 31
0.0
  0
LINE
  5
2C2
  8
0
  6
CONTINUOUS
 62
     0
 10
0.0
 20
0.0
 30
0.0
 11
-0.1
 21
0.0
 31
0.0
  0
LINE
  5
2C3
  8
0
  6
CONTINUOUS
 62
     0
 10
0.0
 20
0.0
 30
0.0
 11
0.0
 21
-0.1
 31
0.0
  0
LINE
  5
2C4
  8
0
  6
CONTINUOUS
 62
     0
 10
0.0
 20
0.0
 30
0.0
 11
0.1
 21
0.0
 31
0.0
  0
LINE
  5
2C5
  8
0
  6
CONTINUOUS
 62
     0
 10
0.0
 20
0.1
 30
0.0
 11
0.0
 21
0.12
 31
0.0
  0
LINE
  5
2C6
  8
0
  6
CONTINUOUS
 62
     0
 10
-0.1
 20
0.0
 30
0.0
 11
-0.12
 21
0.0
 31
0.0
  0
LINE
  5
2C7
  8
0
  6
CONTINUOUS
 62
     0
 10
0.0
 20
-0.1
 30
0.0
 11
0.0
 21
-0.12
 31
0.0
  0
LINE
  5
2C8
  8
0
  6
CONTINUOUS
 62
     0
 10
0.1
 20
0.0
 30
0.0
 11
0.12
 21
0.0
 31
0.0
  0
ENDBLK
  5
2C0
  8
0
  0
BLOCK
  8
0
  2
SW_CENTERMARKSYMBOL_37
 70
     0
 10
0.0
 20
0.0
 30
0.0
  3
SW_CENTERMARKSYMBOL_37
  1

  0
LINE
  5
2CD
  8
0
  6
CONTINUOUS
 62
     0
 10
0.0
 20
0.0
 30
0.0
 11
0.0
 21
0.1
 31
0.0
  0
LINE
  5
2CE
  8
0
  6
CONTINUOUS
 62
     0
 10
0.0
 20
0.0
 30
0.0
 11
-0.1
 21
0.0
 31
0.0
  0
LINE
  5
2CF
  8
0
  6
CONTINUOUS
 62
     0
 10
0.0
 20
0.0
 30
0.0
 11
0.0
 21
-0.1
 31
0.0
  0
LINE
  5
2D0
  8
0
  6
CONTINUOUS
 62
     0
 10
0.0
 20
0.0
 30
0.0
 11
0.1
 21
0.0
 31
0.0
  0
LINE
  5
2D1
  8
0
  6
CONTINUOUS
 62
     0
 10
0.0
 20
0.1
 30
0.0
 11
0.0
 21
0.12
 31
0.0
  0
LINE
  5
2D2
  8
0
  6
CONTINUOUS
 62
     0
 10
-0.1
 20
0.0
 30
0.0
 11
-0.12
 21
0.0
 31
0.0
  0
LINE
  5
2D3
  8
0
  6
CONTINUOUS
 62
     0
 10
0.0
 20
-0.1
 30
0.0
 11
0.0
 21
-0.12
 31
0.0
  0
LINE
  5
2D4
  8
0
  6
CONTINUOUS
 62
     0
 10
0.1
 20
0.0
 30
0.0
 11
0.12
 21
0.0
 31
0.0
  0
ENDBLK
  5
2CC
  8
0
  0
BLOCK
  8
0
  2
SW_CENTERMARKSYMBOL_38
 70
     0
 10
0.0
 20
0.0
 30
0.0
  3
SW_CENTERMARKSYMBOL_38
  1

  0
LINE
  5
2D9
  8
0
  6
CONTINUOUS
 62
     0
 10
0.0
 20
0.0
 30
0.0
 11
0.0
 21
0.1
 31
0.0
  0
LINE
  5
2DA
  8
0
  6
CONTINUOUS
 62
     0
 10
0.0
 20
0.0
 30
0.0
 11
-0.1
 21
0.0
 31
0.0
  0
LINE
  5
2DB
  8
0
  6
CONTINUOUS
 62
     0
 10
0.0
 20
0.0
 30
0.0
 11
0.0
 21
-0.1
 31
0.0
  0
LINE
  5
2DC
  8
0
  6
CONTINUOUS
 62
     0
 10
0.0
 20
0.0
 30
0.0
 11
0.1
 21
0.0
 31
0.0
  0
LINE
  5
2DD
  8
0
  6
CONTINUOUS
 62
     0
 10
0.0
 20
0.1
 30
0.0
 11
0.0
 21
0.12
 31
0.0
  0
LINE
  5
2DE
  8
0
  6
CONTINUOUS
 62
     0
 10
-0.1
 20
0.0
 30
0.0
 11
-0.12
 21
0.0
 31
0.0
  0
LINE
  5
2DF
  8
0
  6
CONTINUOUS
 62
     0
 10
0.0
 20
-0.1
 30
0.0
 11
0.0
 21
-0.12
 31
0.0
  0
LINE
  5
2E0
  8
0
  6
CONTINUOUS
 62
     0
 10
0.1
 20
0.0
 30
0.0
 11
0.12
 21
0.0
 31
0.0
  0
ENDBLK
  5
2D8
  8
0
  0
BLOCK
  8
0
  2
SW_CENTERMARKSYMBOL_39
 70
     0
 10
0.0
 20
0.0
 30
0.0
  3
SW_CENTERMARKSYMBOL_39
  1

  0
LINE
  5
2E5
  8
0
  6
CONTINUOUS
 62
     0
 10
0.0
 20
0.0
 30
0.0
 11
0.0
 21
0.1
 31
0.0
  0
LINE
  5
2E6
  8
0
  6
CONTINUOUS
 62
     0
 10
0.0
 20
0.0
 30
0.0
 11
-0.1
 21
0.0
 31
0.0
  0
LINE
  5
2E7
  8
0
  6
CONTINUOUS
 62
     0
 10
0.0
 20
0.0
 30
0.0
 11
0.0
 21
-0.1
 31
0.0
  0
LINE
  5
2E8
  8
0
  6
CONTINUOUS
 62
     0
 10
0.0
 20
0.0
 30
0.0
 11
0.1
 21
0.0
 31
0.0
  0
LINE
  5
2E9
  8
0
  6
CONTINUOUS
 62
     0
 10
0.0
 20
0.1
 30
0.0
 11
0.0
 21
0.12
 31
0.0
  0
LINE
  5
2EA
  8
0
  6
CONTINUOUS
 62
     0
 10
-0.1
 20
0.0
 30
0.0
 11
-0.12
 21
0.0
 31
0.0
  0
LINE
  5
2EB
  8
0
  6
CONTINUOUS
 62
     0
 10
0.0
 20
-0.1
 30
0.0
 11
0.0
 21
-0.12
 31
0.0
  0
LINE
  5
2EC
  8
0
  6
CONTINUOUS
 62
     0
 10
0.1
 20
0.0
 30
0.0
 11
0.12
 21
0.0
 31
0.0
  0
ENDBLK
  5
2E4
  8
0
  0
BLOCK
  8
0
  2
SW_CENTERMARKSYMBOL_40
 70
     0
 10
0.0
 20
0.0
 30
0.0
  3
SW_CENTERMARKSYMBOL_40
  1

  0
LINE
  5
2F1
  8
0
  6
CONTINUOUS
 62
     0
 10
0.0
 20
0.0
 30
0.0
 11
0.0
 21
0.1
 31
0.0
  0
LINE
  5
2F2
  8
0
  6
CONTINUOUS
 62
     0
 10
0.0
 20
0.0
 30
0.0
 11
-0.1
 21
0.0
 31
0.0
  0
LINE
  5
2F3
  8
0
  6
CONTINUOUS
 62
     0
 10
0.0
 20
0.0
 30
0.0
 11
0.0
 21
-0.1
 31
0.0
  0
LINE
  5
2F4
  8
0
  6
CONTINUOUS
 62
     0
 10
0.0
 20
0.0
 30
0.0
 11
0.1
 21
0.0
 31
0.0
  0
LINE
  5
2F5
  8
0
  6
CONTINUOUS
 62
     0
 10
0.0
 20
0.1
 30
0.0
 11
0.0
 21
0.12
 31
0.0
  0
LINE
  5
2F6
  8
0
  6
CONTINUOUS
 62
     0
 10
-0.1
 20
0.0
 30
0.0
 11
-0.12
 21
0.0
 31
0.0
  0
LINE
  5
2F7
  8
0
  6
CONTINUOUS
 62
     0
 10
0.0
 20
-0.1
 30
0.0
 11
0.0
 21
-0.12
 31
0.0
  0
LINE
  5
2F8
  8
0
  6
CONTINUOUS
 62
     0
 10
0.1
 20
0.0
 30
0.0
 11
0.12
 21
0.0
 31
0.0
  0
ENDBLK
  5
2F0
  8
0
  0
BLOCK
  8
0
  2
SW_CENTERMARKSYMBOL_41
 70
     0
 10
0.0
 20
0.0
 30
0.0
  3
SW_CENTERMARKSYMBOL_41
  1

  0
LINE
  5
2FD
  8
0
  6
CONTINUOUS
 62
     0
 10
0.0
 20
0.0
 30
0.0
 11
0.0
 21
0.1
 31
0.0
  0
LINE
  5
2FE
  8
0
  6
CONTINUOUS
 62
     0
 10
0.0
 20
0.0
 30
0.0
 11
-0.1
 21
0.0
 31
0.0
  0
LINE
  5
2FF
  8
0
  6
CONTINUOUS
 62
     0
 10
0.0
 20
0.0
 30
0.0
 11
0.0
 21
-0.1
 31
0.0
  0
LINE
  5
300
  8
0
  6
CONTINUOUS
 62
     0
 10
0.0
 20
0.0
 30
0.0
 11
0.1
 21
0.0
 31
0.0
  0
LINE
  5
301
  8
0
  6
CONTINUOUS
 62
     0
 10
0.0
 20
0.1
 30
0.0
 11
0.0
 21
0.12
 31
0.0
  0
LINE
  5
302
  8
0
  6
CONTINUOUS
 62
     0
 10
-0.1
 20
0.0
 30
0.0
 11
-0.12
 21
0.0
 31
0.0
  0
LINE
  5
303
  8
0
  6
CONTINUOUS
 62
     0
 10
0.0
 20
-0.1
 30
0.0
 11
0.0
 21
-0.12
 31
0.0
  0
LINE
  5
304
  8
0
  6
CONTINUOUS
 62
     0
 10
0.1
 20
0.0
 30
0.0
 11
0.12
 21
0.0
 31
0.0
  0
ENDBLK
  5
2FC
  8
0
  0
BLOCK
  8
0
  2
SW_CENTERMARKSYMBOL_42
 70
     0
 10
0.0
 20
0.0
 30
0.0
  3
SW_CENTERMARKSYMBOL_42
  1

  0
LINE
  5
309
  8
0
  6
CONTINUOUS
 62
     0
 10
0.0
 20
0.0
 30
0.0
 11
0.0
 21
0.1
 31
0.0
  0
LINE
  5
30A
  8
0
  6
CONTINUOUS
 62
     0
 10
0.0
 20
0.0
 30
0.0
 11
-0.1
 21
0.0
 31
0.0
  0
LINE
  5
30B
  8
0
  6
CONTINUOUS
 62
     0
 10
0.0
 20
0.0
 30
0.0
 11
0.0
 21
-0.1
 31
0.0
  0
LINE
  5
30C
  8
0
  6
CONTINUOUS
 62
     0
 10
0.0
 20
0.0
 30
0.0
 11
0.1
 21
0.0
 31
0.0
  0
LINE
  5
30D
  8
0
  6
CONTINUOUS
 62
     0
 10
0.0
 20
0.1
 30
0.0
 11
0.0
 21
0.12
 31
0.0
  0
LINE
  5
30E
  8
0
  6
CONTINUOUS
 62
     0
 10
-0.1
 20
0.0
 30
0.0
 11
-0.12
 21
0.0
 31
0.0
  0
LINE
  5
30F
  8
0
  6
CONTINUOUS
 62
     0
 10
0.0
 20
-0.1
 30
0.0
 11
0.0
 21
-0.12
 31
0.0
  0
LINE
  5
310
  8
0
  6
CONTINUOUS
 62
     0
 10
0.1
 20
0.0
 30
0.0
 11
0.12
 21
0.0
 31
0.0
  0
ENDBLK
  5
308
  8
0
  0
BLOCK
  8
0
  2
SW_CENTERMARKSYMBOL_43
 70
     0
 10
0.0
 20
0.0
 30
0.0
  3
SW_CENTERMARKSYMBOL_43
  1

  0
LINE
  5
315
  8
0
  6
CONTINUOUS
 62
     0
 10
0.0
 20
0.0
 30
0.0
 11
0.0
 21
0.1
 31
0.0
  0
LINE
  5
316
  8
0
  6
CONTINUOUS
 62
     0
 10
0.0
 20
0.0
 30
0.0
 11
-0.1
 21
0.0
 31
0.0
  0
LINE
  5
317
  8
0
  6
CONTINUOUS
 62
     0
 10
0.0
 20
0.0
 30
0.0
 11
0.0
 21
-0.1
 31
0.0
  0
LINE
  5
318
  8
0
  6
CONTINUOUS
 62
     0
 10
0.0
 20
0.0
 30
0.0
 11
0.1
 21
0.0
 31
0.0
  0
LINE
  5
319
  8
0
  6
CONTINUOUS
 62
     0
 10
0.0
 20
0.1
 30
0.0
 11
0.0
 21
0.12
 31
0.0
  0
LINE
  5
31A
  8
0
  6
CONTINUOUS
 62
     0
 10
-0.1
 20
0.0
 30
0.0
 11
-0.12
 21
0.0
 31
0.0
  0
LINE
  5
31B
  8
0
  6
CONTINUOUS
 62
     0
 10
0.0
 20
-0.1
 30
0.0
 11
0.0
 21
-0.12
 31
0.0
  0
LINE
  5
31C
  8
0
  6
CONTINUOUS
 62
     0
 10
0.1
 20
0.0
 30
0.0
 11
0.12
 21
0.0
 31
0.0
  0
ENDBLK
  5
314
  8
0
  0
BLOCK
  8
0
  2
SW_CENTERMARKSYMBOL_44
 70
     0
 10
0.0
 20
0.0
 30
0.0
  3
SW_CENTERMARKSYMBOL_44
  1

  0
LINE
  5
321
  8
0
  6
CONTINUOUS
 62
     0
 10
0.0
 20
0.0
 30
0.0
 11
0.0
 21
0.1
 31
0.0
  0
LINE
  5
322
  8
0
  6
CONTINUOUS
 62
     0
 10
0.0
 20
0.0
 30
0.0
 11
-0.1
 21
0.0
 31
0.0
  0
LINE
  5
323
  8
0
  6
CONTINUOUS
 62
     0
 10
0.0
 20
0.0
 30
0.0
 11
0.0
 21
-0.1
 31
0.0
  0
LINE
  5
324
  8
0
  6
CONTINUOUS
 62
     0
 10
0.0
 20
0.0
 30
0.0
 11
0.1
 21
0.0
 31
0.0
  0
LINE
  5
325
  8
0
  6
CONTINUOUS
 62
     0
 10
0.0
 20
0.1
 30
0.0
 11
0.0
 21
0.12
 31
0.0
  0
LINE
  5
326
  8
0
  6
CONTINUOUS
 62
     0
 10
-0.1
 20
0.0
 30
0.0
 11
-0.12
 21
0.0
 31
0.0
  0
LINE
  5
327
  8
0
  6
CONTINUOUS
 62
     0
 10
0.0
 20
-0.1
 30
0.0
 11
0.0
 21
-0.12
 31
0.0
  0
LINE
  5
328
  8
0
  6
CONTINUOUS
 62
     0
 10
0.1
 20
0.0
 30
0.0
 11
0.12
 21
0.0
 31
0.0
  0
ENDBLK
  5
320
  8
0
  0
BLOCK
  8
0
  2
SW_CENTERMARKSYMBOL_45
 70
     0
 10
0.0
 20
0.0
 30
0.0
  3
SW_CENTERMARKSYMBOL_45
  1

  0
LINE
  5
32D
  8
0
  6
CONTINUOUS
 62
     0
 10
0.0
 20
0.0
 30
0.0
 11
0.0
 21
0.1
 31
0.0
  0
LINE
  5
32E
  8
0
  6
CONTINUOUS
 62
     0
 10
0.0
 20
0.0
 30
0.0
 11
-0.1
 21
0.0
 31
0.0
  0
LINE
  5
32F
  8
0
  6
CONTINUOUS
 62
     0
 10
0.0
 20
0.0
 30
0.0
 11
0.0
 21
-0.1
 31
0.0
  0
LINE
  5
330
  8
0
  6
CONTINUOUS
 62
     0
 10
0.0
 20
0.0
 30
0.0
 11
0.1
 21
0.0
 31
0.0
  0
LINE
  5
331
  8
0
  6
CONTINUOUS
 62
     0
 10
0.0
 20
0.1
 30
0.0
 11
0.0
 21
0.12
 31
0.0
  0
LINE
  5
332
  8
0
  6
CONTINUOUS
 62
     0
 10
-0.1
 20
0.0
 30
0.0
 11
-0.12
 21
0.0
 31
0.0
  0
LINE
  5
333
  8
0
  6
CONTINUOUS
 62
     0
 10
0.0
 20
-0.1
 30
0.0
 11
0.0
 21
-0.12
 31
0.0
  0
LINE
  5
334
  8
0
  6
CONTINUOUS
 62
     0
 10
0.1
 20
0.0
 30
0.0
 11
0.12
 21
0.0
 31
0.0
  0
ENDBLK
  5
32C
  8
0
  0
BLOCK
  8
0
  2
SW_CENTERMARKSYMBOL_46
 70
     0
 10
0.0
 20
0.0
 30
0.0
  3
SW_CENTERMARKSYMBOL_46
  1

  0
LINE
  5
339
  8
0
  6
CONTINUOUS
 62
     0
 10
0.0
 20
0.0
 30
0.0
 11
0.0
 21
0.1
 31
0.0
  0
LINE
  5
33A
  8
0
  6
CONTINUOUS
 62
     0
 10
0.0
 20
0.0
 30
0.0
 11
-0.1
 21
0.0
 31
0.0
  0
LINE
  5
33B
  8
0
  6
CONTINUOUS
 62
     0
 10
0.0
 20
0.0
 30
0.0
 11
0.0
 21
-0.1
 31
0.0
  0
LINE
  5
33C
  8
0
  6
CONTINUOUS
 62
     0
 10
0.0
 20
0.0
 30
0.0
 11
0.1
 21
0.0
 31
0.0
  0
LINE
  5
33D
  8
0
  6
CONTINUOUS
 62
     0
 10
0.0
 20
0.1
 30
0.0
 11
0.0
 21
0.12
 31
0.0
  0
LINE
  5
33E
  8
0
  6
CONTINUOUS
 62
     0
 10
-0.1
 20
0.0
 30
0.0
 11
-0.12
 21
0.0
 31
0.0
  0
LINE
  5
33F
  8
0
  6
CONTINUOUS
 62
     0
 10
0.0
 20
-0.1
 30
0.0
 11
0.0
 21
-0.12
 31
0.0
  0
LINE
  5
340
  8
0
  6
CONTINUOUS
 62
     0
 10
0.1
 20
0.0
 30
0.0
 11
0.12
 21
0.0
 31
0.0
  0
ENDBLK
  5
338
  8
0
  0
BLOCK
  8
0
  2
SW_CENTERMARKSYMBOL_47
 70
     0
 10
0.0
 20
0.0
 30
0.0
  3
SW_CENTERMARKSYMBOL_47
  1

  0
LINE
  5
345
  8
0
  6
CONTINUOUS
 62
     0
 10
0.0
 20
0.0
 30
0.0
 11
0.0
 21
0.1
 31
0.0
  0
LINE
  5
346
  8
0
  6
CONTINUOUS
 62
     0
 10
0.0
 20
0.0
 30
0.0
 11
-0.1
 21
0.0
 31
0.0
  0
LINE
  5
347
  8
0
  6
CONTINUOUS
 62
     0
 10
0.0
 20
0.0
 30
0.0
 11
0.0
 21
-0.1
 31
0.0
  0
LINE
  5
348
  8
0
  6
CONTINUOUS
 62
     0
 10
0.0
 20
0.0
 30
0.0
 11
0.1
 21
0.0
 31
0.0
  0
LINE
  5
349
  8
0
  6
CONTINUOUS
 62
     0
 10
0.0
 20
0.1
 30
0.0
 11
0.0
 21
0.12
 31
0.0
  0
LINE
  5
34A
  8
0
  6
CONTINUOUS
 62
     0
 10
-0.1
 20
0.0
 30
0.0
 11
-0.12
 21
0.0
 31
0.0
  0
LINE
  5
34B
  8
0
  6
CONTINUOUS
 62
     0
 10
0.0
 20
-0.1
 30
0.0
 11
0.0
 21
-0.12
 31
0.0
  0
LINE
  5
34C
  8
0
  6
CONTINUOUS
 62
     0
 10
0.1
 20
0.0
 30
0.0
 11
0.12
 21
0.0
 31
0.0
  0
ENDBLK
  5
344
  8
0
  0
BLOCK
  8
0
  2
SW_CENTERMARKSYMBOL_48
 70
     0
 10
0.0
 20
0.0
 30
0.0
  3
SW_CENTERMARKSYMBOL_48
  1

  0
LINE
  5
351
  8
0
  6
CONTINUOUS
 62
     0
 10
0.0
 20
0.0
 30
0.0
 11
0.0
 21
0.1
 31
0.0
  0
LINE
  5
352
  8
0
  6
CONTINUOUS
 62
     0
 10
0.0
 20
0.0
 30
0.0
 11
-0.1
 21
0.0
 31
0.0
  0
LINE
  5
353
  8
0
  6
CONTINUOUS
 62
     0
 10
0.0
 20
0.0
 30
0.0
 11
0.0
 21
-0.1
 31
0.0
  0
LINE
  5
354
  8
0
  6
CONTINUOUS
 62
     0
 10
0.0
 20
0.0
 30
0.0
 11
0.1
 21
0.0
 31
0.0
  0
LINE
  5
355
  8
0
  6
CONTINUOUS
 62
     0
 10
0.0
 20
0.1
 30
0.0
 11
0.0
 21
0.12
 31
0.0
  0
LINE
  5
356
  8
0
  6
CONTINUOUS
 62
     0
 10
-0.1
 20
0.0
 30
0.0
 11
-0.12
 21
0.0
 31
0.0
  0
LINE
  5
357
  8
0
  6
CONTINUOUS
 62
     0
 10
0.0
 20
-0.1
 30
0.0
 11
0.0
 21
-0.12
 31
0.0
  0
LINE
  5
358
  8
0
  6
CONTINUOUS
 62
     0
 10
0.1
 20
0.0
 30
0.0
 11
0.12
 21
0.0
 31
0.0
  0
ENDBLK
  5
350
  8
0
  0
BLOCK
  8
0
  2
SW_CENTERMARKSYMBOL_49
 70
     0
 10
0.0
 20
0.0
 30
0.0
  3
SW_CENTERMARKSYMBOL_49
  1

  0
LINE
  5
35D
  8
0
  6
CONTINUOUS
 62
     0
 10
0.0
 20
0.0
 30
0.0
 11
0.0
 21
0.1
 31
0.0
  0
LINE
  5
35E
  8
0
  6
CONTINUOUS
 62
     0
 10
0.0
 20
0.0
 30
0.0
 11
-0.1
 21
0.0
 31
0.0
  0
LINE
  5
35F
  8
0
  6
CONTINUOUS
 62
     0
 10
0.0
 20
0.0
 30
0.0
 11
0.0
 21
-0.1
 31
0.0
  0
LINE
  5
360
  8
0
  6
CONTINUOUS
 62
     0
 10
0.0
 20
0.0
 30
0.0
 11
0.1
 21
0.0
 31
0.0
  0
LINE
  5
361
  8
0
  6
CONTINUOUS
 62
     0
 10
0.0
 20
0.1
 30
0.0
 11
0.0
 21
0.12
 31
0.0
  0
LINE
  5
362
  8
0
  6
CONTINUOUS
 62
     0
 10
-0.1
 20
0.0
 30
0.0
 11
-0.12
 21
0.0
 31
0.0
  0
LINE
  5
363
  8
0
  6
CONTINUOUS
 62
     0
 10
0.0
 20
-0.1
 30
0.0
 11
0.0
 21
-0.12
 31
0.0
  0
LINE
  5
364
  8
0
  6
CONTINUOUS
 62
     0
 10
0.1
 20
0.0
 30
0.0
 11
0.12
 21
0.0
 31
0.0
  0
ENDBLK
  5
35C
  8
0
  0
BLOCK
  8
0
  2
SW_CENTERMARKSYMBOL_50
 70
     0
 10
0.0
 20
0.0
 30
0.0
  3
SW_CENTERMARKSYMBOL_50
  1

  0
LINE
  5
369
  8
0
  6
CONTINUOUS
 62
     0
 10
0.0
 20
0.0
 30
0.0
 11
0.0
 21
0.1
 31
0.0
  0
LINE
  5
36A
  8
0
  6
CONTINUOUS
 62
     0
 10
0.0
 20
0.0
 30
0.0
 11
-0.1
 21
0.0
 31
0.0
  0
LINE
  5
36B
  8
0
  6
CONTINUOUS
 62
     0
 10
0.0
 20
0.0
 30
0.0
 11
0.0
 21
-0.1
 31
0.0
  0
LINE
  5
36C
  8
0
  6
CONTINUOUS
 62
     0
 10
0.0
 20
0.0
 30
0.0
 11
0.1
 21
0.0
 31
0.0
  0
LINE
  5
36D
  8
0
  6
CONTINUOUS
 62
     0
 10
0.0
 20
0.1
 30
0.0
 11
0.0
 21
0.12
 31
0.0
  0
LINE
  5
36E
  8
0
  6
CONTINUOUS
 62
     0
 10
-0.1
 20
0.0
 30
0.0
 11
-0.12
 21
0.0
 31
0.0
  0
LINE
  5
36F
  8
0
  6
CONTINUOUS
 62
     0
 10
0.0
 20
-0.1
 30
0.0
 11
0.0
 21
-0.12
 31
0.0
  0
LINE
  5
370
  8
0
  6
CONTINUOUS
 62
     0
 10
0.1
 20
0.0
 30
0.0
 11
0.12
 21
0.0
 31
0.0
  0
ENDBLK
  5
368
  8
0
  0
BLOCK
  8
0
  2
SW_CENTERMARKSYMBOL_51
 70
     0
 10
0.0
 20
0.0
 30
0.0
  3
SW_CENTERMARKSYMBOL_51
  1

  0
LINE
  5
375
  8
0
  6
CONTINUOUS
 62
     0
 10
0.0
 20
0.0
 30
0.0
 11
0.0
 21
0.1
 31
0.0
  0
LINE
  5
376
  8
0
  6
CONTINUOUS
 62
     0
 10
0.0
 20
0.0
 30
0.0
 11
-0.1
 21
0.0
 31
0.0
  0
LINE
  5
377
  8
0
  6
CONTINUOUS
 62
     0
 10
0.0
 20
0.0
 30
0.0
 11
0.0
 21
-0.1
 31
0.0
  0
LINE
  5
378
  8
0
  6
CONTINUOUS
 62
     0
 10
0.0
 20
0.0
 30
0.0
 11
0.1
 21
0.0
 31
0.0
  0
LINE
  5
379
  8
0
  6
CONTINUOUS
 62
     0
 10
0.0
 20
0.1
 30
0.0
 11
0.0
 21
0.12
 31
0.0
  0
LINE
  5
37A
  8
0
  6
CONTINUOUS
 62
     0
 10
-0.1
 20
0.0
 30
0.0
 11
-0.12
 21
0.0
 31
0.0
  0
LINE
  5
37B
  8
0
  6
CONTINUOUS
 62
     0
 10
0.0
 20
-0.1
 30
0.0
 11
0.0
 21
-0.12
 31
0.0
  0
LINE
  5
37C
  8
0
  6
CONTINUOUS
 62
     0
 10
0.1
 20
0.0
 30
0.0
 11
0.12
 21
0.0
 31
0.0
  0
ENDBLK
  5
374
  8
0
  0
BLOCK
  8
0
  2
SW_CENTERMARKSYMBOL_52
 70
     0
 10
0.0
 20
0.0
 30
0.0
  3
SW_CENTERMARKSYMBOL_52
  1

  0
LINE
  5
381
  8
0
  6
CONTINUOUS
 62
     0
 10
0.0
 20
0.0
 30
0.0
 11
0.0
 21
0.1
 31
0.0
  0
LINE
  5
382
  8
0
  6
CONTINUOUS
 62
     0
 10
0.0
 20
0.0
 30
0.0
 11
-0.1
 21
0.0
 31
0.0
  0
LINE
  5
383
  8
0
  6
CONTINUOUS
 62
     0
 10
0.0
 20
0.0
 30
0.0
 11
0.0
 21
-0.1
 31
0.0
  0
LINE
  5
384
  8
0
  6
CONTINUOUS
 62
     0
 10
0.0
 20
0.0
 30
0.0
 11
0.1
 21
0.0
 31
0.0
  0
LINE
  5
385
  8
0
  6
CONTINUOUS
 62
     0
 10
0.0
 20
0.1
 30
0.0
 11
0.0
 21
0.12
 31
0.0
  0
LINE
  5
386
  8
0
  6
CONTINUOUS
 62
     0
 10
-0.1
 20
0.0
 30
0.0
 11
-0.12
 21
0.0
 31
0.0
  0
LINE
  5
387
  8
0
  6
CONTINUOUS
 62
     0
 10
0.0
 20
-0.1
 30
0.0
 11
0.0
 21
-0.12
 31
0.0
  0
LINE
  5
388
  8
0
  6
CONTINUOUS
 62
     0
 10
0.1
 20
0.0
 30
0.0
 11
0.12
 21
0.0
 31
0.0
  0
ENDBLK
  5
380
  8
0
  0
BLOCK
  8
0
  2
SW_CENTERMARKSYMBOL_53
 70
     0
 10
0.0
 20
0.0
 30
0.0
  3
SW_CENTERMARKSYMBOL_53
  1

  0
LINE
  5
38D
  8
0
  6
CONTINUOUS
 62
     0
 10
0.0
 20
0.0
 30
0.0
 11
0.0
 21
0.1
 31
0.0
  0
LINE
  5
38E
  8
0
  6
CONTINUOUS
 62
     0
 10
0.0
 20
0.0
 30
0.0
 11
-0.1
 21
0.0
 31
0.0
  0
LINE
  5
38F
  8
0
  6
CONTINUOUS
 62
     0
 10
0.0
 20
0.0
 30
0.0
 11
0.0
 21
-0.1
 31
0.0
  0
LINE
  5
390
  8
0
  6
CONTINUOUS
 62
     0
 10
0.0
 20
0.0
 30
0.0
 11
0.1
 21
0.0
 31
0.0
  0
LINE
  5
391
  8
0
  6
CONTINUOUS
 62
     0
 10
0.0
 20
0.1
 30
0.0
 11
0.0
 21
0.12
 31
0.0
  0
LINE
  5
392
  8
0
  6
CONTINUOUS
 62
     0
 10
-0.1
 20
0.0
 30
0.0
 11
-0.12
 21
0.0
 31
0.0
  0
LINE
  5
393
  8
0
  6
CONTINUOUS
 62
     0
 10
0.0
 20
-0.1
 30
0.0
 11
0.0
 21
-0.12
 31
0.0
  0
LINE
  5
394
  8
0
  6
CONTINUOUS
 62
     0
 10
0.1
 20
0.0
 30
0.0
 11
0.12
 21
0.0
 31
0.0
  0
ENDBLK
  5
38C
  8
0
  0
BLOCK
  8
0
  2
SW_CENTERMARKSYMBOL_54
 70
     0
 10
0.0
 20
0.0
 30
0.0
  3
SW_CENTERMARKSYMBOL_54
  1

  0
LINE
  5
399
  8
0
  6
CONTINUOUS
 62
     0
 10
0.0
 20
0.0
 30
0.0
 11
0.0
 21
0.1
 31
0.0
  0
LINE
  5
39A
  8
0
  6
CONTINUOUS
 62
     0
 10
0.0
 20
0.0
 30
0.0
 11
-0.1
 21
0.0
 31
0.0
  0
LINE
  5
39B
  8
0
  6
CONTINUOUS
 62
     0
 10
0.0
 20
0.0
 30
0.0
 11
0.0
 21
-0.1
 31
0.0
  0
LINE
  5
39C
  8
0
  6
CONTINUOUS
 62
     0
 10
0.0
 20
0.0
 30
0.0
 11
0.1
 21
0.0
 31
0.0
  0
LINE
  5
39D
  8
0
  6
CONTINUOUS
 62
     0
 10
0.0
 20
0.1
 30
0.0
 11
0.0
 21
0.12
 31
0.0
  0
LINE
  5
39E
  8
0
  6
CONTINUOUS
 62
     0
 10
-0.1
 20
0.0
 30
0.0
 11
-0.12
 21
0.0
 31
0.0
  0
LINE
  5
39F
  8
0
  6
CONTINUOUS
 62
     0
 10
0.0
 20
-0.1
 30
0.0
 11
0.0
 21
-0.12
 31
0.0
  0
LINE
  5
3A0
  8
0
  6
CONTINUOUS
 62
     0
 10
0.1
 20
0.0
 30
0.0
 11
0.12
 21
0.0
 31
0.0
  0
ENDBLK
  5
398
  8
0
  0
BLOCK
  8
0
  2
SW_CENTERMARKSYMBOL_55
 70
     0
 10
0.0
 20
0.0
 30
0.0
  3
SW_CENTERMARKSYMBOL_55
  1

  0
LINE
  5
3A5
  8
0
  6
CONTINUOUS
 62
     0
 10
0.0
 20
0.0
 30
0.0
 11
0.0
 21
0.1
 31
0.0
  0
LINE
  5
3A6
  8
0
  6
CONTINUOUS
 62
     0
 10
0.0
 20
0.0
 30
0.0
 11
-0.1
 21
0.0
 31
0.0
  0
LINE
  5
3A7
  8
0
  6
CONTINUOUS
 62
     0
 10
0.0
 20
0.0
 30
0.0
 11
0.0
 21
-0.1
 31
0.0
  0
LINE
  5
3A8
  8
0
  6
CONTINUOUS
 62
     0
 10
0.0
 20
0.0
 30
0.0
 11
0.1
 21
0.0
 31
0.0
  0
LINE
  5
3A9
  8
0
  6
CONTINUOUS
 62
     0
 10
0.0
 20
0.1
 30
0.0
 11
0.0
 21
0.12
 31
0.0
  0
LINE
  5
3AA
  8
0
  6
CONTINUOUS
 62
     0
 10
-0.1
 20
0.0
 30
0.0
 11
-0.12
 21
0.0
 31
0.0
  0
LINE
  5
3AB
  8
0
  6
CONTINUOUS
 62
     0
 10
0.0
 20
-0.1
 30
0.0
 11
0.0
 21
-0.12
 31
0.0
  0
LINE
  5
3AC
  8
0
  6
CONTINUOUS
 62
     0
 10
0.1
 20
0.0
 30
0.0
 11
0.12
 21
0.0
 31
0.0
  0
ENDBLK
  5
3A4
  8
0
  0
BLOCK
  8
0
  2
SW_CENTERMARKSYMBOL_56
 70
     0
 10
0.0
 20
0.0
 30
0.0
  3
SW_CENTERMARKSYMBOL_56
  1

  0
LINE
  5
3B1
  8
0
  6
CONTINUOUS
 62
     0
 10
0.0
 20
0.0
 30
0.0
 11
0.0
 21
0.1
 31
0.0
  0
LINE
  5
3B2
  8
0
  6
CONTINUOUS
 62
     0
 10
0.0
 20
0.0
 30
0.0
 11
-0.1
 21
0.0
 31
0.0
  0
LINE
  5
3B3
  8
0
  6
CONTINUOUS
 62
     0
 10
0.0
 20
0.0
 30
0.0
 11
0.0
 21
-0.1
 31
0.0
  0
LINE
  5
3B4
  8
0
  6
CONTINUOUS
 62
     0
 10
0.0
 20
0.0
 30
0.0
 11
0.1
 21
0.0
 31
0.0
  0
LINE
  5
3B5
  8
0
  6
CONTINUOUS
 62
     0
 10
0.0
 20
0.1
 30
0.0
 11
0.0
 21
0.12
 31
0.0
  0
LINE
  5
3B6
  8
0
  6
CONTINUOUS
 62
     0
 10
-0.1
 20
0.0
 30
0.0
 11
-0.12
 21
0.0
 31
0.0
  0
LINE
  5
3B7
  8
0
  6
CONTINUOUS
 62
     0
 10
0.0
 20
-0.1
 30
0.0
 11
0.0
 21
-0.12
 31
0.0
  0
LINE
  5
3B8
  8
0
  6
CONTINUOUS
 62
     0
 10
0.1
 20
0.0
 30
0.0
 11
0.12
 21
0.0
 31
0.0
  0
ENDBLK
  5
3B0
  8
0
  0
BLOCK
  8
0
  2
SW_CENTERMARKSYMBOL_57
 70
     0
 10
0.0
 20
0.0
 30
0.0
  3
SW_CENTERMARKSYMBOL_57
  1

  0
LINE
  5
3BD
  8
0
  6
CONTINUOUS
 62
     0
 10
0.0
 20
0.0
 30
0.0
 11
0.0
 21
0.1
 31
0.0
  0
LINE
  5
3BE
  8
0
  6
CONTINUOUS
 62
     0
 10
0.0
 20
0.0
 30
0.0
 11
-0.1
 21
0.0
 31
0.0
  0
LINE
  5
3BF
  8
0
  6
CONTINUOUS
 62
     0
 10
0.0
 20
0.0
 30
0.0
 11
0.0
 21
-0.1
 31
0.0
  0
LINE
  5
3C0
  8
0
  6
CONTINUOUS
 62
     0
 10
0.0
 20
0.0
 30
0.0
 11
0.1
 21
0.0
 31
0.0
  0
LINE
  5
3C1
  8
0
  6
CONTINUOUS
 62
     0
 10
0.0
 20
0.1
 30
0.0
 11
0.0
 21
0.12
 31
0.0
  0
LINE
  5
3C2
  8
0
  6
CONTINUOUS
 62
     0
 10
-0.1
 20
0.0
 30
0.0
 11
-0.12
 21
0.0
 31
0.0
  0
LINE
  5
3C3
  8
0
  6
CONTINUOUS
 62
     0
 10
0.0
 20
-0.1
 30
0.0
 11
0.0
 21
-0.12
 31
0.0
  0
LINE
  5
3C4
  8
0
  6
CONTINUOUS
 62
     0
 10
0.1
 20
0.0
 30
0.0
 11
0.12
 21
0.0
 31
0.0
  0
ENDBLK
  5
3BC
  8
0
  0
BLOCK
  8
0
  2
SW_CENTERMARKSYMBOL_58
 70
     0
 10
0.0
 20
0.0
 30
0.0
  3
SW_CENTERMARKSYMBOL_58
  1

  0
LINE
  5
3C9
  8
0
  6
CONTINUOUS
 62
     0
 10
0.0
 20
0.0
 30
0.0
 11
0.0
 21
0.1
 31
0.0
  0
LINE
  5
3CA
  8
0
  6
CONTINUOUS
 62
     0
 10
0.0
 20
0.0
 30
0.0
 11
-0.1
 21
0.0
 31
0.0
  0
LINE
  5
3CB
  8
0
  6
CONTINUOUS
 62
     0
 10
0.0
 20
0.0
 30
0.0
 11
0.0
 21
-0.1
 31
0.0
  0
LINE
  5
3CC
  8
0
  6
CONTINUOUS
 62
     0
 10
0.0
 20
0.0
 30
0.0
 11
0.1
 21
0.0
 31
0.0
  0
LINE
  5
3CD
  8
0
  6
CONTINUOUS
 62
     0
 10
0.0
 20
0.1
 30
0.0
 11
0.0
 21
0.12
 31
0.0
  0
LINE
  5
3CE
  8
0
  6
CONTINUOUS
 62
     0
 10
-0.1
 20
0.0
 30
0.0
 11
-0.12
 21
0.0
 31
0.0
  0
LINE
  5
3CF
  8
0
  6
CONTINUOUS
 62
     0
 10
0.0
 20
-0.1
 30
0.0
 11
0.0
 21
-0.12
 31
0.0
  0
LINE
  5
3D0
  8
0
  6
CONTINUOUS
 62
     0
 10
0.1
 20
0.0
 30
0.0
 11
0.12
 21
0.0
 31
0.0
  0
ENDBLK
  5
3C8
  8
0
  0
BLOCK
  8
0
  2
SW_CENTERMARKSYMBOL_59
 70
     0
 10
0.0
 20
0.0
 30
0.0
  3
SW_CENTERMARKSYMBOL_59
  1

  0
LINE
  5
3D5
  8
0
  6
CONTINUOUS
 62
     0
 10
0.0
 20
0.0
 30
0.0
 11
0.0
 21
0.1
 31
0.0
  0
LINE
  5
3D6
  8
0
  6
CONTINUOUS
 62
     0
 10
0.0
 20
0.0
 30
0.0
 11
-0.1
 21
0.0
 31
0.0
  0
LINE
  5
3D7
  8
0
  6
CONTINUOUS
 62
     0
 10
0.0
 20
0.0
 30
0.0
 11
0.0
 21
-0.1
 31
0.0
  0
LINE
  5
3D8
  8
0
  6
CONTINUOUS
 62
     0
 10
0.0
 20
0.0
 30
0.0
 11
0.1
 21
0.0
 31
0.0
  0
LINE
  5
3D9
  8
0
  6
CONTINUOUS
 62
     0
 10
0.0
 20
0.1
 30
0.0
 11
0.0
 21
0.13125
 31
0.0
  0
LINE
  5
3DA
  8
0
  6
CONTINUOUS
 62
     0
 10
-0.1
 20
0.0
 30
0.0
 11
-0.13125
 21
0.0
 31
0.0
  0
LINE
  5
3DB
  8
0
  6
CONTINUOUS
 62
     0
 10
0.0
 20
-0.1
 30
0.0
 11
0.0
 21
-0.13125
 31
0.0
  0
LINE
  5
3DC
  8
0
  6
CONTINUOUS
 62
     0
 10
0.1
 20
0.0
 30
0.0
 11
0.13125
 21
0.0
 31
0.0
  0
ENDBLK
  5
3D4
  8
0
  0
BLOCK
  8
0
  2
SW_CENTERMARKSYMBOL_60
 70
     0
 10
0.0
 20
0.0
 30
0.0
  3
SW_CENTERMARKSYMBOL_60
  1

  0
LINE
  5
3E1
  8
0
  6
CONTINUOUS
 62
     0
 10
0.0
 20
0.0
 30
0.0
 11
0.0
 21
0.1
 31
0.0
  0
LINE
  5
3E2
  8
0
  6
CONTINUOUS
 62
     0
 10
0.0
 20
0.0
 30
0.0
 11
-0.1
 21
0.0
 31
0.0
  0
LINE
  5
3E3
  8
0
  6
CONTINUOUS
 62
     0
 10
0.0
 20
0.0
 30
0.0
 11
0.0
 21
-0.1
 31
0.0
  0
LINE
  5
3E4
  8
0
  6
CONTINUOUS
 62
     0
 10
0.0
 20
0.0
 30
0.0
 11
0.1
 21
0.0
 31
0.0
  0
LINE
  5
3E5
  8
0
  6
CONTINUOUS
 62
     0
 10
0.0
 20
0.1
 30
0.0
 11
0.0
 21
0.12
 31
0.0
  0
LINE
  5
3E6
  8
0
  6
CONTINUOUS
 62
     0
 10
-0.1
 20
0.0
 30
0.0
 11
-0.12
 21
0.0
 31
0.0
  0
LINE
  5
3E7
  8
0
  6
CONTINUOUS
 62
     0
 10
0.0
 20
-0.1
 30
0.0
 11
0.0
 21
-0.12
 31
0.0
  0
LINE
  5
3E8
  8
0
  6
CONTINUOUS
 62
     0
 10
0.1
 20
0.0
 30
0.0
 11
0.12
 21
0.0
 31
0.0
  0
ENDBLK
  5
3E0
  8
0
  0
BLOCK
  8
0
  2
SW_CENTERMARKSYMBOL_61
 70
     0
 10
0.0
 20
0.0
 30
0.0
  3
SW_CENTERMARKSYMBOL_61
  1

  0
LINE
  5
3ED
  8
0
  6
CONTINUOUS
 62
     0
 10
0.0
 20
0.0
 30
0.0
 11
0.0
 21
0.1
 31
0.0
  0
LINE
  5
3EE
  8
0
  6
CONTINUOUS
 62
     0
 10
0.0
 20
0.0
 30
0.0
 11
-0.1
 21
0.0
 31
0.0
  0
LINE
  5
3EF
  8
0
  6
CONTINUOUS
 62
     0
 10
0.0
 20
0.0
 30
0.0
 11
0.0
 21
-0.1
 31
0.0
  0
LINE
  5
3F0
  8
0
  6
CONTINUOUS
 62
     0
 10
0.0
 20
0.0
 30
0.0
 11
0.1
 21
0.0
 31
0.0
  0
LINE
  5
3F1
  8
0
  6
CONTINUOUS
 62
     0
 10
0.0
 20
0.1
 30
0.0
 11
0.0
 21
0.12
 31
0.0
  0
LINE
  5
3F2
  8
0
  6
CONTINUOUS
 62
     0
 10
-0.1
 20
0.0
 30
0.0
 11
-0.12
 21
0.0
 31
0.0
  0
LINE
  5
3F3
  8
0
  6
CONTINUOUS
 62
     0
 10
0.0
 20
-0.1
 30
0.0
 11
0.0
 21
-0.12
 31
0.0
  0
LINE
  5
3F4
  8
0
  6
CONTINUOUS
 62
     0
 10
0.1
 20
0.0
 30
0.0
 11
0.12
 21
0.0
 31
0.0
  0
ENDBLK
  5
3EC
  8
0
  0
BLOCK
  8
0
  2
SW_CENTERMARKSYMBOL_62
 70
     0
 10
0.0
 20
0.0
 30
0.0
  3
SW_CENTERMARKSYMBOL_62
  1

  0
LINE
  5
3F9
  8
0
  6
CONTINUOUS
 62
     0
 10
0.0
 20
0.0
 30
0.0
 11
0.0
 21
0.1
 31
0.0
  0
LINE
  5
3FA
  8
0
  6
CONTINUOUS
 62
     0
 10
0.0
 20
0.0
 30
0.0
 11
-0.1
 21
0.0
 31
0.0
  0
LINE
  5
3FB
  8
0
  6
CONTINUOUS
 62
     0
 10
0.0
 20
0.0
 30
0.0
 11
0.0
 21
-0.1
 31
0.0
  0
LINE
  5
3FC
  8
0
  6
CONTINUOUS
 62
     0
 10
0.0
 20
0.0
 30
0.0
 11
0.1
 21
0.0
 31
0.0
  0
LINE
  5
3FD
  8
0
  6
CONTINUOUS
 62
     0
 10
0.0
 20
0.1
 30
0.0
 11
0.0
 21
0.12
 31
0.0
  0
LINE
  5
3FE
  8
0
  6
CONTINUOUS
 62
     0
 10
-0.1
 20
0.0
 30
0.0
 11
-0.12
 21
0.0
 31
0.0
  0
LINE
  5
3FF
  8
0
  6
CONTINUOUS
 62
     0
 10
0.0
 20
-0.1
 30
0.0
 11
0.0
 21
-0.12
 31
0.0
  0
LINE
  5
400
  8
0
  6
CONTINUOUS
 62
     0
 10
0.1
 20
0.0
 30
0.0
 11
0.12
 21
0.0
 31
0.0
  0
ENDBLK
  5
3F8
  8
0
  0
BLOCK
  8
0
  2
SW_CENTERMARKSYMBOL_63
 70
     0
 10
0.0
 20
0.0
 30
0.0
  3
SW_CENTERMARKSYMBOL_63
  1

  0
LINE
  5
405
  8
0
  6
CONTINUOUS
 62
     0
 10
0.0
 20
0.0
 30
0.0
 11
0.0
 21
0.1
 31
0.0
  0
LINE
  5
406
  8
0
  6
CONTINUOUS
 62
     0
 10
0.0
 20
0.0
 30
0.0
 11
-0.1
 21
0.0
 31
0.0
  0
LINE
  5
407
  8
0
  6
CONTINUOUS
 62
     0
 10
0.0
 20
0.0
 30
0.0
 11
0.0
 21
-0.1
 31
0.0
  0
LINE
  5
408
  8
0
  6
CONTINUOUS
 62
     0
 10
0.0
 20
0.0
 30
0.0
 11
0.1
 21
0.0
 31
0.0
  0
LINE
  5
409
  8
0
  6
CONTINUOUS
 62
     0
 10
0.0
 20
0.1
 30
0.0
 11
0.0
 21
0.12
 31
0.0
  0
LINE
  5
40A
  8
0
  6
CONTINUOUS
 62
     0
 10
-0.1
 20
0.0
 30
0.0
 11
-0.12
 21
0.0
 31
0.0
  0
LINE
  5
40B
  8
0
  6
CONTINUOUS
 62
     0
 10
0.0
 20
-0.1
 30
0.0
 11
0.0
 21
-0.12
 31
0.0
  0
LINE
  5
40C
  8
0
  6
CONTINUOUS
 62
     0
 10
0.1
 20
0.0
 30
0.0
 11
0.12
 21
0.0
 31
0.0
  0
ENDBLK
  5
404
  8
0
  0
BLOCK
  8
0
  2
SW_CENTERMARKSYMBOL_64
 70
     0
 10
0.0
 20
0.0
 30
0.0
  3
SW_CENTERMARKSYMBOL_64
  1

  0
LINE
  5
411
  8
0
  6
CONTINUOUS
 62
     0
 10
0.0
 20
0.0
 30
0.0
 11
0.0
 21
0.1
 31
0.0
  0
LINE
  5
412
  8
0
  6
CONTINUOUS
 62
     0
 10
0.0
 20
0.0
 30
0.0
 11
-0.1
 21
0.0
 31
0.0
  0
LINE
  5
413
  8
0
  6
CONTINUOUS
 62
     0
 10
0.0
 20
0.0
 30
0.0
 11
0.0
 21
-0.1
 31
0.0
  0
LINE
  5
414
  8
0
  6
CONTINUOUS
 62
     0
 10
0.0
 20
0.0
 30
0.0
 11
0.1
 21
0.0
 31
0.0
  0
LINE
  5
415
  8
0
  6
CONTINUOUS
 62
     0
 10
0.0
 20
0.1
 30
0.0
 11
0.0
 21
0.12
 31
0.0
  0
LINE
  5
416
  8
0
  6
CONTINUOUS
 62
     0
 10
-0.1
 20
0.0
 30
0.0
 11
-0.12
 21
0.0
 31
0.0
  0
LINE
  5
417
  8
0
  6
CONTINUOUS
 62
     0
 10
0.0
 20
-0.1
 30
0.0
 11
0.0
 21
-0.12
 31
0.0
  0
LINE
  5
418
  8
0
  6
CONTINUOUS
 62
     0
 10
0.1
 20
0.0
 30
0.0
 11
0.12
 21
0.0
 31
0.0
  0
ENDBLK
  5
410
  8
0
  0
BLOCK
  8
0
  2
SW_CENTERMARKSYMBOL_65
 70
     0
 10
0.0
 20
0.0
 30
0.0
  3
SW_CENTERMARKSYMBOL_65
  1

  0
LINE
  5
41D
  8
0
  6
CONTINUOUS
 62
     0
 10
0.0
 20
0.0
 30
0.0
 11
0.0
 21
0.1
 31
0.0
  0
LINE
  5
41E
  8
0
  6
CONTINUOUS
 62
     0
 10
0.0
 20
0.0
 30
0.0
 11
-0.1
 21
0.0
 31
0.0
  0
LINE
  5
41F
  8
0
  6
CONTINUOUS
 62
     0
 10
0.0
 20
0.0
 30
0.0
 11
0.0
 21
-0.1
 31
0.0
  0
LINE
  5
420
  8
0
  6
CONTINUOUS
 62
     0
 10
0.0
 20
0.0
 30
0.0
 11
0.1
 21
0.0
 31
0.0
  0
LINE
  5
421
  8
0
  6
CONTINUOUS
 62
     0
 10
0.0
 20
0.1
 30
0.0
 11
0.0
 21
0.12
 31
0.0
  0
LINE
  5
422
  8
0
  6
CONTINUOUS
 62
     0
 10
-0.1
 20
0.0
 30
0.0
 11
-0.12
 21
0.0
 31
0.0
  0
LINE
  5
423
  8
0
  6
CONTINUOUS
 62
     0
 10
0.0
 20
-0.1
 30
0.0
 11
0.0
 21
-0.12
 31
0.0
  0
LINE
  5
424
  8
0
  6
CONTINUOUS
 62
     0
 10
0.1
 20
0.0
 30
0.0
 11
0.12
 21
0.0
 31
0.0
  0
ENDBLK
  5
41C
  8
0
  0
BLOCK
  8
0
  2
SW_CENTERMARKSYMBOL_66
 70
     0
 10
0.0
 20
0.0
 30
0.0
  3
SW_CENTERMARKSYMBOL_66
  1

  0
LINE
  5
429
  8
0
  6
CONTINUOUS
 62
     0
 10
0.0
 20
0.0
 30
0.0
 11
0.0
 21
0.1
 31
0.0
  0
LINE
  5
42A
  8
0
  6
CONTINUOUS
 62
     0
 10
0.0
 20
0.0
 30
0.0
 11
-0.1
 21
0.0
 31
0.0
  0
LINE
  5
42B
  8
0
  6
CONTINUOUS
 62
     0
 10
0.0
 20
0.0
 30
0.0
 11
0.0
 21
-0.1
 31
0.0
  0
LINE
  5
42C
  8
0
  6
CONTINUOUS
 62
     0
 10
0.0
 20
0.0
 30
0.0
 11
0.1
 21
0.0
 31
0.0
  0
LINE
  5
42D
  8
0
  6
CONTINUOUS
 62
     0
 10
0.0
 20
0.1
 30
0.0
 11
0.0
 21
0.12
 31
0.0
  0
LINE
  5
42E
  8
0
  6
CONTINUOUS
 62
     0
 10
-0.1
 20
0.0
 30
0.0
 11
-0.12
 21
0.0
 31
0.0
  0
LINE
  5
42F
  8
0
  6
CONTINUOUS
 62
     0
 10
0.0
 20
-0.1
 30
0.0
 11
0.0
 21
-0.12
 31
0.0
  0
LINE
  5
430
  8
0
  6
CONTINUOUS
 62
     0
 10
0.1
 20
0.0
 30
0.0
 11
0.12
 21
0.0
 31
0.0
  0
ENDBLK
  5
428
  8
0
  0
BLOCK
  8
0
  2
SW_CENTERMARKSYMBOL_67
 70
     0
 10
0.0
 20
0.0
 30
0.0
  3
SW_CENTERMARKSYMBOL_67
  1

  0
LINE
  5
435
  8
0
  6
CONTINUOUS
 62
     0
 10
0.0
 20
0.0
 30
0.0
 11
0.0
 21
0.1
 31
0.0
  0
LINE
  5
436
  8
0
  6
CONTINUOUS
 62
     0
 10
0.0
 20
0.0
 30
0.0
 11
-0.1
 21
0.0
 31
0.0
  0
LINE
  5
437
  8
0
  6
CONTINUOUS
 62
     0
 10
0.0
 20
0.0
 30
0.0
 11
0.0
 21
-0.1
 31
0.0
  0
LINE
  5
438
  8
0
  6
CONTINUOUS
 62
     0
 10
0.0
 20
0.0
 30
0.0
 11
0.1
 21
0.0
 31
0.0
  0
LINE
  5
439
  8
0
  6
CONTINUOUS
 62
     0
 10
0.0
 20
0.1
 30
0.0
 11
0.0
 21
0.12
 31
0.0
  0
LINE
  5
43A
  8
0
  6
CONTINUOUS
 62
     0
 10
-0.1
 20
0.0
 30
0.0
 11
-0.12
 21
0.0
 31
0.0
  0
LINE
  5
43B
  8
0
  6
CONTINUOUS
 62
     0
 10
0.0
 20
-0.1
 30
0.0
 11
0.0
 21
-0.12
 31
0.0
  0
LINE
  5
43C
  8
0
  6
CONTINUOUS
 62
     0
 10
0.1
 20
0.0
 30
0.0
 11
0.12
 21
0.0
 31
0.0
  0
ENDBLK
  5
434
  8
0
  0
BLOCK
  8
0
  2
SW_CENTERMARKSYMBOL_68
 70
     0
 10
0.0
 20
0.0
 30
0.0
  3
SW_CENTERMARKSYMBOL_68
  1

  0
LINE
  5
441
  8
0
  6
CONTINUOUS
 62
     0
 10
0.0
 20
0.0
 30
0.0
 11
0.0
 21
0.1
 31
0.0
  0
LINE
  5
442
  8
0
  6
CONTINUOUS
 62
     0
 10
0.0
 20
0.0
 30
0.0
 11
-0.1
 21
0.0
 31
0.0
  0
LINE
  5
443
  8
0
  6
CONTINUOUS
 62
     0
 10
0.0
 20
0.0
 30
0.0
 11
0.0
 21
-0.1
 31
0.0
  0
LINE
  5
444
  8
0
  6
CONTINUOUS
 62
     0
 10
0.0
 20
0.0
 30
0.0
 11
0.1
 21
0.0
 31
0.0
  0
LINE
  5
445
  8
0
  6
CONTINUOUS
 62
     0
 10
0.0
 20
0.1
 30
0.0
 11
0.0
 21
0.12
 31
0.0
  0
LINE
  5
446
  8
0
  6
CONTINUOUS
 62
     0
 10
-0.1
 20
0.0
 30
0.0
 11
-0.12
 21
0.0
 31
0.0
  0
LINE
  5
447
  8
0
  6
CONTINUOUS
 62
     0
 10
0.0
 20
-0.1
 30
0.0
 11
0.0
 21
-0.12
 31
0.0
  0
LINE
  5
448
  8
0
  6
CONTINUOUS
 62
     0
 10
0.1
 20
0.0
 30
0.0
 11
0.12
 21
0.0
 31
0.0
  0
ENDBLK
  5
440
  8
0
  0
BLOCK
  8
0
  2
SW_CENTERMARKSYMBOL_69
 70
     0
 10
0.0
 20
0.0
 30
0.0
  3
SW_CENTERMARKSYMBOL_69
  1

  0
LINE
  5
44D
  8
0
  6
CONTINUOUS
 62
     0
 10
0.0
 20
0.0
 30
0.0
 11
0.0
 21
0.1
 31
0.0
  0
LINE
  5
44E
  8
0
  6
CONTINUOUS
 62
     0
 10
0.0
 20
0.0
 30
0.0
 11
-0.1
 21
0.0
 31
0.0
  0
LINE
  5
44F
  8
0
  6
CONTINUOUS
 62
     0
 10
0.0
 20
0.0
 30
0.0
 11
0.0
 21
-0.1
 31
0.0
  0
LINE
  5
450
  8
0
  6
CONTINUOUS
 62
     0
 10
0.0
 20
0.0
 30
0.0
 11
0.1
 21
0.0
 31
0.0
  0
LINE
  5
451
  8
0
  6
CONTINUOUS
 62
     0
 10
0.0
 20
0.1
 30
0.0
 11
0.0
 21
0.12
 31
0.0
  0
LINE
  5
452
  8
0
  6
CONTINUOUS
 62
     0
 10
-0.1
 20
0.0
 30
0.0
 11
-0.12
 21
0.0
 31
0.0
  0
LINE
  5
453
  8
0
  6
CONTINUOUS
 62
     0
 10
0.0
 20
-0.1
 30
0.0
 11
0.0
 21
-0.12
 31
0.0
  0
LINE
  5
454
  8
0
  6
CONTINUOUS
 62
     0
 10
0.1
 20
0.0
 30
0.0
 11
0.12
 21
0.0
 31
0.0
  0
ENDBLK
  5
44C
  8
0
  0
BLOCK
  8
0
  2
SW_CENTERMARKSYMBOL_70
 70
     0
 10
0.0
 20
0.0
 30
0.0
  3
SW_CENTERMARKSYMBOL_70
  1

  0
LINE
  5
459
  8
0
  6
CONTINUOUS
 62
     0
 10
0.0
 20
0.0
 30
0.0
 11
0.0
 21
0.1
 31
0.0
  0
LINE
  5
45A
  8
0
  6
CONTINUOUS
 62
     0
 10
0.0
 20
0.0
 30
0.0
 11
-0.1
 21
0.0
 31
0.0
  0
LINE
  5
45B
  8
0
  6
CONTINUOUS
 62
     0
 10
0.0
 20
0.0
 30
0.0
 11
0.0
 21
-0.1
 31
0.0
  0
LINE
  5
45C
  8
0
  6
CONTINUOUS
 62
     0
 10
0.0
 20
0.0
 30
0.0
 11
0.1
 21
0.0
 31
0.0
  0
LINE
  5
45D
  8
0
  6
CONTINUOUS
 62
     0
 10
0.0
 20
0.1
 30
0.0
 11
0.0
 21
0.12
 31
0.0
  0
LINE
  5
45E
  8
0
  6
CONTINUOUS
 62
     0
 10
-0.1
 20
0.0
 30
0.0
 11
-0.12
 21
0.0
 31
0.0
  0
LINE
  5
45F
  8
0
  6
CONTINUOUS
 62
     0
 10
0.0
 20
-0.1
 30
0.0
 11
0.0
 21
-0.12
 31
0.0
  0
LINE
  5
460
  8
0
  6
CONTINUOUS
 62
     0
 10
0.1
 20
0.0
 30
0.0
 11
0.12
 21
0.0
 31
0.0
  0
ENDBLK
  5
458
  8
0
  0
BLOCK
  8
0
  2
SW_CENTERMARKSYMBOL_71
 70
     0
 10
0.0
 20
0.0
 30
0.0
  3
SW_CENTERMARKSYMBOL_71
  1

  0
LINE
  5
465
  8
0
  6
CONTINUOUS
 62
     0
 10
0.0
 20
0.0
 30
0.0
 11
0.0
 21
0.1
 31
0.0
  0
LINE
  5
466
  8
0
  6
CONTINUOUS
 62
     0
 10
0.0
 20
0.0
 30
0.0
 11
-0.1
 21
0.0
 31
0.0
  0
LINE
  5
467
  8
0
  6
CONTINUOUS
 62
     0
 10
0.0
 20
0.0
 30
0.0
 11
0.0
 21
-0.1
 31
0.0
  0
LINE
  5
468
  8
0
  6
CONTINUOUS
 62
     0
 10
0.0
 20
0.0
 30
0.0
 11
0.1
 21
0.0
 31
0.0
  0
LINE
  5
469
  8
0
  6
CONTINUOUS
 62
     0
 10
0.0
 20
0.1
 30
0.0
 11
0.0
 21
0.12
 31
0.0
  0
LINE
  5
46A
  8
0
  6
CONTINUOUS
 62
     0
 10
-0.1
 20
0.0
 30
0.0
 11
-0.12
 21
0.0
 31
0.0
  0
LINE
  5
46B
  8
0
  6
CONTINUOUS
 62
     0
 10
0.0
 20
-0.1
 30
0.0
 11
0.0
 21
-0.12
 31
0.0
  0
LINE
  5
46C
  8
0
  6
CONTINUOUS
 62
     0
 10
0.1
 20
0.0
 30
0.0
 11
0.12
 21
0.0
 31
0.0
  0
ENDBLK
  5
464
  8
0
  0
BLOCK
  8
0
  2
SW_CENTERMARKSYMBOL_72
 70
     0
 10
0.0
 20
0.0
 30
0.0
  3
SW_CENTERMARKSYMBOL_72
  1

  0
LINE
  5
471
  8
0
  6
CONTINUOUS
 62
     0
 10
0.0
 20
0.0
 30
0.0
 11
0.0
 21
0.1
 31
0.0
  0
LINE
  5
472
  8
0
  6
CONTINUOUS
 62
     0
 10
0.0
 20
0.0
 30
0.0
 11
-0.1
 21
0.0
 31
0.0
  0
LINE
  5
473
  8
0
  6
CONTINUOUS
 62
     0
 10
0.0
 20
0.0
 30
0.0
 11
0.0
 21
-0.1
 31
0.0
  0
LINE
  5
474
  8
0
  6
CONTINUOUS
 62
     0
 10
0.0
 20
0.0
 30
0.0
 11
0.1
 21
0.0
 31
0.0
  0
LINE
  5
475
  8
0
  6
CONTINUOUS
 62
     0
 10
0.0
 20
0.1
 30
0.0
 11
0.0
 21
0.12
 31
0.0
  0
LINE
  5
476
  8
0
  6
CONTINUOUS
 62
     0
 10
-0.1
 20
0.0
 30
0.0
 11
-0.12
 21
0.0
 31
0.0
  0
LINE
  5
477
  8
0
  6
CONTINUOUS
 62
     0
 10
0.0
 20
-0.1
 30
0.0
 11
0.0
 21
-0.12
 31
0.0
  0
LINE
  5
478
  8
0
  6
CONTINUOUS
 62
     0
 10
0.1
 20
0.0
 30
0.0
 11
0.12
 21
0.0
 31
0.0
  0
ENDBLK
  5
470
  8
0
  0
BLOCK
  8
0
  2
SW_CENTERMARKSYMBOL_73
 70
     0
 10
0.0
 20
0.0
 30
0.0
  3
SW_CENTERMARKSYMBOL_73
  1

  0
LINE
  5
47D
  8
0
  6
CONTINUOUS
 62
     0
 10
0.0
 20
0.0
 30
0.0
 11
0.0
 21
0.1
 31
0.0
  0
LINE
  5
47E
  8
0
  6
CONTINUOUS
 62
     0
 10
0.0
 20
0.0
 30
0.0
 11
-0.1
 21
0.0
 31
0.0
  0
LINE
  5
47F
  8
0
  6
CONTINUOUS
 62
     0
 10
0.0
 20
0.0
 30
0.0
 11
0.0
 21
-0.1
 31
0.0
  0
LINE
  5
480
  8
0
  6
CONTINUOUS
 62
     0
 10
0.0
 20
0.0
 30
0.0
 11
0.1
 21
0.0
 31
0.0
  0
LINE
  5
481
  8
0
  6
CONTINUOUS
 62
     0
 10
0.0
 20
0.1
 30
0.0
 11
0.0
 21
0.12
 31
0.0
  0
LINE
  5
482
  8
0
  6
CONTINUOUS
 62
     0
 10
-0.1
 20
0.0
 30
0.0
 11
-0.12
 21
0.0
 31
0.0
  0
LINE
  5
483
  8
0
  6
CONTINUOUS
 62
     0
 10
0.0
 20
-0.1
 30
0.0
 11
0.0
 21
-0.12
 31
0.0
  0
LINE
  5
484
  8
0
  6
CONTINUOUS
 62
     0
 10
0.1
 20
0.0
 30
0.0
 11
0.12
 21
0.0
 31
0.0
  0
ENDBLK
  5
47C
  8
0
  0
BLOCK
  8
0
  2
SW_CENTERMARKSYMBOL_74
 70
     0
 10
0.0
 20
0.0
 30
0.0
  3
SW_CENTERMARKSYMBOL_74
  1

  0
LINE
  5
489
  8
0
  6
CONTINUOUS
 62
     0
 10
0.0
 20
0.0
 30
0.0
 11
0.0
 21
0.1
 31
0.0
  0
LINE
  5
48A
  8
0
  6
CONTINUOUS
 62
     0
 10
0.0
 20
0.0
 30
0.0
 11
-0.1
 21
0.0
 31
0.0
  0
LINE
  5
48B
  8
0
  6
CONTINUOUS
 62
     0
 10
0.0
 20
0.0
 30
0.0
 11
0.0
 21
-0.1
 31
0.0
  0
LINE
  5
48C
  8
0
  6
CONTINUOUS
 62
     0
 10
0.0
 20
0.0
 30
0.0
 11
0.1
 21
0.0
 31
0.0
  0
LINE
  5
48D
  8
0
  6
CONTINUOUS
 62
     0
 10
0.0
 20
0.1
 30
0.0
 11
0.0
 21
0.12
 31
0.0
  0
LINE
  5
48E
  8
0
  6
CONTINUOUS
 62
     0
 10
-0.1
 20
0.0
 30
0.0
 11
-0.12
 21
0.0
 31
0.0
  0
LINE
  5
48F
  8
0
  6
CONTINUOUS
 62
     0
 10
0.0
 20
-0.1
 30
0.0
 11
0.0
 21
-0.12
 31
0.0
  0
LINE
  5
490
  8
0
  6
CONTINUOUS
 62
     0
 10
0.1
 20
0.0
 30
0.0
 11
0.12
 21
0.0
 31
0.0
  0
ENDBLK
  5
488
  8
0
  0
BLOCK
  8
0
  2
SW_CENTERMARKSYMBOL_75
 70
     0
 10
0.0
 20
0.0
 30
0.0
  3
SW_CENTERMARKSYMBOL_75
  1

  0
LINE
  5
495
  8
0
  6
CONTINUOUS
 62
     0
 10
0.0
 20
0.0
 30
0.0
 11
0.0
 21
0.1
 31
0.0
  0
LINE
  5
496
  8
0
  6
CONTINUOUS
 62
     0
 10
0.0
 20
0.0
 30
0.0
 11
-0.1
 21
0.0
 31
0.0
  0
LINE
  5
497
  8
0
  6
CONTINUOUS
 62
     0
 10
0.0
 20
0.0
 30
0.0
 11
0.0
 21
-0.1
 31
0.0
  0
LINE
  5
498
  8
0
  6
CONTINUOUS
 62
     0
 10
0.0
 20
0.0
 30
0.0
 11
0.1
 21
0.0
 31
0.0
  0
LINE
  5
499
  8
0
  6
CONTINUOUS
 62
     0
 10
0.0
 20
0.1
 30
0.0
 11
0.0
 21
0.12
 31
0.0
  0
LINE
  5
49A
  8
0
  6
CONTINUOUS
 62
     0
 10
-0.1
 20
0.0
 30
0.0
 11
-0.12
 21
0.0
 31
0.0
  0
LINE
  5
49B
  8
0
  6
CONTINUOUS
 62
     0
 10
0.0
 20
-0.1
 30
0.0
 11
0.0
 21
-0.12
 31
0.0
  0
LINE
  5
49C
  8
0
  6
CONTINUOUS
 62
     0
 10
0.1
 20
0.0
 30
0.0
 11
0.12
 21
0.0
 31
0.0
  0
ENDBLK
  5
494
  8
0
  0
BLOCK
  8
0
  2
SW_CENTERMARKSYMBOL_76
 70
     0
 10
0.0
 20
0.0
 30
0.0
  3
SW_CENTERMARKSYMBOL_76
  1

  0
LINE
  5
4A1
  8
0
  6
CONTINUOUS
 62
     0
 10
0.0
 20
0.0
 30
0.0
 11
0.0
 21
0.1
 31
0.0
  0
LINE
  5
4A2
  8
0
  6
CONTINUOUS
 62
     0
 10
0.0
 20
0.0
 30
0.0
 11
-0.1
 21
0.0
 31
0.0
  0
LINE
  5
4A3
  8
0
  6
CONTINUOUS
 62
     0
 10
0.0
 20
0.0
 30
0.0
 11
0.0
 21
-0.1
 31
0.0
  0
LINE
  5
4A4
  8
0
  6
CONTINUOUS
 62
     0
 10
0.0
 20
0.0
 30
0.0
 11
0.1
 21
0.0
 31
0.0
  0
LINE
  5
4A5
  8
0
  6
CONTINUOUS
 62
     0
 10
0.0
 20
0.1
 30
0.0
 11
0.0
 21
0.12
 31
0.0
  0
LINE
  5
4A6
  8
0
  6
CONTINUOUS
 62
     0
 10
-0.1
 20
0.0
 30
0.0
 11
-0.12
 21
0.0
 31
0.0
  0
LINE
  5
4A7
  8
0
  6
CONTINUOUS
 62
     0
 10
0.0
 20
-0.1
 30
0.0
 11
0.0
 21
-0.12
 31
0.0
  0
LINE
  5
4A8
  8
0
  6
CONTINUOUS
 62
     0
 10
0.1
 20
0.0
 30
0.0
 11
0.12
 21
0.0
 31
0.0
  0
ENDBLK
  5
4A0
  8
0
  0
BLOCK
  8
0
  2
SW_CENTERMARKSYMBOL_77
 70
     0
 10
0.0
 20
0.0
 30
0.0
  3
SW_CENTERMARKSYMBOL_77
  1

  0
LINE
  5
4AD
  8
0
  6
CONTINUOUS
 62
     0
 10
0.0
 20
0.0
 30
0.0
 11
0.0
 21
0.1
 31
0.0
  0
LINE
  5
4AE
  8
0
  6
CONTINUOUS
 62
     0
 10
0.0
 20
0.0
 30
0.0
 11
-0.1
 21
0.0
 31
0.0
  0
LINE
  5
4AF
  8
0
  6
CONTINUOUS
 62
     0
 10
0.0
 20
0.0
 30
0.0
 11
0.0
 21
-0.1
 31
0.0
  0
LINE
  5
4B0
  8
0
  6
CONTINUOUS
 62
     0
 10
0.0
 20
0.0
 30
0.0
 11
0.1
 21
0.0
 31
0.0
  0
LINE
  5
4B1
  8
0
  6
CONTINUOUS
 62
     0
 10
0.0
 20
0.1
 30
0.0
 11
0.0
 21
0.12
 31
0.0
  0
LINE
  5
4B2
  8
0
  6
CONTINUOUS
 62
     0
 10
-0.1
 20
0.0
 30
0.0
 11
-0.12
 21
0.0
 31
0.0
  0
LINE
  5
4B3
  8
0
  6
CONTINUOUS
 62
     0
 10
0.0
 20
-0.1
 30
0.0
 11
0.0
 21
-0.12
 31
0.0
  0
LINE
  5
4B4
  8
0
  6
CONTINUOUS
 62
     0
 10
0.1
 20
0.0
 30
0.0
 11
0.12
 21
0.0
 31
0.0
  0
ENDBLK
  5
4AC
  8
0
  0
BLOCK
  8
0
  2
SW_CENTERMARKSYMBOL_78
 70
     0
 10
0.0
 20
0.0
 30
0.0
  3
SW_CENTERMARKSYMBOL_78
  1

  0
LINE
  5
4B9
  8
0
  6
CONTINUOUS
 62
     0
 10
0.0
 20
0.0
 30
0.0
 11
0.0
 21
0.1
 31
0.0
  0
LINE
  5
4BA
  8
0
  6
CONTINUOUS
 62
     0
 10
0.0
 20
0.0
 30
0.0
 11
-0.1
 21
0.0
 31
0.0
  0
LINE
  5
4BB
  8
0
  6
CONTINUOUS
 62
     0
 10
0.0
 20
0.0
 30
0.0
 11
0.0
 21
-0.1
 31
0.0
  0
LINE
  5
4BC
  8
0
  6
CONTINUOUS
 62
     0
 10
0.0
 20
0.0
 30
0.0
 11
0.1
 21
0.0
 31
0.0
  0
LINE
  5
4BD
  8
0
  6
CONTINUOUS
 62
     0
 10
0.0
 20
0.1
 30
0.0
 11
0.0
 21
0.12
 31
0.0
  0
LINE
  5
4BE
  8
0
  6
CONTINUOUS
 62
     0
 10
-0.1
 20
0.0
 30
0.0
 11
-0.12
 21
0.0
 31
0.0
  0
LINE
  5
4BF
  8
0
  6
CONTINUOUS
 62
     0
 10
0.0
 20
-0.1
 30
0.0
 11
0.0
 21
-0.12
 31
0.0
  0
LINE
  5
4C0
  8
0
  6
CONTINUOUS
 62
     0
 10
0.1
 20
0.0
 30
0.0
 11
0.12
 21
0.0
 31
0.0
  0
ENDBLK
  5
4B8
  8
0
  0
BLOCK
  8
0
  2
SW_CENTERMARKSYMBOL_79
 70
     0
 10
0.0
 20
0.0
 30
0.0
  3
SW_CENTERMARKSYMBOL_79
  1

  0
LINE
  5
4C5
  8
0
  6
CONTINUOUS
 62
     0
 10
0.0
 20
0.0
 30
0.0
 11
0.0
 21
0.1
 31
0.0
  0
LINE
  5
4C6
  8
0
  6
CONTINUOUS
 62
     0
 10
0.0
 20
0.0
 30
0.0
 11
-0.1
 21
0.0
 31
0.0
  0
LINE
  5
4C7
  8
0
  6
CONTINUOUS
 62
     0
 10
0.0
 20
0.0
 30
0.0
 11
0.0
 21
-0.1
 31
0.0
  0
LINE
  5
4C8
  8
0
  6
CONTINUOUS
 62
     0
 10
0.0
 20
0.0
 30
0.0
 11
0.1
 21
0.0
 31
0.0
  0
LINE
  5
4C9
  8
0
  6
CONTINUOUS
 62
     0
 10
0.0
 20
0.1
 30
0.0
 11
0.0
 21
0.12
 31
0.0
  0
LINE
  5
4CA
  8
0
  6
CONTINUOUS
 62
     0
 10
-0.1
 20
0.0
 30
0.0
 11
-0.12
 21
0.0
 31
0.0
  0
LINE
  5
4CB
  8
0
  6
CONTINUOUS
 62
     0
 10
0.0
 20
-0.1
 30
0.0
 11
0.0
 21
-0.12
 31
0.0
  0
LINE
  5
4CC
  8
0
  6
CONTINUOUS
 62
     0
 10
0.1
 20
0.0
 30
0.0
 11
0.12
 21
0.0
 31
0.0
  0
ENDBLK
  5
4C4
  8
0
  0
BLOCK
  8
0
  2
SW_CENTERMARKSYMBOL_80
 70
     0
 10
0.0
 20
0.0
 30
0.0
  3
SW_CENTERMARKSYMBOL_80
  1

  0
LINE
  5
4D1
  8
0
  6
CONTINUOUS
 62
     0
 10
0.0
 20
0.0
 30
0.0
 11
0.0
 21
0.1
 31
0.0
  0
LINE
  5
4D2
  8
0
  6
CONTINUOUS
 62
     0
 10
0.0
 20
0.0
 30
0.0
 11
-0.1
 21
0.0
 31
0.0
  0
LINE
  5
4D3
  8
0
  6
CONTINUOUS
 62
     0
 10
0.0
 20
0.0
 30
0.0
 11
0.0
 21
-0.1
 31
0.0
  0
LINE
  5
4D4
  8
0
  6
CONTINUOUS
 62
     0
 10
0.0
 20
0.0
 30
0.0
 11
0.1
 21
0.0
 31
0.0
  0
LINE
  5
4D5
  8
0
  6
CONTINUOUS
 62
     0
 10
0.0
 20
0.1
 30
0.0
 11
0.0
 21
0.12
 31
0.0
  0
LINE
  5
4D6
  8
0
  6
CONTINUOUS
 62
     0
 10
-0.1
 20
0.0
 30
0.0
 11
-0.12
 21
0.0
 31
0.0
  0
LINE
  5
4D7
  8
0
  6
CONTINUOUS
 62
     0
 10
0.0
 20
-0.1
 30
0.0
 11
0.0
 21
-0.12
 31
0.0
  0
LINE
  5
4D8
  8
0
  6
CONTINUOUS
 62
     0
 10
0.1
 20
0.0
 30
0.0
 11
0.12
 21
0.0
 31
0.0
  0
ENDBLK
  5
4D0
  8
0
  0
BLOCK
  8
0
  2
SW_CENTERMARKSYMBOL_81
 70
     0
 10
0.0
 20
0.0
 30
0.0
  3
SW_CENTERMARKSYMBOL_81
  1

  0
LINE
  5
4DD
  8
0
  6
CONTINUOUS
 62
     0
 10
0.0
 20
0.0
 30
0.0
 11
0.0
 21
0.1
 31
0.0
  0
LINE
  5
4DE
  8
0
  6
CONTINUOUS
 62
     0
 10
0.0
 20
0.0
 30
0.0
 11
-0.1
 21
0.0
 31
0.0
  0
LINE
  5
4DF
  8
0
  6
CONTINUOUS
 62
     0
 10
0.0
 20
0.0
 30
0.0
 11
0.0
 21
-0.1
 31
0.0
  0
LINE
  5
4E0
  8
0
  6
CONTINUOUS
 62
     0
 10
0.0
 20
0.0
 30
0.0
 11
0.1
 21
0.0
 31
0.0
  0
LINE
  5
4E1
  8
0
  6
CONTINUOUS
 62
     0
 10
0.0
 20
0.1
 30
0.0
 11
0.0
 21
0.13125
 31
0.0
  0
LINE
  5
4E2
  8
0
  6
CONTINUOUS
 62
     0
 10
-0.1
 20
0.0
 30
0.0
 11
-0.13125
 21
0.0
 31
0.0
  0
LINE
  5
4E3
  8
0
  6
CONTINUOUS
 62
     0
 10
0.0
 20
-0.1
 30
0.0
 11
0.0
 21
-0.13125
 31
0.0
  0
LINE
  5
4E4
  8
0
  6
CONTINUOUS
 62
     0
 10
0.1
 20
0.0
 30
0.0
 11
0.13125
 21
0.0
 31
0.0
  0
ENDBLK
  5
4DC
  8
0
  0
BLOCK
  8
0
  2
SW_CENTERMARKSYMBOL_82
 70
     0
 10
0.0
 20
0.0
 30
0.0
  3
SW_CENTERMARKSYMBOL_82
  1

  0
LINE
  5
4E9
  8
0
  6
CONTINUOUS
 62
     0
 10
0.0
 20
0.0
 30
0.0
 11
0.0
 21
0.1
 31
0.0
  0
LINE
  5
4EA
  8
0
  6
CONTINUOUS
 62
     0
 10
0.0
 20
0.0
 30
0.0
 11
-0.1
 21
0.0
 31
0.0
  0
LINE
  5
4EB
  8
0
  6
CONTINUOUS
 62
     0
 10
0.0
 20
0.0
 30
0.0
 11
0.0
 21
-0.1
 31
0.0
  0
LINE
  5
4EC
  8
0
  6
CONTINUOUS
 62
     0
 10
0.0
 20
0.0
 30
0.0
 11
0.1
 21
0.0
 31
0.0
  0
LINE
  5
4ED
  8
0
  6
CONTINUOUS
 62
     0
 10
0.0
 20
0.1
 30
0.0
 11
0.0
 21
0.12
 31
0.0
  0
LINE
  5
4EE
  8
0
  6
CONTINUOUS
 62
     0
 10
-0.1
 20
0.0
 30
0.0
 11
-0.12
 21
0.0
 31
0.0
  0
LINE
  5
4EF
  8
0
  6
CONTINUOUS
 62
     0
 10
0.0
 20
-0.1
 30
0.0
 11
0.0
 21
-0.12
 31
0.0
  0
LINE
  5
4F0
  8
0
  6
CONTINUOUS
 62
     0
 10
0.1
 20
0.0
 30
0.0
 11
0.12
 21
0.0
 31
0.0
  0
ENDBLK
  5
4E8
  8
0
  0
BLOCK
  8
0
  2
SW_CENTERMARKSYMBOL_83
 70
     0
 10
0.0
 20
0.0
 30
0.0
  3
SW_CENTERMARKSYMBOL_83
  1

  0
LINE
  5
4F5
  8
0
  6
CONTINUOUS
 62
     0
 10
0.0
 20
0.0
 30
0.0
 11
0.0
 21
0.1
 31
0.0
  0
LINE
  5
4F6
  8
0
  6
CONTINUOUS
 62
     0
 10
0.0
 20
0.0
 30
0.0
 11
-0.1
 21
0.0
 31
0.0
  0
LINE
  5
4F7
  8
0
  6
CONTINUOUS
 62
     0
 10
0.0
 20
0.0
 30
0.0
 11
0.0
 21
-0.1
 31
0.0
  0
LINE
  5
4F8
  8
0
  6
CONTINUOUS
 62
     0
 10
0.0
 20
0.0
 30
0.0
 11
0.1
 21
0.0
 31
0.0
  0
LINE
  5
4F9
  8
0
  6
CONTINUOUS
 62
     0
 10
0.0
 20
0.1
 30
0.0
 11
0.0
 21
0.13125
 31
0.0
  0
LINE
  5
4FA
  8
0
  6
CONTINUOUS
 62
     0
 10
-0.1
 20
0.0
 30
0.0
 11
-0.13125
 21
0.0
 31
0.0
  0
LINE
  5
4FB
  8
0
  6
CONTINUOUS
 62
     0
 10
0.0
 20
-0.1
 30
0.0
 11
0.0
 21
-0.13125
 31
0.0
  0
LINE
  5
4FC
  8
0
  6
CONTINUOUS
 62
     0
 10
0.1
 20
0.0
 30
0.0
 11
0.13125
 21
0.0
 31
0.0
  0
ENDBLK
  5
4F4
  8
0
  0
BLOCK
  8
0
  2
SW_CENTERMARKSYMBOL_84
 70
     0
 10
0.0
 20
0.0
 30
0.0
  3
SW_CENTERMARKSYMBOL_84
  1

  0
LINE
  5
501
  8
0
  6
CONTINUOUS
 62
     0
 10
0.0
 20
0.0
 30
0.0
 11
0.0
 21
0.1
 31
0.0
  0
LINE
  5
502
  8
0
  6
CONTINUOUS
 62
     0
 10
0.0
 20
0.0
 30
0.0
 11
-0.1
 21
0.0
 31
0.0
  0
LINE
  5
503
  8
0
  6
CONTINUOUS
 62
     0
 10
0.0
 20
0.0
 30
0.0
 11
0.0
 21
-0.1
 31
0.0
  0
LINE
  5
504
  8
0
  6
CONTINUOUS
 62
     0
 10
0.0
 20
0.0
 30
0.0
 11
0.1
 21
0.0
 31
0.0
  0
LINE
  5
505
  8
0
  6
CONTINUOUS
 62
     0
 10
0.0
 20
0.1
 30
0.0
 11
0.0
 21
0.12
 31
0.0
  0
LINE
  5
506
  8
0
  6
CONTINUOUS
 62
     0
 10
-0.1
 20
0.0
 30
0.0
 11
-0.12
 21
0.0
 31
0.0
  0
LINE
  5
507
  8
0
  6
CONTINUOUS
 62
     0
 10
0.0
 20
-0.1
 30
0.0
 11
0.0
 21
-0.12
 31
0.0
  0
LINE
  5
508
  8
0
  6
CONTINUOUS
 62
     0
 10
0.1
 20
0.0
 30
0.0
 11
0.12
 21
0.0
 31
0.0
  0
ENDBLK
  5
500
  8
0
  0
BLOCK
  8
0
  2
SW_CENTERMARKSYMBOL_85
 70
     0
 10
0.0
 20
0.0
 30
0.0
  3
SW_CENTERMARKSYMBOL_85
  1

  0
LINE
  5
50D
  8
0
  6
CONTINUOUS
 62
     0
 10
0.0
 20
0.0
 30
0.0
 11
0.0
 21
0.1
 31
0.0
  0
LINE
  5
50E
  8
0
  6
CONTINUOUS
 62
     0
 10
0.0
 20
0.0
 30
0.0
 11
-0.1
 21
0.0
 31
0.0
  0
LINE
  5
50F
  8
0
  6
CONTINUOUS
 62
     0
 10
0.0
 20
0.0
 30
0.0
 11
0.0
 21
-0.1
 31
0.0
  0
LINE
  5
510
  8
0
  6
CONTINUOUS
 62
     0
 10
0.0
 20
0.0
 30
0.0
 11
0.1
 21
0.0
 31
0.0
  0
LINE
  5
511
  8
0
  6
CONTINUOUS
 62
     0
 10
0.0
 20
0.1
 30
0.0
 11
0.0
 21
0.12
 31
0.0
  0
LINE
  5
512
  8
0
  6
CONTINUOUS
 62
     0
 10
-0.1
 20
0.0
 30
0.0
 11
-0.12
 21
0.0
 31
0.0
  0
LINE
  5
513
  8
0
  6
CONTINUOUS
 62
     0
 10
0.0
 20
-0.1
 30
0.0
 11
0.0
 21
-0.12
 31
0.0
  0
LINE
  5
514
  8
0
  6
CONTINUOUS
 62
     0
 10
0.1
 20
0.0
 30
0.0
 11
0.12
 21
0.0
 31
0.0
  0
ENDBLK
  5
50C
  8
0
  0
BLOCK
  8
0
  2
SW_CENTERMARKSYMBOL_86
 70
     0
 10
0.0
 20
0.0
 30
0.0
  3
SW_CENTERMARKSYMBOL_86
  1

  0
LINE
  5
519
  8
0
  6
CONTINUOUS
 62
     0
 10
0.0
 20
0.0
 30
0.0
 11
0.0
 21
0.1
 31
0.0
  0
LINE
  5
51A
  8
0
  6
CONTINUOUS
 62
     0
 10
0.0
 20
0.0
 30
0.0
 11
-0.1
 21
0.0
 31
0.0
  0
LINE
  5
51B
  8
0
  6
CONTINUOUS
 62
     0
 10
0.0
 20
0.0
 30
0.0
 11
0.0
 21
-0.1
 31
0.0
  0
LINE
  5
51C
  8
0
  6
CONTINUOUS
 62
     0
 10
0.0
 20
0.0
 30
0.0
 11
0.1
 21
0.0
 31
0.0
  0
LINE
  5
51D
  8
0
  6
CONTINUOUS
 62
     0
 10
0.0
 20
0.1
 30
0.0
 11
0.0
 21
0.12
 31
0.0
  0
LINE
  5
51E
  8
0
  6
CONTINUOUS
 62
     0
 10
-0.1
 20
0.0
 30
0.0
 11
-0.12
 21
0.0
 31
0.0
  0
LINE
  5
51F
  8
0
  6
CONTINUOUS
 62
     0
 10
0.0
 20
-0.1
 30
0.0
 11
0.0
 21
-0.12
 31
0.0
  0
LINE
  5
520
  8
0
  6
CONTINUOUS
 62
     0
 10
0.1
 20
0.0
 30
0.0
 11
0.12
 21
0.0
 31
0.0
  0
ENDBLK
  5
518
  8
0
  0
BLOCK
  8
0
  2
SW_CENTERMARKSYMBOL_87
 70
     0
 10
0.0
 20
0.0
 30
0.0
  3
SW_CENTERMARKSYMBOL_87
  1

  0
LINE
  5
525
  8
0
  6
CONTINUOUS
 62
     0
 10
0.0
 20
0.0
 30
0.0
 11
0.0
 21
0.1
 31
0.0
  0
LINE
  5
526
  8
0
  6
CONTINUOUS
 62
     0
 10
0.0
 20
0.0
 30
0.0
 11
-0.1
 21
0.0
 31
0.0
  0
LINE
  5
527
  8
0
  6
CONTINUOUS
 62
     0
 10
0.0
 20
0.0
 30
0.0
 11
0.0
 21
-0.1
 31
0.0
  0
LINE
  5
528
  8
0
  6
CONTINUOUS
 62
     0
 10
0.0
 20
0.0
 30
0.0
 11
0.1
 21
0.0
 31
0.0
  0
LINE
  5
529
  8
0
  6
CONTINUOUS
 62
     0
 10
0.0
 20
0.1
 30
0.0
 11
0.0
 21
0.12
 31
0.0
  0
LINE
  5
52A
  8
0
  6
CONTINUOUS
 62
     0
 10
-0.1
 20
0.0
 30
0.0
 11
-0.12
 21
0.0
 31
0.0
  0
LINE
  5
52B
  8
0
  6
CONTINUOUS
 62
     0
 10
0.0
 20
-0.1
 30
0.0
 11
0.0
 21
-0.12
 31
0.0
  0
LINE
  5
52C
  8
0
  6
CONTINUOUS
 62
     0
 10
0.1
 20
0.0
 30
0.0
 11
0.12
 21
0.0
 31
0.0
  0
ENDBLK
  5
524
  8
0
  0
BLOCK
  8
0
  2
SW_CENTERMARKSYMBOL_88
 70
     0
 10
0.0
 20
0.0
 30
0.0
  3
SW_CENTERMARKSYMBOL_88
  1

  0
LINE
  5
531
  8
0
  6
CONTINUOUS
 62
     0
 10
0.0
 20
0.0
 30
0.0
 11
0.0
 21
0.1
 31
0.0
  0
LINE
  5
532
  8
0
  6
CONTINUOUS
 62
     0
 10
0.0
 20
0.0
 30
0.0
 11
-0.1
 21
0.0
 31
0.0
  0
LINE
  5
533
  8
0
  6
CONTINUOUS
 62
     0
 10
0.0
 20
0.0
 30
0.0
 11
0.0
 21
-0.1
 31
0.0
  0
LINE
  5
534
  8
0
  6
CONTINUOUS
 62
     0
 10
0.0
 20
0.0
 30
0.0
 11
0.1
 21
0.0
 31
0.0
  0
LINE
  5
535
  8
0
  6
CONTINUOUS
 62
     0
 10
0.0
 20
0.1
 30
0.0
 11
0.0
 21
0.12
 31
0.0
  0
LINE
  5
536
  8
0
  6
CONTINUOUS
 62
     0
 10
-0.1
 20
0.0
 30
0.0
 11
-0.12
 21
0.0
 31
0.0
  0
LINE
  5
537
  8
0
  6
CONTINUOUS
 62
     0
 10
0.0
 20
-0.1
 30
0.0
 11
0.0
 21
-0.12
 31
0.0
  0
LINE
  5
538
  8
0
  6
CONTINUOUS
 62
     0
 10
0.1
 20
0.0
 30
0.0
 11
0.12
 21
0.0
 31
0.0
  0
ENDBLK
  5
530
  8
0
  0
BLOCK
  8
0
  2
SW_CENTERMARKSYMBOL_89
 70
     0
 10
0.0
 20
0.0
 30
0.0
  3
SW_CENTERMARKSYMBOL_89
  1

  0
LINE
  5
53D
  8
0
  6
CONTINUOUS
 62
     0
 10
0.0
 20
0.0
 30
0.0
 11
0.0
 21
0.1
 31
0.0
  0
LINE
  5
53E
  8
0
  6
CONTINUOUS
 62
     0
 10
0.0
 20
0.0
 30
0.0
 11
-0.1
 21
0.0
 31
0.0
  0
LINE
  5
53F
  8
0
  6
CONTINUOUS
 62
     0
 10
0.0
 20
0.0
 30
0.0
 11
0.0
 21
-0.1
 31
0.0
  0
LINE
  5
540
  8
0
  6
CONTINUOUS
 62
     0
 10
0.0
 20
0.0
 30
0.0
 11
0.1
 21
0.0
 31
0.0
  0
LINE
  5
541
  8
0
  6
CONTINUOUS
 62
     0
 10
0.0
 20
0.1
 30
0.0
 11
0.0
 21
0.13125
 31
0.0
  0
LINE
  5
542
  8
0
  6
CONTINUOUS
 62
     0
 10
-0.1
 20
0.0
 30
0.0
 11
-0.13125
 21
0.0
 31
0.0
  0
LINE
  5
543
  8
0
  6
CONTINUOUS
 62
     0
 10
0.0
 20
-0.1
 30
0.0
 11
0.0
 21
-0.13125
 31
0.0
  0
LINE
  5
544
  8
0
  6
CONTINUOUS
 62
     0
 10
0.1
 20
0.0
 30
0.0
 11
0.13125
 21
0.0
 31
0.0
  0
ENDBLK
  5
53C
  8
0
  0
BLOCK
  8
0
  2
SW_CENTERMARKSYMBOL_90
 70
     0
 10
0.0
 20
0.0
 30
0.0
  3
SW_CENTERMARKSYMBOL_90
  1

  0
LINE
  5
549
  8
0
  6
CONTINUOUS
 62
     0
 10
0.0
 20
0.0
 30
0.0
 11
0.0
 21
0.1
 31
0.0
  0
LINE
  5
54A
  8
0
  6
CONTINUOUS
 62
     0
 10
0.0
 20
0.0
 30
0.0
 11
-0.1
 21
0.0
 31
0.0
  0
LINE
  5
54B
  8
0
  6
CONTINUOUS
 62
     0
 10
0.0
 20
0.0
 30
0.0
 11
0.0
 21
-0.1
 31
0.0
  0
LINE
  5
54C
  8
0
  6
CONTINUOUS
 62
     0
 10
0.0
 20
0.0
 30
0.0
 11
0.1
 21
0.0
 31
0.0
  0
LINE
  5
54D
  8
0
  6
CONTINUOUS
 62
     0
 10
0.0
 20
0.1
 30
0.0
 11
0.0
 21
0.13125
 31
0.0
  0
LINE
  5
54E
  8
0
  6
CONTINUOUS
 62
     0
 10
-0.1
 20
0.0
 30
0.0
 11
-0.13125
 21
0.0
 31
0.0
  0
LINE
  5
54F
  8
0
  6
CONTINUOUS
 62
     0
 10
0.0
 20
-0.1
 30
0.0
 11
0.0
 21
-0.13125
 31
0.0
  0
LINE
  5
550
  8
0
  6
CONTINUOUS
 62
     0
 10
0.1
 20
0.0
 30
0.0
 11
0.13125
 21
0.0
 31
0.0
  0
ENDBLK
  5
548
  8
0
  0
BLOCK
  8
0
  2
SW_CENTERMARKSYMBOL_91
 70
     0
 10
0.0
 20
0.0
 30
0.0
  3
SW_CENTERMARKSYMBOL_91
  1

  0
LINE
  5
555
  8
0
  6
CONTINUOUS
 62
     0
 10
0.0
 20
0.0
 30
0.0
 11
0.0
 21
0.1
 31
0.0
  0
LINE
  5
556
  8
0
  6
CONTINUOUS
 62
     0
 10
0.0
 20
0.0
 30
0.0
 11
-0.1
 21
0.0
 31
0.0
  0
LINE
  5
557
  8
0
  6
CONTINUOUS
 62
     0
 10
0.0
 20
0.0
 30
0.0
 11
0.0
 21
-0.1
 31
0.0
  0
LINE
  5
558
  8
0
  6
CONTINUOUS
 62
     0
 10
0.0
 20
0.0
 30
0.0
 11
0.1
 21
0.0
 31
0.0
  0
LINE
  5
559
  8
0
  6
CONTINUOUS
 62
     0
 10
0.0
 20
0.1
 30
0.0
 11
0.0
 21
0.13125
 31
0.0
  0
LINE
  5
55A
  8
0
  6
CONTINUOUS
 62
     0
 10
-0.1
 20
0.0
 30
0.0
 11
-0.13125
 21
0.0
 31
0.0
  0
LINE
  5
55B
  8
0
  6
CONTINUOUS
 62
     0
 10
0.0
 20
-0.1
 30
0.0
 11
0.0
 21
-0.13125
 31
0.0
  0
LINE
  5
55C
  8
0
  6
CONTINUOUS
 62
     0
 10
0.1
 20
0.0
 30
0.0
 11
0.13125
 21
0.0
 31
0.0
  0
ENDBLK
  5
554
  8
0
  0
BLOCK
  8
0
  2
SW_CENTERMARKSYMBOL_92
 70
     0
 10
0.0
 20
0.0
 30
0.0
  3
SW_CENTERMARKSYMBOL_92
  1

  0
LINE
  5
561
  8
0
  6
CONTINUOUS
 62
     0
 10
0.0
 20
0.0
 30
0.0
 11
0.0
 21
0.1
 31
0.0
  0
LINE
  5
562
  8
0
  6
CONTINUOUS
 62
     0
 10
0.0
 20
0.0
 30
0.0
 11
-0.1
 21
0.0
 31
0.0
  0
LINE
  5
563
  8
0
  6
CONTINUOUS
 62
     0
 10
0.0
 20
0.0
 30
0.0
 11
0.0
 21
-0.1
 31
0.0
  0
LINE
  5
564
  8
0
  6
CONTINUOUS
 62
     0
 10
0.0
 20
0.0
 30
0.0
 11
0.1
 21
0.0
 31
0.0
  0
LINE
  5
565
  8
0
  6
CONTINUOUS
 62
     0
 10
0.0
 20
0.1
 30
0.0
 11
0.0
 21
0.13125
 31
0.0
  0
LINE
  5
566
  8
0
  6
CONTINUOUS
 62
     0
 10
-0.1
 20
0.0
 30
0.0
 11
-0.13125
 21
0.0
 31
0.0
  0
LINE
  5
567
  8
0
  6
CONTINUOUS
 62
     0
 10
0.0
 20
-0.1
 30
0.0
 11
0.0
 21
-0.13125
 31
0.0
  0
LINE
  5
568
  8
0
  6
CONTINUOUS
 62
     0
 10
0.1
 20
0.0
 30
0.0
 11
0.13125
 21
0.0
 31
0.0
  0
ENDBLK
  5
560
  8
0
  0
BLOCK
  8
0
  2
SW_CENTERMARKSYMBOL_93
 70
     0
 10
0.0
 20
0.0
 30
0.0
  3
SW_CENTERMARKSYMBOL_93
  1

  0
LINE
  5
56D
  8
0
  6
CONTINUOUS
 62
     0
 10
0.0
 20
0.0
 30
0.0
 11
0.0
 21
0.1
 31
0.0
  0
LINE
  5
56E
  8
0
  6
CONTINUOUS
 62
     0
 10
0.0
 20
0.0
 30
0.0
 11
-0.1
 21
0.0
 31
0.0
  0
LINE
  5
56F
  8
0
  6
CONTINUOUS
 62
     0
 10
0.0
 20
0.0
 30
0.0
 11
0.0
 21
-0.1
 31
0.0
  0
LINE
  5
570
  8
0
  6
CONTINUOUS
 62
     0
 10
0.0
 20
0.0
 30
0.0
 11
0.1
 21
0.0
 31
0.0
  0
LINE
  5
571
  8
0
  6
CONTINUOUS
 62
     0
 10
0.0
 20
0.1
 30
0.0
 11
0.0
 21
0.13125
 31
0.0
  0
LINE
  5
572
  8
0
  6
CONTINUOUS
 62
     0
 10
-0.1
 20
0.0
 30
0.0
 11
-0.13125
 21
0.0
 31
0.0
  0
LINE
  5
573
  8
0
  6
CONTINUOUS
 62
     0
 10
0.0
 20
-0.1
 30
0.0
 11
0.0
 21
-0.13125
 31
0.0
  0
LINE
  5
574
  8
0
  6
CONTINUOUS
 62
     0
 10
0.1
 20
0.0
 30
0.0
 11
0.13125
 21
0.0
 31
0.0
  0
ENDBLK
  5
56C
  8
0
  0
BLOCK
  8
0
  2
SW_CENTERMARKSYMBOL_94
 70
     0
 10
0.0
 20
0.0
 30
0.0
  3
SW_CENTERMARKSYMBOL_94
  1

  0
LINE
  5
579
  8
0
  6
CONTINUOUS
 62
     0
 10
0.0
 20
0.0
 30
0.0
 11
0.0
 21
0.1
 31
0.0
  0
LINE
  5
57A
  8
0
  6
CONTINUOUS
 62
     0
 10
0.0
 20
0.0
 30
0.0
 11
-0.1
 21
0.0
 31
0.0
  0
LINE
  5
57B
  8
0
  6
CONTINUOUS
 62
     0
 10
0.0
 20
0.0
 30
0.0
 11
0.0
 21
-0.1
 31
0.0
  0
LINE
  5
57C
  8
0
  6
CONTINUOUS
 62
     0
 10
0.0
 20
0.0
 30
0.0
 11
0.1
 21
0.0
 31
0.0
  0
LINE
  5
57D
  8
0
  6
CONTINUOUS
 62
     0
 10
0.0
 20
0.1
 30
0.0
 11
0.0
 21
0.13125
 31
0.0
  0
LINE
  5
57E
  8
0
  6
CONTINUOUS
 62
     0
 10
-0.1
 20
0.0
 30
0.0
 11
-0.13125
 21
0.0
 31
0.0
  0
LINE
  5
57F
  8
0
  6
CONTINUOUS
 62
     0
 10
0.0
 20
-0.1
 30
0.0
 11
0.0
 21
-0.13125
 31
0.0
  0
LINE
  5
580
  8
0
  6
CONTINUOUS
 62
     0
 10
0.1
 20
0.0
 30
0.0
 11
0.13125
 21
0.0
 31
0.0
  0
ENDBLK
  5
578
  8
0
  0
BLOCK
  8
0
  2
SW_CENTERMARKSYMBOL_95
 70
     0
 10
0.0
 20
0.0
 30
0.0
  3
SW_CENTERMARKSYMBOL_95
  1

  0
LINE
  5
585
  8
0
  6
CONTINUOUS
 62
     0
 10
0.0
 20
0.0
 30
0.0
 11
0.0
 21
0.1
 31
0.0
  0
LINE
  5
586
  8
0
  6
CONTINUOUS
 62
     0
 10
0.0
 20
0.0
 30
0.0
 11
-0.1
 21
0.0
 31
0.0
  0
LINE
  5
587
  8
0
  6
CONTINUOUS
 62
     0
 10
0.0
 20
0.0
 30
0.0
 11
0.0
 21
-0.1
 31
0.0
  0
LINE
  5
588
  8
0
  6
CONTINUOUS
 62
     0
 10
0.0
 20
0.0
 30
0.0
 11
0.1
 21
0.0
 31
0.0
  0
LINE
  5
589
  8
0
  6
CONTINUOUS
 62
     0
 10
0.0
 20
0.1
 30
0.0
 11
0.0
 21
0.13125
 31
0.0
  0
LINE
  5
58A
  8
0
  6
CONTINUOUS
 62
     0
 10
-0.1
 20
0.0
 30
0.0
 11
-0.13125
 21
0.0
 31
0.0
  0
LINE
  5
58B
  8
0
  6
CONTINUOUS
 62
     0
 10
0.0
 20
-0.1
 30
0.0
 11
0.0
 21
-0.13125
 31
0.0
  0
LINE
  5
58C
  8
0
  6
CONTINUOUS
 62
     0
 10
0.1
 20
0.0
 30
0.0
 11
0.13125
 21
0.0
 31
0.0
  0
ENDBLK
  5
584
  8
0
  0
BLOCK
  8
0
  2
SW_CENTERMARKSYMBOL_96
 70
     0
 10
0.0
 20
0.0
 30
0.0
  3
SW_CENTERMARKSYMBOL_96
  1

  0
LINE
  5
591
  8
0
  6
CONTINUOUS
 62
     0
 10
0.0
 20
0.0
 30
0.0
 11
0.0
 21
0.1
 31
0.0
  0
LINE
  5
592
  8
0
  6
CONTINUOUS
 62
     0
 10
0.0
 20
0.0
 30
0.0
 11
-0.1
 21
0.0
 31
0.0
  0
LINE
  5
593
  8
0
  6
CONTINUOUS
 62
     0
 10
0.0
 20
0.0
 30
0.0
 11
0.0
 21
-0.1
 31
0.0
  0
LINE
  5
594
  8
0
  6
CONTINUOUS
 62
     0
 10
0.0
 20
0.0
 30
0.0
 11
0.1
 21
0.0
 31
0.0
  0
LINE
  5
595
  8
0
  6
CONTINUOUS
 62
     0
 10
0.0
 20
0.1
 30
0.0
 11
0.0
 21
0.13125
 31
0.0
  0
LINE
  5
596
  8
0
  6
CONTINUOUS
 62
     0
 10
-0.1
 20
0.0
 30
0.0
 11
-0.13125
 21
0.0
 31
0.0
  0
LINE
  5
597
  8
0
  6
CONTINUOUS
 62
     0
 10
0.0
 20
-0.1
 30
0.0
 11
0.0
 21
-0.13125
 31
0.0
  0
LINE
  5
598
  8
0
  6
CONTINUOUS
 62
     0
 10
0.1
 20
0.0
 30
0.0
 11
0.13125
 21
0.0
 31
0.0
  0
ENDBLK
  5
590
  8
0
  0
BLOCK
  8
0
  2
SW_CENTERMARKSYMBOL_97
 70
     0
 10
0.0
 20
0.0
 30
0.0
  3
SW_CENTERMARKSYMBOL_97
  1

  0
LINE
  5
59D
  8
0
  6
CONTINUOUS
 62
     0
 10
0.0
 20
0.0
 30
0.0
 11
0.0
 21
0.1
 31
0.0
  0
LINE
  5
59E
  8
0
  6
CONTINUOUS
 62
     0
 10
0.0
 20
0.0
 30
0.0
 11
-0.1
 21
0.0
 31
0.0
  0
LINE
  5
59F
  8
0
  6
CONTINUOUS
 62
     0
 10
0.0
 20
0.0
 30
0.0
 11
0.0
 21
-0.1
 31
0.0
  0
LINE
  5
5A0
  8
0
  6
CONTINUOUS
 62
     0
 10
0.0
 20
0.0
 30
0.0
 11
0.1
 21
0.0
 31
0.0
  0
LINE
  5
5A1
  8
0
  6
CONTINUOUS
 62
     0
 10
0.0
 20
0.1
 30
0.0
 11
0.0
 21
0.13125
 31
0.0
  0
LINE
  5
5A2
  8
0
  6
CONTINUOUS
 62
     0
 10
-0.1
 20
0.0
 30
0.0
 11
-0.13125
 21
0.0
 31
0.0
  0
LINE
  5
5A3
  8
0
  6
CONTINUOUS
 62
     0
 10
0.0
 20
-0.1
 30
0.0
 11
0.0
 21
-0.13125
 31
0.0
  0
LINE
  5
5A4
  8
0
  6
CONTINUOUS
 62
     0
 10
0.1
 20
0.0
 30
0.0
 11
0.13125
 21
0.0
 31
0.0
  0
ENDBLK
  5
59C
  8
0
  0
BLOCK
  8
0
  2
SW_CENTERMARKSYMBOL_98
 70
     0
 10
0.0
 20
0.0
 30
0.0
  3
SW_CENTERMARKSYMBOL_98
  1

  0
LINE
  5
5A9
  8
0
  6
CONTINUOUS
 62
     0
 10
0.0
 20
0.0
 30
0.0
 11
0.0
 21
0.1
 31
0.0
  0
LINE
  5
5AA
  8
0
  6
CONTINUOUS
 62
     0
 10
0.0
 20
0.0
 30
0.0
 11
-0.1
 21
0.0
 31
0.0
  0
LINE
  5
5AB
  8
0
  6
CONTINUOUS
 62
     0
 10
0.0
 20
0.0
 30
0.0
 11
0.0
 21
-0.1
 31
0.0
  0
LINE
  5
5AC
  8
0
  6
CONTINUOUS
 62
     0
 10
0.0
 20
0.0
 30
0.0
 11
0.1
 21
0.0
 31
0.0
  0
LINE
  5
5AD
  8
0
  6
CONTINUOUS
 62
     0
 10
0.0
 20
0.1
 30
0.0
 11
0.0
 21
0.13125
 31
0.0
  0
LINE
  5
5AE
  8
0
  6
CONTINUOUS
 62
     0
 10
-0.1
 20
0.0
 30
0.0
 11
-0.13125
 21
0.0
 31
0.0
  0
LINE
  5
5AF
  8
0
  6
CONTINUOUS
 62
     0
 10
0.0
 20
-0.1
 30
0.0
 11
0.0
 21
-0.13125
 31
0.0
  0
LINE
  5
5B0
  8
0
  6
CONTINUOUS
 62
     0
 10
0.1
 20
0.0
 30
0.0
 11
0.13125
 21
0.0
 31
0.0
  0
ENDBLK
  5
5A8
  8
0
  0
BLOCK
  8
0
  2
SW_CENTERMARKSYMBOL_99
 70
     0
 10
0.0
 20
0.0
 30
0.0
  3
SW_CENTERMARKSYMBOL_99
  1

  0
LINE
  5
5B5
  8
0
  6
CONTINUOUS
 62
     0
 10
0.0
 20
0.0
 30
0.0
 11
0.0
 21
0.1
 31
0.0
  0
LINE
  5
5B6
  8
0
  6
CONTINUOUS
 62
     0
 10
0.0
 20
0.0
 30
0.0
 11
-0.1
 21
0.0
 31
0.0
  0
LINE
  5
5B7
  8
0
  6
CONTINUOUS
 62
     0
 10
0.0
 20
0.0
 30
0.0
 11
0.0
 21
-0.1
 31
0.0
  0
LINE
  5
5B8
  8
0
  6
CONTINUOUS
 62
     0
 10
0.0
 20
0.0
 30
0.0
 11
0.1
 21
0.0
 31
0.0
  0
LINE
  5
5B9
  8
0
  6
CONTINUOUS
 62
     0
 10
0.0
 20
0.1
 30
0.0
 11
0.0
 21
0.13125
 31
0.0
  0
LINE
  5
5BA
  8
0
  6
CONTINUOUS
 62
     0
 10
-0.1
 20
0.0
 30
0.0
 11
-0.13125
 21
0.0
 31
0.0
  0
LINE
  5
5BB
  8
0
  6
CONTINUOUS
 62
     0
 10
0.0
 20
-0.1
 30
0.0
 11
0.0
 21
-0.13125
 31
0.0
  0
LINE
  5
5BC
  8
0
  6
CONTINUOUS
 62
     0
 10
0.1
 20
0.0
 30
0.0
 11
0.13125
 21
0.0
 31
0.0
  0
ENDBLK
  5
5B4
  8
0
  0
BLOCK
  8
0
  2
SW_CENTERMARKSYMBOL_100
 70
     0
 10
0.0
 20
0.0
 30
0.0
  3
SW_CENTERMARKSYMBOL_100
  1

  0
LINE
  5
5C1
  8
0
  6
CONTINUOUS
 62
     0
 10
0.0
 20
0.0
 30
0.0
 11
0.0
 21
0.1
 31
0.0
  0
LINE
  5
5C2
  8
0
  6
CONTINUOUS
 62
     0
 10
0.0
 20
0.0
 30
0.0
 11
-0.1
 21
0.0
 31
0.0
  0
LINE
  5
5C3
  8
0
  6
CONTINUOUS
 62
     0
 10
0.0
 20
0.0
 30
0.0
 11
0.0
 21
-0.1
 31
0.0
  0
LINE
  5
5C4
  8
0
  6
CONTINUOUS
 62
     0
 10
0.0
 20
0.0
 30
0.0
 11
0.1
 21
0.0
 31
0.0
  0
LINE
  5
5C5
  8
0
  6
CONTINUOUS
 62
     0
 10
0.0
 20
0.1
 30
0.0
 11
0.0
 21
0.13125
 31
0.0
  0
LINE
  5
5C6
  8
0
  6
CONTINUOUS
 62
     0
 10
-0.1
 20
0.0
 30
0.0
 11
-0.13125
 21
0.0
 31
0.0
  0
LINE
  5
5C7
  8
0
  6
CONTINUOUS
 62
     0
 10
0.0
 20
-0.1
 30
0.0
 11
0.0
 21
-0.13125
 31
0.0
  0
LINE
  5
5C8
  8
0
  6
CONTINUOUS
 62
     0
 10
0.1
 20
0.0
 30
0.0
 11
0.13125
 21
0.0
 31
0.0
  0
ENDBLK
  5
5C0
  8
0
  0
BLOCK
  8
0
  2
SW_CENTERMARKSYMBOL_101
 70
     0
 10
0.0
 20
0.0
 30
0.0
  3
SW_CENTERMARKSYMBOL_101
  1

  0
LINE
  5
5CD
  8
0
  6
CONTINUOUS
 62
     0
 10
0.0
 20
0.0
 30
0.0
 11
0.0
 21
0.1
 31
0.0
  0
LINE
  5
5CE
  8
0
  6
CONTINUOUS
 62
     0
 10
0.0
 20
0.0
 30
0.0
 11
-0.1
 21
0.0
 31
0.0
  0
LINE
  5
5CF
  8
0
  6
CONTINUOUS
 62
     0
 10
0.0
 20
0.0
 30
0.0
 11
0.0
 21
-0.1
 31
0.0
  0
LINE
  5
5D0
  8
0
  6
CONTINUOUS
 62
     0
 10
0.0
 20
0.0
 30
0.0
 11
0.1
 21
0.0
 31
0.0
  0
LINE
  5
5D1
  8
0
  6
CONTINUOUS
 62
     0
 10
0.0
 20
0.1
 30
0.0
 11
0.0
 21
0.13125
 31
0.0
  0
LINE
  5
5D2
  8
0
  6
CONTINUOUS
 62
     0
 10
-0.1
 20
0.0
 30
0.0
 11
-0.13125
 21
0.0
 31
0.0
  0
LINE
  5
5D3
  8
0
  6
CONTINUOUS
 62
     0
 10
0.0
 20
-0.1
 30
0.0
 11
0.0
 21
-0.13125
 31
0.0
  0
LINE
  5
5D4
  8
0
  6
CONTINUOUS
 62
     0
 10
0.1
 20
0.0
 30
0.0
 11
0.13125
 21
0.0
 31
0.0
  0
ENDBLK
  5
5CC
  8
0
  0
BLOCK
  8
0
  2
SW_CENTERMARKSYMBOL_102
 70
     0
 10
0.0
 20
0.0
 30
0.0
  3
SW_CENTERMARKSYMBOL_102
  1

  0
LINE
  5
5D9
  8
0
  6
CONTINUOUS
 62
     0
 10
0.0
 20
0.0
 30
0.0
 11
0.0
 21
0.1
 31
0.0
  0
LINE
  5
5DA
  8
0
  6
CONTINUOUS
 62
     0
 10
0.0
 20
0.0
 30
0.0
 11
-0.1
 21
0.0
 31
0.0
  0
LINE
  5
5DB
  8
0
  6
CONTINUOUS
 62
     0
 10
0.0
 20
0.0
 30
0.0
 11
0.0
 21
-0.1
 31
0.0
  0
LINE
  5
5DC
  8
0
  6
CONTINUOUS
 62
     0
 10
0.0
 20
0.0
 30
0.0
 11
0.1
 21
0.0
 31
0.0
  0
LINE
  5
5DD
  8
0
  6
CONTINUOUS
 62
     0
 10
0.0
 20
0.1
 30
0.0
 11
0.0
 21
0.13125
 31
0.0
  0
LINE
  5
5DE
  8
0
  6
CONTINUOUS
 62
     0
 10
-0.1
 20
0.0
 30
0.0
 11
-0.13125
 21
0.0
 31
0.0
  0
LINE
  5
5DF
  8
0
  6
CONTINUOUS
 62
     0
 10
0.0
 20
-0.1
 30
0.0
 11
0.0
 21
-0.13125
 31
0.0
  0
LINE
  5
5E0
  8
0
  6
CONTINUOUS
 62
     0
 10
0.1
 20
0.0
 30
0.0
 11
0.13125
 21
0.0
 31
0.0
  0
ENDBLK
  5
5D8
  8
0
  0
BLOCK
  8
0
  2
SW_CENTERMARKSYMBOL_103
 70
     0
 10
0.0
 20
0.0
 30
0.0
  3
SW_CENTERMARKSYMBOL_103
  1

  0
LINE
  5
5E5
  8
0
  6
CONTINUOUS
 62
     0
 10
0.0
 20
0.0
 30
0.0
 11
0.0
 21
0.1
 31
0.0
  0
LINE
  5
5E6
  8
0
  6
CONTINUOUS
 62
     0
 10
0.0
 20
0.0
 30
0.0
 11
-0.1
 21
0.0
 31
0.0
  0
LINE
  5
5E7
  8
0
  6
CONTINUOUS
 62
     0
 10
0.0
 20
0.0
 30
0.0
 11
0.0
 21
-0.1
 31
0.0
  0
LINE
  5
5E8
  8
0
  6
CONTINUOUS
 62
     0
 10
0.0
 20
0.0
 30
0.0
 11
0.1
 21
0.0
 31
0.0
  0
LINE
  5
5E9
  8
0
  6
CONTINUOUS
 62
     0
 10
0.0
 20
0.1
 30
0.0
 11
0.0
 21
0.13125
 31
0.0
  0
LINE
  5
5EA
  8
0
  6
CONTINUOUS
 62
     0
 10
-0.1
 20
0.0
 30
0.0
 11
-0.13125
 21
0.0
 31
0.0
  0
LINE
  5
5EB
  8
0
  6
CONTINUOUS
 62
     0
 10
0.0
 20
-0.1
 30
0.0
 11
0.0
 21
-0.13125
 31
0.0
  0
LINE
  5
5EC
  8
0
  6
CONTINUOUS
 62
     0
 10
0.1
 20
0.0
 30
0.0
 11
0.13125
 21
0.0
 31
0.0
  0
ENDBLK
  5
5E4
  8
0
  0
BLOCK
  8
0
  2
SW_CENTERMARKSYMBOL_104
 70
     0
 10
0.0
 20
0.0
 30
0.0
  3
SW_CENTERMARKSYMBOL_104
  1

  0
LINE
  5
5F1
  8
0
  6
CONTINUOUS
 62
     0
 10
0.0
 20
0.0
 30
0.0
 11
0.0
 21
0.1
 31
0.0
  0
LINE
  5
5F2
  8
0
  6
CONTINUOUS
 62
     0
 10
0.0
 20
0.0
 30
0.0
 11
-0.1
 21
0.0
 31
0.0
  0
LINE
  5
5F3
  8
0
  6
CONTINUOUS
 62
     0
 10
0.0
 20
0.0
 30
0.0
 11
0.0
 21
-0.1
 31
0.0
  0
LINE
  5
5F4
  8
0
  6
CONTINUOUS
 62
     0
 10
0.0
 20
0.0
 30
0.0
 11
0.1
 21
0.0
 31
0.0
  0
LINE
  5
5F5
  8
0
  6
CONTINUOUS
 62
     0
 10
0.0
 20
0.1
 30
0.0
 11
0.0
 21
0.13125
 31
0.0
  0
LINE
  5
5F6
  8
0
  6
CONTINUOUS
 62
     0
 10
-0.1
 20
0.0
 30
0.0
 11
-0.13125
 21
0.0
 31
0.0
  0
LINE
  5
5F7
  8
0
  6
CONTINUOUS
 62
     0
 10
0.0
 20
-0.1
 30
0.0
 11
0.0
 21
-0.13125
 31
0.0
  0
LINE
  5
5F8
  8
0
  6
CONTINUOUS
 62
     0
 10
0.1
 20
0.0
 30
0.0
 11
0.13125
 21
0.0
 31
0.0
  0
ENDBLK
  5
5F0
  8
0
  0
BLOCK
  8
0
  2
SW_CENTERMARKSYMBOL_105
 70
     0
 10
0.0
 20
0.0
 30
0.0
  3
SW_CENTERMARKSYMBOL_105
  1

  0
LINE
  5
5FD
  8
0
  6
CONTINUOUS
 62
     0
 10
0.0
 20
0.0
 30
0.0
 11
0.0
 21
0.1
 31
0.0
  0
LINE
  5
5FE
  8
0
  6
CONTINUOUS
 62
     0
 10
0.0
 20
0.0
 30
0.0
 11
-0.1
 21
0.0
 31
0.0
  0
LINE
  5
5FF
  8
0
  6
CONTINUOUS
 62
     0
 10
0.0
 20
0.0
 30
0.0
 11
0.0
 21
-0.1
 31
0.0
  0
LINE
  5
600
  8
0
  6
CONTINUOUS
 62
     0
 10
0.0
 20
0.0
 30
0.0
 11
0.1
 21
0.0
 31
0.0
  0
LINE
  5
601
  8
0
  6
CONTINUOUS
 62
     0
 10
0.0
 20
0.1
 30
0.0
 11
0.0
 21
0.12
 31
0.0
  0
LINE
  5
602
  8
0
  6
CONTINUOUS
 62
     0
 10
-0.1
 20
0.0
 30
0.0
 11
-0.12
 21
0.0
 31
0.0
  0
LINE
  5
603
  8
0
  6
CONTINUOUS
 62
     0
 10
0.0
 20
-0.1
 30
0.0
 11
0.0
 21
-0.12
 31
0.0
  0
LINE
  5
604
  8
0
  6
CONTINUOUS
 62
     0
 10
0.1
 20
0.0
 30
0.0
 11
0.12
 21
0.0
 31
0.0
  0
ENDBLK
  5
5FC
  8
0
  0
BLOCK
  8
0
  2
SW_CENTERMARKSYMBOL_106
 70
     0
 10
0.0
 20
0.0
 30
0.0
  3
SW_CENTERMARKSYMBOL_106
  1

  0
LINE
  5
609
  8
0
  6
CONTINUOUS
 62
     0
 10
0.0
 20
0.0
 30
0.0
 11
0.0
 21
0.1
 31
0.0
  0
LINE
  5
60A
  8
0
  6
CONTINUOUS
 62
     0
 10
0.0
 20
0.0
 30
0.0
 11
-0.1
 21
0.0
 31
0.0
  0
LINE
  5
60B
  8
0
  6
CONTINUOUS
 62
     0
 10
0.0
 20
0.0
 30
0.0
 11
0.0
 21
-0.1
 31
0.0
  0
LINE
  5
60C
  8
0
  6
CONTINUOUS
 62
     0
 10
0.0
 20
0.0
 30
0.0
 11
0.1
 21
0.0
 31
0.0
  0
LINE
  5
60D
  8
0
  6
CONTINUOUS
 62
     0
 10
0.0
 20
0.1
 30
0.0
 11
0.0
 21
0.13125
 31
0.0
  0
LINE
  5
60E
  8
0
  6
CONTINUOUS
 62
     0
 10
-0.1
 20
0.0
 30
0.0
 11
-0.13125
 21
0.0
 31
0.0
  0
LINE
  5
60F
  8
0
  6
CONTINUOUS
 62
     0
 10
0.0
 20
-0.1
 30
0.0
 11
0.0
 21
-0.13125
 31
0.0
  0
LINE
  5
610
  8
0
  6
CONTINUOUS
 62
     0
 10
0.1
 20
0.0
 30
0.0
 11
0.13125
 21
0.0
 31
0.0
  0
ENDBLK
  5
608
  8
0
  0
BLOCK
  8
0
  2
SW_CENTERMARKSYMBOL_107
 70
     0
 10
0.0
 20
0.0
 30
0.0
  3
SW_CENTERMARKSYMBOL_107
  1

  0
LINE
  5
615
  8
0
  6
CONTINUOUS
 62
     0
 10
0.0
 20
0.0
 30
0.0
 11
0.0
 21
0.1
 31
0.0
  0
LINE
  5
616
  8
0
  6
CONTINUOUS
 62
     0
 10
0.0
 20
0.0
 30
0.0
 11
-0.1
 21
0.0
 31
0.0
  0
LINE
  5
617
  8
0
  6
CONTINUOUS
 62
     0
 10
0.0
 20
0.0
 30
0.0
 11
0.0
 21
-0.1
 31
0.0
  0
LINE
  5
618
  8
0
  6
CONTINUOUS
 62
     0
 10
0.0
 20
0.0
 30
0.0
 11
0.1
 21
0.0
 31
0.0
  0
LINE
  5
619
  8
0
  6
CONTINUOUS
 62
     0
 10
0.0
 20
0.1
 30
0.0
 11
0.0
 21
0.13125
 31
0.0
  0
LINE
  5
61A
  8
0
  6
CONTINUOUS
 62
     0
 10
-0.1
 20
0.0
 30
0.0
 11
-0.13125
 21
0.0
 31
0.0
  0
LINE
  5
61B
  8
0
  6
CONTINUOUS
 62
     0
 10
0.0
 20
-0.1
 30
0.0
 11
0.0
 21
-0.13125
 31
0.0
  0
LINE
  5
61C
  8
0
  6
CONTINUOUS
 62
     0
 10
0.1
 20
0.0
 30
0.0
 11
0.13125
 21
0.0
 31
0.0
  0
ENDBLK
  5
614
  8
0
  0
BLOCK
  8
0
  2
SW_CENTERMARKSYMBOL_108
 70
     0
 10
0.0
 20
0.0
 30
0.0
  3
SW_CENTERMARKSYMBOL_108
  1

  0
LINE
  5
621
  8
0
  6
CONTINUOUS
 62
     0
 10
0.0
 20
0.0
 30
0.0
 11
0.0
 21
0.1
 31
0.0
  0
LINE
  5
622
  8
0
  6
CONTINUOUS
 62
     0
 10
0.0
 20
0.0
 30
0.0
 11
-0.1
 21
0.0
 31
0.0
  0
LINE
  5
623
  8
0
  6
CONTINUOUS
 62
     0
 10
0.0
 20
0.0
 30
0.0
 11
0.0
 21
-0.1
 31
0.0
  0
LINE
  5
624
  8
0
  6
CONTINUOUS
 62
     0
 10
0.0
 20
0.0
 30
0.0
 11
0.1
 21
0.0
 31
0.0
  0
LINE
  5
625
  8
0
  6
CONTINUOUS
 62
     0
 10
0.0
 20
0.1
 30
0.0
 11
0.0
 21
0.13125
 31
0.0
  0
LINE
  5
626
  8
0
  6
CONTINUOUS
 62
     0
 10
-0.1
 20
0.0
 30
0.0
 11
-0.13125
 21
0.0
 31
0.0
  0
LINE
  5
627
  8
0
  6
CONTINUOUS
 62
     0
 10
0.0
 20
-0.1
 30
0.0
 11
0.0
 21
-0.13125
 31
0.0
  0
LINE
  5
628
  8
0
  6
CONTINUOUS
 62
     0
 10
0.1
 20
0.0
 30
0.0
 11
0.13125
 21
0.0
 31
0.0
  0
ENDBLK
  5
620
  8
0
  0
BLOCK
  8
0
  2
SW_CENTERMARKSYMBOL_109
 70
     0
 10
0.0
 20
0.0
 30
0.0
  3
SW_CENTERMARKSYMBOL_109
  1

  0
LINE
  5
62D
  8
0
  6
CONTINUOUS
 62
     0
 10
0.0
 20
0.0
 30
0.0
 11
0.0
 21
0.1
 31
0.0
  0
LINE
  5
62E
  8
0
  6
CONTINUOUS
 62
     0
 10
0.0
 20
0.0
 30
0.0
 11
-0.1
 21
0.0
 31
0.0
  0
LINE
  5
62F
  8
0
  6
CONTINUOUS
 62
     0
 10
0.0
 20
0.0
 30
0.0
 11
0.0
 21
-0.1
 31
0.0
  0
LINE
  5
630
  8
0
  6
CONTINUOUS
 62
     0
 10
0.0
 20
0.0
 30
0.0
 11
0.1
 21
0.0
 31
0.0
  0
LINE
  5
631
  8
0
  6
CONTINUOUS
 62
     0
 10
0.0
 20
0.1
 30
0.0
 11
0.0
 21
0.13125
 31
0.0
  0
LINE
  5
632
  8
0
  6
CONTINUOUS
 62
     0
 10
-0.1
 20
0.0
 30
0.0
 11
-0.13125
 21
0.0
 31
0.0
  0
LINE
  5
633
  8
0
  6
CONTINUOUS
 62
     0
 10
0.0
 20
-0.1
 30
0.0
 11
0.0
 21
-0.13125
 31
0.0
  0
LINE
  5
634
  8
0
  6
CONTINUOUS
 62
     0
 10
0.1
 20
0.0
 30
0.0
 11
0.13125
 21
0.0
 31
0.0
  0
ENDBLK
  5
62C
  8
0
  0
BLOCK
  8
0
  2
SW_CENTERMARKSYMBOL_110
 70
     0
 10
0.0
 20
0.0
 30
0.0
  3
SW_CENTERMARKSYMBOL_110
  1

  0
LINE
  5
639
  8
0
  6
CONTINUOUS
 62
     0
 10
0.0
 20
0.0
 30
0.0
 11
0.0
 21
0.1
 31
0.0
  0
LINE
  5
63A
  8
0
  6
CONTINUOUS
 62
     0
 10
0.0
 20
0.0
 30
0.0
 11
-0.1
 21
0.0
 31
0.0
  0
LINE
  5
63B
  8
0
  6
CONTINUOUS
 62
     0
 10
0.0
 20
0.0
 30
0.0
 11
0.0
 21
-0.1
 31
0.0
  0
LINE
  5
63C
  8
0
  6
CONTINUOUS
 62
     0
 10
0.0
 20
0.0
 30
0.0
 11
0.1
 21
0.0
 31
0.0
  0
LINE
  5
63D
  8
0
  6
CONTINUOUS
 62
     0
 10
0.0
 20
0.1
 30
0.0
 11
0.0
 21
0.12
 31
0.0
  0
LINE
  5
63E
  8
0
  6
CONTINUOUS
 62
     0
 10
-0.1
 20
0.0
 30
0.0
 11
-0.12
 21
0.0
 31
0.0
  0
LINE
  5
63F
  8
0
  6
CONTINUOUS
 62
     0
 10
0.0
 20
-0.1
 30
0.0
 11
0.0
 21
-0.12
 31
0.0
  0
LINE
  5
640
  8
0
  6
CONTINUOUS
 62
     0
 10
0.1
 20
0.0
 30
0.0
 11
0.12
 21
0.0
 31
0.0
  0
ENDBLK
  5
638
  8
0
  0
BLOCK
  8
0
  2
SW_CENTERMARKSYMBOL_111
 70
     0
 10
0.0
 20
0.0
 30
0.0
  3
SW_CENTERMARKSYMBOL_111
  1

  0
LINE
  5
645
  8
0
  6
CONTINUOUS
 62
     0
 10
0.0
 20
0.0
 30
0.0
 11
0.0
 21
0.1
 31
0.0
  0
LINE
  5
646
  8
0
  6
CONTINUOUS
 62
     0
 10
0.0
 20
0.0
 30
0.0
 11
-0.1
 21
0.0
 31
0.0
  0
LINE
  5
647
  8
0
  6
CONTINUOUS
 62
     0
 10
0.0
 20
0.0
 30
0.0
 11
0.0
 21
-0.1
 31
0.0
  0
LINE
  5
648
  8
0
  6
CONTINUOUS
 62
     0
 10
0.0
 20
0.0
 30
0.0
 11
0.1
 21
0.0
 31
0.0
  0
LINE
  5
649
  8
0
  6
CONTINUOUS
 62
     0
 10
0.0
 20
0.1
 30
0.0
 11
0.0
 21
0.13125
 31
0.0
  0
LINE
  5
64A
  8
0
  6
CONTINUOUS
 62
     0
 10
-0.1
 20
0.0
 30
0.0
 11
-0.13125
 21
0.0
 31
0.0
  0
LINE
  5
64B
  8
0
  6
CONTINUOUS
 62
     0
 10
0.0
 20
-0.1
 30
0.0
 11
0.0
 21
-0.13125
 31
0.0
  0
LINE
  5
64C
  8
0
  6
CONTINUOUS
 62
     0
 10
0.1
 20
0.0
 30
0.0
 11
0.13125
 21
0.0
 31
0.0
  0
ENDBLK
  5
644
  8
0
  0
BLOCK
  8
0
  2
SW_CENTERMARKSYMBOL_112
 70
     0
 10
0.0
 20
0.0
 30
0.0
  3
SW_CENTERMARKSYMBOL_112
  1

  0
LINE
  5
651
  8
0
  6
CONTINUOUS
 62
     0
 10
0.0
 20
0.0
 30
0.0
 11
0.0
 21
0.1
 31
0.0
  0
LINE
  5
652
  8
0
  6
CONTINUOUS
 62
     0
 10
0.0
 20
0.0
 30
0.0
 11
-0.1
 21
0.0
 31
0.0
  0
LINE
  5
653
  8
0
  6
CONTINUOUS
 62
     0
 10
0.0
 20
0.0
 30
0.0
 11
0.0
 21
-0.1
 31
0.0
  0
LINE
  5
654
  8
0
  6
CONTINUOUS
 62
     0
 10
0.0
 20
0.0
 30
0.0
 11
0.1
 21
0.0
 31
0.0
  0
LINE
  5
655
  8
0
  6
CONTINUOUS
 62
     0
 10
0.0
 20
0.1
 30
0.0
 11
0.0
 21
0.1493700787
 31
0.0
  0
LINE
  5
656
  8
0
  6
CONTINUOUS
 62
     0
 10
-0.1
 20
0.0
 30
0.0
 11
-0.1493700787
 21
0.0
 31
0.0
  0
LINE
  5
657
  8
0
  6
CONTINUOUS
 62
     0
 10
0.0
 20
-0.1
 30
0.0
 11
0.0
 21
-0.1493700787
 31
0.0
  0
LINE
  5
658
  8
0
  6
CONTINUOUS
 62
     0
 10
0.1
 20
0.0
 30
0.0
 11
0.1493700787
 21
0.0
 31
0.0
  0
ENDBLK
  5
650
  8
0
  0
BLOCK
  8
0
  2
SW_CENTERMARKSYMBOL_113
 70
     0
 10
0.0
 20
0.0
 30
0.0
  3
SW_CENTERMARKSYMBOL_113
  1

  0
LINE
  5
65D
  8
0
  6
CONTINUOUS
 62
     0
 10
0.0
 20
0.0
 30
0.0
 11
0.0
 21
0.1
 31
0.0
  0
LINE
  5
65E
  8
0
  6
CONTINUOUS
 62
     0
 10
0.0
 20
0.0
 30
0.0
 11
-0.1
 21
0.0
 31
0.0
  0
LINE
  5
65F
  8
0
  6
CONTINUOUS
 62
     0
 10
0.0
 20
0.0
 30
0.0
 11
0.0
 21
-0.1
 31
0.0
  0
LINE
  5
660
  8
0
  6
CONTINUOUS
 62
     0
 10
0.0
 20
0.0
 30
0.0
 11
0.1
 21
0.0
 31
0.0
  0
LINE
  5
661
  8
0
  6
CONTINUOUS
 62
     0
 10
0.0
 20
0.1
 30
0.0
 11
0.0
 21
0.1493700787
 31
0.0
  0
LINE
  5
662
  8
0
  6
CONTINUOUS
 62
     0
 10
-0.1
 20
0.0
 30
0.0
 11
-0.1493700787
 21
0.0
 31
0.0
  0
LINE
  5
663
  8
0
  6
CONTINUOUS
 62
     0
 10
0.0
 20
-0.1
 30
0.0
 11
0.0
 21
-0.1493700787
 31
0.0
  0
LINE
  5
664
  8
0
  6
CONTINUOUS
 62
     0
 10
0.1
 20
0.0
 30
0.0
 11
0.1493700787
 21
0.0
 31
0.0
  0
ENDBLK
  5
65C
  8
0
  0
ENDSEC
  0
SECTION
  2
ENTITIES
  0
LINE
  5
41
  8
0
  6
CENTERX2
 62
     7
 10
-0.0008267043
 20
0.0001079551
 30
0.0
 11
-0.0008267043
 21
-1.7300343999
 31
0.0
  0
POINT
  5
42
  8
0
  6
CONTINUOUS
 62
     7
 10
-0.0008267043
 20
-2.4592723389
 30
0.0
  0
ARC
  5
43
  8
0
  6
CONTINUOUS
 62
     7
 10
0.8397638469
 20
-5.0845026011
 30
0.0
 40
0.0312500000000002
 50
180.0
 51
300.6795655493
  0
LINE
  5
44
  8
0
  6
CONTINUOUS
 62
     7
 10
-2.7523267043
 20
-5.6678998709
 30
0.0
 11
-2.7523267043
 21
-1.8184227475
 31
0.0
  0
CIRCLE
  5
45
  8
0
  6
CONTINUOUS
 62
     7
 10
2.4420866815
 20
-0.2589475909
 30
0.0
 40
0.049370078740158
  0
CIRCLE
  5
46
  8
0
  6
CONTINUOUS
 62
     7
 10
-2.4437400901
 20
-0.2589475909
 30
0.0
 40
0.0493700787401566
  0
CIRCLE
  5
47
  8
0
  6
CONTINUOUS
 62
     7
 10
2.0424803823
 20
-0.2196759374
 30
0.0
 40
0.0312500000000009
  0
CIRCLE
  5
48
  8
0
  6
CONTINUOUS
 62
     7
 10
0.1330315634
 20
-0.2196759374
 30
0.0
 40
0.0199999999999992
  0
CIRCLE
  5
49
  8
0
  6
CONTINUOUS
 62
     7
 10
0.270826839
 20
-0.2196759374
 30
0.0
 40
0.0312500000000004
  0
CIRCLE
  5
4A
  8
0
  6
CONTINUOUS
 62
     7
 10
2.1881496737
 20
-0.2196759374
 30
0.0
 40
0.0312500000000009
  0
CIRCLE
  5
4B
  8
0
  6
CONTINUOUS
 62
     7
 10
0.4164961303
 20
-0.2196759374
 30
0.0
 40
0.0312499999999998
  0
CIRCLE
  5
4C
  8
0
  6
CONTINUOUS
 62
     7
 10
-2.1898030823
 20
-0.2196759374
 30
0.0
 40
0.0312499999999996
  0
CIRCLE
  5
4D
  8
0
  6
CONTINUOUS
 62
     7
 10
-1.9063385153
 20
-0.2196759374
 30
0.0
 40
0.0200000000000003
  0
CIRCLE
  5
4E
  8
0
  6
CONTINUOUS
 62
     7
 10
-2.1898030823
 20
-0.0228255437
 30
0.0
 40
0.0312500000000004
  0
LINE
  5
4F
  8
0
  6
CONTINUOUS
 62
     7
 10
-2.5342912712
 20
-0.1685538901
 30
0.0
 11
-2.6209054445
 21
-0.1685538901
 31
0.0
  0
CIRCLE
  5
50
  8
0
  6
CONTINUOUS
 62
     7
 10
-2.0441337909
 20
-0.1212507405
 30
0.0
 40
0.0312500000000001
  0
CIRCLE
  5
51
  8
0
  6
CONTINUOUS
 62
     7
 10
-2.1898030823
 20
-0.1212507405
 30
0.0
 40
0.0312499999999996
  0
CIRCLE
  5
52
  8
0
  6
CONTINUOUS
 62
     7
 10
-2.0441337909
 20
-0.2196759374
 30
0.0
 40
0.0312500000000001
  0
CIRCLE
  5
53
  8
0
  6
CONTINUOUS
 62
     7
 10
2.0424803823
 20
-0.1212507405
 30
0.0
 40
0.0312500000000009
  0
CIRCLE
  5
54
  8
0
  6
CONTINUOUS
 62
     7
 10
0.270826839
 20
-0.1212507405
 30
0.0
 40
0.0312500000000004
  0
CIRCLE
  5
55
  8
0
  6
CONTINUOUS
 62
     7
 10
2.1881496737
 20
-0.1212507405
 30
0.0
 40
0.0312499999999998
  0
CIRCLE
  5
56
  8
0
  6
CONTINUOUS
 62
     7
 10
0.4164961303
 20
-0.1212507405
 30
0.0
 40
0.0312500000000009
  0
CIRCLE
  5
57
  8
0
  6
CONTINUOUS
 62
     7
 10
0.4164961303
 20
0.0755996532
 30
0.0
 40
0.0312500000000009
  0
CIRCLE
  5
58
  8
0
  6
CONTINUOUS
 62
     7
 10
2.0424803823
 20
-0.0228255437
 30
0.0
 40
0.031250000000002
  0
CIRCLE
  5
59
  8
0
  6
CONTINUOUS
 62
     7
 10
0.270826839
 20
-0.0228255437
 30
0.0
 40
0.0312500000000004
  0
CIRCLE
  5
5A
  8
0
  6
CONTINUOUS
 62
     7
 10
2.1881496737
 20
-0.0228255437
 30
0.0
 40
0.0312499999999998
  0
CIRCLE
  5
5B
  8
0
  6
CONTINUOUS
 62
     7
 10
0.4164961303
 20
-0.0228255437
 30
0.0
 40
0.031250000000002
  0
CIRCLE
  5
5C
  8
0
  6
CONTINUOUS
 62
     7
 10
-2.0441337909
 20
0.0755996532
 30
0.0
 40
0.0312499999999993
  0
CIRCLE
  5
5D
  8
0
  6
CONTINUOUS
 62
     7
 10
-2.1898030823
 20
0.0755996532
 30
0.0
 40
0.0312500000000004
  0
CIRCLE
  5
5E
  8
0
  6
CONTINUOUS
 62
     7
 10
-2.0441337909
 20
-0.0228255437
 30
0.0
 40
0.031249999999999
  0
CIRCLE
  5
5F
  8
0
  6
CONTINUOUS
 62
     7
 10
-1.4142125311
 20
-0.2196759374
 30
0.0
 40
0.0200000000000003
  0
CIRCLE
  5
60
  8
0
  6
CONTINUOUS
 62
     7
 10
-1.5126377279
 20
-0.2196759374
 30
0.0
 40
0.0200000000000004
  0
CIRCLE
  5
61
  8
0
  6
CONTINUOUS
 62
     7
 10
-1.6110629248
 20
-0.2196759374
 30
0.0
 40
0.0199999999999992
  0
CIRCLE
  5
62
  8
0
  6
CONTINUOUS
 62
     7
 10
-1.7094881216
 20
-0.2196759374
 30
0.0
 40
0.0200000000000004
  0
CIRCLE
  5
63
  8
0
  6
CONTINUOUS
 62
     7
 10
-1.8079133185
 20
-0.2196759374
 30
0.0
 40
0.0200000000000003
  0
CIRCLE
  5
64
  8
0
  6
CONTINUOUS
 62
     7
 10
0.270826839
 20
0.0755996532
 30
0.0
 40
0.0312500000000004
  0
CIRCLE
  5
65
  8
0
  6
CONTINUOUS
 62
     7
 10
1.9046851067
 20
-0.2196759374
 30
0.0
 40
0.0200000000000003
  0
CIRCLE
  5
66
  8
0
  6
CONTINUOUS
 62
     7
 10
2.1881496737
 20
0.0755996532
 30
0.0
 40
0.0312499999999998
  0
CIRCLE
  5
67
  8
0
  6
CONTINUOUS
 62
     7
 10
-1.8079133185
 20
-0.0228255437
 30
0.0
 40
0.0200000000000003
  0
CIRCLE
  5
68
  8
0
  6
CONTINUOUS
 62
     7
 10
-1.9063385153
 20
-0.0228255437
 30
0.0
 40
0.0199999999999981
  0
CIRCLE
  5
69
  8
0
  6
CONTINUOUS
 62
     7
 10
-1.4142125311
 20
-0.1212507405
 30
0.0
 40
0.0199999999999992
  0
CIRCLE
  5
6A
  8
0
  6
CONTINUOUS
 62
     7
 10
-1.5126377279
 20
-0.1212507405
 30
0.0
 40
0.0199999999999992
  0
CIRCLE
  5
6B
  8
0
  6
CONTINUOUS
 62
     7
 10
-1.6110629248
 20
-0.1212507405
 30
0.0
 40
0.0200000000000003
  0
CIRCLE
  5
6C
  8
0
  6
CONTINUOUS
 62
     7
 10
-1.7094881216
 20
-0.1212507405
 30
0.0
 40
0.0200000000000003
  0
CIRCLE
  5
6D
  8
0
  6
CONTINUOUS
 62
     7
 10
-1.8079133185
 20
-0.1212507405
 30
0.0
 40
0.0200000000000003
  0
CIRCLE
  5
6E
  8
0
  6
CONTINUOUS
 62
     7
 10
-1.9063385153
 20
-0.1212507405
 30
0.0
 40
0.0199999999999992
  0
CIRCLE
  5
6F
  8
0
  6
CONTINUOUS
 62
     7
 10
-1.6110629248
 20
0.0755996532
 30
0.0
 40
0.0200000000000003
  0
CIRCLE
  5
70
  8
0
  6
CONTINUOUS
 62
     7
 10
-1.7094881216
 20
0.0755996532
 30
0.0
 40
0.0199999999999992
  0
CIRCLE
  5
71
  8
0
  6
CONTINUOUS
 62
     7
 10
-1.8079133185
 20
0.0755996532
 30
0.0
 40
0.0200000000000003
  0
CIRCLE
  5
72
  8
0
  6
CONTINUOUS
 62
     7
 10
-1.9063385153
 20
0.0755996532
 30
0.0
 40
0.0200000000000003
  0
CIRCLE
  5
73
  8
0
  6
CONTINUOUS
 62
     7
 10
-1.4142125311
 20
-0.0228255437
 30
0.0
 40
0.0200000000000003
  0
CIRCLE
  5
74
  8
0
  6
CONTINUOUS
 62
     7
 10
-1.5126377279
 20
-0.0228255437
 30
0.0
 40
0.0200000000000003
  0
CIRCLE
  5
75
  8
0
  6
CONTINUOUS
 62
     7
 10
-1.6110629248
 20
-0.0228255437
 30
0.0
 40
0.0200000000000003
  0
CIRCLE
  5
76
  8
0
  6
CONTINUOUS
 62
     7
 10
-1.7094881216
 20
-0.0228255437
 30
0.0
 40
0.0200000000000003
  0
CIRCLE
  5
77
  8
0
  6
CONTINUOUS
 62
     7
 10
1.4125591225
 20
-0.2196759374
 30
0.0
 40
0.0199999999999987
  0
CIRCLE
  5
78
  8
0
  6
CONTINUOUS
 62
     7
 10
1.5109843193
 20
-0.2196759374
 30
0.0
 40
0.0199999999999998
  0
CIRCLE
  5
79
  8
0
  6
CONTINUOUS
 62
     7
 10
1.6094095162
 20
-0.2196759374
 30
0.0
 40
0.0200000000000004
  0
CIRCLE
  5
7A
  8
0
  6
CONTINUOUS
 62
     7
 10
1.707834713
 20
-0.2196759374
 30
0.0
 40
0.0200000000000004
  0
CIRCLE
  5
7B
  8
0
  6
CONTINUOUS
 62
     7
 10
1.8062599099
 20
-0.2196759374
 30
0.0
 40
0.0200000000000004
  0
CIRCLE
  5
7C
  8
0
  6
CONTINUOUS
 62
     7
 10
2.0424803823
 20
0.0755996532
 30
0.0
 40
0.0312500000000009
  0
CIRCLE
  5
7D
  8
0
  6
CONTINUOUS
 62
     7
 10
-1.4142125311
 20
0.0755996532
 30
0.0
 40
0.0199999999999992
  0
CIRCLE
  5
7E
  8
0
  6
CONTINUOUS
 62
     7
 10
-1.5126377279
 20
0.0755996532
 30
0.0
 40
0.0200000000000003
  0
CIRCLE
  5
7F
  8
0
  6
CONTINUOUS
 62
     7
 10
1.8062599099
 20
-0.0228255437
 30
0.0
 40
0.0200000000000003
  0
CIRCLE
  5
80
  8
0
  6
CONTINUOUS
 62
     7
 10
1.9046851067
 20
-0.0228255437
 30
0.0
 40
0.0200000000000003
  0
CIRCLE
  5
81
  8
0
  6
CONTINUOUS
 62
     7
 10
1.4125591225
 20
-0.1212507405
 30
0.0
 40
0.0200000000000003
  0
CIRCLE
  5
82
  8
0
  6
CONTINUOUS
 62
     7
 10
1.5109843193
 20
-0.1212507405
 30
0.0
 40
0.0200000000000003
  0
CIRCLE
  5
83
  8
0
  6
CONTINUOUS
 62
     7
 10
1.6094095162
 20
-0.1212507405
 30
0.0
 40
0.0200000000000003
  0
CIRCLE
  5
84
  8
0
  6
CONTINUOUS
 62
     7
 10
1.707834713
 20
-0.1212507405
 30
0.0
 40
0.0199999999999998
  0
CIRCLE
  5
85
  8
0
  6
CONTINUOUS
 62
     7
 10
1.8062599099
 20
-0.1212507405
 30
0.0
 40
0.0200000000000003
  0
CIRCLE
  5
86
  8
0
  6
CONTINUOUS
 62
     7
 10
1.9046851067
 20
-0.1212507405
 30
0.0
 40
0.0199999999999829
  0
CIRCLE
  5
87
  8
0
  6
CONTINUOUS
 62
     7
 10
1.6094095162
 20
0.0755996532
 30
0.0
 40
0.0199999999999987
  0
CIRCLE
  5
88
  8
0
  6
CONTINUOUS
 62
     7
 10
1.707834713
 20
0.0755996532
 30
0.0
 40
0.0200000000000003
  0
CIRCLE
  5
89
  8
0
  6
CONTINUOUS
 62
     7
 10
1.8062599099
 20
0.0755996532
 30
0.0
 40
0.0199999999999998
  0
CIRCLE
  5
8A
  8
0
  6
CONTINUOUS
 62
     7
 10
1.9046851067
 20
0.0755996532
 30
0.0
 40
0.0199999999999998
  0
CIRCLE
  5
8B
  8
0
  6
CONTINUOUS
 62
     7
 10
1.4125591225
 20
-0.0228255437
 30
0.0
 40
0.0200000000000003
  0
CIRCLE
  5
8C
  8
0
  6
CONTINUOUS
 62
     7
 10
1.5109843193
 20
-0.0228255437
 30
0.0
 40
0.0200000000000003
  0
CIRCLE
  5
8D
  8
0
  6
CONTINUOUS
 62
     7
 10
1.6094095162
 20
-0.0228255437
 30
0.0
 40
0.0199999999999998
  0
CIRCLE
  5
8E
  8
0
  6
CONTINUOUS
 62
     7
 10
1.707834713
 20
-0.0228255437
 30
0.0
 40
0.0200000000000003
  0
CIRCLE
  5
8F
  8
0
  6
CONTINUOUS
 62
     7
 10
-0.4575196177
 20
-0.2196759374
 30
0.0
 40
0.0200000000000003
  0
CIRCLE
  5
90
  8
0
  6
CONTINUOUS
 62
     7
 10
-0.3590944208
 20
-0.2196759374
 30
0.0
 40
0.0200000000000003
  0
CIRCLE
  5
91
  8
0
  6
CONTINUOUS
 62
     7
 10
-0.260669224
 20
-0.2196759374
 30
0.0
 40
0.0199999999999992
  0
CIRCLE
  5
92
  8
0
  6
CONTINUOUS
 62
     7
 10
-0.1622440271
 20
-0.2196759374
 30
0.0
 40
0.0199999999999982
  0
CIRCLE
  5
93
  8
0
  6
CONTINUOUS
 62
     7
 10
-0.0638188303
 20
-0.2196759374
 30
0.0
 40
0.0200000000000004
  0
CIRCLE
  5
94
  8
0
  6
CONTINUOUS
 62
     7
 10
0.0346063666
 20
-0.2196759374
 30
0.0
 40
0.0199999999999992
  0
CIRCLE
  5
95
  8
0
  6
CONTINUOUS
 62
     7
 10
1.4125591225
 20
0.0755996532
 30
0.0
 40
0.0200000000000003
  0
CIRCLE
  5
96
  8
0
  6
CONTINUOUS
 62
     7
 10
1.5109843193
 20
0.0755996532
 30
0.0
 40
0.0199999999999998
  0
CIRCLE
  5
97
  8
0
  6
CONTINUOUS
 62
     7
 10
-0.260669224
 20
-0.1212507405
 30
0.0
 40
0.0199999999999992
  0
CIRCLE
  5
98
  8
0
  6
CONTINUOUS
 62
     7
 10
-0.1622440271
 20
-0.1212507405
 30
0.0
 40
0.0199999999999992
  0
CIRCLE
  5
99
  8
0
  6
CONTINUOUS
 62
     7
 10
-0.0638188303
 20
-0.1212507405
 30
0.0
 40
0.0200000000000003
  0
CIRCLE
  5
9A
  8
0
  6
CONTINUOUS
 62
     7
 10
0.0346063666
 20
-0.1212507405
 30
0.0
 40
0.0199999999999992
  0
CIRCLE
  5
9B
  8
0
  6
CONTINUOUS
 62
     7
 10
0.1330315634
 20
-0.1212507405
 30
0.0
 40
0.0200000000000692
  0
CIRCLE
  5
9C
  8
0
  6
CONTINUOUS
 62
     7
 10
-0.7527952082
 20
-0.2196759374
 30
0.0
 40
0.0199999999999992
  0
CIRCLE
  5
9D
  8
0
  6
CONTINUOUS
 62
     7
 10
-0.6543700114
 20
-0.2196759374
 30
0.0
 40
0.0200000000000004
  0
CIRCLE
  5
9E
  8
0
  6
CONTINUOUS
 62
     7
 10
-0.5559448145
 20
-0.2196759374
 30
0.0
 40
0.0199999999999992
  0
CIRCLE
  5
9F
  8
0
  6
CONTINUOUS
 62
     7
 10
-0.0638188303
 20
-0.0228255437
 30
0.0
 40
0.0200000000000003
  0
CIRCLE
  5
A0
  8
0
  6
CONTINUOUS
 62
     7
 10
0.0346063666
 20
-0.0228255437
 30
0.0
 40
0.0200000000000003
  0
CIRCLE
  5
A1
  8
0
  6
CONTINUOUS
 62
     7
 10
0.1330315634
 20
-0.0228255437
 30
0.0
 40
0.0199999999999992
  0
CIRCLE
  5
A2
  8
0
  6
CONTINUOUS
 62
     7
 10
-0.7527952082
 20
-0.1212507405
 30
0.0
 40
0.0199999999999992
  0
CIRCLE
  5
A3
  8
0
  6
CONTINUOUS
 62
     7
 10
-0.6543700114
 20
-0.1212507405
 30
0.0
 40
0.0200000000000003
  0
CIRCLE
  5
A4
  8
0
  6
CONTINUOUS
 62
     7
 10
-0.5559448145
 20
-0.1212507405
 30
0.0
 40
0.0199999999999981
  0
CIRCLE
  5
A5
  8
0
  6
CONTINUOUS
 62
     7
 10
-0.4575196177
 20
-0.1212507405
 30
0.0
 40
0.0199999999999992
  0
CIRCLE
  5
A6
  8
0
  6
CONTINUOUS
 62
     7
 10
-0.3590944208
 20
-0.1212507405
 30
0.0
 40
0.0200000000000003
  0
CIRCLE
  5
A7
  8
0
  6
CONTINUOUS
 62
     7
 10
0.1330315634
 20
0.0755996532
 30
0.0
 40
0.0200000000000003
  0
CIRCLE
  5
A8
  8
0
  6
CONTINUOUS
 62
     7
 10
-0.7527952082
 20
-0.0228255437
 30
0.0
 40
0.0200000000000003
  0
CIRCLE
  5
A9
  8
0
  6
CONTINUOUS
 62
     7
 10
-0.6543700114
 20
-0.0228255437
 30
0.0
 40
0.0200000000000003
  0
CIRCLE
  5
AA
  8
0
  6
CONTINUOUS
 62
     7
 10
-0.5559448145
 20
-0.0228255437
 30
0.0
 40
0.0200000000000003
  0
CIRCLE
  5
AB
  8
0
  6
CONTINUOUS
 62
     7
 10
-0.4575196177
 20
-0.0228255437
 30
0.0
 40
0.0199999999999992
  0
CIRCLE
  5
AC
  8
0
  6
CONTINUOUS
 62
     7
 10
-0.3590944208
 20
-0.0228255437
 30
0.0
 40
0.0199999999999992
  0
CIRCLE
  5
AD
  8
0
  6
CONTINUOUS
 62
     7
 10
-0.260669224
 20
-0.0228255437
 30
0.0
 40
0.0200000000000003
  0
CIRCLE
  5
AE
  8
0
  6
CONTINUOUS
 62
     7
 10
-0.1622440271
 20
-0.0228255437
 30
0.0
 40
0.0200000000000003
  0
CIRCLE
  5
AF
  8
0
  6
CONTINUOUS
 62
     7
 10
-0.6543700114
 20
0.0755996532
 30
0.0
 40
0.0200000000000003
  0
CIRCLE
  5
B0
  8
0
  6
CONTINUOUS
 62
     7
 10
-0.5559448145
 20
0.0755996532
 30
0.0
 40
0.0199999999999992
  0
CIRCLE
  5
B1
  8
0
  6
CONTINUOUS
 62
     7
 10
-0.4575196177
 20
0.0755996532
 30
0.0
 40
0.0200000000000003
  0
CIRCLE
  5
B2
  8
0
  6
CONTINUOUS
 62
     7
 10
-0.3590944208
 20
0.0755996532
 30
0.0
 40
0.0199999999999981
  0
CIRCLE
  5
B3
  8
0
  6
CONTINUOUS
 62
     7
 10
-0.260669224
 20
0.0755996532
 30
0.0
 40
0.0199999999999981
  0
CIRCLE
  5
B4
  8
0
  6
CONTINUOUS
 62
     7
 10
-0.1622440271
 20
0.0755996532
 30
0.0
 40
0.0200000000000003
  0
CIRCLE
  5
B5
  8
0
  6
CONTINUOUS
 62
     7
 10
-0.0638188303
 20
0.0755996532
 30
0.0
 40
0.0199999999999992
  0
CIRCLE
  5
B6
  8
0
  6
CONTINUOUS
 62
     7
 10
0.0346063666
 20
0.0755996532
 30
0.0
 40
0.0200000000000003
  0
CIRCLE
  5
B7
  8
0
  6
CONTINUOUS
 62
     7
 10
-0.7527952082
 20
0.0755996532
 30
0.0
 40
0.0200000000000003
  0
LINE
  5
B8
  8
0
  6
CONTINUOUS
 62
     7
 10
0.7314567603
 20
0.1109736689
 30
0.0
 11
0.6527166028
 21
0.1109736689
 31
0.0
  0
LINE
  5
B9
  8
0
  6
CONTINUOUS
 62
     7
 10
2.6192520359
 20
-0.1685538901
 30
0.0
 11
2.5326378626
 21
-0.1685538901
 31
0.0
  0
LINE
  5
BA
  8
0
  6
CONTINUOUS
 62
     7
 10
-1.0183070193
 20
-5.0421660746
 30
0.0
 11
-1.0183070193
 21
-2.3901188305
 31
0.0
  0
LINE
  5
BB
  8
0
  6
CONTINUOUS
 62
     7
 10
2.7506732957
 20
-5.6678998709
 30
0.0
 11
-2.7523267043
 21
-5.6678998709
 31
0.0
  0
LINE
  5
BC
  8
0
  6
CONTINUOUS
 62
     7
 10
2.7506732957
 20
-1.8184227475
 30
0.0
 11
2.7506732957
 21
-5.6678998709
 31
0.0
  0
ARC
  5
BD
  8
0
  6
CONTINUOUS
 62
     7
 10
2.7948674695
 20
-1.7742285737
 30
0.0
 40
0.0624999999999989
 50
45.0
 51
225.0
  0
LINE
  5
BE
  8
0
  6
CONTINUOUS
 62
     7
 10
3.0869407427
 20
-1.7300343999
 30
0.0
 11
2.8390616433
 21
-1.7300343999
 31
0.0
  0
LINE
  5
BF
  8
0
  6
CONTINUOUS
 62
     7
 10
3.1058974756
 20
0.4422747356
 30
0.0
 11
3.0869407427
 21
-1.7300343999
 31
0.0
  0
LINE
  5
C0
  8
0
  6
CONTINUOUS
 62
     7
 10
3.0487184012
 20
0.4859803174
 30
0.0
 11
3.1058974756
 21
0.4422747356
 31
0.0
  0
ARC
  5
C1
  8
0
  6
CONTINUOUS
 62
     7
 10
3.0866732957
 20
0.535635891
 30
0.0
 40
0.0625000000000013
 50
180.0
 51
232.6070337284
  0
LINE
  5
C2
  8
0
  6
CONTINUOUS
 62
     7
 10
3.0241732957
 20
0.7496847651
 30
0.0
 11
3.0241732957
 21
0.535635891
 31
0.0
  0
LINE
  5
C3
  8
0
  6
CONTINUOUS
 62
     7
 10
2.8365944828
 20
0.7496847651
 30
0.0
 11
3.0241732957
 21
0.7496847651
 31
0.0
  0
LINE
  5
C4
  8
0
  6
CONTINUOUS
 62
     7
 10
2.8365944828
 20
0.4634963027
 30
0.0
 11
2.8365944828
 21
0.7496847651
 31
0.0
  0
ARC
  5
C5
  8
0
  6
CONTINUOUS
 62
     7
 10
2.792400309
 20
0.4193021289
 30
0.0
 40
0.0624999999999995
 50
225.0
 51
45.0
  0
LINE
  5
C6
  8
0
  6
CONTINUOUS
 62
     7
 10
-2.7498595438
 20
0.3751079551
 30
0.0
 11
2.7482061352
 21
0.3751079551
 31
0.0
  0
ARC
  5
C7
  8
0
  6
CONTINUOUS
 62
     7
 10
-2.7940537176
 20
0.4193021289
 30
0.0
 40
0.0625000000000001
 50
135.0
 51
315.0
  0
LINE
  5
C8
  8
0
  6
CONTINUOUS
 62
     7
 10
-2.8382478914
 20
0.7496847651
 30
0.0
 11
-2.8382478914
 21
0.4634963027
 31
0.0
  0
LINE
  5
C9
  8
0
  6
CONTINUOUS
 62
     7
 10
-3.0258267043
 20
0.7496847651
 30
0.0
 11
-2.8382478914
 21
0.7496847651
 31
0.0
  0
LINE
  5
CA
  8
0
  6
CONTINUOUS
 62
     7
 10
-3.0258267043
 20
0.535635891
 30
0.0
 11
-3.0258267043
 21
0.7496847651
 31
0.0
  0
ARC
  5
CB
  8
0
  6
CONTINUOUS
 62
     7
 10
-3.0883267043
 20
0.535635891
 30
0.0
 40
0.0625000000000006
 50
307.3929662716
 51
0.0
  0
LINE
  5
CC
  8
0
  6
CONTINUOUS
 62
     7
 10
-3.1075508842
 20
0.4422747356
 30
0.0
 11
-3.0503718098
 21
0.4859803174
 31
0.0
  0
LINE
  5
CD
  8
0
  6
CONTINUOUS
 62
     7
 10
-3.0885941513
 20
-1.7300343999
 30
0.0
 11
-3.1075508842
 21
0.4422747356
 31
0.0
  0
LINE
  5
CE
  8
0
  6
CONTINUOUS
 62
     7
 10
-2.840715052
 20
-1.7300343999
 30
0.0
 11
-3.0885941513
 21
-1.7300343999
 31
0.0
  0
ARC
  5
CF
  8
0
  6
CONTINUOUS
 62
     7
 10
-2.7965208781
 20
-1.7742285737
 30
0.0
 40
0.0625000000000002
 50
315.0
 51
135.0
  0
ARC
  5
D0
  8
0
  6
CONTINUOUS
 62
     7
 10
-2.6209054445
 20
-0.1467428665
 30
0.0
 40
0.0218110236220475
 50
180.0
 51
270.0
  0
LINE
  5
D1
  8
0
  6
CONTINUOUS
 62
     7
 10
-2.6427164681
 20
-0.1467428665
 30
0.0
 11
-2.6427164681
 21
-0.068002709
 31
0.0
  0
ARC
  5
D2
  8
0
  6
CONTINUOUS
 62
     7
 10
-2.6209054445
 20
-0.068002709
 30
0.0
 40
0.021811023622047
 50
90.0
 51
180.0
  0
LINE
  5
D3
  8
0
  6
CONTINUOUS
 62
     7
 10
-2.6209054445
 20
-0.0461916854
 30
0.0
 11
-2.5342912712
 21
-0.0461916854
 31
0.0
  0
ARC
  5
D4
  8
0
  6
CONTINUOUS
 62
     7
 10
-2.5342912712
 20
-0.068002709
 30
0.0
 40
0.0218110236219653
 50
0.0
 51
90.0
  0
LINE
  5
D5
  8
0
  6
CONTINUOUS
 62
     7
 10
-2.5124802476
 20
-0.068002709
 30
0.0
 11
-2.5124802476
 21
-0.1467428665
 31
0.0
  0
ARC
  5
D6
  8
0
  6
CONTINUOUS
 62
     7
 10
-2.5342912712
 20
-0.1467428665
 30
0.0
 40
0.0218110236220352
 50
270.0000000002
 51
0.0000000002
  0
ARC
  5
D7
  8
0
  6
CONTINUOUS
 62
     7
 10
0.6527166028
 20
0.1327846926
 30
0.0
 40
0.0218110236220467
 50
180.0
 51
270.0
  0
LINE
  5
D8
  8
0
  6
CONTINUOUS
 62
     7
 10
0.6309055792
 20
0.1327846926
 30
0.0
 11
0.6309055792
 21
0.2193988658
 31
0.0
  0
ARC
  5
D9
  8
0
  6
CONTINUOUS
 62
     7
 10
0.6527166028
 20
0.2193988658
 30
0.0
 40
0.0218110236220483
 50
90.0
 51
180.0
  0
LINE
  5
DA
  8
0
  6
CONTINUOUS
 62
     7
 10
0.6527166028
 20
0.2412098894
 30
0.0
 11
0.7314567603
 21
0.2412098894
 31
0.0
  0
ARC
  5
DB
  8
0
  6
CONTINUOUS
 62
     7
 10
0.7314567603
 20
0.2193988658
 30
0.0
 40
0.0218110236220478
 50
360.0
 51
90.0
  0
LINE
  5
DC
  8
0
  6
CONTINUOUS
 62
     7
 10
0.7532677839
 20
0.2193988658
 30
0.0
 11
0.7532677839
 21
0.1327846926
 31
0.0
  0
ARC
  5
DD
  8
0
  6
CONTINUOUS
 62
     7
 10
0.7314567603
 20
0.1327846926
 30
0.0
 40
0.0218110236220467
 50
270.0
 51
360.0
  0
ARC
  5
DE
  8
0
  6
CONTINUOUS
 62
     7
 10
2.5326378626
 20
-0.1467428665
 30
0.0
 40
0.0218110236219652
 50
179.9999999997
 51
270.0
  0
LINE
  5
DF
  8
0
  6
CONTINUOUS
 62
     7
 10
2.510826839
 20
-0.1467428665
 30
0.0
 11
2.510826839
 21
-0.068002709
 31
0.0
  0
ARC
  5
E0
  8
0
  6
CONTINUOUS
 62
     7
 10
2.5326378626
 20
-0.068002709
 30
0.0
 40
0.0218110236220335
 50
90.0
 51
180.0
  0
LINE
  5
E1
  8
0
  6
CONTINUOUS
 62
     7
 10
2.5326378626
 20
-0.0461916854
 30
0.0
 11
2.6192520359
 21
-0.0461916854
 31
0.0
  0
ARC
  5
E2
  8
0
  6
CONTINUOUS
 62
     7
 10
2.6192520359
 20
-0.068002709
 30
0.0
 40
0.0218110236220475
 50
0.0
 51
90.0
  0
LINE
  5
E3
  8
0
  6
CONTINUOUS
 62
     7
 10
2.6410630595
 20
-0.068002709
 30
0.0
 11
2.6410630595
 21
-0.1467428665
 31
0.0
  0
ARC
  5
E4
  8
0
  6
CONTINUOUS
 62
     7
 10
2.6192520359
 20
-0.1467428665
 30
0.0
 40
0.0218110236220683
 50
269.9999999999
 51
0.0
  0
ARC
  5
E5
  8
0
  6
CONTINUOUS
 62
     7
 10
-1.0342519012
 20
-2.3632427585
 30
0.0
 40
0.0312500000000002
 50
180.0
 51
300.6795655493
  0
LINE
  5
E6
  8
0
  6
CONTINUOUS
 62
     7
 10
-1.0655019012
 20
-2.3632427585
 30
0.0
 11
-1.0655019012
 21
-2.3477823039
 31
0.0
  0
ARC
  5
E7
  8
0
  6
CONTINUOUS
 62
     7
 10
-1.0342519012
 20
-2.3477823039
 30
0.0
 40
0.03125
 50
59.3204344507
 51
180.0
  0
LINE
  5
E8
  8
0
  6
CONTINUOUS
 62
     7
 10
-1.0183070193
 20
-2.320906232
 30
0.0
 11
-0.8573621374
 21
-2.320906232
 31
0.0
  0
ARC
  5
E9
  8
0
  6
CONTINUOUS
 62
     7
 10
-0.8414172555
 20
-2.3477823039
 30
0.0
 40
0.0312500000000001
 50
0.0
 51
120.6795655493
  0
LINE
  5
EA
  8
0
  6
CONTINUOUS
 62
     7
 10
-0.8101672555
 20
-2.3632427585
 30
0.0
 11
-0.8101672555
 21
-2.3477823039
 31
0.0
  0
ARC
  5
EB
  8
0
  6
CONTINUOUS
 62
     7
 10
-0.8414172555
 20
-2.3632427585
 30
0.0
 40
0.0312499999999998
 50
239.3204344507
 51
0.0
  0
LINE
  5
EC
  8
0
  6
CONTINUOUS
 62
     7
 10
-0.8573621374
 20
-2.3901188305
 30
0.0
 11
-0.8573621374
 21
-5.0421660746
 31
0.0
  0
ARC
  5
ED
  8
0
  6
CONTINUOUS
 62
     7
 10
-0.8414172555
 20
-5.0690421465
 30
0.0
 40
0.0312500000000006
 50
0.0
 51
120.6795655493
  0
LINE
  5
EE
  8
0
  6
CONTINUOUS
 62
     7
 10
-0.8101672555
 20
-5.0690421465
 30
0.0
 11
-0.8101672555
 21
-5.0845026011
 31
0.0
  0
ARC
  5
EF
  8
0
  6
CONTINUOUS
 62
     7
 10
-0.8414172555
 20
-5.0845026011
 30
0.0
 40
0.0312500000000004
 50
239.3204344507
 51
0.0
  0
LINE
  5
F0
  8
0
  6
CONTINUOUS
 62
     7
 10
-0.8573621374
 20
-5.111378673
 30
0.0
 11
-1.0183070193
 21
-5.111378673
 31
0.0
  0
ARC
  5
F1
  8
0
  6
CONTINUOUS
 62
     7
 10
-1.0342519012
 20
-5.0845026011
 30
0.0
 40
0.0312500000000007
 50
180.0
 51
300.6795655493
  0
LINE
  5
F2
  8
0
  6
CONTINUOUS
 62
     7
 10
-1.0655019012
 20
-5.0690421465
 30
0.0
 11
-1.0655019012
 21
-5.0845026011
 31
0.0
  0
ARC
  5
F3
  8
0
  6
CONTINUOUS
 62
     7
 10
-1.0342519012
 20
-5.0690421465
 30
0.0
 40
0.0312500000000003
 50
59.3204344507
 51
180.0
  0
LINE
  5
F4
  8
0
  6
CONTINUOUS
 62
     7
 10
0.8085138469
 20
-5.0690421465
 30
0.0
 11
0.8085138469
 21
-5.0845026011
 31
0.0
  0
ARC
  5
F5
  8
0
  6
CONTINUOUS
 62
     7
 10
0.8397638469
 20
-5.0690421465
 30
0.0
 40
0.0312500000000771
 50
59.3204344504
 51
180.0
  0
LINE
  5
F6
  8
0
  6
CONTINUOUS
 62
     7
 10
0.8557087288
 20
-2.3901188305
 30
0.0
 11
0.8557087288
 21
-5.0421660746
 31
0.0
  0
ARC
  5
F7
  8
0
  6
CONTINUOUS
 62
     7
 10
0.8397638469
 20
-2.3632427585
 30
0.0
 40
0.0312500000000784
 50
180.0
 51
300.6795655496
  0
LINE
  5
F8
  8
0
  6
CONTINUOUS
 62
     7
 10
0.8085138469
 20
-2.3632427585
 30
0.0
 11
0.8085138469
 21
-2.3477823039
 31
0.0
  0
ARC
  5
F9
  8
0
  6
CONTINUOUS
 62
     7
 10
0.8397638469
 20
-2.3477823039
 30
0.0
 40
0.0312500000000005
 50
59.3204344507
 51
180.0
  0
LINE
  5
FA
  8
0
  6
CONTINUOUS
 62
     7
 10
0.8557087288
 20
-2.320906232
 30
0.0
 11
1.0166536107
 21
-2.320906232
 31
0.0
  0
ARC
  5
FB
  8
0
  6
CONTINUOUS
 62
     7
 10
1.0325984925
 20
-2.3477823039
 30
0.0
 40
0.0312500000000001
 50
0.0
 51
120.6795655493
  0
LINE
  5
FC
  8
0
  6
CONTINUOUS
 62
     7
 10
1.0638484925
 20
-2.3632427585
 30
0.0
 11
1.0638484925
 21
-2.3477823039
 31
0.0
  0
ARC
  5
FD
  8
0
  6
CONTINUOUS
 62
     7
 10
1.0325984925
 20
-2.3632427585
 30
0.0
 40
0.03125
 50
239.3204344509
 51
0.0
  0
LINE
  5
FE
  8
0
  6
CONTINUOUS
 62
     7
 10
1.0166536107
 20
-2.3901188305
 30
0.0
 11
1.0166536107
 21
-5.0421660746
 31
0.0
  0
ARC
  5
FF
  8
0
  6
CONTINUOUS
 62
     7
 10
1.0325984925
 20
-5.0690421465
 30
0.0
 40
0.0312500000000007
 50
0.0
 51
120.6795655491
  0
LINE
  5
100
  8
0
  6
CONTINUOUS
 62
     7
 10
1.0638484925
 20
-5.0690421465
 30
0.0
 11
1.0638484925
 21
-5.0845026011
 31
0.0
  0
ARC
  5
101
  8
0
  6
CONTINUOUS
 62
     7
 10
1.0325984925
 20
-5.0845026011
 30
0.0
 40
0.0312500000000009
 50
239.3204344507
 51
0.0
  0
LINE
  5
102
  8
0
  6
CONTINUOUS
 62
     7
 10
1.0166536107
 20
-5.111378673
 30
0.0
 11
0.8557087288
 21
-5.111378673
 31
0.0
  0
DIMENSION
  5
103
  8
0
  6
CONTINUOUS
 62
     7
  2
*D1
 10
0.9642720028
 20
0.3751079551
 30
0.0
 11
0.9642720028
 21
0.2101760657
 31
0.0
 70
   160
  3
SLDDIMSTYLE0
 13
-0.0008267043
 23
0.0001079551
 33
0.0
 14
2.7482061352
 24
0.3751079551
 34
0.0
 50
90.0
  0
INSERT
  5
119
  8
0
  6
CONTINUOUS
 62
     7
  2
SW_CENTERMARKSYMBOL_0
 10
-0.7527952082
 20
0.0755996532
 30
0.0
  0
INSERT
  5
125
  8
0
  6
CONTINUOUS
 62
     7
  2
SW_CENTERMARKSYMBOL_1
 10
0.0346063666
 20
0.0755996532
 30
0.0
  0
INSERT
  5
131
  8
0
  6
CONTINUOUS
 62
     7
  2
SW_CENTERMARKSYMBOL_2
 10
-0.0638188303
 20
0.0755996532
 30
0.0
  0
INSERT
  5
13D
  8
0
  6
CONTINUOUS
 62
     7
  2
SW_CENTERMARKSYMBOL_3
 10
-0.1622440271
 20
0.0755996532
 30
0.0
  0
INSERT
  5
149
  8
0
  6
CONTINUOUS
 62
     7
  2
SW_CENTERMARKSYMBOL_4
 10
-0.260669224
 20
0.0755996532
 30
0.0
  0
INSERT
  5
155
  8
0
  6
CONTINUOUS
 62
     7
  2
SW_CENTERMARKSYMBOL_5
 10
-0.3590944208
 20
0.0755996532
 30
0.0
  0
INSERT
  5
161
  8
0
  6
CONTINUOUS
 62
     7
  2
SW_CENTERMARKSYMBOL_6
 10
-0.4575196177
 20
0.0755996532
 30
0.0
  0
INSERT
  5
16D
  8
0
  6
CONTINUOUS
 62
     7
  2
SW_CENTERMARKSYMBOL_7
 10
-0.5559448145
 20
0.0755996532
 30
0.0
  0
INSERT
  5
179
  8
0
  6
CONTINUOUS
 62
     7
  2
SW_CENTERMARKSYMBOL_8
 10
-0.6543700114
 20
0.0755996532
 30
0.0
  0
INSERT
  5
185
  8
0
  6
CONTINUOUS
 62
     7
  2
SW_CENTERMARKSYMBOL_9
 10
-0.1622440271
 20
-0.0228255437
 30
0.0
  0
INSERT
  5
191
  8
0
  6
CONTINUOUS
 62
     7
  2
SW_CENTERMARKSYMBOL_10
 10
-0.260669224
 20
-0.0228255437
 30
0.0
  0
INSERT
  5
19D
  8
0
  6
CONTINUOUS
 62
     7
  2
SW_CENTERMARKSYMBOL_11
 10
-0.3590944208
 20
-0.0228255437
 30
0.0
  0
INSERT
  5
1A9
  8
0
  6
CONTINUOUS
 62
     7
  2
SW_CENTERMARKSYMBOL_12
 10
-0.4575196177
 20
-0.0228255437
 30
0.0
  0
INSERT
  5
1B5
  8
0
  6
CONTINUOUS
 62
     7
  2
SW_CENTERMARKSYMBOL_13
 10
-0.5559448145
 20
-0.0228255437
 30
0.0
  0
INSERT
  5
1C1
  8
0
  6
CONTINUOUS
 62
     7
  2
SW_CENTERMARKSYMBOL_14
 10
-0.6543700114
 20
-0.0228255437
 30
0.0
  0
INSERT
  5
1CD
  8
0
  6
CONTINUOUS
 62
     7
  2
SW_CENTERMARKSYMBOL_15
 10
-0.7527952082
 20
-0.0228255437
 30
0.0
  0
INSERT
  5
1D9
  8
0
  6
CONTINUOUS
 62
     7
  2
SW_CENTERMARKSYMBOL_16
 10
0.1330315634
 20
0.0755996532
 30
0.0
  0
INSERT
  5
1E5
  8
0
  6
CONTINUOUS
 62
     7
  2
SW_CENTERMARKSYMBOL_17
 10
-0.3590944208
 20
-0.1212507405
 30
0.0
  0
INSERT
  5
1F1
  8
0
  6
CONTINUOUS
 62
     7
  2
SW_CENTERMARKSYMBOL_18
 10
-0.4575196177
 20
-0.1212507405
 30
0.0
  0
INSERT
  5
1FD
  8
0
  6
CONTINUOUS
 62
     7
  2
SW_CENTERMARKSYMBOL_19
 10
-0.5559448145
 20
-0.1212507405
 30
0.0
  0
INSERT
  5
209
  8
0
  6
CONTINUOUS
 62
     7
  2
SW_CENTERMARKSYMBOL_20
 10
-0.6543700114
 20
-0.1212507405
 30
0.0
  0
INSERT
  5
215
  8
0
  6
CONTINUOUS
 62
     7
  2
SW_CENTERMARKSYMBOL_21
 10
-0.7527952082
 20
-0.1212507405
 30
0.0
  0
INSERT
  5
221
  8
0
  6
CONTINUOUS
 62
     7
  2
SW_CENTERMARKSYMBOL_22
 10
0.1330315634
 20
-0.0228255437
 30
0.0
  0
INSERT
  5
22D
  8
0
  6
CONTINUOUS
 62
     7
  2
SW_CENTERMARKSYMBOL_23
 10
0.0346063666
 20
-0.0228255437
 30
0.0
  0
INSERT
  5
239
  8
0
  6
CONTINUOUS
 62
     7
  2
SW_CENTERMARKSYMBOL_24
 10
-0.0638188303
 20
-0.0228255437
 30
0.0
  0
INSERT
  5
245
  8
0
  6
CONTINUOUS
 62
     7
  2
SW_CENTERMARKSYMBOL_25
 10
-0.5559448145
 20
-0.2196759374
 30
0.0
  0
INSERT
  5
251
  8
0
  6
CONTINUOUS
 62
     7
  2
SW_CENTERMARKSYMBOL_26
 10
-0.6543700114
 20
-0.2196759374
 30
0.0
  0
INSERT
  5
25D
  8
0
  6
CONTINUOUS
 62
     7
  2
SW_CENTERMARKSYMBOL_27
 10
-0.7527952082
 20
-0.2196759374
 30
0.0
  0
INSERT
  5
269
  8
0
  6
CONTINUOUS
 62
     7
  2
SW_CENTERMARKSYMBOL_28
 10
0.1330315634
 20
-0.1212507405
 30
0.0
  0
INSERT
  5
275
  8
0
  6
CONTINUOUS
 62
     7
  2
SW_CENTERMARKSYMBOL_29
 10
0.0346063666
 20
-0.1212507405
 30
0.0
  0
INSERT
  5
281
  8
0
  6
CONTINUOUS
 62
     7
  2
SW_CENTERMARKSYMBOL_30
 10
-0.0638188303
 20
-0.1212507405
 30
0.0
  0
INSERT
  5
28D
  8
0
  6
CONTINUOUS
 62
     7
  2
SW_CENTERMARKSYMBOL_31
 10
-0.1622440271
 20
-0.1212507405
 30
0.0
  0
INSERT
  5
299
  8
0
  6
CONTINUOUS
 62
     7
  2
SW_CENTERMARKSYMBOL_32
 10
-0.260669224
 20
-0.1212507405
 30
0.0
  0
INSERT
  5
2A5
  8
0
  6
CONTINUOUS
 62
     7
  2
SW_CENTERMARKSYMBOL_33
 10
1.5109843193
 20
0.0755996532
 30
0.0
  0
INSERT
  5
2B1
  8
0
  6
CONTINUOUS
 62
     7
  2
SW_CENTERMARKSYMBOL_34
 10
1.4125591225
 20
0.0755996532
 30
0.0
  0
INSERT
  5
2BD
  8
0
  6
CONTINUOUS
 62
     7
  2
SW_CENTERMARKSYMBOL_35
 10
0.0346063666
 20
-0.2196759374
 30
0.0
  0
INSERT
  5
2C9
  8
0
  6
CONTINUOUS
 62
     7
  2
SW_CENTERMARKSYMBOL_36
 10
-0.0638188303
 20
-0.2196759374
 30
0.0
  0
INSERT
  5
2D5
  8
0
  6
CONTINUOUS
 62
     7
  2
SW_CENTERMARKSYMBOL_37
 10
-0.1622440271
 20
-0.2196759374
 30
0.0
  0
INSERT
  5
2E1
  8
0
  6
CONTINUOUS
 62
     7
  2
SW_CENTERMARKSYMBOL_38
 10
-0.260669224
 20
-0.2196759374
 30
0.0
  0
INSERT
  5
2ED
  8
0
  6
CONTINUOUS
 62
     7
  2
SW_CENTERMARKSYMBOL_39
 10
-0.3590944208
 20
-0.2196759374
 30
0.0
  0
INSERT
  5
2F9
  8
0
  6
CONTINUOUS
 62
     7
  2
SW_CENTERMARKSYMBOL_40
 10
-0.4575196177
 20
-0.2196759374
 30
0.0
  0
INSERT
  5
305
  8
0
  6
CONTINUOUS
 62
     7
  2
SW_CENTERMARKSYMBOL_41
 10
1.707834713
 20
-0.0228255437
 30
0.0
  0
INSERT
  5
311
  8
0
  6
CONTINUOUS
 62
     7
  2
SW_CENTERMARKSYMBOL_42
 10
1.6094095162
 20
-0.0228255437
 30
0.0
  0
INSERT
  5
31D
  8
0
  6
CONTINUOUS
 62
     7
  2
SW_CENTERMARKSYMBOL_43
 10
1.5109843193
 20
-0.0228255437
 30
0.0
  0
INSERT
  5
329
  8
0
  6
CONTINUOUS
 62
     7
  2
SW_CENTERMARKSYMBOL_44
 10
1.4125591225
 20
-0.0228255437
 30
0.0
  0
INSERT
  5
335
  8
0
  6
CONTINUOUS
 62
     7
  2
SW_CENTERMARKSYMBOL_45
 10
1.9046851067
 20
0.0755996532
 30
0.0
  0
INSERT
  5
341
  8
0
  6
CONTINUOUS
 62
     7
  2
SW_CENTERMARKSYMBOL_46
 10
1.8062599099
 20
0.0755996532
 30
0.0
  0
INSERT
  5
34D
  8
0
  6
CONTINUOUS
 62
     7
  2
SW_CENTERMARKSYMBOL_47
 10
1.707834713
 20
0.0755996532
 30
0.0
  0
INSERT
  5
359
  8
0
  6
CONTINUOUS
 62
     7
  2
SW_CENTERMARKSYMBOL_48
 10
1.6094095162
 20
0.0755996532
 30
0.0
  0
INSERT
  5
365
  8
0
  6
CONTINUOUS
 62
     7
  2
SW_CENTERMARKSYMBOL_49
 10
1.9046851067
 20
-0.1212507405
 30
0.0
  0
INSERT
  5
371
  8
0
  6
CONTINUOUS
 62
     7
  2
SW_CENTERMARKSYMBOL_50
 10
1.8062599099
 20
-0.1212507405
 30
0.0
  0
INSERT
  5
37D
  8
0
  6
CONTINUOUS
 62
     7
  2
SW_CENTERMARKSYMBOL_51
 10
1.707834713
 20
-0.1212507405
 30
0.0
  0
INSERT
  5
389
  8
0
  6
CONTINUOUS
 62
     7
  2
SW_CENTERMARKSYMBOL_52
 10
1.6094095162
 20
-0.1212507405
 30
0.0
  0
INSERT
  5
395
  8
0
  6
CONTINUOUS
 62
     7
  2
SW_CENTERMARKSYMBOL_53
 10
1.5109843193
 20
-0.1212507405
 30
0.0
  0
INSERT
  5
3A1
  8
0
  6
CONTINUOUS
 62
     7
  2
SW_CENTERMARKSYMBOL_54
 10
1.4125591225
 20
-0.1212507405
 30
0.0
  0
INSERT
  5
3AD
  8
0
  6
CONTINUOUS
 62
     7
  2
SW_CENTERMARKSYMBOL_55
 10
1.9046851067
 20
-0.0228255437
 30
0.0
  0
INSERT
  5
3B9
  8
0
  6
CONTINUOUS
 62
     7
  2
SW_CENTERMARKSYMBOL_56
 10
1.8062599099
 20
-0.0228255437
 30
0.0
  0
INSERT
  5
3C5
  8
0
  6
CONTINUOUS
 62
     7
  2
SW_CENTERMARKSYMBOL_57
 10
-1.5126377279
 20
0.0755996532
 30
0.0
  0
INSERT
  5
3D1
  8
0
  6
CONTINUOUS
 62
     7
  2
SW_CENTERMARKSYMBOL_58
 10
-1.4142125311
 20
0.0755996532
 30
0.0
  0
INSERT
  5
3DD
  8
0
  6
CONTINUOUS
 62
     7
  2
SW_CENTERMARKSYMBOL_59
 10
2.0424803823
 20
0.0755996532
 30
0.0
  0
INSERT
  5
3E9
  8
0
  6
CONTINUOUS
 62
     7
  2
SW_CENTERMARKSYMBOL_60
 10
1.8062599099
 20
-0.2196759374
 30
0.0
  0
INSERT
  5
3F5
  8
0
  6
CONTINUOUS
 62
     7
  2
SW_CENTERMARKSYMBOL_61
 10
1.707834713
 20
-0.2196759374
 30
0.0
  0
INSERT
  5
401
  8
0
  6
CONTINUOUS
 62
     7
  2
SW_CENTERMARKSYMBOL_62
 10
1.6094095162
 20
-0.2196759374
 30
0.0
  0
INSERT
  5
40D
  8
0
  6
CONTINUOUS
 62
     7
  2
SW_CENTERMARKSYMBOL_63
 10
1.5109843193
 20
-0.2196759374
 30
0.0
  0
INSERT
  5
419
  8
0
  6
CONTINUOUS
 62
     7
  2
SW_CENTERMARKSYMBOL_64
 10
1.4125591225
 20
-0.2196759374
 30
0.0
  0
INSERT
  5
425
  8
0
  6
CONTINUOUS
 62
     7
  2
SW_CENTERMARKSYMBOL_65
 10
-1.7094881216
 20
-0.0228255437
 30
0.0
  0
INSERT
  5
431
  8
0
  6
CONTINUOUS
 62
     7
  2
SW_CENTERMARKSYMBOL_66
 10
-1.6110629248
 20
-0.0228255437
 30
0.0
  0
INSERT
  5
43D
  8
0
  6
CONTINUOUS
 62
     7
  2
SW_CENTERMARKSYMBOL_67
 10
-1.5126377279
 20
-0.0228255437
 30
0.0
  0
INSERT
  5
449
  8
0
  6
CONTINUOUS
 62
     7
  2
SW_CENTERMARKSYMBOL_68
 10
-1.4142125311
 20
-0.0228255437
 30
0.0
  0
INSERT
  5
455
  8
0
  6
CONTINUOUS
 62
     7
  2
SW_CENTERMARKSYMBOL_69
 10
-1.9063385153
 20
0.0755996532
 30
0.0
  0
INSERT
  5
461
  8
0
  6
CONTINUOUS
 62
     7
  2
SW_CENTERMARKSYMBOL_70
 10
-1.8079133185
 20
0.0755996532
 30
0.0
  0
INSERT
  5
46D
  8
0
  6
CONTINUOUS
 62
     7
  2
SW_CENTERMARKSYMBOL_71
 10
-1.7094881216
 20
0.0755996532
 30
0.0
  0
INSERT
  5
479
  8
0
  6
CONTINUOUS
 62
     7
  2
SW_CENTERMARKSYMBOL_72
 10
-1.6110629248
 20
0.0755996532
 30
0.0
  0
INSERT
  5
485
  8
0
  6
CONTINUOUS
 62
     7
  2
SW_CENTERMARKSYMBOL_73
 10
-1.9063385153
 20
-0.1212507405
 30
0.0
  0
INSERT
  5
491
  8
0
  6
CONTINUOUS
 62
     7
  2
SW_CENTERMARKSYMBOL_74
 10
-1.8079133185
 20
-0.1212507405
 30
0.0
  0
INSERT
  5
49D
  8
0
  6
CONTINUOUS
 62
     7
  2
SW_CENTERMARKSYMBOL_75
 10
-1.7094881216
 20
-0.1212507405
 30
0.0
  0
INSERT
  5
4A9
  8
0
  6
CONTINUOUS
 62
     7
  2
SW_CENTERMARKSYMBOL_76
 10
-1.6110629248
 20
-0.1212507405
 30
0.0
  0
INSERT
  5
4B5
  8
0
  6
CONTINUOUS
 62
     7
  2
SW_CENTERMARKSYMBOL_77
 10
-1.5126377279
 20
-0.1212507405
 30
0.0
  0
INSERT
  5
4C1
  8
0
  6
CONTINUOUS
 62
     7
  2
SW_CENTERMARKSYMBOL_78
 10
-1.4142125311
 20
-0.1212507405
 30
0.0
  0
INSERT
  5
4CD
  8
0
  6
CONTINUOUS
 62
     7
  2
SW_CENTERMARKSYMBOL_79
 10
-1.9063385153
 20
-0.0228255437
 30
0.0
  0
INSERT
  5
4D9
  8
0
  6
CONTINUOUS
 62
     7
  2
SW_CENTERMARKSYMBOL_80
 10
-1.8079133185
 20
-0.0228255437
 30
0.0
  0
INSERT
  5
4E5
  8
0
  6
CONTINUOUS
 62
     7
  2
SW_CENTERMARKSYMBOL_81
 10
2.1881496737
 20
0.0755996532
 30
0.0
  0
INSERT
  5
4F1
  8
0
  6
CONTINUOUS
 62
     7
  2
SW_CENTERMARKSYMBOL_82
 10
1.9046851067
 20
-0.2196759374
 30
0.0
  0
INSERT
  5
4FD
  8
0
  6
CONTINUOUS
 62
     7
  2
SW_CENTERMARKSYMBOL_83
 10
0.270826839
 20
0.0755996532
 30
0.0
  0
INSERT
  5
509
  8
0
  6
CONTINUOUS
 62
     7
  2
SW_CENTERMARKSYMBOL_84
 10
-1.8079133185
 20
-0.2196759374
 30
0.0
  0
INSERT
  5
515
  8
0
  6
CONTINUOUS
 62
     7
  2
SW_CENTERMARKSYMBOL_85
 10
-1.7094881216
 20
-0.2196759374
 30
0.0
  0
INSERT
  5
521
  8
0
  6
CONTINUOUS
 62
     7
  2
SW_CENTERMARKSYMBOL_86
 10
-1.6110629248
 20
-0.2196759374
 30
0.0
  0
INSERT
  5
52D
  8
0
  6
CONTINUOUS
 62
     7
  2
SW_CENTERMARKSYMBOL_87
 10
-1.5126377279
 20
-0.2196759374
 30
0.0
  0
INSERT
  5
539
  8
0
  6
CONTINUOUS
 62
     7
  2
SW_CENTERMARKSYMBOL_88
 10
-1.4142125311
 20
-0.2196759374
 30
0.0
  0
INSERT
  5
545
  8
0
  6
CONTINUOUS
 62
     7
  2
SW_CENTERMARKSYMBOL_89
 10
-2.0441337909
 20
-0.0228255437
 30
0.0
  0
INSERT
  5
551
  8
0
  6
CONTINUOUS
 62
     7
  2
SW_CENTERMARKSYMBOL_90
 10
-2.1898030823
 20
0.0755996532
 30
0.0
  0
INSERT
  5
55D
  8
0
  6
CONTINUOUS
 62
     7
  2
SW_CENTERMARKSYMBOL_91
 10
-2.0441337909
 20
0.0755996532
 30
0.0
  0
INSERT
  5
569
  8
0
  6
CONTINUOUS
 62
     7
  2
SW_CENTERMARKSYMBOL_92
 10
0.4164961303
 20
-0.0228255437
 30
0.0
  0
INSERT
  5
575
  8
0
  6
CONTINUOUS
 62
     7
  2
SW_CENTERMARKSYMBOL_93
 10
2.1881496737
 20
-0.0228255437
 30
0.0
  0
INSERT
  5
581
  8
0
  6
CONTINUOUS
 62
     7
  2
SW_CENTERMARKSYMBOL_94
 10
0.270826839
 20
-0.0228255437
 30
0.0
  0
INSERT
  5
58D
  8
0
  6
CONTINUOUS
 62
     7
  2
SW_CENTERMARKSYMBOL_95
 10
2.0424803823
 20
-0.0228255437
 30
0.0
  0
INSERT
  5
599
  8
0
  6
CONTINUOUS
 62
     7
  2
SW_CENTERMARKSYMBOL_96
 10
0.4164961303
 20
0.0755996532
 30
0.0
  0
INSERT
  5
5A5
  8
0
  6
CONTINUOUS
 62
     7
  2
SW_CENTERMARKSYMBOL_97
 10
0.4164961303
 20
-0.1212507405
 30
0.0
  0
INSERT
  5
5B1
  8
0
  6
CONTINUOUS
 62
     7
  2
SW_CENTERMARKSYMBOL_98
 10
2.1881496737
 20
-0.1212507405
 30
0.0
  0
INSERT
  5
5BD
  8
0
  6
CONTINUOUS
 62
     7
  2
SW_CENTERMARKSYMBOL_99
 10
0.270826839
 20
-0.1212507405
 30
0.0
  0
INSERT
  5
5C9
  8
0
  6
CONTINUOUS
 62
     7
  2
SW_CENTERMARKSYMBOL_100
 10
2.0424803823
 20
-0.1212507405
 30
0.0
  0
INSERT
  5
5D5
  8
0
  6
CONTINUOUS
 62
     7
  2
SW_CENTERMARKSYMBOL_101
 10
-2.0441337909
 20
-0.2196759374
 30
0.0
  0
INSERT
  5
5E1
  8
0
  6
CONTINUOUS
 62
     7
  2
SW_CENTERMARKSYMBOL_102
 10
-2.1898030823
 20
-0.1212507405
 30
0.0
  0
INSERT
  5
5ED
  8
0
  6
CONTINUOUS
 62
     7
  2
SW_CENTERMARKSYMBOL_103
 10
-2.0441337909
 20
-0.1212507405
 30
0.0
  0
INSERT
  5
5F9
  8
0
  6
CONTINUOUS
 62
     7
  2
SW_CENTERMARKSYMBOL_104
 10
-2.1898030823
 20
-0.0228255437
 30
0.0
  0
INSERT
  5
605
  8
0
  6
CONTINUOUS
 62
     7
  2
SW_CENTERMARKSYMBOL_105
 10
-1.9063385153
 20
-0.2196759374
 30
0.0
  0
INSERT
  5
611
  8
0
  6
CONTINUOUS
 62
     7
  2
SW_CENTERMARKSYMBOL_106
 10
-2.1898030823
 20
-0.2196759374
 30
0.0
  0
INSERT
  5
61D
  8
0
  6
CONTINUOUS
 62
     7
  2
SW_CENTERMARKSYMBOL_107
 10
0.4164961303
 20
-0.2196759374
 30
0.0
  0
INSERT
  5
629
  8
0
  6
CONTINUOUS
 62
     7
  2
SW_CENTERMARKSYMBOL_108
 10
2.1881496737
 20
-0.2196759374
 30
0.0
  0
INSERT
  5
635
  8
0
  6
CONTINUOUS
 62
     7
  2
SW_CENTERMARKSYMBOL_109
 10
0.270826839
 20
-0.2196759374
 30
0.0
  0
INSERT
  5
641
  8
0
  6
CONTINUOUS
 62
     7
  2
SW_CENTERMARKSYMBOL_110
 10
0.1330315634
 20
-0.2196759374
 30
0.0
  0
INSERT
  5
64D
  8
0
  6
CONTINUOUS
 62
     7
  2
SW_CENTERMARKSYMBOL_111
 10
2.0424803823
 20
-0.2196759374
 30
0.0
  0
INSERT
  5
659
  8
0
  6
CONTINUOUS
 62
     7
  2
SW_CENTERMARKSYMBOL_112
 10
-2.4437400901
 20
-0.2589475909
 30
0.0
  0
INSERT
  5
665
  8
0
  6
CONTINUOUS
 62
     7
  2
SW_CENTERMARKSYMBOL_113
 10
2.4420866815
 20
-0.2589475909
 30
0.0
  0
ENDSEC
  0
EOF
